M48
; DRILL file {KiCad 8.0.7} date 2025-01-27T18:51:03+0100
; FORMAT={-:-/ absolute / metric / decimal}
; #@! TF.CreationDate,2025-01-27T18:51:03+01:00
; #@! TF.GenerationSoftware,Kicad,Pcbnew,8.0.7
; #@! TF.FileFunction,Plated,1,2,PTH
FMAT,2
METRIC
; #@! TA.AperFunction,Plated,PTH,ComponentDrill
T1C1.000
%
G90
G05
T1
X0.0Y17.78
X0.0Y0.0
X1.912Y9.583
X2.244Y6.851
X2.54Y17.78
X2.54Y0.0
X2.888Y12.156
X3.807Y4.586
X4.948Y13.981
X5.08Y17.78
X5.08Y0.0
X6.244Y3.307
X7.62Y17.78
X7.62Y14.64
X7.62Y0.0
X8.996Y3.307
X10.16Y17.78
X10.16Y0.0
X10.292Y13.981
X11.433Y4.586
X12.352Y12.156
X12.7Y17.78
X12.7Y0.0
X12.996Y6.851
X13.328Y9.583
X15.24Y17.78
X15.24Y0.0
M30
