%TF.GenerationSoftware,KiCad,Pcbnew,8.0.7*%
%TF.CreationDate,2025-01-27T18:51:05+01:00*%
%TF.ProjectId,Socket,536f636b-6574-42e6-9b69-6361645f7063,rev?*%
%TF.SameCoordinates,Original*%
%TF.FileFunction,Drillmap*%
%TF.FilePolarity,Positive*%
%FSLAX45Y45*%
G04 Gerber Fmt 4.5, Leading zero omitted, Abs format (unit mm)*
G04 Created by KiCad (PCBNEW 8.0.7) date 2025-01-27 18:51:05*
%MOMM*%
%LPD*%
G01*
G04 APERTURE LIST*
%ADD10C,0.050000*%
%ADD11C,0.200000*%
%ADD12C,0.800000*%
G04 APERTURE END LIST*
D10*
X-254000Y2032000D02*
X1778000Y2032000D01*
X1778000Y-254000D01*
X-254000Y-254000D01*
X-254000Y2032000D01*
D11*
D12*
X362000Y1289000D02*
X1162000Y489000D01*
X1162000Y1289000D02*
X362000Y489000D01*
D11*
X4277Y-567984D02*
X4277Y-367984D01*
X4277Y-367984D02*
X51896Y-367984D01*
X51896Y-367984D02*
X80467Y-377508D01*
X80467Y-377508D02*
X99515Y-396555D01*
X99515Y-396555D02*
X109039Y-415603D01*
X109039Y-415603D02*
X118562Y-453698D01*
X118562Y-453698D02*
X118562Y-482269D01*
X118562Y-482269D02*
X109039Y-520365D01*
X109039Y-520365D02*
X99515Y-539412D01*
X99515Y-539412D02*
X80467Y-558460D01*
X80467Y-558460D02*
X51896Y-567984D01*
X51896Y-567984D02*
X4277Y-567984D01*
X204277Y-567984D02*
X204277Y-434650D01*
X204277Y-472746D02*
X213801Y-453698D01*
X213801Y-453698D02*
X223324Y-444174D01*
X223324Y-444174D02*
X242372Y-434650D01*
X242372Y-434650D02*
X261420Y-434650D01*
X328086Y-567984D02*
X328086Y-434650D01*
X328086Y-367984D02*
X318563Y-377508D01*
X318563Y-377508D02*
X328086Y-387031D01*
X328086Y-387031D02*
X337610Y-377508D01*
X337610Y-377508D02*
X328086Y-367984D01*
X328086Y-367984D02*
X328086Y-387031D01*
X451896Y-567984D02*
X432848Y-558460D01*
X432848Y-558460D02*
X423324Y-539412D01*
X423324Y-539412D02*
X423324Y-367984D01*
X556658Y-567984D02*
X537610Y-558460D01*
X537610Y-558460D02*
X528086Y-539412D01*
X528086Y-539412D02*
X528086Y-367984D01*
X785229Y-567984D02*
X785229Y-367984D01*
X785229Y-367984D02*
X851896Y-510841D01*
X851896Y-510841D02*
X918562Y-367984D01*
X918562Y-367984D02*
X918562Y-567984D01*
X1099515Y-567984D02*
X1099515Y-463222D01*
X1099515Y-463222D02*
X1089991Y-444174D01*
X1089991Y-444174D02*
X1070944Y-434650D01*
X1070944Y-434650D02*
X1032848Y-434650D01*
X1032848Y-434650D02*
X1013801Y-444174D01*
X1099515Y-558460D02*
X1080467Y-567984D01*
X1080467Y-567984D02*
X1032848Y-567984D01*
X1032848Y-567984D02*
X1013801Y-558460D01*
X1013801Y-558460D02*
X1004277Y-539412D01*
X1004277Y-539412D02*
X1004277Y-520365D01*
X1004277Y-520365D02*
X1013801Y-501317D01*
X1013801Y-501317D02*
X1032848Y-491793D01*
X1032848Y-491793D02*
X1080467Y-491793D01*
X1080467Y-491793D02*
X1099515Y-482269D01*
X1194753Y-434650D02*
X1194753Y-634650D01*
X1194753Y-444174D02*
X1213801Y-434650D01*
X1213801Y-434650D02*
X1251896Y-434650D01*
X1251896Y-434650D02*
X1270944Y-444174D01*
X1270944Y-444174D02*
X1280467Y-453698D01*
X1280467Y-453698D02*
X1289991Y-472746D01*
X1289991Y-472746D02*
X1289991Y-529889D01*
X1289991Y-529889D02*
X1280467Y-548936D01*
X1280467Y-548936D02*
X1270944Y-558460D01*
X1270944Y-558460D02*
X1251896Y-567984D01*
X1251896Y-567984D02*
X1213801Y-567984D01*
X1213801Y-567984D02*
X1194753Y-558460D01*
X1375705Y-548936D02*
X1385229Y-558460D01*
X1385229Y-558460D02*
X1375705Y-567984D01*
X1375705Y-567984D02*
X1366182Y-558460D01*
X1366182Y-558460D02*
X1375705Y-548936D01*
X1375705Y-548936D02*
X1375705Y-567984D01*
X1375705Y-444174D02*
X1385229Y-453698D01*
X1385229Y-453698D02*
X1375705Y-463222D01*
X1375705Y-463222D02*
X1366182Y-453698D01*
X1366182Y-453698D02*
X1375705Y-444174D01*
X1375705Y-444174D02*
X1375705Y-463222D01*
X-456500Y-796500D02*
X-256500Y-996500D01*
X-256500Y-796500D02*
X-456500Y-996500D01*
X32848Y-873698D02*
X13801Y-864174D01*
X13801Y-864174D02*
X4277Y-854650D01*
X4277Y-854650D02*
X-5247Y-835603D01*
X-5247Y-835603D02*
X-5247Y-826079D01*
X-5247Y-826079D02*
X4277Y-807031D01*
X4277Y-807031D02*
X13801Y-797508D01*
X13801Y-797508D02*
X32848Y-787984D01*
X32848Y-787984D02*
X70944Y-787984D01*
X70944Y-787984D02*
X89991Y-797508D01*
X89991Y-797508D02*
X99515Y-807031D01*
X99515Y-807031D02*
X109039Y-826079D01*
X109039Y-826079D02*
X109039Y-835603D01*
X109039Y-835603D02*
X99515Y-854650D01*
X99515Y-854650D02*
X89991Y-864174D01*
X89991Y-864174D02*
X70944Y-873698D01*
X70944Y-873698D02*
X32848Y-873698D01*
X32848Y-873698D02*
X13801Y-883222D01*
X13801Y-883222D02*
X4277Y-892746D01*
X4277Y-892746D02*
X-5247Y-911793D01*
X-5247Y-911793D02*
X-5247Y-949888D01*
X-5247Y-949888D02*
X4277Y-968936D01*
X4277Y-968936D02*
X13801Y-978460D01*
X13801Y-978460D02*
X32848Y-987984D01*
X32848Y-987984D02*
X70944Y-987984D01*
X70944Y-987984D02*
X89991Y-978460D01*
X89991Y-978460D02*
X99515Y-968936D01*
X99515Y-968936D02*
X109039Y-949888D01*
X109039Y-949888D02*
X109039Y-911793D01*
X109039Y-911793D02*
X99515Y-892746D01*
X99515Y-892746D02*
X89991Y-883222D01*
X89991Y-883222D02*
X70944Y-873698D01*
X194753Y-968936D02*
X204277Y-978460D01*
X204277Y-978460D02*
X194753Y-987984D01*
X194753Y-987984D02*
X185229Y-978460D01*
X185229Y-978460D02*
X194753Y-968936D01*
X194753Y-968936D02*
X194753Y-987984D01*
X328086Y-787984D02*
X347134Y-787984D01*
X347134Y-787984D02*
X366182Y-797508D01*
X366182Y-797508D02*
X375705Y-807031D01*
X375705Y-807031D02*
X385229Y-826079D01*
X385229Y-826079D02*
X394753Y-864174D01*
X394753Y-864174D02*
X394753Y-911793D01*
X394753Y-911793D02*
X385229Y-949888D01*
X385229Y-949888D02*
X375705Y-968936D01*
X375705Y-968936D02*
X366182Y-978460D01*
X366182Y-978460D02*
X347134Y-987984D01*
X347134Y-987984D02*
X328086Y-987984D01*
X328086Y-987984D02*
X309039Y-978460D01*
X309039Y-978460D02*
X299515Y-968936D01*
X299515Y-968936D02*
X289991Y-949888D01*
X289991Y-949888D02*
X280467Y-911793D01*
X280467Y-911793D02*
X280467Y-864174D01*
X280467Y-864174D02*
X289991Y-826079D01*
X289991Y-826079D02*
X299515Y-807031D01*
X299515Y-807031D02*
X309039Y-797508D01*
X309039Y-797508D02*
X328086Y-787984D01*
X518562Y-787984D02*
X537610Y-787984D01*
X537610Y-787984D02*
X556658Y-797508D01*
X556658Y-797508D02*
X566182Y-807031D01*
X566182Y-807031D02*
X575705Y-826079D01*
X575705Y-826079D02*
X585229Y-864174D01*
X585229Y-864174D02*
X585229Y-911793D01*
X585229Y-911793D02*
X575705Y-949888D01*
X575705Y-949888D02*
X566182Y-968936D01*
X566182Y-968936D02*
X556658Y-978460D01*
X556658Y-978460D02*
X537610Y-987984D01*
X537610Y-987984D02*
X518562Y-987984D01*
X518562Y-987984D02*
X499515Y-978460D01*
X499515Y-978460D02*
X489991Y-968936D01*
X489991Y-968936D02*
X480467Y-949888D01*
X480467Y-949888D02*
X470943Y-911793D01*
X470943Y-911793D02*
X470943Y-864174D01*
X470943Y-864174D02*
X480467Y-826079D01*
X480467Y-826079D02*
X489991Y-807031D01*
X489991Y-807031D02*
X499515Y-797508D01*
X499515Y-797508D02*
X518562Y-787984D01*
X709039Y-787984D02*
X728086Y-787984D01*
X728086Y-787984D02*
X747134Y-797508D01*
X747134Y-797508D02*
X756658Y-807031D01*
X756658Y-807031D02*
X766182Y-826079D01*
X766182Y-826079D02*
X775705Y-864174D01*
X775705Y-864174D02*
X775705Y-911793D01*
X775705Y-911793D02*
X766182Y-949888D01*
X766182Y-949888D02*
X756658Y-968936D01*
X756658Y-968936D02*
X747134Y-978460D01*
X747134Y-978460D02*
X728086Y-987984D01*
X728086Y-987984D02*
X709039Y-987984D01*
X709039Y-987984D02*
X689991Y-978460D01*
X689991Y-978460D02*
X680467Y-968936D01*
X680467Y-968936D02*
X670944Y-949888D01*
X670944Y-949888D02*
X661420Y-911793D01*
X661420Y-911793D02*
X661420Y-864174D01*
X661420Y-864174D02*
X670944Y-826079D01*
X670944Y-826079D02*
X680467Y-807031D01*
X680467Y-807031D02*
X689991Y-797508D01*
X689991Y-797508D02*
X709039Y-787984D01*
X861420Y-987984D02*
X861420Y-854650D01*
X861420Y-873698D02*
X870943Y-864174D01*
X870943Y-864174D02*
X889991Y-854650D01*
X889991Y-854650D02*
X918563Y-854650D01*
X918563Y-854650D02*
X937610Y-864174D01*
X937610Y-864174D02*
X947134Y-883222D01*
X947134Y-883222D02*
X947134Y-987984D01*
X947134Y-883222D02*
X956658Y-864174D01*
X956658Y-864174D02*
X975705Y-854650D01*
X975705Y-854650D02*
X1004277Y-854650D01*
X1004277Y-854650D02*
X1023324Y-864174D01*
X1023324Y-864174D02*
X1032848Y-883222D01*
X1032848Y-883222D02*
X1032848Y-987984D01*
X1128086Y-987984D02*
X1128086Y-854650D01*
X1128086Y-873698D02*
X1137610Y-864174D01*
X1137610Y-864174D02*
X1156658Y-854650D01*
X1156658Y-854650D02*
X1185229Y-854650D01*
X1185229Y-854650D02*
X1204277Y-864174D01*
X1204277Y-864174D02*
X1213801Y-883222D01*
X1213801Y-883222D02*
X1213801Y-987984D01*
X1213801Y-883222D02*
X1223325Y-864174D01*
X1223325Y-864174D02*
X1242372Y-854650D01*
X1242372Y-854650D02*
X1270944Y-854650D01*
X1270944Y-854650D02*
X1289991Y-864174D01*
X1289991Y-864174D02*
X1299515Y-883222D01*
X1299515Y-883222D02*
X1299515Y-987984D01*
X1689991Y-778460D02*
X1518563Y-1035603D01*
X1947134Y-787984D02*
X1966182Y-787984D01*
X1966182Y-787984D02*
X1985229Y-797508D01*
X1985229Y-797508D02*
X1994753Y-807031D01*
X1994753Y-807031D02*
X2004277Y-826079D01*
X2004277Y-826079D02*
X2013801Y-864174D01*
X2013801Y-864174D02*
X2013801Y-911793D01*
X2013801Y-911793D02*
X2004277Y-949888D01*
X2004277Y-949888D02*
X1994753Y-968936D01*
X1994753Y-968936D02*
X1985229Y-978460D01*
X1985229Y-978460D02*
X1966182Y-987984D01*
X1966182Y-987984D02*
X1947134Y-987984D01*
X1947134Y-987984D02*
X1928086Y-978460D01*
X1928086Y-978460D02*
X1918563Y-968936D01*
X1918563Y-968936D02*
X1909039Y-949888D01*
X1909039Y-949888D02*
X1899515Y-911793D01*
X1899515Y-911793D02*
X1899515Y-864174D01*
X1899515Y-864174D02*
X1909039Y-826079D01*
X1909039Y-826079D02*
X1918563Y-807031D01*
X1918563Y-807031D02*
X1928086Y-797508D01*
X1928086Y-797508D02*
X1947134Y-787984D01*
X2099515Y-968936D02*
X2109039Y-978460D01*
X2109039Y-978460D02*
X2099515Y-987984D01*
X2099515Y-987984D02*
X2089991Y-978460D01*
X2089991Y-978460D02*
X2099515Y-968936D01*
X2099515Y-968936D02*
X2099515Y-987984D01*
X2175706Y-787984D02*
X2299515Y-787984D01*
X2299515Y-787984D02*
X2232848Y-864174D01*
X2232848Y-864174D02*
X2261420Y-864174D01*
X2261420Y-864174D02*
X2280468Y-873698D01*
X2280468Y-873698D02*
X2289991Y-883222D01*
X2289991Y-883222D02*
X2299515Y-902269D01*
X2299515Y-902269D02*
X2299515Y-949888D01*
X2299515Y-949888D02*
X2289991Y-968936D01*
X2289991Y-968936D02*
X2280468Y-978460D01*
X2280468Y-978460D02*
X2261420Y-987984D01*
X2261420Y-987984D02*
X2204277Y-987984D01*
X2204277Y-987984D02*
X2185229Y-978460D01*
X2185229Y-978460D02*
X2175706Y-968936D01*
X2489991Y-987984D02*
X2375706Y-987984D01*
X2432848Y-987984D02*
X2432848Y-787984D01*
X2432848Y-787984D02*
X2413801Y-816555D01*
X2413801Y-816555D02*
X2394753Y-835603D01*
X2394753Y-835603D02*
X2375706Y-845127D01*
X2670944Y-787984D02*
X2575706Y-787984D01*
X2575706Y-787984D02*
X2566182Y-883222D01*
X2566182Y-883222D02*
X2575706Y-873698D01*
X2575706Y-873698D02*
X2594753Y-864174D01*
X2594753Y-864174D02*
X2642372Y-864174D01*
X2642372Y-864174D02*
X2661420Y-873698D01*
X2661420Y-873698D02*
X2670944Y-883222D01*
X2670944Y-883222D02*
X2680468Y-902269D01*
X2680468Y-902269D02*
X2680468Y-949888D01*
X2680468Y-949888D02*
X2670944Y-968936D01*
X2670944Y-968936D02*
X2661420Y-978460D01*
X2661420Y-978460D02*
X2642372Y-987984D01*
X2642372Y-987984D02*
X2594753Y-987984D01*
X2594753Y-987984D02*
X2575706Y-978460D01*
X2575706Y-978460D02*
X2566182Y-968936D01*
X2804277Y-787984D02*
X2823325Y-787984D01*
X2823325Y-787984D02*
X2842372Y-797508D01*
X2842372Y-797508D02*
X2851896Y-807031D01*
X2851896Y-807031D02*
X2861420Y-826079D01*
X2861420Y-826079D02*
X2870944Y-864174D01*
X2870944Y-864174D02*
X2870944Y-911793D01*
X2870944Y-911793D02*
X2861420Y-949888D01*
X2861420Y-949888D02*
X2851896Y-968936D01*
X2851896Y-968936D02*
X2842372Y-978460D01*
X2842372Y-978460D02*
X2823325Y-987984D01*
X2823325Y-987984D02*
X2804277Y-987984D01*
X2804277Y-987984D02*
X2785229Y-978460D01*
X2785229Y-978460D02*
X2775706Y-968936D01*
X2775706Y-968936D02*
X2766182Y-949888D01*
X2766182Y-949888D02*
X2756658Y-911793D01*
X2756658Y-911793D02*
X2756658Y-864174D01*
X2756658Y-864174D02*
X2766182Y-826079D01*
X2766182Y-826079D02*
X2775706Y-807031D01*
X2775706Y-807031D02*
X2785229Y-797508D01*
X2785229Y-797508D02*
X2804277Y-787984D01*
X2947134Y-787984D02*
X2947134Y-826079D01*
X3023325Y-787984D02*
X3023325Y-826079D01*
X3318563Y-1064174D02*
X3309039Y-1054650D01*
X3309039Y-1054650D02*
X3289991Y-1026079D01*
X3289991Y-1026079D02*
X3280468Y-1007031D01*
X3280468Y-1007031D02*
X3270944Y-978460D01*
X3270944Y-978460D02*
X3261420Y-930841D01*
X3261420Y-930841D02*
X3261420Y-892746D01*
X3261420Y-892746D02*
X3270944Y-845127D01*
X3270944Y-845127D02*
X3280468Y-816555D01*
X3280468Y-816555D02*
X3289991Y-797508D01*
X3289991Y-797508D02*
X3309039Y-768936D01*
X3309039Y-768936D02*
X3318563Y-759412D01*
X3499515Y-987984D02*
X3385229Y-987984D01*
X3442372Y-987984D02*
X3442372Y-787984D01*
X3442372Y-787984D02*
X3423325Y-816555D01*
X3423325Y-816555D02*
X3404277Y-835603D01*
X3404277Y-835603D02*
X3385229Y-845127D01*
X3737610Y-987984D02*
X3737610Y-787984D01*
X3823325Y-987984D02*
X3823325Y-883222D01*
X3823325Y-883222D02*
X3813801Y-864174D01*
X3813801Y-864174D02*
X3794753Y-854650D01*
X3794753Y-854650D02*
X3766182Y-854650D01*
X3766182Y-854650D02*
X3747134Y-864174D01*
X3747134Y-864174D02*
X3737610Y-873698D01*
X3947134Y-987984D02*
X3928087Y-978460D01*
X3928087Y-978460D02*
X3918563Y-968936D01*
X3918563Y-968936D02*
X3909039Y-949888D01*
X3909039Y-949888D02*
X3909039Y-892746D01*
X3909039Y-892746D02*
X3918563Y-873698D01*
X3918563Y-873698D02*
X3928087Y-864174D01*
X3928087Y-864174D02*
X3947134Y-854650D01*
X3947134Y-854650D02*
X3975706Y-854650D01*
X3975706Y-854650D02*
X3994753Y-864174D01*
X3994753Y-864174D02*
X4004277Y-873698D01*
X4004277Y-873698D02*
X4013801Y-892746D01*
X4013801Y-892746D02*
X4013801Y-949888D01*
X4013801Y-949888D02*
X4004277Y-968936D01*
X4004277Y-968936D02*
X3994753Y-978460D01*
X3994753Y-978460D02*
X3975706Y-987984D01*
X3975706Y-987984D02*
X3947134Y-987984D01*
X4128087Y-987984D02*
X4109039Y-978460D01*
X4109039Y-978460D02*
X4099515Y-959412D01*
X4099515Y-959412D02*
X4099515Y-787984D01*
X4280468Y-978460D02*
X4261420Y-987984D01*
X4261420Y-987984D02*
X4223325Y-987984D01*
X4223325Y-987984D02*
X4204277Y-978460D01*
X4204277Y-978460D02*
X4194753Y-959412D01*
X4194753Y-959412D02*
X4194753Y-883222D01*
X4194753Y-883222D02*
X4204277Y-864174D01*
X4204277Y-864174D02*
X4223325Y-854650D01*
X4223325Y-854650D02*
X4261420Y-854650D01*
X4261420Y-854650D02*
X4280468Y-864174D01*
X4280468Y-864174D02*
X4289992Y-883222D01*
X4289992Y-883222D02*
X4289992Y-902269D01*
X4289992Y-902269D02*
X4194753Y-921317D01*
X4356658Y-1064174D02*
X4366182Y-1054650D01*
X4366182Y-1054650D02*
X4385230Y-1026079D01*
X4385230Y-1026079D02*
X4394753Y-1007031D01*
X4394753Y-1007031D02*
X4404277Y-978460D01*
X4404277Y-978460D02*
X4413801Y-930841D01*
X4413801Y-930841D02*
X4413801Y-892746D01*
X4413801Y-892746D02*
X4404277Y-845127D01*
X4404277Y-845127D02*
X4394753Y-816555D01*
X4394753Y-816555D02*
X4385230Y-797508D01*
X4385230Y-797508D02*
X4366182Y-768936D01*
X4366182Y-768936D02*
X4356658Y-759412D01*
X4718563Y-1064174D02*
X4709039Y-1054650D01*
X4709039Y-1054650D02*
X4689992Y-1026079D01*
X4689992Y-1026079D02*
X4680468Y-1007031D01*
X4680468Y-1007031D02*
X4670944Y-978460D01*
X4670944Y-978460D02*
X4661420Y-930841D01*
X4661420Y-930841D02*
X4661420Y-892746D01*
X4661420Y-892746D02*
X4670944Y-845127D01*
X4670944Y-845127D02*
X4680468Y-816555D01*
X4680468Y-816555D02*
X4689992Y-797508D01*
X4689992Y-797508D02*
X4709039Y-768936D01*
X4709039Y-768936D02*
X4718563Y-759412D01*
X4794753Y-854650D02*
X4794753Y-987984D01*
X4794753Y-873698D02*
X4804277Y-864174D01*
X4804277Y-864174D02*
X4823325Y-854650D01*
X4823325Y-854650D02*
X4851896Y-854650D01*
X4851896Y-854650D02*
X4870944Y-864174D01*
X4870944Y-864174D02*
X4880468Y-883222D01*
X4880468Y-883222D02*
X4880468Y-987984D01*
X5004277Y-987984D02*
X4985230Y-978460D01*
X4985230Y-978460D02*
X4975706Y-968936D01*
X4975706Y-968936D02*
X4966182Y-949888D01*
X4966182Y-949888D02*
X4966182Y-892746D01*
X4966182Y-892746D02*
X4975706Y-873698D01*
X4975706Y-873698D02*
X4985230Y-864174D01*
X4985230Y-864174D02*
X5004277Y-854650D01*
X5004277Y-854650D02*
X5032849Y-854650D01*
X5032849Y-854650D02*
X5051896Y-864174D01*
X5051896Y-864174D02*
X5061420Y-873698D01*
X5061420Y-873698D02*
X5070944Y-892746D01*
X5070944Y-892746D02*
X5070944Y-949888D01*
X5070944Y-949888D02*
X5061420Y-968936D01*
X5061420Y-968936D02*
X5051896Y-978460D01*
X5051896Y-978460D02*
X5032849Y-987984D01*
X5032849Y-987984D02*
X5004277Y-987984D01*
X5128087Y-854650D02*
X5204277Y-854650D01*
X5156658Y-787984D02*
X5156658Y-959412D01*
X5156658Y-959412D02*
X5166182Y-978460D01*
X5166182Y-978460D02*
X5185230Y-987984D01*
X5185230Y-987984D02*
X5204277Y-987984D01*
X5423325Y-854650D02*
X5423325Y-1054650D01*
X5423325Y-864174D02*
X5442373Y-854650D01*
X5442373Y-854650D02*
X5480468Y-854650D01*
X5480468Y-854650D02*
X5499515Y-864174D01*
X5499515Y-864174D02*
X5509039Y-873698D01*
X5509039Y-873698D02*
X5518563Y-892746D01*
X5518563Y-892746D02*
X5518563Y-949888D01*
X5518563Y-949888D02*
X5509039Y-968936D01*
X5509039Y-968936D02*
X5499515Y-978460D01*
X5499515Y-978460D02*
X5480468Y-987984D01*
X5480468Y-987984D02*
X5442373Y-987984D01*
X5442373Y-987984D02*
X5423325Y-978460D01*
X5632849Y-987984D02*
X5613801Y-978460D01*
X5613801Y-978460D02*
X5604277Y-959412D01*
X5604277Y-959412D02*
X5604277Y-787984D01*
X5794753Y-987984D02*
X5794753Y-883222D01*
X5794753Y-883222D02*
X5785230Y-864174D01*
X5785230Y-864174D02*
X5766182Y-854650D01*
X5766182Y-854650D02*
X5728087Y-854650D01*
X5728087Y-854650D02*
X5709039Y-864174D01*
X5794753Y-978460D02*
X5775706Y-987984D01*
X5775706Y-987984D02*
X5728087Y-987984D01*
X5728087Y-987984D02*
X5709039Y-978460D01*
X5709039Y-978460D02*
X5699515Y-959412D01*
X5699515Y-959412D02*
X5699515Y-940365D01*
X5699515Y-940365D02*
X5709039Y-921317D01*
X5709039Y-921317D02*
X5728087Y-911793D01*
X5728087Y-911793D02*
X5775706Y-911793D01*
X5775706Y-911793D02*
X5794753Y-902269D01*
X5861420Y-854650D02*
X5937611Y-854650D01*
X5889992Y-787984D02*
X5889992Y-959412D01*
X5889992Y-959412D02*
X5899515Y-978460D01*
X5899515Y-978460D02*
X5918563Y-987984D01*
X5918563Y-987984D02*
X5937611Y-987984D01*
X6080468Y-978460D02*
X6061420Y-987984D01*
X6061420Y-987984D02*
X6023325Y-987984D01*
X6023325Y-987984D02*
X6004277Y-978460D01*
X6004277Y-978460D02*
X5994753Y-959412D01*
X5994753Y-959412D02*
X5994753Y-883222D01*
X5994753Y-883222D02*
X6004277Y-864174D01*
X6004277Y-864174D02*
X6023325Y-854650D01*
X6023325Y-854650D02*
X6061420Y-854650D01*
X6061420Y-854650D02*
X6080468Y-864174D01*
X6080468Y-864174D02*
X6089992Y-883222D01*
X6089992Y-883222D02*
X6089992Y-902269D01*
X6089992Y-902269D02*
X5994753Y-921317D01*
X6261420Y-987984D02*
X6261420Y-787984D01*
X6261420Y-978460D02*
X6242373Y-987984D01*
X6242373Y-987984D02*
X6204277Y-987984D01*
X6204277Y-987984D02*
X6185230Y-978460D01*
X6185230Y-978460D02*
X6175706Y-968936D01*
X6175706Y-968936D02*
X6166182Y-949888D01*
X6166182Y-949888D02*
X6166182Y-892746D01*
X6166182Y-892746D02*
X6175706Y-873698D01*
X6175706Y-873698D02*
X6185230Y-864174D01*
X6185230Y-864174D02*
X6204277Y-854650D01*
X6204277Y-854650D02*
X6242373Y-854650D01*
X6242373Y-854650D02*
X6261420Y-864174D01*
X6337611Y-1064174D02*
X6347134Y-1054650D01*
X6347134Y-1054650D02*
X6366182Y-1026079D01*
X6366182Y-1026079D02*
X6375706Y-1007031D01*
X6375706Y-1007031D02*
X6385230Y-978460D01*
X6385230Y-978460D02*
X6394753Y-930841D01*
X6394753Y-930841D02*
X6394753Y-892746D01*
X6394753Y-892746D02*
X6385230Y-845127D01*
X6385230Y-845127D02*
X6375706Y-816555D01*
X6375706Y-816555D02*
X6366182Y-797508D01*
X6366182Y-797508D02*
X6347134Y-768936D01*
X6347134Y-768936D02*
X6337611Y-759412D01*
M02*
