<?xml version="1.0" encoding="UTF-8" standalone="no"?>
<!-- Created with Inkscape (http://www.inkscape.org/) -->

<svg
   width="255.9451mm"
   height="397.34216mm"
   viewBox="0 0 255.9451 397.34216"
   version="1.1"
   id="svg5"
   xmlns="http://www.w3.org/2000/svg"
   xmlns:svg="http://www.w3.org/2000/svg">
  <defs
     id="defs2" />
  <g
     id="layer1"
     transform="translate(69.469145,340.67792)">
    <path
       id="path1389-5-3"
       style="fill:#000000;fill-opacity:1;stroke:none;stroke-width:1.00157;stroke-linecap:round;stroke-linejoin:round;stroke-miterlimit:4;stroke-dasharray:none;stroke-opacity:1"
       d="m 323.16211,-1287.6016 -17.0332,78.9102 a 402.97962,402.97962 0 0 1 317.96679,393.87499 402.97962,402.97962 0 0 1 -318.03906,393.53907 l 17.10547,79.24609 A 483.67567,483.67567 0 0 0 704.79102,-814.81641 483.67567,483.67567 0 0 0 323.16211,-1287.6016 Z m -204.0293,0.2989 a 483.67567,483.67567 0 0 0 -381.69336,472.48629 483.67567,483.67567 0 0 0 381.69336,472.48633 l 17.03907,-78.94726 a 402.97962,402.97962 0 0 1 -318.03711,-393.53907 402.97962,402.97962 0 0 1 318.03711,-393.54099 z m 172.81055,144.3379 -11.82031,54.7617 a 279.69395,279.69395 0 0 1 220.68554,273.38669 279.69395,279.69395 0 0 1 -220.6914,273.35547 l 11.76758,54.52539 a 335.7329,335.7329 0 0 0 264.96289,-327.88086 335.7329,335.7329 0 0 0 -264.9043,-328.14839 z m -141.59961,0.2656 a 335.7329,335.7329 0 0 0 -264.96094,327.88279 335.7329,335.7329 0 0 0 264.96094,327.88086 l 11.76953,-54.52734 A 279.69395,279.69395 0 0 1 -58.578125,-814.81641 279.69395,279.69395 0 0 1 162.11328,-1088.1719 Z m 119.91992,100.1738 -8.20508,38.0176 a 194.07889,194.07889 0 0 1 153.13477,189.69139 194.07889,194.07889 0 0 1 -153.18555,189.45508 l 8.23633,38.15821 A 232.99483,232.99483 0 0 0 454.10938,-814.81641 232.99483,232.99483 0 0 0 270.26367,-1042.5254 Z m -98.27734,0.094 a 232.99483,232.99483 0 0 0 -183.865236,227.61519 232.99483,232.99483 0 0 0 183.865236,227.61329 l 8.23633,-38.15821 A 194.07889,194.07889 0 0 1 27.037109,-814.81641 194.07889,194.07889 0 0 1 180.22266,-1004.2734 Z"
       transform="scale(0.26458333)" />
    <path
       id="path958"
       style="fill:#000000;fill-opacity:1;stroke:none;stroke-width:0.999999px;stroke-linecap:butt;stroke-linejoin:miter;stroke-opacity:1"
       d="M 221.11523,-1121.459 165.94531,214.16406 h 110.33985 z"
       transform="scale(0.26458333)" />
    <circle
       style="fill:#000000;fill-opacity:1;stroke:none;stroke-width:0.264999;stroke-linecap:round;stroke-linejoin:round;stroke-miterlimit:4;stroke-dasharray:none;stroke-opacity:1"
       id="path4288"
       cx="58.503403"
       cy="-215.58682"
       r="23.9375" />
  </g>
</svg>
