<?xml version="1.0" encoding="UTF-8" standalone="no"?>
<!-- Created with Inkscape (http://www.inkscape.org/) -->

<svg
   version="1.1"
   width="81.466805"
   height="89.951172"
   id="svg46"
   xmlns="http://www.w3.org/2000/svg"
   xmlns:svg="http://www.w3.org/2000/svg"
   xmlns:rdf="http://www.w3.org/1999/02/22-rdf-syntax-ns#"
   xmlns:cc="http://creativecommons.org/ns#"
   xmlns:dc="http://purl.org/dc/elements/1.1/">
  <title
     id="title2">I²C logo</title>
  <metadata
     id="metadata4">
    <rdf:RDF>
      <cc:Work
         rdf:about="">
        <dc:format>image/svg+xml</dc:format>
        <dc:type
           rdf:resource="http://purl.org/dc/dcmitype/StillImage" />
        <dc:title>I²C logo</dc:title>
        <dc:date>2014-11-10</dc:date>
        <dc:creator>
          <cc:Agent>
            <dc:title>https://commons.wikimedia.org/wiki/User:Xoneca</dc:title>
          </cc:Agent>
        </dc:creator>
        <cc:license
           rdf:resource="http://creativecommons.org/publicdomain/zero/1.0/" />
        <dc:rights>
          <cc:Agent>
            <dc:title>I²C bus -- logo is a trademark of NXP Semiconductors N.V.</dc:title>
          </cc:Agent>
        </dc:rights>
        <dc:source>http://www.nxp.com/documents/data_sheet/PCA9540B.pdf</dc:source>
        <dc:description>I²C logo extracted from an NXP datasheet as-is.</dc:description>
      </cc:Work>
      <cc:License
         rdf:about="http://creativecommons.org/licenses/publicdomain/">
        <cc:permits
           rdf:resource="http://creativecommons.org/ns#Reproduction" />
        <cc:permits
           rdf:resource="http://creativecommons.org/ns#Distribution" />
        <cc:permits
           rdf:resource="http://creativecommons.org/ns#DerivativeWorks" />
      </cc:License>
    </rdf:RDF>
  </metadata>
  <defs
     id="defs6" />
  <path
     id="path8"
     style="fill:#ffffff;fill-opacity:1;fill-rule:evenodd;stroke:none;stroke-width:1.25"
     d="M 5.26563,0 C 2.36688,0.0125 0.02149,2.365625 0.02149,5.265625 V 84.636719 H 0 v 0.04883 c 0,2.90625 2.359375,5.265623 5.265625,5.265623 h 70.9375 v -0.0508 c 2.9,-0.0112 5.242188,-2.364921 5.242188,-5.263671 V 43.177734 35.455078 5.265625 h 0.02148 c -0.01125,-2.9 -2.363672,-5.244141 -5.263672,-5.244141 h -70.9375 z m 70.72461,2.845703 c 0.695,0.0025 1.360312,0.278282 1.851562,0.769531 0.49375,0.49375 0.769531,1.164532 0.769531,1.863282 0,0 0,19.68646 0,79.015625 h 0.01172 c -0.0037,0.695 -0.281484,1.360312 -0.771484,1.851562 -0.49375,0.49375 -1.162578,0.769531 -1.861328,0.769531 H 5.476568 l 0.002,0.01172 C 4.758568,87.144454 4.065443,86.86422 3.556693,86.35547 3.062943,85.86172 2.785209,85.192892 2.785209,84.494142 V 5.478516 h 0.06055 C 2.848259,4.783516 3.12404,4.118203 3.61529,3.626953 4.10904,3.133203 4.779118,2.855469 5.476618,2.855469 H 75.99029 Z" />
  <path
     id="path16"
     style="fill:#ffffff;fill-opacity:1;fill-rule:evenodd;stroke:none;stroke-width:1.25"
     d="m 46.722662,15.400391 c -1.3975,0 -2.73711,0.554219 -3.72461,1.542969 -1,0.99875 -1.555468,2.357031 -1.542969,3.769531 l -0.04687,0.002 v 37.203125 c 0,2.90625 2.357421,5.265625 5.263671,5.265625 h 0.05078 v -0.01953 h 29.480468 c 2.9,0 5.252422,-2.345391 5.263672,-5.244141 l -0.02148,-0.002 V 43.179688 H 64.580083 v 7.015625 c 0,1.72875 -1.387187,3.137812 -3.117187,3.164062 v -0.04687 c -1.73,0 -3.139766,-1.388437 -3.166016,-3.117187 h -0.02344 v -21.75586 c 0,-1.74625 1.418515,-3.166015 3.166016,-3.166015 h 0.02344 v -0.02344 c 1.7475,0 3.164062,1.416563 3.164063,3.164063 v 0.02539 h -0.04688 v 7.015625 H 81.445318 V 20.714844 c 0,-1.3975 -0.553516,-2.73711 -1.541016,-3.72461 -0.98125,-0.982449 -2.312422,-1.534765 -3.701172,-1.541015 v -0.04883 z m 0.140625,2.833984 H 75.99024 v 0.03125 h 0.0293 c 1.50875,0 2.734375,1.223672 2.734375,2.732422 V 32.619141 H 67.414068 v -7.509766 h 0.0098 c -0.005,-1.45 -1.180859,-2.623047 -2.630859,-2.623047 H 58.1309 v -0.0098 c -1.44875,0.005 -2.621094,1.182812 -2.621094,2.632812 v 28.416016 h -0.01172 c 0.0062,1.44875 1.182813,2.621093 2.632813,2.621093 h 6.662109 v 0.01172 c 1.44875,-0.0062 2.621094,-1.182812 2.621094,-2.632812 v -7.582031 h 11.197265 v 11.763671 h 0.01172 c -0.0025,0.695 -0.280234,1.35836 -0.771484,1.84961 -0.49375,0.49375 -1.162578,0.771484 -1.861328,0.771484 l -29.126953,0.01172 c -1.45,-0.0062 -2.623047,-1.182813 -2.623047,-2.632813 V 20.855469 h -0.0098 c 0.0025,-0.695 0.280234,-1.358359 0.771485,-1.849609 0.49375,-0.493751 1.163828,-0.771485 1.861327,-0.771485 z" />
  <path
     id="path24"
     style="fill:#ffffff;fill-opacity:1;fill-rule:evenodd;stroke:none;stroke-width:1.25"
     d="M 0.02149,15.470703 V 63.234375 H 16.886724 V 15.470703 Z m 2.763672,2.833985 H 14.05274 V 60.400391 H 2.785162 Z" />
  <path
     d="m 20.006021,15.399922 c 0,-1.415 0.56125,-2.77125 1.56125,-3.77125 1.0125,-1.0125 2.39125,-1.575 3.82375,-1.56125 v 0.0175 h 7.5825 c 1.415,0 2.77125,0.56125 3.77125,1.56125 0.995,0.99625 1.55625,2.345 1.56125,3.75375 h -0.0175 v 0.85 c 0,1.415 -0.56125,2.77 -1.56125,3.77125 -0.99625,0.995 -2.345,1.55625 -3.75375,1.56125 v 0.05375 h -7.51125 c -0.6375,0 -1.165,0.4975 -1.20125,1.13375 h -0.0038 14.03125 v 4.25125 h -18.2825 v -4.25125 c 0,-1.415 0.56125,-2.77125 1.56125,-3.77125 1.0125,-1.0125 2.39125,-1.575 3.82375,-1.56125 v 0.0175 h 7.1575 c 0.84375,0 1.5275,-0.685 1.5275,-1.5275 0,-0.01 0,-0.02125 0,-0.03125 h 0.03125 c 0,-0.84375 -0.68375,-1.52875 -1.5275,-1.52875 -0.01,0 -0.02125,0 -0.03125,0.0012 v 0.03875 h -7.1575 c -0.59375,0 -1.085,0.435 -1.1225,0.9925 h -0.01125"
     style="fill:#ffffff;fill-opacity:1;fill-rule:evenodd;stroke:none;stroke-width:1.25"
     id="path32" />
  <path
     d="m 22.556021,72.304922 c 0,0.58875 -0.5025,1.06875 -1.1325,1.08 l -0.0013,-0.01625 h -9.70875 v -2.12625 h 9.70875 c 0.64,0 1.15875,0.48375 1.15875,1.08125 0,0.0175 0,0.035 -0.0012,0.05375 m -0.02375,6.305 v 0 c 0,-0.5875 -0.50375,-1.0675 -1.1325,-1.07875 l -0.0013,0.01625 h -9.70875 v 2.055 h 9.70875 c 0.6325,0 1.1475,-0.4725 1.1575,-1.0625 m 4.1575,-0.9925 v 0 c 0,-0.0025 0,-0.005 0,-0.0075 -0.0037,-1.17375 -1.0125,-2.1275 -2.2675,-2.1475 v -0.04125 c 1.2625,0 2.29,-0.9475 2.30875,-2.12625 h -0.04125 l 0.07125,-2.12625 c 0,-0.0025 0,-0.005 0,-0.0075 -0.005,-2.33125 -2.03375,-4.22 -4.53125,-4.215 -0.0012,0 -0.0025,0 -0.0037,0 v 0.04125 h -15.0238 v 16.9375 h 15.02375 c 2.495,0 4.51875,-1.88875 4.52125,-4.21875 0,-0.01125 0,-0.0225 0,-0.03375"
     style="fill:#ffffff;fill-opacity:1;fill-rule:evenodd;stroke:none;stroke-width:0.28375;stroke-linecap:round;stroke-linejoin:round;stroke-miterlimit:10;stroke-opacity:1"
     id="path36" />
  <path
     d="m 35.312271,66.989922 h -4.46375 v 11.6925 c 0,0.0012 0,0.0025 0,0.0037 0.0013,2.89125 2.50125,5.23875 5.5975,5.25625 v -0.015 h 8.29125 c 3.105,0 5.62375,-2.345 5.63125,-5.245 h 0.03875 v -11.6925 h -4.53625 v 10.63 c 0,1.16625 -1.0125,2.1125 -2.26125,2.1125 -0.0025,0 -0.0038,0 -0.0063,0 v -0.0575 h -6.0237 c -1.225,0 -2.2275,-0.91125 -2.26,-2.055 h -0.0075 z"
     style="fill:#ffffff;fill-opacity:1;fill-rule:evenodd;stroke:none;stroke-width:0.28375;stroke-linecap:round;stroke-linejoin:round;stroke-miterlimit:10;stroke-opacity:1"
     id="path38" />
  <path
     d="m 68.123521,66.918672 c 3.10375,0 5.6225,2.34625 5.63125,5.245 h -4.4975 m 0,0 v 0 c 0,-0.52375 -0.45375,-0.9475 -1.01375,-0.9475 -0.01625,0 -0.03125,0 -0.0475,0.0012 l -0.0012,-0.0462 h -8.50375 c -0.63875,0 -1.1575,0.48375 -1.1575,1.08 0,0.0175 0,0.035 0.0012,0.05125 l -0.04875,0.0025 c 0,0.59625 0.5175,1.08 1.15625,1.08 0.01625,0 0.0325,-0.0012 0.04875,-0.0012 v -0.015 h 8.3613 c 3.0925,0 5.6025,2.335 5.61375,5.2225 0,0.0075 0,0.01375 0,0.02125 h -0.015 c 0,0.0012 0,0.0012 0,0.0025 -0.0012,2.92 -2.54125,5.28875 -5.66875,5.2875 v -0.0463 h -8.3625 c -3.10375,0 -5.6225,-2.345 -5.63125,-5.24375 h 4.4975 c 0,0.57875 0.50375,1.04875 1.12375,1.04875 0.0038,0 0.0063,0 0.01,0 v 0.01375 h 8.71625 c 0.395,0 0.7175,-0.4725 0.725,-1.0625 h -0.01625 c 0,-0.57125 -0.44125,-1.03375 -0.98625,-1.03375 -0.0012,0 -0.0037,0 -0.0062,0 v -0.03 h -8.36125 c -3.11,0 -5.6375,-2.34 -5.665,-5.24375 h -0.005 c 0,-0.005 0,-0.01 0,-0.015 0.0087,-2.96 2.5712,-5.35875 5.7412,-5.37625 l -0.0012,-0.065 h 8.3625"
     style="fill:#ffffff;fill-opacity:1;fill-rule:evenodd;stroke:none;stroke-width:0.28375;stroke-linecap:round;stroke-linejoin:round;stroke-miterlimit:10;stroke-opacity:1"
     id="path40" />
  <path
     d="m 26.737271,79.674922 v -2.055"
     style="fill:none;stroke:none;stroke-width:0.28375;stroke-linecap:round;stroke-linejoin:round;stroke-miterlimit:10;stroke-opacity:1"
     id="path42" />
</svg>
