<?xml version="1.0" encoding="UTF-8" standalone="no"?>
<svg
   xml:space="preserve"
   width="792"
   height="792"
   viewBox="0 0 792 792"
   version="1.1"
   id="svg1362"
   xmlns="http://www.w3.org/2000/svg"
   xmlns:svg="http://www.w3.org/2000/svg"><defs
   id="defs1366" />

<g
   fill="#000000"
   id="g1360">
<g
   transform="translate(264,48) scale(4.12)"
   id="g6"><rect
     width="6"
     height="6"
     id="rect4" /></g>
<g
   transform="translate(408,48) scale(4.12)"
   id="g10"><rect
     width="6"
     height="6"
     id="rect8" /></g>
<g
   transform="translate(432,48) scale(4.12)"
   id="g14"><rect
     width="6"
     height="6"
     id="rect12" /></g>
<g
   transform="translate(456,48) scale(4.12)"
   id="g18"><rect
     width="6"
     height="6"
     id="rect16" /></g>
<g
   transform="translate(480,48) scale(4.12)"
   id="g22"><rect
     width="6"
     height="6"
     id="rect20" /></g>
<g
   transform="translate(504,48) scale(4.12)"
   id="g26"><rect
     width="6"
     height="6"
     id="rect24" /></g>
<g
   transform="translate(528,48) scale(4.12)"
   id="g30"><rect
     width="6"
     height="6"
     id="rect28" /></g>
<g
   transform="translate(240,72) scale(4.12)"
   id="g34"><rect
     width="6"
     height="6"
     id="rect32" /></g>
<g
   transform="translate(264,72) scale(4.12)"
   id="g38"><rect
     width="6"
     height="6"
     id="rect36" /></g>
<g
   transform="translate(312,72) scale(4.12)"
   id="g42"><rect
     width="6"
     height="6"
     id="rect40" /></g>
<g
   transform="translate(336,72) scale(4.12)"
   id="g46"><rect
     width="6"
     height="6"
     id="rect44" /></g>
<g
   transform="translate(480,72) scale(4.12)"
   id="g50"><rect
     width="6"
     height="6"
     id="rect48" /></g>
<g
   transform="translate(528,72) scale(4.12)"
   id="g54"><rect
     width="6"
     height="6"
     id="rect52" /></g>
<g
   transform="translate(264,96) scale(4.12)"
   id="g58"><rect
     width="6"
     height="6"
     id="rect56" /></g>
<g
   transform="translate(288,96) scale(4.12)"
   id="g62"><rect
     width="6"
     height="6"
     id="rect60" /></g>
<g
   transform="translate(312,96) scale(4.12)"
   id="g66"><rect
     width="6"
     height="6"
     id="rect64" /></g>
<g
   transform="translate(384,96) scale(4.12)"
   id="g70"><rect
     width="6"
     height="6"
     id="rect68" /></g>
<g
   transform="translate(432,96) scale(4.12)"
   id="g74"><rect
     width="6"
     height="6"
     id="rect72" /></g>
<g
   transform="translate(480,96) scale(4.12)"
   id="g78"><rect
     width="6"
     height="6"
     id="rect76" /></g>
<g
   transform="translate(504,96) scale(4.12)"
   id="g82"><rect
     width="6"
     height="6"
     id="rect80" /></g>
<g
   transform="translate(240,120) scale(4.12)"
   id="g86"><rect
     width="6"
     height="6"
     id="rect84" /></g>
<g
   transform="translate(264,120) scale(4.12)"
   id="g90"><rect
     width="6"
     height="6"
     id="rect88" /></g>
<g
   transform="translate(312,120) scale(4.12)"
   id="g94"><rect
     width="6"
     height="6"
     id="rect92" /></g>
<g
   transform="translate(432,120) scale(4.12)"
   id="g98"><rect
     width="6"
     height="6"
     id="rect96" /></g>
<g
   transform="translate(456,120) scale(4.12)"
   id="g102"><rect
     width="6"
     height="6"
     id="rect100" /></g>
<g
   transform="translate(288,144) scale(4.12)"
   id="g106"><rect
     width="6"
     height="6"
     id="rect104" /></g>
<g
   transform="translate(336,144) scale(4.12)"
   id="g110"><rect
     width="6"
     height="6"
     id="rect108" /></g>
<g
   transform="translate(360,144) scale(4.12)"
   id="g114"><rect
     width="6"
     height="6"
     id="rect112" /></g>
<g
   transform="translate(384,144) scale(4.12)"
   id="g118"><rect
     width="6"
     height="6"
     id="rect116" /></g>
<g
   transform="translate(408,144) scale(4.12)"
   id="g122"><rect
     width="6"
     height="6"
     id="rect120" /></g>
<g
   transform="translate(480,144) scale(4.12)"
   id="g126"><rect
     width="6"
     height="6"
     id="rect124" /></g>
<g
   transform="translate(504,144) scale(4.12)"
   id="g130"><rect
     width="6"
     height="6"
     id="rect128" /></g>
<g
   transform="translate(528,144) scale(4.12)"
   id="g134"><rect
     width="6"
     height="6"
     id="rect132" /></g>
<g
   transform="translate(240,168) scale(4.12)"
   id="g138"><rect
     width="6"
     height="6"
     id="rect136" /></g>
<g
   transform="translate(288,168) scale(4.12)"
   id="g142"><rect
     width="6"
     height="6"
     id="rect140" /></g>
<g
   transform="translate(360,168) scale(4.12)"
   id="g146"><rect
     width="6"
     height="6"
     id="rect144" /></g>
<g
   transform="translate(384,168) scale(4.12)"
   id="g150"><rect
     width="6"
     height="6"
     id="rect148" /></g>
<g
   transform="translate(408,168) scale(4.12)"
   id="g154"><rect
     width="6"
     height="6"
     id="rect152" /></g>
<g
   transform="translate(432,168) scale(4.12)"
   id="g158"><rect
     width="6"
     height="6"
     id="rect156" /></g>
<g
   transform="translate(528,168) scale(4.12)"
   id="g162"><rect
     width="6"
     height="6"
     id="rect160" /></g>
<g
   transform="translate(240,192) scale(4.12)"
   id="g166"><rect
     width="6"
     height="6"
     id="rect164" /></g>
<g
   transform="translate(288,192) scale(4.12)"
   id="g170"><rect
     width="6"
     height="6"
     id="rect168" /></g>
<g
   transform="translate(336,192) scale(4.12)"
   id="g174"><rect
     width="6"
     height="6"
     id="rect172" /></g>
<g
   transform="translate(384,192) scale(4.12)"
   id="g178"><rect
     width="6"
     height="6"
     id="rect176" /></g>
<g
   transform="translate(432,192) scale(4.12)"
   id="g182"><rect
     width="6"
     height="6"
     id="rect180" /></g>
<g
   transform="translate(480,192) scale(4.12)"
   id="g186"><rect
     width="6"
     height="6"
     id="rect184" /></g>
<g
   transform="translate(528,192) scale(4.12)"
   id="g190"><rect
     width="6"
     height="6"
     id="rect188" /></g>
<g
   transform="translate(336,216) scale(4.12)"
   id="g194"><rect
     width="6"
     height="6"
     id="rect192" /></g>
<g
   transform="translate(360,216) scale(4.12)"
   id="g198"><rect
     width="6"
     height="6"
     id="rect196" /></g>
<g
   transform="translate(408,216) scale(4.12)"
   id="g202"><rect
     width="6"
     height="6"
     id="rect200" /></g>
<g
   transform="translate(48,240) scale(4.12)"
   id="g206"><rect
     width="6"
     height="6"
     id="rect204" /></g>
<g
   transform="translate(72,240) scale(4.12)"
   id="g210"><rect
     width="6"
     height="6"
     id="rect208" /></g>
<g
   transform="translate(96,240) scale(4.12)"
   id="g214"><rect
     width="6"
     height="6"
     id="rect212" /></g>
<g
   transform="translate(120,240) scale(4.12)"
   id="g218"><rect
     width="6"
     height="6"
     id="rect216" /></g>
<g
   transform="translate(144,240) scale(4.12)"
   id="g222"><rect
     width="6"
     height="6"
     id="rect220" /></g>
<g
   transform="translate(192,240) scale(4.12)"
   id="g226"><rect
     width="6"
     height="6"
     id="rect224" /></g>
<g
   transform="translate(216,240) scale(4.12)"
   id="g230"><rect
     width="6"
     height="6"
     id="rect228" /></g>
<g
   transform="translate(240,240) scale(4.12)"
   id="g234"><rect
     width="6"
     height="6"
     id="rect232" /></g>
<g
   transform="translate(264,240) scale(4.12)"
   id="g238"><rect
     width="6"
     height="6"
     id="rect236" /></g>
<g
   transform="translate(288,240) scale(4.12)"
   id="g242"><rect
     width="6"
     height="6"
     id="rect240" /></g>
<g
   transform="translate(336,240) scale(4.12)"
   id="g246"><rect
     width="6"
     height="6"
     id="rect244" /></g>
<g
   transform="translate(384,240) scale(4.12)"
   id="g250"><rect
     width="6"
     height="6"
     id="rect248" /></g>
<g
   transform="translate(408,240) scale(4.12)"
   id="g254"><rect
     width="6"
     height="6"
     id="rect252" /></g>
<g
   transform="translate(456,240) scale(4.12)"
   id="g258"><rect
     width="6"
     height="6"
     id="rect256" /></g>
<g
   transform="translate(504,240) scale(4.12)"
   id="g262"><rect
     width="6"
     height="6"
     id="rect260" /></g>
<g
   transform="translate(552,240) scale(4.12)"
   id="g266"><rect
     width="6"
     height="6"
     id="rect264" /></g>
<g
   transform="translate(600,240) scale(4.12)"
   id="g270"><rect
     width="6"
     height="6"
     id="rect268" /></g>
<g
   transform="translate(648,240) scale(4.12)"
   id="g274"><rect
     width="6"
     height="6"
     id="rect272" /></g>
<g
   transform="translate(696,240) scale(4.12)"
   id="g278"><rect
     width="6"
     height="6"
     id="rect276" /></g>
<g
   transform="translate(48,264) scale(4.12)"
   id="g282"><rect
     width="6"
     height="6"
     id="rect280" /></g>
<g
   transform="translate(120,264) scale(4.12)"
   id="g286"><rect
     width="6"
     height="6"
     id="rect284" /></g>
<g
   transform="translate(144,264) scale(4.12)"
   id="g290"><rect
     width="6"
     height="6"
     id="rect288" /></g>
<g
   transform="translate(240,264) scale(4.12)"
   id="g294"><rect
     width="6"
     height="6"
     id="rect292" /></g>
<g
   transform="translate(264,264) scale(4.12)"
   id="g298"><rect
     width="6"
     height="6"
     id="rect296" /></g>
<g
   transform="translate(408,264) scale(4.12)"
   id="g302"><rect
     width="6"
     height="6"
     id="rect300" /></g>
<g
   transform="translate(432,264) scale(4.12)"
   id="g306"><rect
     width="6"
     height="6"
     id="rect304" /></g>
<g
   transform="translate(456,264) scale(4.12)"
   id="g310"><rect
     width="6"
     height="6"
     id="rect308" /></g>
<g
   transform="translate(480,264) scale(4.12)"
   id="g314"><rect
     width="6"
     height="6"
     id="rect312" /></g>
<g
   transform="translate(504,264) scale(4.12)"
   id="g318"><rect
     width="6"
     height="6"
     id="rect316" /></g>
<g
   transform="translate(528,264) scale(4.12)"
   id="g322"><rect
     width="6"
     height="6"
     id="rect320" /></g>
<g
   transform="translate(576,264) scale(4.12)"
   id="g326"><rect
     width="6"
     height="6"
     id="rect324" /></g>
<g
   transform="translate(600,264) scale(4.12)"
   id="g330"><rect
     width="6"
     height="6"
     id="rect328" /></g>
<g
   transform="translate(624,264) scale(4.12)"
   id="g334"><rect
     width="6"
     height="6"
     id="rect332" /></g>
<g
   transform="translate(720,264) scale(4.12)"
   id="g338"><rect
     width="6"
     height="6"
     id="rect336" /></g>
<g
   transform="translate(48,288) scale(4.12)"
   id="g342"><rect
     width="6"
     height="6"
     id="rect340" /></g>
<g
   transform="translate(120,288) scale(4.12)"
   id="g346"><rect
     width="6"
     height="6"
     id="rect344" /></g>
<g
   transform="translate(144,288) scale(4.12)"
   id="g350"><rect
     width="6"
     height="6"
     id="rect348" /></g>
<g
   transform="translate(168,288) scale(4.12)"
   id="g354"><rect
     width="6"
     height="6"
     id="rect352" /></g>
<g
   transform="translate(192,288) scale(4.12)"
   id="g358"><rect
     width="6"
     height="6"
     id="rect356" /></g>
<g
   transform="translate(216,288) scale(4.12)"
   id="g362"><rect
     width="6"
     height="6"
     id="rect360" /></g>
<g
   transform="translate(264,288) scale(4.12)"
   id="g366"><rect
     width="6"
     height="6"
     id="rect364" /></g>
<g
   transform="translate(312,288) scale(4.12)"
   id="g370"><rect
     width="6"
     height="6"
     id="rect368" /></g>
<g
   transform="translate(336,288) scale(4.12)"
   id="g374"><rect
     width="6"
     height="6"
     id="rect372" /></g>
<g
   transform="translate(528,288) scale(4.12)"
   id="g378"><rect
     width="6"
     height="6"
     id="rect376" /></g>
<g
   transform="translate(624,288) scale(4.12)"
   id="g382"><rect
     width="6"
     height="6"
     id="rect380" /></g>
<g
   transform="translate(72,312) scale(4.12)"
   id="g386"><rect
     width="6"
     height="6"
     id="rect384" /></g>
<g
   transform="translate(120,312) scale(4.12)"
   id="g390"><rect
     width="6"
     height="6"
     id="rect388" /></g>
<g
   transform="translate(144,312) scale(4.12)"
   id="g394"><rect
     width="6"
     height="6"
     id="rect392" /></g>
<g
   transform="translate(216,312) scale(4.12)"
   id="g398"><rect
     width="6"
     height="6"
     id="rect396" /></g>
<g
   transform="translate(264,312) scale(4.12)"
   id="g402"><rect
     width="6"
     height="6"
     id="rect400" /></g>
<g
   transform="translate(288,312) scale(4.12)"
   id="g406"><rect
     width="6"
     height="6"
     id="rect404" /></g>
<g
   transform="translate(312,312) scale(4.12)"
   id="g410"><rect
     width="6"
     height="6"
     id="rect408" /></g>
<g
   transform="translate(384,312) scale(4.12)"
   id="g414"><rect
     width="6"
     height="6"
     id="rect412" /></g>
<g
   transform="translate(432,312) scale(4.12)"
   id="g418"><rect
     width="6"
     height="6"
     id="rect416" /></g>
<g
   transform="translate(480,312) scale(4.12)"
   id="g422"><rect
     width="6"
     height="6"
     id="rect420" /></g>
<g
   transform="translate(528,312) scale(4.12)"
   id="g426"><rect
     width="6"
     height="6"
     id="rect424" /></g>
<g
   transform="translate(648,312) scale(4.12)"
   id="g430"><rect
     width="6"
     height="6"
     id="rect428" /></g>
<g
   transform="translate(696,312) scale(4.12)"
   id="g434"><rect
     width="6"
     height="6"
     id="rect432" /></g>
<g
   transform="translate(72,336) scale(4.12)"
   id="g438"><rect
     width="6"
     height="6"
     id="rect436" /></g>
<g
   transform="translate(96,336) scale(4.12)"
   id="g442"><rect
     width="6"
     height="6"
     id="rect440" /></g>
<g
   transform="translate(192,336) scale(4.12)"
   id="g446"><rect
     width="6"
     height="6"
     id="rect444" /></g>
<g
   transform="translate(240,336) scale(4.12)"
   id="g450"><rect
     width="6"
     height="6"
     id="rect448" /></g>
<g
   transform="translate(264,336) scale(4.12)"
   id="g454"><rect
     width="6"
     height="6"
     id="rect452" /></g>
<g
   transform="translate(312,336) scale(4.12)"
   id="g458"><rect
     width="6"
     height="6"
     id="rect456" /></g>
<g
   transform="translate(456,336) scale(4.12)"
   id="g462"><rect
     width="6"
     height="6"
     id="rect460" /></g>
<g
   transform="translate(480,336) scale(4.12)"
   id="g466"><rect
     width="6"
     height="6"
     id="rect464" /></g>
<g
   transform="translate(504,336) scale(4.12)"
   id="g470"><rect
     width="6"
     height="6"
     id="rect468" /></g>
<g
   transform="translate(648,336) scale(4.12)"
   id="g474"><rect
     width="6"
     height="6"
     id="rect472" /></g>
<g
   transform="translate(672,336) scale(4.12)"
   id="g478"><rect
     width="6"
     height="6"
     id="rect476" /></g>
<g
   transform="translate(96,360) scale(4.12)"
   id="g482"><rect
     width="6"
     height="6"
     id="rect480" /></g>
<g
   transform="translate(120,360) scale(4.12)"
   id="g486"><rect
     width="6"
     height="6"
     id="rect484" /></g>
<g
   transform="translate(168,360) scale(4.12)"
   id="g490"><rect
     width="6"
     height="6"
     id="rect488" /></g>
<g
   transform="translate(288,360) scale(4.12)"
   id="g494"><rect
     width="6"
     height="6"
     id="rect492" /></g>
<g
   transform="translate(336,360) scale(4.12)"
   id="g498"><rect
     width="6"
     height="6"
     id="rect496" /></g>
<g
   transform="translate(360,360) scale(4.12)"
   id="g502"><rect
     width="6"
     height="6"
     id="rect500" /></g>
<g
   transform="translate(384,360) scale(4.12)"
   id="g506"><rect
     width="6"
     height="6"
     id="rect504" /></g>
<g
   transform="translate(408,360) scale(4.12)"
   id="g510"><rect
     width="6"
     height="6"
     id="rect508" /></g>
<g
   transform="translate(456,360) scale(4.12)"
   id="g514"><rect
     width="6"
     height="6"
     id="rect512" /></g>
<g
   transform="translate(480,360) scale(4.12)"
   id="g518"><rect
     width="6"
     height="6"
     id="rect516" /></g>
<g
   transform="translate(528,360) scale(4.12)"
   id="g522"><rect
     width="6"
     height="6"
     id="rect520" /></g>
<g
   transform="translate(552,360) scale(4.12)"
   id="g526"><rect
     width="6"
     height="6"
     id="rect524" /></g>
<g
   transform="translate(576,360) scale(4.12)"
   id="g530"><rect
     width="6"
     height="6"
     id="rect528" /></g>
<g
   transform="translate(600,360) scale(4.12)"
   id="g534"><rect
     width="6"
     height="6"
     id="rect532" /></g>
<g
   transform="translate(624,360) scale(4.12)"
   id="g538"><rect
     width="6"
     height="6"
     id="rect536" /></g>
<g
   transform="translate(720,360) scale(4.12)"
   id="g542"><rect
     width="6"
     height="6"
     id="rect540" /></g>
<g
   transform="translate(120,384) scale(4.12)"
   id="g546"><rect
     width="6"
     height="6"
     id="rect544" /></g>
<g
   transform="translate(144,384) scale(4.12)"
   id="g550"><rect
     width="6"
     height="6"
     id="rect548" /></g>
<g
   transform="translate(192,384) scale(4.12)"
   id="g554"><rect
     width="6"
     height="6"
     id="rect552" /></g>
<g
   transform="translate(216,384) scale(4.12)"
   id="g558"><rect
     width="6"
     height="6"
     id="rect556" /></g>
<g
   transform="translate(240,384) scale(4.12)"
   id="g562"><rect
     width="6"
     height="6"
     id="rect560" /></g>
<g
   transform="translate(264,384) scale(4.12)"
   id="g566"><rect
     width="6"
     height="6"
     id="rect564" /></g>
<g
   transform="translate(288,384) scale(4.12)"
   id="g570"><rect
     width="6"
     height="6"
     id="rect568" /></g>
<g
   transform="translate(360,384) scale(4.12)"
   id="g574"><rect
     width="6"
     height="6"
     id="rect572" /></g>
<g
   transform="translate(384,384) scale(4.12)"
   id="g578"><rect
     width="6"
     height="6"
     id="rect576" /></g>
<g
   transform="translate(408,384) scale(4.12)"
   id="g582"><rect
     width="6"
     height="6"
     id="rect580" /></g>
<g
   transform="translate(432,384) scale(4.12)"
   id="g586"><rect
     width="6"
     height="6"
     id="rect584" /></g>
<g
   transform="translate(528,384) scale(4.12)"
   id="g590"><rect
     width="6"
     height="6"
     id="rect588" /></g>
<g
   transform="translate(552,384) scale(4.12)"
   id="g594"><rect
     width="6"
     height="6"
     id="rect592" /></g>
<g
   transform="translate(624,384) scale(4.12)"
   id="g598"><rect
     width="6"
     height="6"
     id="rect596" /></g>
<g
   transform="translate(648,384) scale(4.12)"
   id="g602"><rect
     width="6"
     height="6"
     id="rect600" /></g>
<g
   transform="translate(672,384) scale(4.12)"
   id="g606"><rect
     width="6"
     height="6"
     id="rect604" /></g>
<g
   transform="translate(48,408) scale(4.12)"
   id="g610"><rect
     width="6"
     height="6"
     id="rect608" /></g>
<g
   transform="translate(144,408) scale(4.12)"
   id="g614"><rect
     width="6"
     height="6"
     id="rect612" /></g>
<g
   transform="translate(336,408) scale(4.12)"
   id="g618"><rect
     width="6"
     height="6"
     id="rect616" /></g>
<g
   transform="translate(360,408) scale(4.12)"
   id="g622"><rect
     width="6"
     height="6"
     id="rect620" /></g>
<g
   transform="translate(408,408) scale(4.12)"
   id="g626"><rect
     width="6"
     height="6"
     id="rect624" /></g>
<g
   transform="translate(432,408) scale(4.12)"
   id="g630"><rect
     width="6"
     height="6"
     id="rect628" /></g>
<g
   transform="translate(504,408) scale(4.12)"
   id="g634"><rect
     width="6"
     height="6"
     id="rect632" /></g>
<g
   transform="translate(528,408) scale(4.12)"
   id="g638"><rect
     width="6"
     height="6"
     id="rect636" /></g>
<g
   transform="translate(552,408) scale(4.12)"
   id="g642"><rect
     width="6"
     height="6"
     id="rect640" /></g>
<g
   transform="translate(576,408) scale(4.12)"
   id="g646"><rect
     width="6"
     height="6"
     id="rect644" /></g>
<g
   transform="translate(600,408) scale(4.12)"
   id="g650"><rect
     width="6"
     height="6"
     id="rect648" /></g>
<g
   transform="translate(624,408) scale(4.12)"
   id="g654"><rect
     width="6"
     height="6"
     id="rect652" /></g>
<g
   transform="translate(696,408) scale(4.12)"
   id="g658"><rect
     width="6"
     height="6"
     id="rect656" /></g>
<g
   transform="translate(144,432) scale(4.12)"
   id="g662"><rect
     width="6"
     height="6"
     id="rect660" /></g>
<g
   transform="translate(192,432) scale(4.12)"
   id="g666"><rect
     width="6"
     height="6"
     id="rect664" /></g>
<g
   transform="translate(216,432) scale(4.12)"
   id="g670"><rect
     width="6"
     height="6"
     id="rect668" /></g>
<g
   transform="translate(264,432) scale(4.12)"
   id="g674"><rect
     width="6"
     height="6"
     id="rect672" /></g>
<g
   transform="translate(336,432) scale(4.12)"
   id="g678"><rect
     width="6"
     height="6"
     id="rect676" /></g>
<g
   transform="translate(384,432) scale(4.12)"
   id="g682"><rect
     width="6"
     height="6"
     id="rect680" /></g>
<g
   transform="translate(408,432) scale(4.12)"
   id="g686"><rect
     width="6"
     height="6"
     id="rect684" /></g>
<g
   transform="translate(456,432) scale(4.12)"
   id="g690"><rect
     width="6"
     height="6"
     id="rect688" /></g>
<g
   transform="translate(480,432) scale(4.12)"
   id="g694"><rect
     width="6"
     height="6"
     id="rect692" /></g>
<g
   transform="translate(504,432) scale(4.12)"
   id="g698"><rect
     width="6"
     height="6"
     id="rect696" /></g>
<g
   transform="translate(552,432) scale(4.12)"
   id="g702"><rect
     width="6"
     height="6"
     id="rect700" /></g>
<g
   transform="translate(600,432) scale(4.12)"
   id="g706"><rect
     width="6"
     height="6"
     id="rect704" /></g>
<g
   transform="translate(648,432) scale(4.12)"
   id="g710"><rect
     width="6"
     height="6"
     id="rect708" /></g>
<g
   transform="translate(672,432) scale(4.12)"
   id="g714"><rect
     width="6"
     height="6"
     id="rect712" /></g>
<g
   transform="translate(48,456) scale(4.12)"
   id="g718"><rect
     width="6"
     height="6"
     id="rect716" /></g>
<g
   transform="translate(96,456) scale(4.12)"
   id="g722"><rect
     width="6"
     height="6"
     id="rect720" /></g>
<g
   transform="translate(144,456) scale(4.12)"
   id="g726"><rect
     width="6"
     height="6"
     id="rect724" /></g>
<g
   transform="translate(216,456) scale(4.12)"
   id="g730"><rect
     width="6"
     height="6"
     id="rect728" /></g>
<g
   transform="translate(264,456) scale(4.12)"
   id="g734"><rect
     width="6"
     height="6"
     id="rect732" /></g>
<g
   transform="translate(432,456) scale(4.12)"
   id="g738"><rect
     width="6"
     height="6"
     id="rect736" /></g>
<g
   transform="translate(504,456) scale(4.12)"
   id="g742"><rect
     width="6"
     height="6"
     id="rect740" /></g>
<g
   transform="translate(552,456) scale(4.12)"
   id="g746"><rect
     width="6"
     height="6"
     id="rect744" /></g>
<g
   transform="translate(576,456) scale(4.12)"
   id="g750"><rect
     width="6"
     height="6"
     id="rect748" /></g>
<g
   transform="translate(600,456) scale(4.12)"
   id="g754"><rect
     width="6"
     height="6"
     id="rect752" /></g>
<g
   transform="translate(624,456) scale(4.12)"
   id="g758"><rect
     width="6"
     height="6"
     id="rect756" /></g>
<g
   transform="translate(672,456) scale(4.12)"
   id="g762"><rect
     width="6"
     height="6"
     id="rect760" /></g>
<g
   transform="translate(720,456) scale(4.12)"
   id="g766"><rect
     width="6"
     height="6"
     id="rect764" /></g>
<g
   transform="translate(48,480) scale(4.12)"
   id="g770"><rect
     width="6"
     height="6"
     id="rect768" /></g>
<g
   transform="translate(144,480) scale(4.12)"
   id="g774"><rect
     width="6"
     height="6"
     id="rect772" /></g>
<g
   transform="translate(192,480) scale(4.12)"
   id="g778"><rect
     width="6"
     height="6"
     id="rect776" /></g>
<g
   transform="translate(240,480) scale(4.12)"
   id="g782"><rect
     width="6"
     height="6"
     id="rect780" /></g>
<g
   transform="translate(264,480) scale(4.12)"
   id="g786"><rect
     width="6"
     height="6"
     id="rect784" /></g>
<g
   transform="translate(312,480) scale(4.12)"
   id="g790"><rect
     width="6"
     height="6"
     id="rect788" /></g>
<g
   transform="translate(336,480) scale(4.12)"
   id="g794"><rect
     width="6"
     height="6"
     id="rect792" /></g>
<g
   transform="translate(408,480) scale(4.12)"
   id="g798"><rect
     width="6"
     height="6"
     id="rect796" /></g>
<g
   transform="translate(432,480) scale(4.12)"
   id="g802"><rect
     width="6"
     height="6"
     id="rect800" /></g>
<g
   transform="translate(480,480) scale(4.12)"
   id="g806"><rect
     width="6"
     height="6"
     id="rect804" /></g>
<g
   transform="translate(528,480) scale(4.12)"
   id="g810"><rect
     width="6"
     height="6"
     id="rect808" /></g>
<g
   transform="translate(576,480) scale(4.12)"
   id="g814"><rect
     width="6"
     height="6"
     id="rect812" /></g>
<g
   transform="translate(600,480) scale(4.12)"
   id="g818"><rect
     width="6"
     height="6"
     id="rect816" /></g>
<g
   transform="translate(624,480) scale(4.12)"
   id="g822"><rect
     width="6"
     height="6"
     id="rect820" /></g>
<g
   transform="translate(672,480) scale(4.12)"
   id="g826"><rect
     width="6"
     height="6"
     id="rect824" /></g>
<g
   transform="translate(48,504) scale(4.12)"
   id="g830"><rect
     width="6"
     height="6"
     id="rect828" /></g>
<g
   transform="translate(216,504) scale(4.12)"
   id="g834"><rect
     width="6"
     height="6"
     id="rect832" /></g>
<g
   transform="translate(264,504) scale(4.12)"
   id="g838"><rect
     width="6"
     height="6"
     id="rect836" /></g>
<g
   transform="translate(288,504) scale(4.12)"
   id="g842"><rect
     width="6"
     height="6"
     id="rect840" /></g>
<g
   transform="translate(312,504) scale(4.12)"
   id="g846"><rect
     width="6"
     height="6"
     id="rect844" /></g>
<g
   transform="translate(384,504) scale(4.12)"
   id="g850"><rect
     width="6"
     height="6"
     id="rect848" /></g>
<g
   transform="translate(408,504) scale(4.12)"
   id="g854"><rect
     width="6"
     height="6"
     id="rect852" /></g>
<g
   transform="translate(480,504) scale(4.12)"
   id="g858"><rect
     width="6"
     height="6"
     id="rect856" /></g>
<g
   transform="translate(528,504) scale(4.12)"
   id="g862"><rect
     width="6"
     height="6"
     id="rect860" /></g>
<g
   transform="translate(552,504) scale(4.12)"
   id="g866"><rect
     width="6"
     height="6"
     id="rect864" /></g>
<g
   transform="translate(576,504) scale(4.12)"
   id="g870"><rect
     width="6"
     height="6"
     id="rect868" /></g>
<g
   transform="translate(696,504) scale(4.12)"
   id="g874"><rect
     width="6"
     height="6"
     id="rect872" /></g>
<g
   transform="translate(48,528) scale(4.12)"
   id="g878"><rect
     width="6"
     height="6"
     id="rect876" /></g>
<g
   transform="translate(96,528) scale(4.12)"
   id="g882"><rect
     width="6"
     height="6"
     id="rect880" /></g>
<g
   transform="translate(120,528) scale(4.12)"
   id="g886"><rect
     width="6"
     height="6"
     id="rect884" /></g>
<g
   transform="translate(144,528) scale(4.12)"
   id="g890"><rect
     width="6"
     height="6"
     id="rect888" /></g>
<g
   transform="translate(192,528) scale(4.12)"
   id="g894"><rect
     width="6"
     height="6"
     id="rect892" /></g>
<g
   transform="translate(216,528) scale(4.12)"
   id="g898"><rect
     width="6"
     height="6"
     id="rect896" /></g>
<g
   transform="translate(240,528) scale(4.12)"
   id="g902"><rect
     width="6"
     height="6"
     id="rect900" /></g>
<g
   transform="translate(312,528) scale(4.12)"
   id="g906"><rect
     width="6"
     height="6"
     id="rect904" /></g>
<g
   transform="translate(456,528) scale(4.12)"
   id="g910"><rect
     width="6"
     height="6"
     id="rect908" /></g>
<g
   transform="translate(480,528) scale(4.12)"
   id="g914"><rect
     width="6"
     height="6"
     id="rect912" /></g>
<g
   transform="translate(504,528) scale(4.12)"
   id="g918"><rect
     width="6"
     height="6"
     id="rect916" /></g>
<g
   transform="translate(528,528) scale(4.12)"
   id="g922"><rect
     width="6"
     height="6"
     id="rect920" /></g>
<g
   transform="translate(552,528) scale(4.12)"
   id="g926"><rect
     width="6"
     height="6"
     id="rect924" /></g>
<g
   transform="translate(576,528) scale(4.12)"
   id="g930"><rect
     width="6"
     height="6"
     id="rect928" /></g>
<g
   transform="translate(600,528) scale(4.12)"
   id="g934"><rect
     width="6"
     height="6"
     id="rect932" /></g>
<g
   transform="translate(624,528) scale(4.12)"
   id="g938"><rect
     width="6"
     height="6"
     id="rect936" /></g>
<g
   transform="translate(672,528) scale(4.12)"
   id="g942"><rect
     width="6"
     height="6"
     id="rect940" /></g>
<g
   transform="translate(696,528) scale(4.12)"
   id="g946"><rect
     width="6"
     height="6"
     id="rect944" /></g>
<g
   transform="translate(720,528) scale(4.12)"
   id="g950"><rect
     width="6"
     height="6"
     id="rect948" /></g>
<g
   transform="translate(240,552) scale(4.12)"
   id="g954"><rect
     width="6"
     height="6"
     id="rect952" /></g>
<g
   transform="translate(288,552) scale(4.12)"
   id="g958"><rect
     width="6"
     height="6"
     id="rect956" /></g>
<g
   transform="translate(336,552) scale(4.12)"
   id="g962"><rect
     width="6"
     height="6"
     id="rect960" /></g>
<g
   transform="translate(360,552) scale(4.12)"
   id="g966"><rect
     width="6"
     height="6"
     id="rect964" /></g>
<g
   transform="translate(384,552) scale(4.12)"
   id="g970"><rect
     width="6"
     height="6"
     id="rect968" /></g>
<g
   transform="translate(432,552) scale(4.12)"
   id="g974"><rect
     width="6"
     height="6"
     id="rect972" /></g>
<g
   transform="translate(456,552) scale(4.12)"
   id="g978"><rect
     width="6"
     height="6"
     id="rect976" /></g>
<g
   transform="translate(480,552) scale(4.12)"
   id="g982"><rect
     width="6"
     height="6"
     id="rect980" /></g>
<g
   transform="translate(528,552) scale(4.12)"
   id="g986"><rect
     width="6"
     height="6"
     id="rect984" /></g>
<g
   transform="translate(624,552) scale(4.12)"
   id="g990"><rect
     width="6"
     height="6"
     id="rect988" /></g>
<g
   transform="translate(648,552) scale(4.12)"
   id="g994"><rect
     width="6"
     height="6"
     id="rect992" /></g>
<g
   transform="translate(672,552) scale(4.12)"
   id="g998"><rect
     width="6"
     height="6"
     id="rect996" /></g>
<g
   transform="translate(696,552) scale(4.12)"
   id="g1002"><rect
     width="6"
     height="6"
     id="rect1000" /></g>
<g
   transform="translate(720,552) scale(4.12)"
   id="g1006"><rect
     width="6"
     height="6"
     id="rect1004" /></g>
<g
   transform="translate(240,576) scale(4.12)"
   id="g1010"><rect
     width="6"
     height="6"
     id="rect1008" /></g>
<g
   transform="translate(360,576) scale(4.12)"
   id="g1014"><rect
     width="6"
     height="6"
     id="rect1012" /></g>
<g
   transform="translate(384,576) scale(4.12)"
   id="g1018"><rect
     width="6"
     height="6"
     id="rect1016" /></g>
<g
   transform="translate(408,576) scale(4.12)"
   id="g1022"><rect
     width="6"
     height="6"
     id="rect1020" /></g>
<g
   transform="translate(456,576) scale(4.12)"
   id="g1026"><rect
     width="6"
     height="6"
     id="rect1024" /></g>
<g
   transform="translate(504,576) scale(4.12)"
   id="g1030"><rect
     width="6"
     height="6"
     id="rect1028" /></g>
<g
   transform="translate(528,576) scale(4.12)"
   id="g1034"><rect
     width="6"
     height="6"
     id="rect1032" /></g>
<g
   transform="translate(576,576) scale(4.12)"
   id="g1038"><rect
     width="6"
     height="6"
     id="rect1036" /></g>
<g
   transform="translate(624,576) scale(4.12)"
   id="g1042"><rect
     width="6"
     height="6"
     id="rect1040" /></g>
<g
   transform="translate(648,576) scale(4.12)"
   id="g1046"><rect
     width="6"
     height="6"
     id="rect1044" /></g>
<g
   transform="translate(672,576) scale(4.12)"
   id="g1050"><rect
     width="6"
     height="6"
     id="rect1048" /></g>
<g
   transform="translate(288,600) scale(4.12)"
   id="g1054"><rect
     width="6"
     height="6"
     id="rect1052" /></g>
<g
   transform="translate(336,600) scale(4.12)"
   id="g1058"><rect
     width="6"
     height="6"
     id="rect1056" /></g>
<g
   transform="translate(360,600) scale(4.12)"
   id="g1062"><rect
     width="6"
     height="6"
     id="rect1060" /></g>
<g
   transform="translate(408,600) scale(4.12)"
   id="g1066"><rect
     width="6"
     height="6"
     id="rect1064" /></g>
<g
   transform="translate(504,600) scale(4.12)"
   id="g1070"><rect
     width="6"
     height="6"
     id="rect1068" /></g>
<g
   transform="translate(528,600) scale(4.12)"
   id="g1074"><rect
     width="6"
     height="6"
     id="rect1072" /></g>
<g
   transform="translate(624,600) scale(4.12)"
   id="g1078"><rect
     width="6"
     height="6"
     id="rect1076" /></g>
<g
   transform="translate(240,624) scale(4.12)"
   id="g1082"><rect
     width="6"
     height="6"
     id="rect1080" /></g>
<g
   transform="translate(264,624) scale(4.12)"
   id="g1086"><rect
     width="6"
     height="6"
     id="rect1084" /></g>
<g
   transform="translate(288,624) scale(4.12)"
   id="g1090"><rect
     width="6"
     height="6"
     id="rect1088" /></g>
<g
   transform="translate(336,624) scale(4.12)"
   id="g1094"><rect
     width="6"
     height="6"
     id="rect1092" /></g>
<g
   transform="translate(384,624) scale(4.12)"
   id="g1098"><rect
     width="6"
     height="6"
     id="rect1096" /></g>
<g
   transform="translate(432,624) scale(4.12)"
   id="g1102"><rect
     width="6"
     height="6"
     id="rect1100" /></g>
<g
   transform="translate(528,624) scale(4.12)"
   id="g1106"><rect
     width="6"
     height="6"
     id="rect1104" /></g>
<g
   transform="translate(552,624) scale(4.12)"
   id="g1110"><rect
     width="6"
     height="6"
     id="rect1108" /></g>
<g
   transform="translate(576,624) scale(4.12)"
   id="g1114"><rect
     width="6"
     height="6"
     id="rect1112" /></g>
<g
   transform="translate(600,624) scale(4.12)"
   id="g1118"><rect
     width="6"
     height="6"
     id="rect1116" /></g>
<g
   transform="translate(624,624) scale(4.12)"
   id="g1122"><rect
     width="6"
     height="6"
     id="rect1120" /></g>
<g
   transform="translate(672,624) scale(4.12)"
   id="g1126"><rect
     width="6"
     height="6"
     id="rect1124" /></g>
<g
   transform="translate(696,624) scale(4.12)"
   id="g1130"><rect
     width="6"
     height="6"
     id="rect1128" /></g>
<g
   transform="translate(240,648) scale(4.12)"
   id="g1134"><rect
     width="6"
     height="6"
     id="rect1132" /></g>
<g
   transform="translate(288,648) scale(4.12)"
   id="g1138"><rect
     width="6"
     height="6"
     id="rect1136" /></g>
<g
   transform="translate(432,648) scale(4.12)"
   id="g1142"><rect
     width="6"
     height="6"
     id="rect1140" /></g>
<g
   transform="translate(456,648) scale(4.12)"
   id="g1146"><rect
     width="6"
     height="6"
     id="rect1144" /></g>
<g
   transform="translate(480,648) scale(4.12)"
   id="g1150"><rect
     width="6"
     height="6"
     id="rect1148" /></g>
<g
   transform="translate(504,648) scale(4.12)"
   id="g1154"><rect
     width="6"
     height="6"
     id="rect1152" /></g>
<g
   transform="translate(528,648) scale(4.12)"
   id="g1158"><rect
     width="6"
     height="6"
     id="rect1156" /></g>
<g
   transform="translate(648,648) scale(4.12)"
   id="g1162"><rect
     width="6"
     height="6"
     id="rect1160" /></g>
<g
   transform="translate(672,648) scale(4.12)"
   id="g1166"><rect
     width="6"
     height="6"
     id="rect1164" /></g>
<g
   transform="translate(696,648) scale(4.12)"
   id="g1170"><rect
     width="6"
     height="6"
     id="rect1168" /></g>
<g
   transform="translate(720,648) scale(4.12)"
   id="g1174"><rect
     width="6"
     height="6"
     id="rect1172" /></g>
<g
   transform="translate(240,672) scale(4.12)"
   id="g1178"><rect
     width="6"
     height="6"
     id="rect1176" /></g>
<g
   transform="translate(264,672) scale(4.12)"
   id="g1182"><rect
     width="6"
     height="6"
     id="rect1180" /></g>
<g
   transform="translate(288,672) scale(4.12)"
   id="g1186"><rect
     width="6"
     height="6"
     id="rect1184" /></g>
<g
   transform="translate(312,672) scale(4.12)"
   id="g1190"><rect
     width="6"
     height="6"
     id="rect1188" /></g>
<g
   transform="translate(336,672) scale(4.12)"
   id="g1194"><rect
     width="6"
     height="6"
     id="rect1192" /></g>
<g
   transform="translate(408,672) scale(4.12)"
   id="g1198"><rect
     width="6"
     height="6"
     id="rect1196" /></g>
<g
   transform="translate(432,672) scale(4.12)"
   id="g1202"><rect
     width="6"
     height="6"
     id="rect1200" /></g>
<g
   transform="translate(456,672) scale(4.12)"
   id="g1206"><rect
     width="6"
     height="6"
     id="rect1204" /></g>
<g
   transform="translate(504,672) scale(4.12)"
   id="g1210"><rect
     width="6"
     height="6"
     id="rect1208" /></g>
<g
   transform="translate(528,672) scale(4.12)"
   id="g1214"><rect
     width="6"
     height="6"
     id="rect1212" /></g>
<g
   transform="translate(552,672) scale(4.12)"
   id="g1218"><rect
     width="6"
     height="6"
     id="rect1216" /></g>
<g
   transform="translate(576,672) scale(4.12)"
   id="g1222"><rect
     width="6"
     height="6"
     id="rect1220" /></g>
<g
   transform="translate(600,672) scale(4.12)"
   id="g1226"><rect
     width="6"
     height="6"
     id="rect1224" /></g>
<g
   transform="translate(624,672) scale(4.12)"
   id="g1230"><rect
     width="6"
     height="6"
     id="rect1228" /></g>
<g
   transform="translate(648,672) scale(4.12)"
   id="g1234"><rect
     width="6"
     height="6"
     id="rect1232" /></g>
<g
   transform="translate(672,672) scale(4.12)"
   id="g1238"><rect
     width="6"
     height="6"
     id="rect1236" /></g>
<g
   transform="translate(696,672) scale(4.12)"
   id="g1242"><rect
     width="6"
     height="6"
     id="rect1240" /></g>
<g
   transform="translate(240,696) scale(4.12)"
   id="g1246"><rect
     width="6"
     height="6"
     id="rect1244" /></g>
<g
   transform="translate(312,696) scale(4.12)"
   id="g1250"><rect
     width="6"
     height="6"
     id="rect1248" /></g>
<g
   transform="translate(384,696) scale(4.12)"
   id="g1254"><rect
     width="6"
     height="6"
     id="rect1252" /></g>
<g
   transform="translate(408,696) scale(4.12)"
   id="g1258"><rect
     width="6"
     height="6"
     id="rect1256" /></g>
<g
   transform="translate(480,696) scale(4.12)"
   id="g1262"><rect
     width="6"
     height="6"
     id="rect1260" /></g>
<g
   transform="translate(528,696) scale(4.12)"
   id="g1266"><rect
     width="6"
     height="6"
     id="rect1264" /></g>
<g
   transform="translate(552,696) scale(4.12)"
   id="g1270"><rect
     width="6"
     height="6"
     id="rect1268" /></g>
<g
   transform="translate(600,696) scale(4.12)"
   id="g1274"><rect
     width="6"
     height="6"
     id="rect1272" /></g>
<g
   transform="translate(648,696) scale(4.12)"
   id="g1278"><rect
     width="6"
     height="6"
     id="rect1276" /></g>
<g
   transform="translate(696,696) scale(4.12)"
   id="g1282"><rect
     width="6"
     height="6"
     id="rect1280" /></g>
<g
   transform="translate(240,720) scale(4.12)"
   id="g1286"><rect
     width="6"
     height="6"
     id="rect1284" /></g>
<g
   transform="translate(264,720) scale(4.12)"
   id="g1290"><rect
     width="6"
     height="6"
     id="rect1288" /></g>
<g
   transform="translate(288,720) scale(4.12)"
   id="g1294"><rect
     width="6"
     height="6"
     id="rect1292" /></g>
<g
   transform="translate(312,720) scale(4.12)"
   id="g1298"><rect
     width="6"
     height="6"
     id="rect1296" /></g>
<g
   transform="translate(456,720) scale(4.12)"
   id="g1302"><rect
     width="6"
     height="6"
     id="rect1300" /></g>
<g
   transform="translate(504,720) scale(4.12)"
   id="g1306"><rect
     width="6"
     height="6"
     id="rect1304" /></g>
<g
   transform="translate(576,720) scale(4.12)"
   id="g1310"><rect
     width="6"
     height="6"
     id="rect1308" /></g>
<g
   transform="translate(600,720) scale(4.12)"
   id="g1314"><rect
     width="6"
     height="6"
     id="rect1312" /></g>
<g
   transform="translate(624,720) scale(4.12)"
   id="g1318"><rect
     width="6"
     height="6"
     id="rect1316" /></g>
<g
   transform="translate(672,720) scale(4.12)"
   id="g1322"><rect
     width="6"
     height="6"
     id="rect1320" /></g>
<g
   transform="translate(48,48)"
   id="g1328"><g
     transform="scale(12)"
     id="g1326"><path
       d="M0,0v14h14V0H0z M12,12H2V2h10V12z"
       id="path1324" /></g></g>
<g
   transform="translate(576,48)"
   id="g1334"><g
     transform="scale(12)"
     id="g1332"><path
       d="M0,0v14h14V0H0z M12,12H2V2h10V12z"
       id="path1330" /></g></g>
<g
   transform="translate(48,576)"
   id="g1340"><g
     transform="scale(12)"
     id="g1338"><path
       d="M0,0v14h14V0H0z M12,12H2V2h10V12z"
       id="path1336" /></g></g>
<g
   transform="translate(96,96)"
   id="g1346"><g
     transform="scale(12)"
     id="g1344"><rect
       width="6"
       height="6"
       id="rect1342" /></g></g>
<g
   transform="translate(624,96)"
   id="g1352"><g
     transform="scale(12)"
     id="g1350"><rect
       width="6"
       height="6"
       id="rect1348" /></g></g>
<g
   transform="translate(96,624)"
   id="g1358"><g
     transform="scale(12)"
     id="g1356"><rect
       width="6"
       height="6"
       id="rect1354" /></g></g>
</g></svg>
