%TF.GenerationSoftware,KiCad,Pcbnew,8.0.7*%
%TF.CreationDate,2025-01-27T21:14:39+01:00*%
%TF.ProjectId,Main,4d61696e-2e6b-4696-9361-645f70636258,rev?*%
%TF.SameCoordinates,Original*%
%TF.FileFunction,Drillmap*%
%TF.FilePolarity,Positive*%
%FSLAX45Y45*%
G04 Gerber Fmt 4.5, Leading zero omitted, Abs format (unit mm)*
G04 Created by KiCad (PCBNEW 8.0.7) date 2025-01-27 21:14:39*
%MOMM*%
%LPD*%
G01*
G04 APERTURE LIST*
%ADD10C,0.200000*%
%ADD11C,0.320000*%
G04 APERTURE END LIST*
D10*
X36830000Y-17780000D02*
G75*
G02*
X36576000Y-18034000I-254000J0D01*
G01*
X10160000Y-4318000D02*
X36576000Y-4318000D01*
X5080000Y-10414000D02*
X5080000Y-17780000D01*
X36830000Y-4572000D02*
X36830000Y-17780000D01*
X5334000Y-18034000D02*
G75*
G02*
X5080000Y-17780000I0J254000D01*
G01*
X9906000Y-9906000D02*
G75*
G02*
X9652000Y-10160000I-254000J0D01*
G01*
X5334000Y-18034000D02*
X36576000Y-18034000D01*
X5334000Y-10160000D02*
X9652000Y-10160000D01*
X5080000Y-10414000D02*
G75*
G02*
X5334000Y-10160000I254000J0D01*
G01*
X36576000Y-4318000D02*
G75*
G02*
X36830000Y-4572000I0J-254000D01*
G01*
X9906000Y-4572000D02*
G75*
G02*
X10160000Y-4318000I254000J0D01*
G01*
X9906000Y-9906000D02*
X9906000Y-4572000D01*
D11*
X5301000Y-10381000D02*
X5621000Y-10701000D01*
X5621000Y-10381000D02*
X5301000Y-10701000D01*
X5301000Y-17493000D02*
X5621000Y-17813000D01*
X5621000Y-17493000D02*
X5301000Y-17813000D01*
X10127000Y-4539000D02*
X10447000Y-4859000D01*
X10447000Y-4539000D02*
X10127000Y-4859000D01*
X13810000Y-10635000D02*
X14130000Y-10955000D01*
X14130000Y-10635000D02*
X13810000Y-10955000D01*
X16350000Y-10635000D02*
X16670000Y-10955000D01*
X16670000Y-10635000D02*
X16350000Y-10955000D01*
X22446000Y-10635000D02*
X22766000Y-10955000D01*
X22766000Y-10635000D02*
X22446000Y-10955000D01*
X22954000Y-16350000D02*
X23274000Y-16670000D01*
X23274000Y-16350000D02*
X22954000Y-16670000D01*
X24478000Y-5682000D02*
X24798000Y-6002000D01*
X24798000Y-5682000D02*
X24478000Y-6002000D01*
X24986000Y-10635000D02*
X25306000Y-10955000D01*
X25306000Y-10635000D02*
X24986000Y-10955000D01*
X31082000Y-10635000D02*
X31402000Y-10955000D01*
X31402000Y-10635000D02*
X31082000Y-10955000D01*
X33622000Y-10635000D02*
X33942000Y-10955000D01*
X33942000Y-10635000D02*
X33622000Y-10955000D01*
X36289000Y-4539000D02*
X36609000Y-4859000D01*
X36609000Y-4539000D02*
X36289000Y-4859000D01*
X36289000Y-17493000D02*
X36609000Y-17813000D01*
X36609000Y-17493000D02*
X36289000Y-17813000D01*
D10*
X5330777Y-18355484D02*
X5330777Y-18155484D01*
X5330777Y-18155484D02*
X5378396Y-18155484D01*
X5378396Y-18155484D02*
X5406967Y-18165008D01*
X5406967Y-18165008D02*
X5426015Y-18184055D01*
X5426015Y-18184055D02*
X5435539Y-18203103D01*
X5435539Y-18203103D02*
X5445063Y-18241198D01*
X5445063Y-18241198D02*
X5445063Y-18269770D01*
X5445063Y-18269770D02*
X5435539Y-18307865D01*
X5435539Y-18307865D02*
X5426015Y-18326912D01*
X5426015Y-18326912D02*
X5406967Y-18345960D01*
X5406967Y-18345960D02*
X5378396Y-18355484D01*
X5378396Y-18355484D02*
X5330777Y-18355484D01*
X5530777Y-18355484D02*
X5530777Y-18222150D01*
X5530777Y-18260246D02*
X5540301Y-18241198D01*
X5540301Y-18241198D02*
X5549824Y-18231674D01*
X5549824Y-18231674D02*
X5568872Y-18222150D01*
X5568872Y-18222150D02*
X5587920Y-18222150D01*
X5654586Y-18355484D02*
X5654586Y-18222150D01*
X5654586Y-18155484D02*
X5645062Y-18165008D01*
X5645062Y-18165008D02*
X5654586Y-18174531D01*
X5654586Y-18174531D02*
X5664110Y-18165008D01*
X5664110Y-18165008D02*
X5654586Y-18155484D01*
X5654586Y-18155484D02*
X5654586Y-18174531D01*
X5778396Y-18355484D02*
X5759348Y-18345960D01*
X5759348Y-18345960D02*
X5749824Y-18326912D01*
X5749824Y-18326912D02*
X5749824Y-18155484D01*
X5883158Y-18355484D02*
X5864110Y-18345960D01*
X5864110Y-18345960D02*
X5854586Y-18326912D01*
X5854586Y-18326912D02*
X5854586Y-18155484D01*
X6111729Y-18355484D02*
X6111729Y-18155484D01*
X6111729Y-18155484D02*
X6178396Y-18298341D01*
X6178396Y-18298341D02*
X6245062Y-18155484D01*
X6245062Y-18155484D02*
X6245062Y-18355484D01*
X6426015Y-18355484D02*
X6426015Y-18250722D01*
X6426015Y-18250722D02*
X6416491Y-18231674D01*
X6416491Y-18231674D02*
X6397443Y-18222150D01*
X6397443Y-18222150D02*
X6359348Y-18222150D01*
X6359348Y-18222150D02*
X6340301Y-18231674D01*
X6426015Y-18345960D02*
X6406967Y-18355484D01*
X6406967Y-18355484D02*
X6359348Y-18355484D01*
X6359348Y-18355484D02*
X6340301Y-18345960D01*
X6340301Y-18345960D02*
X6330777Y-18326912D01*
X6330777Y-18326912D02*
X6330777Y-18307865D01*
X6330777Y-18307865D02*
X6340301Y-18288817D01*
X6340301Y-18288817D02*
X6359348Y-18279293D01*
X6359348Y-18279293D02*
X6406967Y-18279293D01*
X6406967Y-18279293D02*
X6426015Y-18269770D01*
X6521253Y-18222150D02*
X6521253Y-18422150D01*
X6521253Y-18231674D02*
X6540301Y-18222150D01*
X6540301Y-18222150D02*
X6578396Y-18222150D01*
X6578396Y-18222150D02*
X6597443Y-18231674D01*
X6597443Y-18231674D02*
X6606967Y-18241198D01*
X6606967Y-18241198D02*
X6616491Y-18260246D01*
X6616491Y-18260246D02*
X6616491Y-18317389D01*
X6616491Y-18317389D02*
X6606967Y-18336436D01*
X6606967Y-18336436D02*
X6597443Y-18345960D01*
X6597443Y-18345960D02*
X6578396Y-18355484D01*
X6578396Y-18355484D02*
X6540301Y-18355484D01*
X6540301Y-18355484D02*
X6521253Y-18345960D01*
X6702205Y-18336436D02*
X6711729Y-18345960D01*
X6711729Y-18345960D02*
X6702205Y-18355484D01*
X6702205Y-18355484D02*
X6692682Y-18345960D01*
X6692682Y-18345960D02*
X6702205Y-18336436D01*
X6702205Y-18336436D02*
X6702205Y-18355484D01*
X6702205Y-18231674D02*
X6711729Y-18241198D01*
X6711729Y-18241198D02*
X6702205Y-18250722D01*
X6702205Y-18250722D02*
X6692682Y-18241198D01*
X6692682Y-18241198D02*
X6702205Y-18231674D01*
X6702205Y-18231674D02*
X6702205Y-18250722D01*
X4870000Y-18584000D02*
X5070000Y-18784000D01*
X5070000Y-18584000D02*
X4870000Y-18784000D01*
X5311729Y-18575484D02*
X5435539Y-18575484D01*
X5435539Y-18575484D02*
X5368872Y-18651674D01*
X5368872Y-18651674D02*
X5397444Y-18651674D01*
X5397444Y-18651674D02*
X5416491Y-18661198D01*
X5416491Y-18661198D02*
X5426015Y-18670722D01*
X5426015Y-18670722D02*
X5435539Y-18689770D01*
X5435539Y-18689770D02*
X5435539Y-18737389D01*
X5435539Y-18737389D02*
X5426015Y-18756436D01*
X5426015Y-18756436D02*
X5416491Y-18765960D01*
X5416491Y-18765960D02*
X5397444Y-18775484D01*
X5397444Y-18775484D02*
X5340301Y-18775484D01*
X5340301Y-18775484D02*
X5321253Y-18765960D01*
X5321253Y-18765960D02*
X5311729Y-18756436D01*
X5521253Y-18756436D02*
X5530777Y-18765960D01*
X5530777Y-18765960D02*
X5521253Y-18775484D01*
X5521253Y-18775484D02*
X5511729Y-18765960D01*
X5511729Y-18765960D02*
X5521253Y-18756436D01*
X5521253Y-18756436D02*
X5521253Y-18775484D01*
X5606967Y-18594531D02*
X5616491Y-18585008D01*
X5616491Y-18585008D02*
X5635539Y-18575484D01*
X5635539Y-18575484D02*
X5683158Y-18575484D01*
X5683158Y-18575484D02*
X5702205Y-18585008D01*
X5702205Y-18585008D02*
X5711729Y-18594531D01*
X5711729Y-18594531D02*
X5721253Y-18613579D01*
X5721253Y-18613579D02*
X5721253Y-18632627D01*
X5721253Y-18632627D02*
X5711729Y-18661198D01*
X5711729Y-18661198D02*
X5597443Y-18775484D01*
X5597443Y-18775484D02*
X5721253Y-18775484D01*
X5845062Y-18575484D02*
X5864110Y-18575484D01*
X5864110Y-18575484D02*
X5883158Y-18585008D01*
X5883158Y-18585008D02*
X5892682Y-18594531D01*
X5892682Y-18594531D02*
X5902205Y-18613579D01*
X5902205Y-18613579D02*
X5911729Y-18651674D01*
X5911729Y-18651674D02*
X5911729Y-18699293D01*
X5911729Y-18699293D02*
X5902205Y-18737389D01*
X5902205Y-18737389D02*
X5892682Y-18756436D01*
X5892682Y-18756436D02*
X5883158Y-18765960D01*
X5883158Y-18765960D02*
X5864110Y-18775484D01*
X5864110Y-18775484D02*
X5845062Y-18775484D01*
X5845062Y-18775484D02*
X5826015Y-18765960D01*
X5826015Y-18765960D02*
X5816491Y-18756436D01*
X5816491Y-18756436D02*
X5806967Y-18737389D01*
X5806967Y-18737389D02*
X5797443Y-18699293D01*
X5797443Y-18699293D02*
X5797443Y-18651674D01*
X5797443Y-18651674D02*
X5806967Y-18613579D01*
X5806967Y-18613579D02*
X5816491Y-18594531D01*
X5816491Y-18594531D02*
X5826015Y-18585008D01*
X5826015Y-18585008D02*
X5845062Y-18575484D01*
X6035539Y-18575484D02*
X6054586Y-18575484D01*
X6054586Y-18575484D02*
X6073634Y-18585008D01*
X6073634Y-18585008D02*
X6083158Y-18594531D01*
X6083158Y-18594531D02*
X6092682Y-18613579D01*
X6092682Y-18613579D02*
X6102205Y-18651674D01*
X6102205Y-18651674D02*
X6102205Y-18699293D01*
X6102205Y-18699293D02*
X6092682Y-18737389D01*
X6092682Y-18737389D02*
X6083158Y-18756436D01*
X6083158Y-18756436D02*
X6073634Y-18765960D01*
X6073634Y-18765960D02*
X6054586Y-18775484D01*
X6054586Y-18775484D02*
X6035539Y-18775484D01*
X6035539Y-18775484D02*
X6016491Y-18765960D01*
X6016491Y-18765960D02*
X6006967Y-18756436D01*
X6006967Y-18756436D02*
X5997443Y-18737389D01*
X5997443Y-18737389D02*
X5987920Y-18699293D01*
X5987920Y-18699293D02*
X5987920Y-18651674D01*
X5987920Y-18651674D02*
X5997443Y-18613579D01*
X5997443Y-18613579D02*
X6006967Y-18594531D01*
X6006967Y-18594531D02*
X6016491Y-18585008D01*
X6016491Y-18585008D02*
X6035539Y-18575484D01*
X6187920Y-18775484D02*
X6187920Y-18642150D01*
X6187920Y-18661198D02*
X6197443Y-18651674D01*
X6197443Y-18651674D02*
X6216491Y-18642150D01*
X6216491Y-18642150D02*
X6245063Y-18642150D01*
X6245063Y-18642150D02*
X6264110Y-18651674D01*
X6264110Y-18651674D02*
X6273634Y-18670722D01*
X6273634Y-18670722D02*
X6273634Y-18775484D01*
X6273634Y-18670722D02*
X6283158Y-18651674D01*
X6283158Y-18651674D02*
X6302205Y-18642150D01*
X6302205Y-18642150D02*
X6330777Y-18642150D01*
X6330777Y-18642150D02*
X6349824Y-18651674D01*
X6349824Y-18651674D02*
X6359348Y-18670722D01*
X6359348Y-18670722D02*
X6359348Y-18775484D01*
X6454586Y-18775484D02*
X6454586Y-18642150D01*
X6454586Y-18661198D02*
X6464110Y-18651674D01*
X6464110Y-18651674D02*
X6483158Y-18642150D01*
X6483158Y-18642150D02*
X6511729Y-18642150D01*
X6511729Y-18642150D02*
X6530777Y-18651674D01*
X6530777Y-18651674D02*
X6540301Y-18670722D01*
X6540301Y-18670722D02*
X6540301Y-18775484D01*
X6540301Y-18670722D02*
X6549824Y-18651674D01*
X6549824Y-18651674D02*
X6568872Y-18642150D01*
X6568872Y-18642150D02*
X6597443Y-18642150D01*
X6597443Y-18642150D02*
X6616491Y-18651674D01*
X6616491Y-18651674D02*
X6626015Y-18670722D01*
X6626015Y-18670722D02*
X6626015Y-18775484D01*
X7016491Y-18565960D02*
X6845063Y-18823103D01*
X7273634Y-18575484D02*
X7292682Y-18575484D01*
X7292682Y-18575484D02*
X7311729Y-18585008D01*
X7311729Y-18585008D02*
X7321253Y-18594531D01*
X7321253Y-18594531D02*
X7330777Y-18613579D01*
X7330777Y-18613579D02*
X7340301Y-18651674D01*
X7340301Y-18651674D02*
X7340301Y-18699293D01*
X7340301Y-18699293D02*
X7330777Y-18737389D01*
X7330777Y-18737389D02*
X7321253Y-18756436D01*
X7321253Y-18756436D02*
X7311729Y-18765960D01*
X7311729Y-18765960D02*
X7292682Y-18775484D01*
X7292682Y-18775484D02*
X7273634Y-18775484D01*
X7273634Y-18775484D02*
X7254586Y-18765960D01*
X7254586Y-18765960D02*
X7245063Y-18756436D01*
X7245063Y-18756436D02*
X7235539Y-18737389D01*
X7235539Y-18737389D02*
X7226015Y-18699293D01*
X7226015Y-18699293D02*
X7226015Y-18651674D01*
X7226015Y-18651674D02*
X7235539Y-18613579D01*
X7235539Y-18613579D02*
X7245063Y-18594531D01*
X7245063Y-18594531D02*
X7254586Y-18585008D01*
X7254586Y-18585008D02*
X7273634Y-18575484D01*
X7426015Y-18756436D02*
X7435539Y-18765960D01*
X7435539Y-18765960D02*
X7426015Y-18775484D01*
X7426015Y-18775484D02*
X7416491Y-18765960D01*
X7416491Y-18765960D02*
X7426015Y-18756436D01*
X7426015Y-18756436D02*
X7426015Y-18775484D01*
X7626015Y-18775484D02*
X7511729Y-18775484D01*
X7568872Y-18775484D02*
X7568872Y-18575484D01*
X7568872Y-18575484D02*
X7549825Y-18604055D01*
X7549825Y-18604055D02*
X7530777Y-18623103D01*
X7530777Y-18623103D02*
X7511729Y-18632627D01*
X7702206Y-18594531D02*
X7711729Y-18585008D01*
X7711729Y-18585008D02*
X7730777Y-18575484D01*
X7730777Y-18575484D02*
X7778396Y-18575484D01*
X7778396Y-18575484D02*
X7797444Y-18585008D01*
X7797444Y-18585008D02*
X7806967Y-18594531D01*
X7806967Y-18594531D02*
X7816491Y-18613579D01*
X7816491Y-18613579D02*
X7816491Y-18632627D01*
X7816491Y-18632627D02*
X7806967Y-18661198D01*
X7806967Y-18661198D02*
X7692682Y-18775484D01*
X7692682Y-18775484D02*
X7816491Y-18775484D01*
X7987920Y-18575484D02*
X7949825Y-18575484D01*
X7949825Y-18575484D02*
X7930777Y-18585008D01*
X7930777Y-18585008D02*
X7921253Y-18594531D01*
X7921253Y-18594531D02*
X7902206Y-18623103D01*
X7902206Y-18623103D02*
X7892682Y-18661198D01*
X7892682Y-18661198D02*
X7892682Y-18737389D01*
X7892682Y-18737389D02*
X7902206Y-18756436D01*
X7902206Y-18756436D02*
X7911729Y-18765960D01*
X7911729Y-18765960D02*
X7930777Y-18775484D01*
X7930777Y-18775484D02*
X7968872Y-18775484D01*
X7968872Y-18775484D02*
X7987920Y-18765960D01*
X7987920Y-18765960D02*
X7997444Y-18756436D01*
X7997444Y-18756436D02*
X8006967Y-18737389D01*
X8006967Y-18737389D02*
X8006967Y-18689770D01*
X8006967Y-18689770D02*
X7997444Y-18670722D01*
X7997444Y-18670722D02*
X7987920Y-18661198D01*
X7987920Y-18661198D02*
X7968872Y-18651674D01*
X7968872Y-18651674D02*
X7930777Y-18651674D01*
X7930777Y-18651674D02*
X7911729Y-18661198D01*
X7911729Y-18661198D02*
X7902206Y-18670722D01*
X7902206Y-18670722D02*
X7892682Y-18689770D01*
X8130777Y-18575484D02*
X8149825Y-18575484D01*
X8149825Y-18575484D02*
X8168872Y-18585008D01*
X8168872Y-18585008D02*
X8178396Y-18594531D01*
X8178396Y-18594531D02*
X8187920Y-18613579D01*
X8187920Y-18613579D02*
X8197444Y-18651674D01*
X8197444Y-18651674D02*
X8197444Y-18699293D01*
X8197444Y-18699293D02*
X8187920Y-18737389D01*
X8187920Y-18737389D02*
X8178396Y-18756436D01*
X8178396Y-18756436D02*
X8168872Y-18765960D01*
X8168872Y-18765960D02*
X8149825Y-18775484D01*
X8149825Y-18775484D02*
X8130777Y-18775484D01*
X8130777Y-18775484D02*
X8111729Y-18765960D01*
X8111729Y-18765960D02*
X8102206Y-18756436D01*
X8102206Y-18756436D02*
X8092682Y-18737389D01*
X8092682Y-18737389D02*
X8083158Y-18699293D01*
X8083158Y-18699293D02*
X8083158Y-18651674D01*
X8083158Y-18651674D02*
X8092682Y-18613579D01*
X8092682Y-18613579D02*
X8102206Y-18594531D01*
X8102206Y-18594531D02*
X8111729Y-18585008D01*
X8111729Y-18585008D02*
X8130777Y-18575484D01*
X8273634Y-18575484D02*
X8273634Y-18613579D01*
X8349825Y-18575484D02*
X8349825Y-18613579D01*
X8645063Y-18851674D02*
X8635539Y-18842150D01*
X8635539Y-18842150D02*
X8616491Y-18813579D01*
X8616491Y-18813579D02*
X8606968Y-18794531D01*
X8606968Y-18794531D02*
X8597444Y-18765960D01*
X8597444Y-18765960D02*
X8587920Y-18718341D01*
X8587920Y-18718341D02*
X8587920Y-18680246D01*
X8587920Y-18680246D02*
X8597444Y-18632627D01*
X8597444Y-18632627D02*
X8606968Y-18604055D01*
X8606968Y-18604055D02*
X8616491Y-18585008D01*
X8616491Y-18585008D02*
X8635539Y-18556436D01*
X8635539Y-18556436D02*
X8645063Y-18546912D01*
X8826015Y-18775484D02*
X8711730Y-18775484D01*
X8768872Y-18775484D02*
X8768872Y-18575484D01*
X8768872Y-18575484D02*
X8749825Y-18604055D01*
X8749825Y-18604055D02*
X8730777Y-18623103D01*
X8730777Y-18623103D02*
X8711730Y-18632627D01*
X8892682Y-18575484D02*
X9016491Y-18575484D01*
X9016491Y-18575484D02*
X8949825Y-18651674D01*
X8949825Y-18651674D02*
X8978396Y-18651674D01*
X8978396Y-18651674D02*
X8997444Y-18661198D01*
X8997444Y-18661198D02*
X9006968Y-18670722D01*
X9006968Y-18670722D02*
X9016491Y-18689770D01*
X9016491Y-18689770D02*
X9016491Y-18737389D01*
X9016491Y-18737389D02*
X9006968Y-18756436D01*
X9006968Y-18756436D02*
X8997444Y-18765960D01*
X8997444Y-18765960D02*
X8978396Y-18775484D01*
X8978396Y-18775484D02*
X8921253Y-18775484D01*
X8921253Y-18775484D02*
X8902206Y-18765960D01*
X8902206Y-18765960D02*
X8892682Y-18756436D01*
X9254587Y-18775484D02*
X9254587Y-18575484D01*
X9340301Y-18775484D02*
X9340301Y-18670722D01*
X9340301Y-18670722D02*
X9330777Y-18651674D01*
X9330777Y-18651674D02*
X9311730Y-18642150D01*
X9311730Y-18642150D02*
X9283158Y-18642150D01*
X9283158Y-18642150D02*
X9264111Y-18651674D01*
X9264111Y-18651674D02*
X9254587Y-18661198D01*
X9464111Y-18775484D02*
X9445063Y-18765960D01*
X9445063Y-18765960D02*
X9435539Y-18756436D01*
X9435539Y-18756436D02*
X9426015Y-18737389D01*
X9426015Y-18737389D02*
X9426015Y-18680246D01*
X9426015Y-18680246D02*
X9435539Y-18661198D01*
X9435539Y-18661198D02*
X9445063Y-18651674D01*
X9445063Y-18651674D02*
X9464111Y-18642150D01*
X9464111Y-18642150D02*
X9492682Y-18642150D01*
X9492682Y-18642150D02*
X9511730Y-18651674D01*
X9511730Y-18651674D02*
X9521253Y-18661198D01*
X9521253Y-18661198D02*
X9530777Y-18680246D01*
X9530777Y-18680246D02*
X9530777Y-18737389D01*
X9530777Y-18737389D02*
X9521253Y-18756436D01*
X9521253Y-18756436D02*
X9511730Y-18765960D01*
X9511730Y-18765960D02*
X9492682Y-18775484D01*
X9492682Y-18775484D02*
X9464111Y-18775484D01*
X9645063Y-18775484D02*
X9626015Y-18765960D01*
X9626015Y-18765960D02*
X9616492Y-18746912D01*
X9616492Y-18746912D02*
X9616492Y-18575484D01*
X9797444Y-18765960D02*
X9778396Y-18775484D01*
X9778396Y-18775484D02*
X9740301Y-18775484D01*
X9740301Y-18775484D02*
X9721253Y-18765960D01*
X9721253Y-18765960D02*
X9711730Y-18746912D01*
X9711730Y-18746912D02*
X9711730Y-18670722D01*
X9711730Y-18670722D02*
X9721253Y-18651674D01*
X9721253Y-18651674D02*
X9740301Y-18642150D01*
X9740301Y-18642150D02*
X9778396Y-18642150D01*
X9778396Y-18642150D02*
X9797444Y-18651674D01*
X9797444Y-18651674D02*
X9806968Y-18670722D01*
X9806968Y-18670722D02*
X9806968Y-18689770D01*
X9806968Y-18689770D02*
X9711730Y-18708817D01*
X9883158Y-18765960D02*
X9902206Y-18775484D01*
X9902206Y-18775484D02*
X9940301Y-18775484D01*
X9940301Y-18775484D02*
X9959349Y-18765960D01*
X9959349Y-18765960D02*
X9968873Y-18746912D01*
X9968873Y-18746912D02*
X9968873Y-18737389D01*
X9968873Y-18737389D02*
X9959349Y-18718341D01*
X9959349Y-18718341D02*
X9940301Y-18708817D01*
X9940301Y-18708817D02*
X9911730Y-18708817D01*
X9911730Y-18708817D02*
X9892682Y-18699293D01*
X9892682Y-18699293D02*
X9883158Y-18680246D01*
X9883158Y-18680246D02*
X9883158Y-18670722D01*
X9883158Y-18670722D02*
X9892682Y-18651674D01*
X9892682Y-18651674D02*
X9911730Y-18642150D01*
X9911730Y-18642150D02*
X9940301Y-18642150D01*
X9940301Y-18642150D02*
X9959349Y-18651674D01*
X10035539Y-18851674D02*
X10045063Y-18842150D01*
X10045063Y-18842150D02*
X10064111Y-18813579D01*
X10064111Y-18813579D02*
X10073634Y-18794531D01*
X10073634Y-18794531D02*
X10083158Y-18765960D01*
X10083158Y-18765960D02*
X10092682Y-18718341D01*
X10092682Y-18718341D02*
X10092682Y-18680246D01*
X10092682Y-18680246D02*
X10083158Y-18632627D01*
X10083158Y-18632627D02*
X10073634Y-18604055D01*
X10073634Y-18604055D02*
X10064111Y-18585008D01*
X10064111Y-18585008D02*
X10045063Y-18556436D01*
X10045063Y-18556436D02*
X10035539Y-18546912D01*
X10397444Y-18851674D02*
X10387920Y-18842150D01*
X10387920Y-18842150D02*
X10368873Y-18813579D01*
X10368873Y-18813579D02*
X10359349Y-18794531D01*
X10359349Y-18794531D02*
X10349825Y-18765960D01*
X10349825Y-18765960D02*
X10340301Y-18718341D01*
X10340301Y-18718341D02*
X10340301Y-18680246D01*
X10340301Y-18680246D02*
X10349825Y-18632627D01*
X10349825Y-18632627D02*
X10359349Y-18604055D01*
X10359349Y-18604055D02*
X10368873Y-18585008D01*
X10368873Y-18585008D02*
X10387920Y-18556436D01*
X10387920Y-18556436D02*
X10397444Y-18546912D01*
X10473634Y-18642150D02*
X10473634Y-18775484D01*
X10473634Y-18661198D02*
X10483158Y-18651674D01*
X10483158Y-18651674D02*
X10502206Y-18642150D01*
X10502206Y-18642150D02*
X10530777Y-18642150D01*
X10530777Y-18642150D02*
X10549825Y-18651674D01*
X10549825Y-18651674D02*
X10559349Y-18670722D01*
X10559349Y-18670722D02*
X10559349Y-18775484D01*
X10683158Y-18775484D02*
X10664111Y-18765960D01*
X10664111Y-18765960D02*
X10654587Y-18756436D01*
X10654587Y-18756436D02*
X10645063Y-18737389D01*
X10645063Y-18737389D02*
X10645063Y-18680246D01*
X10645063Y-18680246D02*
X10654587Y-18661198D01*
X10654587Y-18661198D02*
X10664111Y-18651674D01*
X10664111Y-18651674D02*
X10683158Y-18642150D01*
X10683158Y-18642150D02*
X10711730Y-18642150D01*
X10711730Y-18642150D02*
X10730777Y-18651674D01*
X10730777Y-18651674D02*
X10740301Y-18661198D01*
X10740301Y-18661198D02*
X10749825Y-18680246D01*
X10749825Y-18680246D02*
X10749825Y-18737389D01*
X10749825Y-18737389D02*
X10740301Y-18756436D01*
X10740301Y-18756436D02*
X10730777Y-18765960D01*
X10730777Y-18765960D02*
X10711730Y-18775484D01*
X10711730Y-18775484D02*
X10683158Y-18775484D01*
X10806968Y-18642150D02*
X10883158Y-18642150D01*
X10835539Y-18575484D02*
X10835539Y-18746912D01*
X10835539Y-18746912D02*
X10845063Y-18765960D01*
X10845063Y-18765960D02*
X10864111Y-18775484D01*
X10864111Y-18775484D02*
X10883158Y-18775484D01*
X11102206Y-18642150D02*
X11102206Y-18842150D01*
X11102206Y-18651674D02*
X11121254Y-18642150D01*
X11121254Y-18642150D02*
X11159349Y-18642150D01*
X11159349Y-18642150D02*
X11178396Y-18651674D01*
X11178396Y-18651674D02*
X11187920Y-18661198D01*
X11187920Y-18661198D02*
X11197444Y-18680246D01*
X11197444Y-18680246D02*
X11197444Y-18737389D01*
X11197444Y-18737389D02*
X11187920Y-18756436D01*
X11187920Y-18756436D02*
X11178396Y-18765960D01*
X11178396Y-18765960D02*
X11159349Y-18775484D01*
X11159349Y-18775484D02*
X11121254Y-18775484D01*
X11121254Y-18775484D02*
X11102206Y-18765960D01*
X11311730Y-18775484D02*
X11292682Y-18765960D01*
X11292682Y-18765960D02*
X11283158Y-18746912D01*
X11283158Y-18746912D02*
X11283158Y-18575484D01*
X11473634Y-18775484D02*
X11473634Y-18670722D01*
X11473634Y-18670722D02*
X11464111Y-18651674D01*
X11464111Y-18651674D02*
X11445063Y-18642150D01*
X11445063Y-18642150D02*
X11406968Y-18642150D01*
X11406968Y-18642150D02*
X11387920Y-18651674D01*
X11473634Y-18765960D02*
X11454587Y-18775484D01*
X11454587Y-18775484D02*
X11406968Y-18775484D01*
X11406968Y-18775484D02*
X11387920Y-18765960D01*
X11387920Y-18765960D02*
X11378396Y-18746912D01*
X11378396Y-18746912D02*
X11378396Y-18727865D01*
X11378396Y-18727865D02*
X11387920Y-18708817D01*
X11387920Y-18708817D02*
X11406968Y-18699293D01*
X11406968Y-18699293D02*
X11454587Y-18699293D01*
X11454587Y-18699293D02*
X11473634Y-18689770D01*
X11540301Y-18642150D02*
X11616492Y-18642150D01*
X11568873Y-18575484D02*
X11568873Y-18746912D01*
X11568873Y-18746912D02*
X11578396Y-18765960D01*
X11578396Y-18765960D02*
X11597444Y-18775484D01*
X11597444Y-18775484D02*
X11616492Y-18775484D01*
X11759349Y-18765960D02*
X11740301Y-18775484D01*
X11740301Y-18775484D02*
X11702206Y-18775484D01*
X11702206Y-18775484D02*
X11683158Y-18765960D01*
X11683158Y-18765960D02*
X11673634Y-18746912D01*
X11673634Y-18746912D02*
X11673634Y-18670722D01*
X11673634Y-18670722D02*
X11683158Y-18651674D01*
X11683158Y-18651674D02*
X11702206Y-18642150D01*
X11702206Y-18642150D02*
X11740301Y-18642150D01*
X11740301Y-18642150D02*
X11759349Y-18651674D01*
X11759349Y-18651674D02*
X11768873Y-18670722D01*
X11768873Y-18670722D02*
X11768873Y-18689770D01*
X11768873Y-18689770D02*
X11673634Y-18708817D01*
X11940301Y-18775484D02*
X11940301Y-18575484D01*
X11940301Y-18765960D02*
X11921254Y-18775484D01*
X11921254Y-18775484D02*
X11883158Y-18775484D01*
X11883158Y-18775484D02*
X11864111Y-18765960D01*
X11864111Y-18765960D02*
X11854587Y-18756436D01*
X11854587Y-18756436D02*
X11845063Y-18737389D01*
X11845063Y-18737389D02*
X11845063Y-18680246D01*
X11845063Y-18680246D02*
X11854587Y-18661198D01*
X11854587Y-18661198D02*
X11864111Y-18651674D01*
X11864111Y-18651674D02*
X11883158Y-18642150D01*
X11883158Y-18642150D02*
X11921254Y-18642150D01*
X11921254Y-18642150D02*
X11940301Y-18651674D01*
X12016492Y-18851674D02*
X12026015Y-18842150D01*
X12026015Y-18842150D02*
X12045063Y-18813579D01*
X12045063Y-18813579D02*
X12054587Y-18794531D01*
X12054587Y-18794531D02*
X12064111Y-18765960D01*
X12064111Y-18765960D02*
X12073634Y-18718341D01*
X12073634Y-18718341D02*
X12073634Y-18680246D01*
X12073634Y-18680246D02*
X12064111Y-18632627D01*
X12064111Y-18632627D02*
X12054587Y-18604055D01*
X12054587Y-18604055D02*
X12045063Y-18585008D01*
X12045063Y-18585008D02*
X12026015Y-18556436D01*
X12026015Y-18556436D02*
X12016492Y-18546912D01*
M02*
