M48
; DRILL file {KiCad 8.0.7} date 2025-01-27T21:14:38+0100
; FORMAT={-:-/ absolute / metric / decimal}
; #@! TF.CreationDate,2025-01-27T21:14:38+01:00
; #@! TF.GenerationSoftware,Kicad,Pcbnew,8.0.7
; #@! TF.FileFunction,Plated,1,2,PTH
FMAT,2
METRIC
; #@! TA.AperFunction,Plated,PTH,ViaDrill
T1C0.400
; #@! TA.AperFunction,Plated,PTH,ComponentDrill
T2C1.000
; #@! TA.AperFunction,Plated,PTH,ComponentDrill
T3C1.500
; #@! TA.AperFunction,Plated,PTH,ComponentDrill
T4C2.500
%
G90
G05
T1
X60.96Y-134.62
X73.66Y-121.92
X76.2Y-124.46
X78.74Y-121.92
X96.52Y-109.22
X99.06Y-157.48
X101.6Y-53.34
X101.6Y-160.02
X104.14Y-50.8
X104.14Y-106.68
X104.14Y-162.56
X104.14Y-165.1
X106.68Y-45.72
X106.68Y-106.68
X106.68Y-172.72
X109.22Y-48.26
X109.22Y-114.3
X109.22Y-172.72
X111.76Y-139.7
X114.3Y-172.72
X121.92Y-177.8
X124.46Y-175.26
X149.86Y-48.26
X149.86Y-68.58
X149.86Y-114.3
X149.86Y-149.86
X152.4Y-45.72
X198.12Y-45.72
X198.12Y-175.26
X200.66Y-177.8
X205.74Y-48.26
X208.28Y-172.72
X215.9Y-50.8
X236.22Y-68.58
X236.22Y-114.3
X236.22Y-149.86
X264.16Y-172.72
X266.7Y-175.26
X269.24Y-177.8
X287.02Y-48.26
X292.1Y-45.72
X297.18Y-50.8
X322.58Y-68.58
X322.58Y-114.3
X322.58Y-149.86
T2
X53.38Y-139.7
X53.38Y-144.2
X53.38Y-152.4
X53.38Y-156.9
X53.38Y-165.1
X53.38Y-169.6
X55.88Y-124.46
X55.88Y-129.54
X55.88Y-134.62
X60.96Y-106.68
X60.96Y-175.26
X63.5Y-160.02
X63.5Y-162.56
X63.5Y-165.1
X66.04Y-106.68
X66.04Y-162.56
X66.04Y-170.18
X66.04Y-175.26
X71.12Y-106.68
X71.12Y-132.08
X71.12Y-144.78
X71.12Y-149.86
X71.12Y-152.4
X71.12Y-154.94
X71.12Y-157.48
X71.12Y-162.56
X71.12Y-165.1
X71.12Y-167.64
X71.12Y-175.26
X71.12Y-177.8
X73.66Y-129.54
X73.66Y-132.08
X73.66Y-134.62
X73.66Y-137.16
X73.66Y-139.7
X73.66Y-142.24
X73.66Y-144.78
X73.66Y-147.32
X73.66Y-149.86
X73.66Y-152.4
X73.66Y-154.94
X73.66Y-157.48
X73.66Y-160.02
X73.66Y-162.56
X73.66Y-165.1
X73.66Y-167.64
X73.66Y-170.18
X73.66Y-172.72
X73.66Y-175.26
X73.66Y-177.8
X76.2Y-114.3
X78.74Y-106.68
X81.28Y-111.76
X81.28Y-124.46
X83.82Y-106.68
X83.82Y-124.46
X86.36Y-114.3
X88.9Y-114.3
X91.44Y-106.68
X91.44Y-114.3
X91.44Y-129.54
X91.44Y-132.08
X91.44Y-134.62
X91.44Y-137.16
X91.44Y-139.7
X91.44Y-142.24
X91.44Y-144.78
X91.44Y-147.32
X91.44Y-149.86
X91.44Y-152.4
X91.44Y-154.94
X91.44Y-157.48
X91.44Y-160.02
X91.44Y-162.56
X91.44Y-165.1
X91.44Y-167.64
X91.44Y-170.18
X91.44Y-172.72
X91.44Y-175.26
X91.44Y-177.8
X93.98Y-111.76
X93.98Y-124.46
X93.98Y-129.54
X93.98Y-134.62
X93.98Y-137.16
X93.98Y-142.24
X93.98Y-144.78
X93.98Y-147.32
X93.98Y-154.94
X93.98Y-157.48
X93.98Y-160.02
X93.98Y-172.72
X96.52Y-106.68
X96.52Y-111.76
X96.52Y-124.46
X111.76Y-152.4
X111.76Y-160.02
X114.3Y-152.4
X114.3Y-160.02
X116.84Y-152.4
X116.84Y-160.02
X116.84Y-165.1
X119.38Y-83.82
X119.38Y-91.44
X119.38Y-152.4
X119.38Y-160.02
X119.38Y-165.1
X121.92Y-152.4
X121.92Y-160.02
X121.92Y-165.1
X124.46Y-152.4
X124.46Y-160.02
X124.46Y-165.1
X127.0Y-83.82
X127.0Y-91.44
X127.0Y-121.92
X127.0Y-129.54
X127.0Y-152.4
X127.0Y-160.02
X129.54Y-78.74
X129.54Y-86.36
X129.54Y-96.52
X129.54Y-127.0
X129.54Y-134.62
X129.54Y-152.4
X129.54Y-160.02
X129.54Y-162.56
X132.08Y-88.9
X132.08Y-91.44
X132.08Y-93.98
X132.08Y-99.06
X132.08Y-116.84
X132.08Y-119.38
X132.08Y-121.92
X132.08Y-124.46
X132.08Y-132.08
X132.08Y-139.7
X132.08Y-152.4
X132.08Y-160.02
X134.62Y-73.66
X134.62Y-81.28
X134.62Y-83.82
X134.62Y-86.36
X134.62Y-88.9
X134.62Y-99.06
X134.62Y-116.84
X134.62Y-124.46
X134.62Y-127.0
X134.62Y-129.54
X134.62Y-137.16
X134.62Y-144.78
X137.16Y-68.58
X137.16Y-76.2
X137.16Y-96.52
X137.16Y-99.06
X137.16Y-116.84
X137.16Y-129.54
X137.16Y-132.08
X137.16Y-134.62
X137.16Y-142.24
X137.16Y-149.86
X139.7Y-63.5
X139.7Y-71.12
X139.7Y-78.74
X139.7Y-81.28
X139.7Y-83.82
X139.7Y-86.36
X139.7Y-88.9
X139.7Y-99.06
X139.7Y-116.84
X139.7Y-134.62
X139.7Y-137.16
X139.7Y-139.7
X139.7Y-147.32
X139.7Y-154.94
X142.24Y-73.66
X142.24Y-76.2
X142.24Y-78.74
X142.24Y-99.06
X142.24Y-116.84
X142.24Y-139.7
X142.24Y-142.24
X142.24Y-144.78
X144.78Y-68.58
X144.78Y-71.12
X144.78Y-73.66
X144.78Y-99.06
X144.78Y-116.84
X144.78Y-144.78
X144.78Y-147.32
X144.78Y-149.86
X147.32Y-86.36
X147.32Y-88.9
X147.32Y-99.06
X147.32Y-116.84
X154.94Y-55.88
X154.94Y-58.42
X154.94Y-60.96
X154.94Y-63.5
X154.94Y-86.36
X154.94Y-88.9
X154.94Y-96.52
X157.48Y-99.06
X157.48Y-116.84
X160.02Y-68.58
X160.02Y-71.12
X160.02Y-73.66
X160.02Y-99.06
X160.02Y-104.14
X160.02Y-116.84
X160.02Y-144.78
X160.02Y-147.32
X160.02Y-149.86
X162.56Y-73.66
X162.56Y-76.2
X162.56Y-78.74
X162.56Y-86.36
X162.56Y-88.9
X162.56Y-96.52
X162.56Y-99.06
X162.56Y-116.84
X162.56Y-139.7
X162.56Y-142.24
X162.56Y-144.78
X165.1Y-63.5
X165.1Y-71.12
X165.1Y-99.06
X165.1Y-116.84
X165.1Y-134.62
X165.1Y-137.16
X165.1Y-139.7
X165.1Y-147.32
X165.1Y-154.94
X167.64Y-68.58
X167.64Y-76.2
X167.64Y-78.74
X167.64Y-81.28
X167.64Y-83.82
X167.64Y-99.06
X167.64Y-104.14
X167.64Y-116.84
X167.64Y-129.54
X167.64Y-132.08
X167.64Y-134.62
X167.64Y-142.24
X167.64Y-149.86
X170.18Y-83.82
X170.18Y-86.36
X170.18Y-88.9
X170.18Y-99.06
X170.18Y-104.14
X170.18Y-116.84
X170.18Y-124.46
X170.18Y-127.0
X170.18Y-129.54
X170.18Y-137.16
X170.18Y-144.78
X172.72Y-73.66
X172.72Y-81.28
X172.72Y-88.9
X172.72Y-91.44
X172.72Y-93.98
X172.72Y-99.06
X172.72Y-116.84
X172.72Y-119.38
X172.72Y-121.92
X172.72Y-124.46
X172.72Y-132.08
X172.72Y-139.7
X175.26Y-78.74
X175.26Y-86.36
X175.26Y-109.22
X175.26Y-116.84
X175.26Y-127.0
X175.26Y-134.62
X177.8Y-83.82
X177.8Y-91.44
X177.8Y-104.14
X177.8Y-106.68
X177.8Y-109.22
X177.8Y-111.76
X177.8Y-121.92
X177.8Y-129.54
X177.8Y-152.4
X177.8Y-160.02
X180.34Y-152.4
X180.34Y-160.02
X182.88Y-152.4
X182.88Y-160.02
X185.42Y-83.82
X185.42Y-91.44
X185.42Y-152.4
X185.42Y-160.02
X187.96Y-152.4
X187.96Y-160.02
X190.5Y-152.4
X190.5Y-160.02
X193.04Y-152.4
X193.04Y-160.02
X195.58Y-104.14
X195.58Y-106.68
X195.58Y-109.22
X195.58Y-111.76
X195.58Y-152.4
X195.58Y-160.02
X198.12Y-58.42
X198.12Y-66.04
X198.12Y-149.86
X198.12Y-152.4
X198.12Y-160.02
X200.66Y-55.88
X200.66Y-58.42
X200.66Y-66.04
X200.66Y-149.86
X200.66Y-152.4
X200.66Y-160.02
X203.2Y-58.42
X203.2Y-66.04
X203.2Y-152.4
X203.2Y-160.02
X205.74Y-58.42
X205.74Y-66.04
X205.74Y-152.4
X205.74Y-160.02
X208.28Y-58.42
X208.28Y-66.04
X208.28Y-152.4
X208.28Y-160.02
X210.82Y-58.42
X210.82Y-66.04
X210.82Y-152.4
X210.82Y-160.02
X213.36Y-58.42
X213.36Y-66.04
X213.36Y-83.82
X213.36Y-91.44
X213.36Y-104.14
X213.36Y-106.68
X213.36Y-109.22
X213.36Y-111.76
X213.36Y-121.92
X213.36Y-129.54
X215.9Y-58.42
X215.9Y-66.04
X215.9Y-78.74
X215.9Y-86.36
X215.9Y-96.52
X215.9Y-109.22
X215.9Y-116.84
X215.9Y-127.0
X215.9Y-134.62
X218.44Y-58.42
X218.44Y-66.04
X218.44Y-88.9
X218.44Y-91.44
X218.44Y-93.98
X218.44Y-99.06
X218.44Y-116.84
X218.44Y-119.38
X218.44Y-121.92
X218.44Y-124.46
X218.44Y-132.08
X218.44Y-139.7
X220.98Y-63.5
X220.98Y-71.12
X220.98Y-73.66
X220.98Y-81.28
X220.98Y-83.82
X220.98Y-86.36
X220.98Y-88.9
X220.98Y-99.06
X220.98Y-104.14
X220.98Y-116.84
X220.98Y-124.46
X220.98Y-127.0
X220.98Y-129.54
X220.98Y-137.16
X220.98Y-144.78
X223.52Y-68.58
X223.52Y-76.2
X223.52Y-96.52
X223.52Y-99.06
X223.52Y-104.14
X223.52Y-116.84
X223.52Y-129.54
X223.52Y-132.08
X223.52Y-134.62
X223.52Y-142.24
X223.52Y-149.86
X226.06Y-63.5
X226.06Y-71.12
X226.06Y-78.74
X226.06Y-81.28
X226.06Y-83.82
X226.06Y-86.36
X226.06Y-88.9
X226.06Y-99.06
X226.06Y-116.84
X226.06Y-134.62
X226.06Y-137.16
X226.06Y-139.7
X226.06Y-147.32
X226.06Y-154.94
X228.6Y-73.66
X228.6Y-76.2
X228.6Y-78.74
X228.6Y-99.06
X228.6Y-116.84
X228.6Y-139.7
X228.6Y-142.24
X228.6Y-144.78
X231.14Y-68.58
X231.14Y-71.12
X231.14Y-73.66
X231.14Y-99.06
X231.14Y-104.14
X231.14Y-116.84
X231.14Y-144.78
X231.14Y-147.32
X231.14Y-149.86
X233.68Y-86.36
X233.68Y-88.9
X233.68Y-99.06
X233.68Y-116.84
X241.3Y-86.36
X241.3Y-88.9
X241.3Y-96.52
X243.84Y-99.06
X243.84Y-116.84
X246.38Y-68.58
X246.38Y-71.12
X246.38Y-73.66
X246.38Y-99.06
X246.38Y-104.14
X246.38Y-116.84
X246.38Y-144.78
X246.38Y-147.32
X246.38Y-149.86
X248.92Y-73.66
X248.92Y-76.2
X248.92Y-78.74
X248.92Y-86.36
X248.92Y-88.9
X248.92Y-96.52
X248.92Y-99.06
X248.92Y-116.84
X248.92Y-139.7
X248.92Y-142.24
X248.92Y-144.78
X251.46Y-63.5
X251.46Y-71.12
X251.46Y-99.06
X251.46Y-116.84
X251.46Y-134.62
X251.46Y-137.16
X251.46Y-139.7
X251.46Y-147.32
X251.46Y-154.94
X254.0Y-68.58
X254.0Y-76.2
X254.0Y-78.74
X254.0Y-81.28
X254.0Y-83.82
X254.0Y-99.06
X254.0Y-104.14
X254.0Y-116.84
X254.0Y-129.54
X254.0Y-132.08
X254.0Y-134.62
X254.0Y-142.24
X254.0Y-149.86
X256.54Y-83.82
X256.54Y-86.36
X256.54Y-88.9
X256.54Y-99.06
X256.54Y-104.14
X256.54Y-116.84
X256.54Y-124.46
X256.54Y-127.0
X256.54Y-129.54
X256.54Y-137.16
X256.54Y-144.78
X259.08Y-63.5
X259.08Y-71.12
X259.08Y-73.66
X259.08Y-81.28
X259.08Y-88.9
X259.08Y-91.44
X259.08Y-93.98
X259.08Y-99.06
X259.08Y-116.84
X259.08Y-119.38
X259.08Y-121.92
X259.08Y-124.46
X259.08Y-132.08
X259.08Y-139.7
X261.62Y-58.42
X261.62Y-66.04
X261.62Y-78.74
X261.62Y-86.36
X261.62Y-109.22
X261.62Y-116.84
X261.62Y-127.0
X261.62Y-134.62
X264.16Y-58.42
X264.16Y-66.04
X264.16Y-83.82
X264.16Y-91.44
X264.16Y-104.14
X264.16Y-106.68
X264.16Y-109.22
X264.16Y-111.76
X264.16Y-121.92
X264.16Y-129.54
X266.7Y-58.42
X266.7Y-66.04
X266.7Y-152.4
X266.7Y-160.02
X269.24Y-58.42
X269.24Y-66.04
X269.24Y-152.4
X269.24Y-160.02
X271.78Y-58.42
X271.78Y-66.04
X271.78Y-152.4
X271.78Y-160.02
X274.32Y-58.42
X274.32Y-66.04
X274.32Y-152.4
X274.32Y-160.02
X276.86Y-58.42
X276.86Y-66.04
X276.86Y-152.4
X276.86Y-160.02
X276.86Y-162.56
X279.4Y-58.42
X279.4Y-66.04
X279.4Y-152.4
X279.4Y-160.02
X279.4Y-162.56
X281.94Y-55.88
X281.94Y-58.42
X281.94Y-66.04
X281.94Y-104.14
X281.94Y-106.68
X281.94Y-109.22
X281.94Y-111.76
X281.94Y-152.4
X281.94Y-160.02
X284.48Y-55.88
X284.48Y-58.42
X284.48Y-66.04
X284.48Y-152.4
X284.48Y-160.02
X287.02Y-58.42
X287.02Y-66.04
X287.02Y-152.4
X287.02Y-160.02
X289.56Y-58.42
X289.56Y-66.04
X289.56Y-152.4
X289.56Y-160.02
X292.1Y-58.42
X292.1Y-66.04
X292.1Y-83.82
X292.1Y-91.44
X292.1Y-152.4
X292.1Y-160.02
X294.64Y-58.42
X294.64Y-66.04
X294.64Y-152.4
X294.64Y-160.02
X297.18Y-152.4
X297.18Y-160.02
X299.72Y-83.82
X299.72Y-91.44
X299.72Y-104.14
X299.72Y-106.68
X299.72Y-109.22
X299.72Y-111.76
X299.72Y-121.92
X299.72Y-129.54
X299.72Y-152.4
X299.72Y-160.02
X302.26Y-78.74
X302.26Y-86.36
X302.26Y-96.52
X302.26Y-109.22
X302.26Y-116.84
X302.26Y-127.0
X302.26Y-134.62
X304.8Y-88.9
X304.8Y-91.44
X304.8Y-93.98
X304.8Y-99.06
X304.8Y-116.84
X304.8Y-119.38
X304.8Y-121.92
X304.8Y-124.46
X304.8Y-132.08
X304.8Y-139.7
X307.34Y-73.66
X307.34Y-81.28
X307.34Y-83.82
X307.34Y-86.36
X307.34Y-88.9
X307.34Y-99.06
X307.34Y-104.14
X307.34Y-116.84
X307.34Y-124.46
X307.34Y-127.0
X307.34Y-129.54
X307.34Y-137.16
X307.34Y-144.78
X309.88Y-68.58
X309.88Y-76.2
X309.88Y-96.52
X309.88Y-99.06
X309.88Y-104.14
X309.88Y-116.84
X309.88Y-129.54
X309.88Y-132.08
X309.88Y-134.62
X309.88Y-142.24
X309.88Y-149.86
X312.42Y-63.5
X312.42Y-71.12
X312.42Y-78.74
X312.42Y-81.28
X312.42Y-83.82
X312.42Y-86.36
X312.42Y-88.9
X312.42Y-99.06
X312.42Y-116.84
X312.42Y-134.62
X312.42Y-137.16
X312.42Y-139.7
X312.42Y-147.32
X312.42Y-154.94
X314.96Y-73.66
X314.96Y-76.2
X314.96Y-78.74
X314.96Y-99.06
X314.96Y-116.84
X314.96Y-139.7
X314.96Y-142.24
X314.96Y-144.78
X317.5Y-68.58
X317.5Y-71.12
X317.5Y-73.66
X317.5Y-99.06
X317.5Y-104.14
X317.5Y-116.84
X317.5Y-144.78
X317.5Y-147.32
X317.5Y-149.86
X320.04Y-50.8
X320.04Y-53.34
X320.04Y-55.88
X320.04Y-58.42
X320.04Y-86.36
X320.04Y-88.9
X320.04Y-99.06
X320.04Y-116.84
X327.66Y-86.36
X327.66Y-88.9
X327.66Y-96.52
X330.2Y-99.06
X330.2Y-116.84
X332.74Y-68.58
X332.74Y-71.12
X332.74Y-73.66
X332.74Y-99.06
X332.74Y-116.84
X332.74Y-144.78
X332.74Y-147.32
X332.74Y-149.86
X335.28Y-73.66
X335.28Y-76.2
X335.28Y-78.74
X335.28Y-86.36
X335.28Y-88.9
X335.28Y-96.52
X335.28Y-99.06
X335.28Y-116.84
X335.28Y-139.7
X335.28Y-142.24
X335.28Y-144.78
X337.82Y-63.5
X337.82Y-71.12
X337.82Y-99.06
X337.82Y-116.84
X337.82Y-134.62
X337.82Y-137.16
X337.82Y-139.7
X337.82Y-147.32
X337.82Y-154.94
X340.36Y-68.58
X340.36Y-76.2
X340.36Y-78.74
X340.36Y-81.28
X340.36Y-83.82
X340.36Y-99.06
X340.36Y-116.84
X340.36Y-129.54
X340.36Y-132.08
X340.36Y-134.62
X340.36Y-142.24
X340.36Y-149.86
X342.9Y-83.82
X342.9Y-86.36
X342.9Y-88.9
X342.9Y-99.06
X342.9Y-116.84
X342.9Y-124.46
X342.9Y-127.0
X342.9Y-129.54
X342.9Y-137.16
X342.9Y-144.78
X345.44Y-73.66
X345.44Y-81.28
X345.44Y-88.9
X345.44Y-91.44
X345.44Y-93.98
X345.44Y-99.06
X345.44Y-116.84
X345.44Y-119.38
X345.44Y-121.92
X345.44Y-124.46
X345.44Y-132.08
X345.44Y-139.7
X345.44Y-152.4
X345.44Y-160.02
X347.98Y-78.74
X347.98Y-86.36
X347.98Y-127.0
X347.98Y-134.62
X347.98Y-152.4
X347.98Y-160.02
X350.52Y-83.82
X350.52Y-91.44
X350.52Y-121.92
X350.52Y-129.54
X350.52Y-152.4
X350.52Y-160.02
X353.06Y-152.4
X353.06Y-160.02
X355.6Y-152.4
X355.6Y-160.02
X358.14Y-83.82
X358.14Y-91.44
X358.14Y-152.4
X358.14Y-160.02
X360.68Y-152.4
X360.68Y-160.02
X363.22Y-152.4
X363.22Y-160.02
X363.22Y-162.56
X365.76Y-152.4
X365.76Y-160.02
T3
X55.88Y-138.45
X55.88Y-145.45
X55.88Y-151.15
X55.88Y-158.15
X55.88Y-163.85
X55.88Y-170.85
T4
X57.3Y-116.84
X60.3Y-121.84
X63.5Y-116.84
M30
