%TF.GenerationSoftware,KiCad,Pcbnew,8.0.7*%
%TF.CreationDate,2025-01-27T21:14:39+01:00*%
%TF.ProjectId,Main,4d61696e-2e6b-4696-9361-645f70636258,rev?*%
%TF.SameCoordinates,Original*%
%TF.FileFunction,Drillmap*%
%TF.FilePolarity,Positive*%
%FSLAX45Y45*%
G04 Gerber Fmt 4.5, Leading zero omitted, Abs format (unit mm)*
G04 Created by KiCad (PCBNEW 8.0.7) date 2025-01-27 21:14:39*
%MOMM*%
%LPD*%
G01*
G04 APERTURE LIST*
%ADD10C,0.200000*%
%ADD11C,0.100000*%
%ADD12C,0.150000*%
%ADD13C,0.250000*%
G04 APERTURE END LIST*
D10*
X36830000Y-17780000D02*
G75*
G02*
X36576000Y-18034000I-254000J0D01*
G01*
X10160000Y-4318000D02*
X36576000Y-4318000D01*
X5080000Y-10414000D02*
X5080000Y-17780000D01*
X36830000Y-4572000D02*
X36830000Y-17780000D01*
X5334000Y-18034000D02*
G75*
G02*
X5080000Y-17780000I0J254000D01*
G01*
X9906000Y-9906000D02*
G75*
G02*
X9652000Y-10160000I-254000J0D01*
G01*
X5334000Y-18034000D02*
X36576000Y-18034000D01*
X5334000Y-10160000D02*
X9652000Y-10160000D01*
X5080000Y-10414000D02*
G75*
G02*
X5334000Y-10160000I254000J0D01*
G01*
X36576000Y-4318000D02*
G75*
G02*
X36830000Y-4572000I0J-254000D01*
G01*
X9906000Y-4572000D02*
G75*
G02*
X10160000Y-4318000I254000J0D01*
G01*
X9906000Y-9906000D02*
X9906000Y-4572000D01*
D11*
X6076000Y-13442000D02*
X6116000Y-13482000D01*
X6116000Y-13442000D02*
X6076000Y-13482000D01*
X7346000Y-12172000D02*
X7386000Y-12212000D01*
X7386000Y-12172000D02*
X7346000Y-12212000D01*
X7600000Y-12426000D02*
X7640000Y-12466000D01*
X7640000Y-12426000D02*
X7600000Y-12466000D01*
X7854000Y-12172000D02*
X7894000Y-12212000D01*
X7894000Y-12172000D02*
X7854000Y-12212000D01*
X9632000Y-10902000D02*
X9672000Y-10942000D01*
X9672000Y-10902000D02*
X9632000Y-10942000D01*
X9886000Y-15728000D02*
X9926000Y-15768000D01*
X9926000Y-15728000D02*
X9886000Y-15768000D01*
X10140000Y-5314000D02*
X10180000Y-5354000D01*
X10180000Y-5314000D02*
X10140000Y-5354000D01*
X10140000Y-15982000D02*
X10180000Y-16022000D01*
X10180000Y-15982000D02*
X10140000Y-16022000D01*
X10394000Y-5060000D02*
X10434000Y-5100000D01*
X10434000Y-5060000D02*
X10394000Y-5100000D01*
X10394000Y-10648000D02*
X10434000Y-10688000D01*
X10434000Y-10648000D02*
X10394000Y-10688000D01*
X10394000Y-16236000D02*
X10434000Y-16276000D01*
X10434000Y-16236000D02*
X10394000Y-16276000D01*
X10394000Y-16490000D02*
X10434000Y-16530000D01*
X10434000Y-16490000D02*
X10394000Y-16530000D01*
X10648000Y-4552000D02*
X10688000Y-4592000D01*
X10688000Y-4552000D02*
X10648000Y-4592000D01*
X10648000Y-10648000D02*
X10688000Y-10688000D01*
X10688000Y-10648000D02*
X10648000Y-10688000D01*
X10648000Y-17252000D02*
X10688000Y-17292000D01*
X10688000Y-17252000D02*
X10648000Y-17292000D01*
X10902000Y-4806000D02*
X10942000Y-4846000D01*
X10942000Y-4806000D02*
X10902000Y-4846000D01*
X10902000Y-11410000D02*
X10942000Y-11450000D01*
X10942000Y-11410000D02*
X10902000Y-11450000D01*
X10902000Y-17252000D02*
X10942000Y-17292000D01*
X10942000Y-17252000D02*
X10902000Y-17292000D01*
X11156000Y-13950000D02*
X11196000Y-13990000D01*
X11196000Y-13950000D02*
X11156000Y-13990000D01*
X11410000Y-17252000D02*
X11450000Y-17292000D01*
X11450000Y-17252000D02*
X11410000Y-17292000D01*
X12172000Y-17760000D02*
X12212000Y-17800000D01*
X12212000Y-17760000D02*
X12172000Y-17800000D01*
X12426000Y-17506000D02*
X12466000Y-17546000D01*
X12466000Y-17506000D02*
X12426000Y-17546000D01*
X14966000Y-4806000D02*
X15006000Y-4846000D01*
X15006000Y-4806000D02*
X14966000Y-4846000D01*
X14966000Y-6838000D02*
X15006000Y-6878000D01*
X15006000Y-6838000D02*
X14966000Y-6878000D01*
X14966000Y-11410000D02*
X15006000Y-11450000D01*
X15006000Y-11410000D02*
X14966000Y-11450000D01*
X14966000Y-14966000D02*
X15006000Y-15006000D01*
X15006000Y-14966000D02*
X14966000Y-15006000D01*
X15220000Y-4552000D02*
X15260000Y-4592000D01*
X15260000Y-4552000D02*
X15220000Y-4592000D01*
X19792000Y-4552000D02*
X19832000Y-4592000D01*
X19832000Y-4552000D02*
X19792000Y-4592000D01*
X19792000Y-17506000D02*
X19832000Y-17546000D01*
X19832000Y-17506000D02*
X19792000Y-17546000D01*
X20046000Y-17760000D02*
X20086000Y-17800000D01*
X20086000Y-17760000D02*
X20046000Y-17800000D01*
X20554000Y-4806000D02*
X20594000Y-4846000D01*
X20594000Y-4806000D02*
X20554000Y-4846000D01*
X20808000Y-17252000D02*
X20848000Y-17292000D01*
X20848000Y-17252000D02*
X20808000Y-17292000D01*
X21570000Y-5060000D02*
X21610000Y-5100000D01*
X21610000Y-5060000D02*
X21570000Y-5100000D01*
X23602000Y-6838000D02*
X23642000Y-6878000D01*
X23642000Y-6838000D02*
X23602000Y-6878000D01*
X23602000Y-11410000D02*
X23642000Y-11450000D01*
X23642000Y-11410000D02*
X23602000Y-11450000D01*
X23602000Y-14966000D02*
X23642000Y-15006000D01*
X23642000Y-14966000D02*
X23602000Y-15006000D01*
X26396000Y-17252000D02*
X26436000Y-17292000D01*
X26436000Y-17252000D02*
X26396000Y-17292000D01*
X26650000Y-17506000D02*
X26690000Y-17546000D01*
X26690000Y-17506000D02*
X26650000Y-17546000D01*
X26904000Y-17760000D02*
X26944000Y-17800000D01*
X26944000Y-17760000D02*
X26904000Y-17800000D01*
X28682000Y-4806000D02*
X28722000Y-4846000D01*
X28722000Y-4806000D02*
X28682000Y-4846000D01*
X29190000Y-4552000D02*
X29230000Y-4592000D01*
X29230000Y-4552000D02*
X29190000Y-4592000D01*
X29698000Y-5060000D02*
X29738000Y-5100000D01*
X29738000Y-5060000D02*
X29698000Y-5100000D01*
X32238000Y-6838000D02*
X32278000Y-6878000D01*
X32278000Y-6838000D02*
X32238000Y-6878000D01*
X32238000Y-11410000D02*
X32278000Y-11450000D01*
X32278000Y-11410000D02*
X32238000Y-11450000D01*
X32238000Y-14966000D02*
X32278000Y-15006000D01*
X32278000Y-14966000D02*
X32238000Y-15006000D01*
X5388000Y-13970000D02*
G75*
G02*
X5288000Y-13970000I-50000J0D01*
G01*
X5288000Y-13970000D02*
G75*
G02*
X5388000Y-13970000I50000J0D01*
G01*
X5388000Y-14420000D02*
G75*
G02*
X5288000Y-14420000I-50000J0D01*
G01*
X5288000Y-14420000D02*
G75*
G02*
X5388000Y-14420000I50000J0D01*
G01*
X5388000Y-15240000D02*
G75*
G02*
X5288000Y-15240000I-50000J0D01*
G01*
X5288000Y-15240000D02*
G75*
G02*
X5388000Y-15240000I50000J0D01*
G01*
X5388000Y-15690000D02*
G75*
G02*
X5288000Y-15690000I-50000J0D01*
G01*
X5288000Y-15690000D02*
G75*
G02*
X5388000Y-15690000I50000J0D01*
G01*
X5388000Y-16510000D02*
G75*
G02*
X5288000Y-16510000I-50000J0D01*
G01*
X5288000Y-16510000D02*
G75*
G02*
X5388000Y-16510000I50000J0D01*
G01*
X5388000Y-16960000D02*
G75*
G02*
X5288000Y-16960000I-50000J0D01*
G01*
X5288000Y-16960000D02*
G75*
G02*
X5388000Y-16960000I50000J0D01*
G01*
X5638000Y-12446000D02*
G75*
G02*
X5538000Y-12446000I-50000J0D01*
G01*
X5538000Y-12446000D02*
G75*
G02*
X5638000Y-12446000I50000J0D01*
G01*
X5638000Y-12954000D02*
G75*
G02*
X5538000Y-12954000I-50000J0D01*
G01*
X5538000Y-12954000D02*
G75*
G02*
X5638000Y-12954000I50000J0D01*
G01*
X5638000Y-13462000D02*
G75*
G02*
X5538000Y-13462000I-50000J0D01*
G01*
X5538000Y-13462000D02*
G75*
G02*
X5638000Y-13462000I50000J0D01*
G01*
X6146000Y-10668000D02*
G75*
G02*
X6046000Y-10668000I-50000J0D01*
G01*
X6046000Y-10668000D02*
G75*
G02*
X6146000Y-10668000I50000J0D01*
G01*
X6146000Y-17526000D02*
G75*
G02*
X6046000Y-17526000I-50000J0D01*
G01*
X6046000Y-17526000D02*
G75*
G02*
X6146000Y-17526000I50000J0D01*
G01*
X6400000Y-16002000D02*
G75*
G02*
X6300000Y-16002000I-50000J0D01*
G01*
X6300000Y-16002000D02*
G75*
G02*
X6400000Y-16002000I50000J0D01*
G01*
X6400000Y-16256000D02*
G75*
G02*
X6300000Y-16256000I-50000J0D01*
G01*
X6300000Y-16256000D02*
G75*
G02*
X6400000Y-16256000I50000J0D01*
G01*
X6400000Y-16510000D02*
G75*
G02*
X6300000Y-16510000I-50000J0D01*
G01*
X6300000Y-16510000D02*
G75*
G02*
X6400000Y-16510000I50000J0D01*
G01*
X6654000Y-10668000D02*
G75*
G02*
X6554000Y-10668000I-50000J0D01*
G01*
X6554000Y-10668000D02*
G75*
G02*
X6654000Y-10668000I50000J0D01*
G01*
X6654000Y-16256000D02*
G75*
G02*
X6554000Y-16256000I-50000J0D01*
G01*
X6554000Y-16256000D02*
G75*
G02*
X6654000Y-16256000I50000J0D01*
G01*
X6654000Y-17018000D02*
G75*
G02*
X6554000Y-17018000I-50000J0D01*
G01*
X6554000Y-17018000D02*
G75*
G02*
X6654000Y-17018000I50000J0D01*
G01*
X6654000Y-17526000D02*
G75*
G02*
X6554000Y-17526000I-50000J0D01*
G01*
X6554000Y-17526000D02*
G75*
G02*
X6654000Y-17526000I50000J0D01*
G01*
X7162000Y-10668000D02*
G75*
G02*
X7062000Y-10668000I-50000J0D01*
G01*
X7062000Y-10668000D02*
G75*
G02*
X7162000Y-10668000I50000J0D01*
G01*
X7162000Y-13208000D02*
G75*
G02*
X7062000Y-13208000I-50000J0D01*
G01*
X7062000Y-13208000D02*
G75*
G02*
X7162000Y-13208000I50000J0D01*
G01*
X7162000Y-14478000D02*
G75*
G02*
X7062000Y-14478000I-50000J0D01*
G01*
X7062000Y-14478000D02*
G75*
G02*
X7162000Y-14478000I50000J0D01*
G01*
X7162000Y-14986000D02*
G75*
G02*
X7062000Y-14986000I-50000J0D01*
G01*
X7062000Y-14986000D02*
G75*
G02*
X7162000Y-14986000I50000J0D01*
G01*
X7162000Y-15240000D02*
G75*
G02*
X7062000Y-15240000I-50000J0D01*
G01*
X7062000Y-15240000D02*
G75*
G02*
X7162000Y-15240000I50000J0D01*
G01*
X7162000Y-15494000D02*
G75*
G02*
X7062000Y-15494000I-50000J0D01*
G01*
X7062000Y-15494000D02*
G75*
G02*
X7162000Y-15494000I50000J0D01*
G01*
X7162000Y-15748000D02*
G75*
G02*
X7062000Y-15748000I-50000J0D01*
G01*
X7062000Y-15748000D02*
G75*
G02*
X7162000Y-15748000I50000J0D01*
G01*
X7162000Y-16256000D02*
G75*
G02*
X7062000Y-16256000I-50000J0D01*
G01*
X7062000Y-16256000D02*
G75*
G02*
X7162000Y-16256000I50000J0D01*
G01*
X7162000Y-16510000D02*
G75*
G02*
X7062000Y-16510000I-50000J0D01*
G01*
X7062000Y-16510000D02*
G75*
G02*
X7162000Y-16510000I50000J0D01*
G01*
X7162000Y-16764000D02*
G75*
G02*
X7062000Y-16764000I-50000J0D01*
G01*
X7062000Y-16764000D02*
G75*
G02*
X7162000Y-16764000I50000J0D01*
G01*
X7162000Y-17526000D02*
G75*
G02*
X7062000Y-17526000I-50000J0D01*
G01*
X7062000Y-17526000D02*
G75*
G02*
X7162000Y-17526000I50000J0D01*
G01*
X7162000Y-17780000D02*
G75*
G02*
X7062000Y-17780000I-50000J0D01*
G01*
X7062000Y-17780000D02*
G75*
G02*
X7162000Y-17780000I50000J0D01*
G01*
X7416000Y-12954000D02*
G75*
G02*
X7316000Y-12954000I-50000J0D01*
G01*
X7316000Y-12954000D02*
G75*
G02*
X7416000Y-12954000I50000J0D01*
G01*
X7416000Y-13208000D02*
G75*
G02*
X7316000Y-13208000I-50000J0D01*
G01*
X7316000Y-13208000D02*
G75*
G02*
X7416000Y-13208000I50000J0D01*
G01*
X7416000Y-13462000D02*
G75*
G02*
X7316000Y-13462000I-50000J0D01*
G01*
X7316000Y-13462000D02*
G75*
G02*
X7416000Y-13462000I50000J0D01*
G01*
X7416000Y-13716000D02*
G75*
G02*
X7316000Y-13716000I-50000J0D01*
G01*
X7316000Y-13716000D02*
G75*
G02*
X7416000Y-13716000I50000J0D01*
G01*
X7416000Y-13970000D02*
G75*
G02*
X7316000Y-13970000I-50000J0D01*
G01*
X7316000Y-13970000D02*
G75*
G02*
X7416000Y-13970000I50000J0D01*
G01*
X7416000Y-14224000D02*
G75*
G02*
X7316000Y-14224000I-50000J0D01*
G01*
X7316000Y-14224000D02*
G75*
G02*
X7416000Y-14224000I50000J0D01*
G01*
X7416000Y-14478000D02*
G75*
G02*
X7316000Y-14478000I-50000J0D01*
G01*
X7316000Y-14478000D02*
G75*
G02*
X7416000Y-14478000I50000J0D01*
G01*
X7416000Y-14732000D02*
G75*
G02*
X7316000Y-14732000I-50000J0D01*
G01*
X7316000Y-14732000D02*
G75*
G02*
X7416000Y-14732000I50000J0D01*
G01*
X7416000Y-14986000D02*
G75*
G02*
X7316000Y-14986000I-50000J0D01*
G01*
X7316000Y-14986000D02*
G75*
G02*
X7416000Y-14986000I50000J0D01*
G01*
X7416000Y-15240000D02*
G75*
G02*
X7316000Y-15240000I-50000J0D01*
G01*
X7316000Y-15240000D02*
G75*
G02*
X7416000Y-15240000I50000J0D01*
G01*
X7416000Y-15494000D02*
G75*
G02*
X7316000Y-15494000I-50000J0D01*
G01*
X7316000Y-15494000D02*
G75*
G02*
X7416000Y-15494000I50000J0D01*
G01*
X7416000Y-15748000D02*
G75*
G02*
X7316000Y-15748000I-50000J0D01*
G01*
X7316000Y-15748000D02*
G75*
G02*
X7416000Y-15748000I50000J0D01*
G01*
X7416000Y-16002000D02*
G75*
G02*
X7316000Y-16002000I-50000J0D01*
G01*
X7316000Y-16002000D02*
G75*
G02*
X7416000Y-16002000I50000J0D01*
G01*
X7416000Y-16256000D02*
G75*
G02*
X7316000Y-16256000I-50000J0D01*
G01*
X7316000Y-16256000D02*
G75*
G02*
X7416000Y-16256000I50000J0D01*
G01*
X7416000Y-16510000D02*
G75*
G02*
X7316000Y-16510000I-50000J0D01*
G01*
X7316000Y-16510000D02*
G75*
G02*
X7416000Y-16510000I50000J0D01*
G01*
X7416000Y-16764000D02*
G75*
G02*
X7316000Y-16764000I-50000J0D01*
G01*
X7316000Y-16764000D02*
G75*
G02*
X7416000Y-16764000I50000J0D01*
G01*
X7416000Y-17018000D02*
G75*
G02*
X7316000Y-17018000I-50000J0D01*
G01*
X7316000Y-17018000D02*
G75*
G02*
X7416000Y-17018000I50000J0D01*
G01*
X7416000Y-17272000D02*
G75*
G02*
X7316000Y-17272000I-50000J0D01*
G01*
X7316000Y-17272000D02*
G75*
G02*
X7416000Y-17272000I50000J0D01*
G01*
X7416000Y-17526000D02*
G75*
G02*
X7316000Y-17526000I-50000J0D01*
G01*
X7316000Y-17526000D02*
G75*
G02*
X7416000Y-17526000I50000J0D01*
G01*
X7416000Y-17780000D02*
G75*
G02*
X7316000Y-17780000I-50000J0D01*
G01*
X7316000Y-17780000D02*
G75*
G02*
X7416000Y-17780000I50000J0D01*
G01*
X7670000Y-11430000D02*
G75*
G02*
X7570000Y-11430000I-50000J0D01*
G01*
X7570000Y-11430000D02*
G75*
G02*
X7670000Y-11430000I50000J0D01*
G01*
X7924000Y-10668000D02*
G75*
G02*
X7824000Y-10668000I-50000J0D01*
G01*
X7824000Y-10668000D02*
G75*
G02*
X7924000Y-10668000I50000J0D01*
G01*
X8178000Y-11176000D02*
G75*
G02*
X8078000Y-11176000I-50000J0D01*
G01*
X8078000Y-11176000D02*
G75*
G02*
X8178000Y-11176000I50000J0D01*
G01*
X8178000Y-12446000D02*
G75*
G02*
X8078000Y-12446000I-50000J0D01*
G01*
X8078000Y-12446000D02*
G75*
G02*
X8178000Y-12446000I50000J0D01*
G01*
X8432000Y-10668000D02*
G75*
G02*
X8332000Y-10668000I-50000J0D01*
G01*
X8332000Y-10668000D02*
G75*
G02*
X8432000Y-10668000I50000J0D01*
G01*
X8432000Y-12446000D02*
G75*
G02*
X8332000Y-12446000I-50000J0D01*
G01*
X8332000Y-12446000D02*
G75*
G02*
X8432000Y-12446000I50000J0D01*
G01*
X8686000Y-11430000D02*
G75*
G02*
X8586000Y-11430000I-50000J0D01*
G01*
X8586000Y-11430000D02*
G75*
G02*
X8686000Y-11430000I50000J0D01*
G01*
X8940000Y-11430000D02*
G75*
G02*
X8840000Y-11430000I-50000J0D01*
G01*
X8840000Y-11430000D02*
G75*
G02*
X8940000Y-11430000I50000J0D01*
G01*
X9194000Y-10668000D02*
G75*
G02*
X9094000Y-10668000I-50000J0D01*
G01*
X9094000Y-10668000D02*
G75*
G02*
X9194000Y-10668000I50000J0D01*
G01*
X9194000Y-11430000D02*
G75*
G02*
X9094000Y-11430000I-50000J0D01*
G01*
X9094000Y-11430000D02*
G75*
G02*
X9194000Y-11430000I50000J0D01*
G01*
X9194000Y-12954000D02*
G75*
G02*
X9094000Y-12954000I-50000J0D01*
G01*
X9094000Y-12954000D02*
G75*
G02*
X9194000Y-12954000I50000J0D01*
G01*
X9194000Y-13208000D02*
G75*
G02*
X9094000Y-13208000I-50000J0D01*
G01*
X9094000Y-13208000D02*
G75*
G02*
X9194000Y-13208000I50000J0D01*
G01*
X9194000Y-13462000D02*
G75*
G02*
X9094000Y-13462000I-50000J0D01*
G01*
X9094000Y-13462000D02*
G75*
G02*
X9194000Y-13462000I50000J0D01*
G01*
X9194000Y-13716000D02*
G75*
G02*
X9094000Y-13716000I-50000J0D01*
G01*
X9094000Y-13716000D02*
G75*
G02*
X9194000Y-13716000I50000J0D01*
G01*
X9194000Y-13970000D02*
G75*
G02*
X9094000Y-13970000I-50000J0D01*
G01*
X9094000Y-13970000D02*
G75*
G02*
X9194000Y-13970000I50000J0D01*
G01*
X9194000Y-14224000D02*
G75*
G02*
X9094000Y-14224000I-50000J0D01*
G01*
X9094000Y-14224000D02*
G75*
G02*
X9194000Y-14224000I50000J0D01*
G01*
X9194000Y-14478000D02*
G75*
G02*
X9094000Y-14478000I-50000J0D01*
G01*
X9094000Y-14478000D02*
G75*
G02*
X9194000Y-14478000I50000J0D01*
G01*
X9194000Y-14732000D02*
G75*
G02*
X9094000Y-14732000I-50000J0D01*
G01*
X9094000Y-14732000D02*
G75*
G02*
X9194000Y-14732000I50000J0D01*
G01*
X9194000Y-14986000D02*
G75*
G02*
X9094000Y-14986000I-50000J0D01*
G01*
X9094000Y-14986000D02*
G75*
G02*
X9194000Y-14986000I50000J0D01*
G01*
X9194000Y-15240000D02*
G75*
G02*
X9094000Y-15240000I-50000J0D01*
G01*
X9094000Y-15240000D02*
G75*
G02*
X9194000Y-15240000I50000J0D01*
G01*
X9194000Y-15494000D02*
G75*
G02*
X9094000Y-15494000I-50000J0D01*
G01*
X9094000Y-15494000D02*
G75*
G02*
X9194000Y-15494000I50000J0D01*
G01*
X9194000Y-15748000D02*
G75*
G02*
X9094000Y-15748000I-50000J0D01*
G01*
X9094000Y-15748000D02*
G75*
G02*
X9194000Y-15748000I50000J0D01*
G01*
X9194000Y-16002000D02*
G75*
G02*
X9094000Y-16002000I-50000J0D01*
G01*
X9094000Y-16002000D02*
G75*
G02*
X9194000Y-16002000I50000J0D01*
G01*
X9194000Y-16256000D02*
G75*
G02*
X9094000Y-16256000I-50000J0D01*
G01*
X9094000Y-16256000D02*
G75*
G02*
X9194000Y-16256000I50000J0D01*
G01*
X9194000Y-16510000D02*
G75*
G02*
X9094000Y-16510000I-50000J0D01*
G01*
X9094000Y-16510000D02*
G75*
G02*
X9194000Y-16510000I50000J0D01*
G01*
X9194000Y-16764000D02*
G75*
G02*
X9094000Y-16764000I-50000J0D01*
G01*
X9094000Y-16764000D02*
G75*
G02*
X9194000Y-16764000I50000J0D01*
G01*
X9194000Y-17018000D02*
G75*
G02*
X9094000Y-17018000I-50000J0D01*
G01*
X9094000Y-17018000D02*
G75*
G02*
X9194000Y-17018000I50000J0D01*
G01*
X9194000Y-17272000D02*
G75*
G02*
X9094000Y-17272000I-50000J0D01*
G01*
X9094000Y-17272000D02*
G75*
G02*
X9194000Y-17272000I50000J0D01*
G01*
X9194000Y-17526000D02*
G75*
G02*
X9094000Y-17526000I-50000J0D01*
G01*
X9094000Y-17526000D02*
G75*
G02*
X9194000Y-17526000I50000J0D01*
G01*
X9194000Y-17780000D02*
G75*
G02*
X9094000Y-17780000I-50000J0D01*
G01*
X9094000Y-17780000D02*
G75*
G02*
X9194000Y-17780000I50000J0D01*
G01*
X9448000Y-11176000D02*
G75*
G02*
X9348000Y-11176000I-50000J0D01*
G01*
X9348000Y-11176000D02*
G75*
G02*
X9448000Y-11176000I50000J0D01*
G01*
X9448000Y-12446000D02*
G75*
G02*
X9348000Y-12446000I-50000J0D01*
G01*
X9348000Y-12446000D02*
G75*
G02*
X9448000Y-12446000I50000J0D01*
G01*
X9448000Y-12954000D02*
G75*
G02*
X9348000Y-12954000I-50000J0D01*
G01*
X9348000Y-12954000D02*
G75*
G02*
X9448000Y-12954000I50000J0D01*
G01*
X9448000Y-13462000D02*
G75*
G02*
X9348000Y-13462000I-50000J0D01*
G01*
X9348000Y-13462000D02*
G75*
G02*
X9448000Y-13462000I50000J0D01*
G01*
X9448000Y-13716000D02*
G75*
G02*
X9348000Y-13716000I-50000J0D01*
G01*
X9348000Y-13716000D02*
G75*
G02*
X9448000Y-13716000I50000J0D01*
G01*
X9448000Y-14224000D02*
G75*
G02*
X9348000Y-14224000I-50000J0D01*
G01*
X9348000Y-14224000D02*
G75*
G02*
X9448000Y-14224000I50000J0D01*
G01*
X9448000Y-14478000D02*
G75*
G02*
X9348000Y-14478000I-50000J0D01*
G01*
X9348000Y-14478000D02*
G75*
G02*
X9448000Y-14478000I50000J0D01*
G01*
X9448000Y-14732000D02*
G75*
G02*
X9348000Y-14732000I-50000J0D01*
G01*
X9348000Y-14732000D02*
G75*
G02*
X9448000Y-14732000I50000J0D01*
G01*
X9448000Y-15494000D02*
G75*
G02*
X9348000Y-15494000I-50000J0D01*
G01*
X9348000Y-15494000D02*
G75*
G02*
X9448000Y-15494000I50000J0D01*
G01*
X9448000Y-15748000D02*
G75*
G02*
X9348000Y-15748000I-50000J0D01*
G01*
X9348000Y-15748000D02*
G75*
G02*
X9448000Y-15748000I50000J0D01*
G01*
X9448000Y-16002000D02*
G75*
G02*
X9348000Y-16002000I-50000J0D01*
G01*
X9348000Y-16002000D02*
G75*
G02*
X9448000Y-16002000I50000J0D01*
G01*
X9448000Y-17272000D02*
G75*
G02*
X9348000Y-17272000I-50000J0D01*
G01*
X9348000Y-17272000D02*
G75*
G02*
X9448000Y-17272000I50000J0D01*
G01*
X9702000Y-10668000D02*
G75*
G02*
X9602000Y-10668000I-50000J0D01*
G01*
X9602000Y-10668000D02*
G75*
G02*
X9702000Y-10668000I50000J0D01*
G01*
X9702000Y-11176000D02*
G75*
G02*
X9602000Y-11176000I-50000J0D01*
G01*
X9602000Y-11176000D02*
G75*
G02*
X9702000Y-11176000I50000J0D01*
G01*
X9702000Y-12446000D02*
G75*
G02*
X9602000Y-12446000I-50000J0D01*
G01*
X9602000Y-12446000D02*
G75*
G02*
X9702000Y-12446000I50000J0D01*
G01*
X11226000Y-15240000D02*
G75*
G02*
X11126000Y-15240000I-50000J0D01*
G01*
X11126000Y-15240000D02*
G75*
G02*
X11226000Y-15240000I50000J0D01*
G01*
X11226000Y-16002000D02*
G75*
G02*
X11126000Y-16002000I-50000J0D01*
G01*
X11126000Y-16002000D02*
G75*
G02*
X11226000Y-16002000I50000J0D01*
G01*
X11480000Y-15240000D02*
G75*
G02*
X11380000Y-15240000I-50000J0D01*
G01*
X11380000Y-15240000D02*
G75*
G02*
X11480000Y-15240000I50000J0D01*
G01*
X11480000Y-16002000D02*
G75*
G02*
X11380000Y-16002000I-50000J0D01*
G01*
X11380000Y-16002000D02*
G75*
G02*
X11480000Y-16002000I50000J0D01*
G01*
X11734000Y-15240000D02*
G75*
G02*
X11634000Y-15240000I-50000J0D01*
G01*
X11634000Y-15240000D02*
G75*
G02*
X11734000Y-15240000I50000J0D01*
G01*
X11734000Y-16002000D02*
G75*
G02*
X11634000Y-16002000I-50000J0D01*
G01*
X11634000Y-16002000D02*
G75*
G02*
X11734000Y-16002000I50000J0D01*
G01*
X11734000Y-16510000D02*
G75*
G02*
X11634000Y-16510000I-50000J0D01*
G01*
X11634000Y-16510000D02*
G75*
G02*
X11734000Y-16510000I50000J0D01*
G01*
X11988000Y-8382000D02*
G75*
G02*
X11888000Y-8382000I-50000J0D01*
G01*
X11888000Y-8382000D02*
G75*
G02*
X11988000Y-8382000I50000J0D01*
G01*
X11988000Y-9144000D02*
G75*
G02*
X11888000Y-9144000I-50000J0D01*
G01*
X11888000Y-9144000D02*
G75*
G02*
X11988000Y-9144000I50000J0D01*
G01*
X11988000Y-15240000D02*
G75*
G02*
X11888000Y-15240000I-50000J0D01*
G01*
X11888000Y-15240000D02*
G75*
G02*
X11988000Y-15240000I50000J0D01*
G01*
X11988000Y-16002000D02*
G75*
G02*
X11888000Y-16002000I-50000J0D01*
G01*
X11888000Y-16002000D02*
G75*
G02*
X11988000Y-16002000I50000J0D01*
G01*
X11988000Y-16510000D02*
G75*
G02*
X11888000Y-16510000I-50000J0D01*
G01*
X11888000Y-16510000D02*
G75*
G02*
X11988000Y-16510000I50000J0D01*
G01*
X12242000Y-15240000D02*
G75*
G02*
X12142000Y-15240000I-50000J0D01*
G01*
X12142000Y-15240000D02*
G75*
G02*
X12242000Y-15240000I50000J0D01*
G01*
X12242000Y-16002000D02*
G75*
G02*
X12142000Y-16002000I-50000J0D01*
G01*
X12142000Y-16002000D02*
G75*
G02*
X12242000Y-16002000I50000J0D01*
G01*
X12242000Y-16510000D02*
G75*
G02*
X12142000Y-16510000I-50000J0D01*
G01*
X12142000Y-16510000D02*
G75*
G02*
X12242000Y-16510000I50000J0D01*
G01*
X12496000Y-15240000D02*
G75*
G02*
X12396000Y-15240000I-50000J0D01*
G01*
X12396000Y-15240000D02*
G75*
G02*
X12496000Y-15240000I50000J0D01*
G01*
X12496000Y-16002000D02*
G75*
G02*
X12396000Y-16002000I-50000J0D01*
G01*
X12396000Y-16002000D02*
G75*
G02*
X12496000Y-16002000I50000J0D01*
G01*
X12496000Y-16510000D02*
G75*
G02*
X12396000Y-16510000I-50000J0D01*
G01*
X12396000Y-16510000D02*
G75*
G02*
X12496000Y-16510000I50000J0D01*
G01*
X12750000Y-8382000D02*
G75*
G02*
X12650000Y-8382000I-50000J0D01*
G01*
X12650000Y-8382000D02*
G75*
G02*
X12750000Y-8382000I50000J0D01*
G01*
X12750000Y-9144000D02*
G75*
G02*
X12650000Y-9144000I-50000J0D01*
G01*
X12650000Y-9144000D02*
G75*
G02*
X12750000Y-9144000I50000J0D01*
G01*
X12750000Y-12192000D02*
G75*
G02*
X12650000Y-12192000I-50000J0D01*
G01*
X12650000Y-12192000D02*
G75*
G02*
X12750000Y-12192000I50000J0D01*
G01*
X12750000Y-12954000D02*
G75*
G02*
X12650000Y-12954000I-50000J0D01*
G01*
X12650000Y-12954000D02*
G75*
G02*
X12750000Y-12954000I50000J0D01*
G01*
X12750000Y-15240000D02*
G75*
G02*
X12650000Y-15240000I-50000J0D01*
G01*
X12650000Y-15240000D02*
G75*
G02*
X12750000Y-15240000I50000J0D01*
G01*
X12750000Y-16002000D02*
G75*
G02*
X12650000Y-16002000I-50000J0D01*
G01*
X12650000Y-16002000D02*
G75*
G02*
X12750000Y-16002000I50000J0D01*
G01*
X13004000Y-7874000D02*
G75*
G02*
X12904000Y-7874000I-50000J0D01*
G01*
X12904000Y-7874000D02*
G75*
G02*
X13004000Y-7874000I50000J0D01*
G01*
X13004000Y-8636000D02*
G75*
G02*
X12904000Y-8636000I-50000J0D01*
G01*
X12904000Y-8636000D02*
G75*
G02*
X13004000Y-8636000I50000J0D01*
G01*
X13004000Y-9652000D02*
G75*
G02*
X12904000Y-9652000I-50000J0D01*
G01*
X12904000Y-9652000D02*
G75*
G02*
X13004000Y-9652000I50000J0D01*
G01*
X13004000Y-12700000D02*
G75*
G02*
X12904000Y-12700000I-50000J0D01*
G01*
X12904000Y-12700000D02*
G75*
G02*
X13004000Y-12700000I50000J0D01*
G01*
X13004000Y-13462000D02*
G75*
G02*
X12904000Y-13462000I-50000J0D01*
G01*
X12904000Y-13462000D02*
G75*
G02*
X13004000Y-13462000I50000J0D01*
G01*
X13004000Y-15240000D02*
G75*
G02*
X12904000Y-15240000I-50000J0D01*
G01*
X12904000Y-15240000D02*
G75*
G02*
X13004000Y-15240000I50000J0D01*
G01*
X13004000Y-16002000D02*
G75*
G02*
X12904000Y-16002000I-50000J0D01*
G01*
X12904000Y-16002000D02*
G75*
G02*
X13004000Y-16002000I50000J0D01*
G01*
X13004000Y-16256000D02*
G75*
G02*
X12904000Y-16256000I-50000J0D01*
G01*
X12904000Y-16256000D02*
G75*
G02*
X13004000Y-16256000I50000J0D01*
G01*
X13258000Y-8890000D02*
G75*
G02*
X13158000Y-8890000I-50000J0D01*
G01*
X13158000Y-8890000D02*
G75*
G02*
X13258000Y-8890000I50000J0D01*
G01*
X13258000Y-9144000D02*
G75*
G02*
X13158000Y-9144000I-50000J0D01*
G01*
X13158000Y-9144000D02*
G75*
G02*
X13258000Y-9144000I50000J0D01*
G01*
X13258000Y-9398000D02*
G75*
G02*
X13158000Y-9398000I-50000J0D01*
G01*
X13158000Y-9398000D02*
G75*
G02*
X13258000Y-9398000I50000J0D01*
G01*
X13258000Y-9906000D02*
G75*
G02*
X13158000Y-9906000I-50000J0D01*
G01*
X13158000Y-9906000D02*
G75*
G02*
X13258000Y-9906000I50000J0D01*
G01*
X13258000Y-11684000D02*
G75*
G02*
X13158000Y-11684000I-50000J0D01*
G01*
X13158000Y-11684000D02*
G75*
G02*
X13258000Y-11684000I50000J0D01*
G01*
X13258000Y-11938000D02*
G75*
G02*
X13158000Y-11938000I-50000J0D01*
G01*
X13158000Y-11938000D02*
G75*
G02*
X13258000Y-11938000I50000J0D01*
G01*
X13258000Y-12192000D02*
G75*
G02*
X13158000Y-12192000I-50000J0D01*
G01*
X13158000Y-12192000D02*
G75*
G02*
X13258000Y-12192000I50000J0D01*
G01*
X13258000Y-12446000D02*
G75*
G02*
X13158000Y-12446000I-50000J0D01*
G01*
X13158000Y-12446000D02*
G75*
G02*
X13258000Y-12446000I50000J0D01*
G01*
X13258000Y-13208000D02*
G75*
G02*
X13158000Y-13208000I-50000J0D01*
G01*
X13158000Y-13208000D02*
G75*
G02*
X13258000Y-13208000I50000J0D01*
G01*
X13258000Y-13970000D02*
G75*
G02*
X13158000Y-13970000I-50000J0D01*
G01*
X13158000Y-13970000D02*
G75*
G02*
X13258000Y-13970000I50000J0D01*
G01*
X13258000Y-15240000D02*
G75*
G02*
X13158000Y-15240000I-50000J0D01*
G01*
X13158000Y-15240000D02*
G75*
G02*
X13258000Y-15240000I50000J0D01*
G01*
X13258000Y-16002000D02*
G75*
G02*
X13158000Y-16002000I-50000J0D01*
G01*
X13158000Y-16002000D02*
G75*
G02*
X13258000Y-16002000I50000J0D01*
G01*
X13512000Y-7366000D02*
G75*
G02*
X13412000Y-7366000I-50000J0D01*
G01*
X13412000Y-7366000D02*
G75*
G02*
X13512000Y-7366000I50000J0D01*
G01*
X13512000Y-8128000D02*
G75*
G02*
X13412000Y-8128000I-50000J0D01*
G01*
X13412000Y-8128000D02*
G75*
G02*
X13512000Y-8128000I50000J0D01*
G01*
X13512000Y-8382000D02*
G75*
G02*
X13412000Y-8382000I-50000J0D01*
G01*
X13412000Y-8382000D02*
G75*
G02*
X13512000Y-8382000I50000J0D01*
G01*
X13512000Y-8636000D02*
G75*
G02*
X13412000Y-8636000I-50000J0D01*
G01*
X13412000Y-8636000D02*
G75*
G02*
X13512000Y-8636000I50000J0D01*
G01*
X13512000Y-8890000D02*
G75*
G02*
X13412000Y-8890000I-50000J0D01*
G01*
X13412000Y-8890000D02*
G75*
G02*
X13512000Y-8890000I50000J0D01*
G01*
X13512000Y-9906000D02*
G75*
G02*
X13412000Y-9906000I-50000J0D01*
G01*
X13412000Y-9906000D02*
G75*
G02*
X13512000Y-9906000I50000J0D01*
G01*
X13512000Y-11684000D02*
G75*
G02*
X13412000Y-11684000I-50000J0D01*
G01*
X13412000Y-11684000D02*
G75*
G02*
X13512000Y-11684000I50000J0D01*
G01*
X13512000Y-12446000D02*
G75*
G02*
X13412000Y-12446000I-50000J0D01*
G01*
X13412000Y-12446000D02*
G75*
G02*
X13512000Y-12446000I50000J0D01*
G01*
X13512000Y-12700000D02*
G75*
G02*
X13412000Y-12700000I-50000J0D01*
G01*
X13412000Y-12700000D02*
G75*
G02*
X13512000Y-12700000I50000J0D01*
G01*
X13512000Y-12954000D02*
G75*
G02*
X13412000Y-12954000I-50000J0D01*
G01*
X13412000Y-12954000D02*
G75*
G02*
X13512000Y-12954000I50000J0D01*
G01*
X13512000Y-13716000D02*
G75*
G02*
X13412000Y-13716000I-50000J0D01*
G01*
X13412000Y-13716000D02*
G75*
G02*
X13512000Y-13716000I50000J0D01*
G01*
X13512000Y-14478000D02*
G75*
G02*
X13412000Y-14478000I-50000J0D01*
G01*
X13412000Y-14478000D02*
G75*
G02*
X13512000Y-14478000I50000J0D01*
G01*
X13766000Y-6858000D02*
G75*
G02*
X13666000Y-6858000I-50000J0D01*
G01*
X13666000Y-6858000D02*
G75*
G02*
X13766000Y-6858000I50000J0D01*
G01*
X13766000Y-7620000D02*
G75*
G02*
X13666000Y-7620000I-50000J0D01*
G01*
X13666000Y-7620000D02*
G75*
G02*
X13766000Y-7620000I50000J0D01*
G01*
X13766000Y-9652000D02*
G75*
G02*
X13666000Y-9652000I-50000J0D01*
G01*
X13666000Y-9652000D02*
G75*
G02*
X13766000Y-9652000I50000J0D01*
G01*
X13766000Y-9906000D02*
G75*
G02*
X13666000Y-9906000I-50000J0D01*
G01*
X13666000Y-9906000D02*
G75*
G02*
X13766000Y-9906000I50000J0D01*
G01*
X13766000Y-11684000D02*
G75*
G02*
X13666000Y-11684000I-50000J0D01*
G01*
X13666000Y-11684000D02*
G75*
G02*
X13766000Y-11684000I50000J0D01*
G01*
X13766000Y-12954000D02*
G75*
G02*
X13666000Y-12954000I-50000J0D01*
G01*
X13666000Y-12954000D02*
G75*
G02*
X13766000Y-12954000I50000J0D01*
G01*
X13766000Y-13208000D02*
G75*
G02*
X13666000Y-13208000I-50000J0D01*
G01*
X13666000Y-13208000D02*
G75*
G02*
X13766000Y-13208000I50000J0D01*
G01*
X13766000Y-13462000D02*
G75*
G02*
X13666000Y-13462000I-50000J0D01*
G01*
X13666000Y-13462000D02*
G75*
G02*
X13766000Y-13462000I50000J0D01*
G01*
X13766000Y-14224000D02*
G75*
G02*
X13666000Y-14224000I-50000J0D01*
G01*
X13666000Y-14224000D02*
G75*
G02*
X13766000Y-14224000I50000J0D01*
G01*
X13766000Y-14986000D02*
G75*
G02*
X13666000Y-14986000I-50000J0D01*
G01*
X13666000Y-14986000D02*
G75*
G02*
X13766000Y-14986000I50000J0D01*
G01*
X14020000Y-6350000D02*
G75*
G02*
X13920000Y-6350000I-50000J0D01*
G01*
X13920000Y-6350000D02*
G75*
G02*
X14020000Y-6350000I50000J0D01*
G01*
X14020000Y-7112000D02*
G75*
G02*
X13920000Y-7112000I-50000J0D01*
G01*
X13920000Y-7112000D02*
G75*
G02*
X14020000Y-7112000I50000J0D01*
G01*
X14020000Y-7874000D02*
G75*
G02*
X13920000Y-7874000I-50000J0D01*
G01*
X13920000Y-7874000D02*
G75*
G02*
X14020000Y-7874000I50000J0D01*
G01*
X14020000Y-8128000D02*
G75*
G02*
X13920000Y-8128000I-50000J0D01*
G01*
X13920000Y-8128000D02*
G75*
G02*
X14020000Y-8128000I50000J0D01*
G01*
X14020000Y-8382000D02*
G75*
G02*
X13920000Y-8382000I-50000J0D01*
G01*
X13920000Y-8382000D02*
G75*
G02*
X14020000Y-8382000I50000J0D01*
G01*
X14020000Y-8636000D02*
G75*
G02*
X13920000Y-8636000I-50000J0D01*
G01*
X13920000Y-8636000D02*
G75*
G02*
X14020000Y-8636000I50000J0D01*
G01*
X14020000Y-8890000D02*
G75*
G02*
X13920000Y-8890000I-50000J0D01*
G01*
X13920000Y-8890000D02*
G75*
G02*
X14020000Y-8890000I50000J0D01*
G01*
X14020000Y-9906000D02*
G75*
G02*
X13920000Y-9906000I-50000J0D01*
G01*
X13920000Y-9906000D02*
G75*
G02*
X14020000Y-9906000I50000J0D01*
G01*
X14020000Y-11684000D02*
G75*
G02*
X13920000Y-11684000I-50000J0D01*
G01*
X13920000Y-11684000D02*
G75*
G02*
X14020000Y-11684000I50000J0D01*
G01*
X14020000Y-13462000D02*
G75*
G02*
X13920000Y-13462000I-50000J0D01*
G01*
X13920000Y-13462000D02*
G75*
G02*
X14020000Y-13462000I50000J0D01*
G01*
X14020000Y-13716000D02*
G75*
G02*
X13920000Y-13716000I-50000J0D01*
G01*
X13920000Y-13716000D02*
G75*
G02*
X14020000Y-13716000I50000J0D01*
G01*
X14020000Y-13970000D02*
G75*
G02*
X13920000Y-13970000I-50000J0D01*
G01*
X13920000Y-13970000D02*
G75*
G02*
X14020000Y-13970000I50000J0D01*
G01*
X14020000Y-14732000D02*
G75*
G02*
X13920000Y-14732000I-50000J0D01*
G01*
X13920000Y-14732000D02*
G75*
G02*
X14020000Y-14732000I50000J0D01*
G01*
X14020000Y-15494000D02*
G75*
G02*
X13920000Y-15494000I-50000J0D01*
G01*
X13920000Y-15494000D02*
G75*
G02*
X14020000Y-15494000I50000J0D01*
G01*
X14274000Y-7366000D02*
G75*
G02*
X14174000Y-7366000I-50000J0D01*
G01*
X14174000Y-7366000D02*
G75*
G02*
X14274000Y-7366000I50000J0D01*
G01*
X14274000Y-7620000D02*
G75*
G02*
X14174000Y-7620000I-50000J0D01*
G01*
X14174000Y-7620000D02*
G75*
G02*
X14274000Y-7620000I50000J0D01*
G01*
X14274000Y-7874000D02*
G75*
G02*
X14174000Y-7874000I-50000J0D01*
G01*
X14174000Y-7874000D02*
G75*
G02*
X14274000Y-7874000I50000J0D01*
G01*
X14274000Y-9906000D02*
G75*
G02*
X14174000Y-9906000I-50000J0D01*
G01*
X14174000Y-9906000D02*
G75*
G02*
X14274000Y-9906000I50000J0D01*
G01*
X14274000Y-11684000D02*
G75*
G02*
X14174000Y-11684000I-50000J0D01*
G01*
X14174000Y-11684000D02*
G75*
G02*
X14274000Y-11684000I50000J0D01*
G01*
X14274000Y-13970000D02*
G75*
G02*
X14174000Y-13970000I-50000J0D01*
G01*
X14174000Y-13970000D02*
G75*
G02*
X14274000Y-13970000I50000J0D01*
G01*
X14274000Y-14224000D02*
G75*
G02*
X14174000Y-14224000I-50000J0D01*
G01*
X14174000Y-14224000D02*
G75*
G02*
X14274000Y-14224000I50000J0D01*
G01*
X14274000Y-14478000D02*
G75*
G02*
X14174000Y-14478000I-50000J0D01*
G01*
X14174000Y-14478000D02*
G75*
G02*
X14274000Y-14478000I50000J0D01*
G01*
X14528000Y-6858000D02*
G75*
G02*
X14428000Y-6858000I-50000J0D01*
G01*
X14428000Y-6858000D02*
G75*
G02*
X14528000Y-6858000I50000J0D01*
G01*
X14528000Y-7112000D02*
G75*
G02*
X14428000Y-7112000I-50000J0D01*
G01*
X14428000Y-7112000D02*
G75*
G02*
X14528000Y-7112000I50000J0D01*
G01*
X14528000Y-7366000D02*
G75*
G02*
X14428000Y-7366000I-50000J0D01*
G01*
X14428000Y-7366000D02*
G75*
G02*
X14528000Y-7366000I50000J0D01*
G01*
X14528000Y-9906000D02*
G75*
G02*
X14428000Y-9906000I-50000J0D01*
G01*
X14428000Y-9906000D02*
G75*
G02*
X14528000Y-9906000I50000J0D01*
G01*
X14528000Y-11684000D02*
G75*
G02*
X14428000Y-11684000I-50000J0D01*
G01*
X14428000Y-11684000D02*
G75*
G02*
X14528000Y-11684000I50000J0D01*
G01*
X14528000Y-14478000D02*
G75*
G02*
X14428000Y-14478000I-50000J0D01*
G01*
X14428000Y-14478000D02*
G75*
G02*
X14528000Y-14478000I50000J0D01*
G01*
X14528000Y-14732000D02*
G75*
G02*
X14428000Y-14732000I-50000J0D01*
G01*
X14428000Y-14732000D02*
G75*
G02*
X14528000Y-14732000I50000J0D01*
G01*
X14528000Y-14986000D02*
G75*
G02*
X14428000Y-14986000I-50000J0D01*
G01*
X14428000Y-14986000D02*
G75*
G02*
X14528000Y-14986000I50000J0D01*
G01*
X14782000Y-8636000D02*
G75*
G02*
X14682000Y-8636000I-50000J0D01*
G01*
X14682000Y-8636000D02*
G75*
G02*
X14782000Y-8636000I50000J0D01*
G01*
X14782000Y-8890000D02*
G75*
G02*
X14682000Y-8890000I-50000J0D01*
G01*
X14682000Y-8890000D02*
G75*
G02*
X14782000Y-8890000I50000J0D01*
G01*
X14782000Y-9906000D02*
G75*
G02*
X14682000Y-9906000I-50000J0D01*
G01*
X14682000Y-9906000D02*
G75*
G02*
X14782000Y-9906000I50000J0D01*
G01*
X14782000Y-11684000D02*
G75*
G02*
X14682000Y-11684000I-50000J0D01*
G01*
X14682000Y-11684000D02*
G75*
G02*
X14782000Y-11684000I50000J0D01*
G01*
X15544000Y-5588000D02*
G75*
G02*
X15444000Y-5588000I-50000J0D01*
G01*
X15444000Y-5588000D02*
G75*
G02*
X15544000Y-5588000I50000J0D01*
G01*
X15544000Y-5842000D02*
G75*
G02*
X15444000Y-5842000I-50000J0D01*
G01*
X15444000Y-5842000D02*
G75*
G02*
X15544000Y-5842000I50000J0D01*
G01*
X15544000Y-6096000D02*
G75*
G02*
X15444000Y-6096000I-50000J0D01*
G01*
X15444000Y-6096000D02*
G75*
G02*
X15544000Y-6096000I50000J0D01*
G01*
X15544000Y-6350000D02*
G75*
G02*
X15444000Y-6350000I-50000J0D01*
G01*
X15444000Y-6350000D02*
G75*
G02*
X15544000Y-6350000I50000J0D01*
G01*
X15544000Y-8636000D02*
G75*
G02*
X15444000Y-8636000I-50000J0D01*
G01*
X15444000Y-8636000D02*
G75*
G02*
X15544000Y-8636000I50000J0D01*
G01*
X15544000Y-8890000D02*
G75*
G02*
X15444000Y-8890000I-50000J0D01*
G01*
X15444000Y-8890000D02*
G75*
G02*
X15544000Y-8890000I50000J0D01*
G01*
X15544000Y-9652000D02*
G75*
G02*
X15444000Y-9652000I-50000J0D01*
G01*
X15444000Y-9652000D02*
G75*
G02*
X15544000Y-9652000I50000J0D01*
G01*
X15798000Y-9906000D02*
G75*
G02*
X15698000Y-9906000I-50000J0D01*
G01*
X15698000Y-9906000D02*
G75*
G02*
X15798000Y-9906000I50000J0D01*
G01*
X15798000Y-11684000D02*
G75*
G02*
X15698000Y-11684000I-50000J0D01*
G01*
X15698000Y-11684000D02*
G75*
G02*
X15798000Y-11684000I50000J0D01*
G01*
X16052000Y-6858000D02*
G75*
G02*
X15952000Y-6858000I-50000J0D01*
G01*
X15952000Y-6858000D02*
G75*
G02*
X16052000Y-6858000I50000J0D01*
G01*
X16052000Y-7112000D02*
G75*
G02*
X15952000Y-7112000I-50000J0D01*
G01*
X15952000Y-7112000D02*
G75*
G02*
X16052000Y-7112000I50000J0D01*
G01*
X16052000Y-7366000D02*
G75*
G02*
X15952000Y-7366000I-50000J0D01*
G01*
X15952000Y-7366000D02*
G75*
G02*
X16052000Y-7366000I50000J0D01*
G01*
X16052000Y-9906000D02*
G75*
G02*
X15952000Y-9906000I-50000J0D01*
G01*
X15952000Y-9906000D02*
G75*
G02*
X16052000Y-9906000I50000J0D01*
G01*
X16052000Y-10414000D02*
G75*
G02*
X15952000Y-10414000I-50000J0D01*
G01*
X15952000Y-10414000D02*
G75*
G02*
X16052000Y-10414000I50000J0D01*
G01*
X16052000Y-11684000D02*
G75*
G02*
X15952000Y-11684000I-50000J0D01*
G01*
X15952000Y-11684000D02*
G75*
G02*
X16052000Y-11684000I50000J0D01*
G01*
X16052000Y-14478000D02*
G75*
G02*
X15952000Y-14478000I-50000J0D01*
G01*
X15952000Y-14478000D02*
G75*
G02*
X16052000Y-14478000I50000J0D01*
G01*
X16052000Y-14732000D02*
G75*
G02*
X15952000Y-14732000I-50000J0D01*
G01*
X15952000Y-14732000D02*
G75*
G02*
X16052000Y-14732000I50000J0D01*
G01*
X16052000Y-14986000D02*
G75*
G02*
X15952000Y-14986000I-50000J0D01*
G01*
X15952000Y-14986000D02*
G75*
G02*
X16052000Y-14986000I50000J0D01*
G01*
X16306000Y-7366000D02*
G75*
G02*
X16206000Y-7366000I-50000J0D01*
G01*
X16206000Y-7366000D02*
G75*
G02*
X16306000Y-7366000I50000J0D01*
G01*
X16306000Y-7620000D02*
G75*
G02*
X16206000Y-7620000I-50000J0D01*
G01*
X16206000Y-7620000D02*
G75*
G02*
X16306000Y-7620000I50000J0D01*
G01*
X16306000Y-7874000D02*
G75*
G02*
X16206000Y-7874000I-50000J0D01*
G01*
X16206000Y-7874000D02*
G75*
G02*
X16306000Y-7874000I50000J0D01*
G01*
X16306000Y-8636000D02*
G75*
G02*
X16206000Y-8636000I-50000J0D01*
G01*
X16206000Y-8636000D02*
G75*
G02*
X16306000Y-8636000I50000J0D01*
G01*
X16306000Y-8890000D02*
G75*
G02*
X16206000Y-8890000I-50000J0D01*
G01*
X16206000Y-8890000D02*
G75*
G02*
X16306000Y-8890000I50000J0D01*
G01*
X16306000Y-9652000D02*
G75*
G02*
X16206000Y-9652000I-50000J0D01*
G01*
X16206000Y-9652000D02*
G75*
G02*
X16306000Y-9652000I50000J0D01*
G01*
X16306000Y-9906000D02*
G75*
G02*
X16206000Y-9906000I-50000J0D01*
G01*
X16206000Y-9906000D02*
G75*
G02*
X16306000Y-9906000I50000J0D01*
G01*
X16306000Y-11684000D02*
G75*
G02*
X16206000Y-11684000I-50000J0D01*
G01*
X16206000Y-11684000D02*
G75*
G02*
X16306000Y-11684000I50000J0D01*
G01*
X16306000Y-13970000D02*
G75*
G02*
X16206000Y-13970000I-50000J0D01*
G01*
X16206000Y-13970000D02*
G75*
G02*
X16306000Y-13970000I50000J0D01*
G01*
X16306000Y-14224000D02*
G75*
G02*
X16206000Y-14224000I-50000J0D01*
G01*
X16206000Y-14224000D02*
G75*
G02*
X16306000Y-14224000I50000J0D01*
G01*
X16306000Y-14478000D02*
G75*
G02*
X16206000Y-14478000I-50000J0D01*
G01*
X16206000Y-14478000D02*
G75*
G02*
X16306000Y-14478000I50000J0D01*
G01*
X16560000Y-6350000D02*
G75*
G02*
X16460000Y-6350000I-50000J0D01*
G01*
X16460000Y-6350000D02*
G75*
G02*
X16560000Y-6350000I50000J0D01*
G01*
X16560000Y-7112000D02*
G75*
G02*
X16460000Y-7112000I-50000J0D01*
G01*
X16460000Y-7112000D02*
G75*
G02*
X16560000Y-7112000I50000J0D01*
G01*
X16560000Y-9906000D02*
G75*
G02*
X16460000Y-9906000I-50000J0D01*
G01*
X16460000Y-9906000D02*
G75*
G02*
X16560000Y-9906000I50000J0D01*
G01*
X16560000Y-11684000D02*
G75*
G02*
X16460000Y-11684000I-50000J0D01*
G01*
X16460000Y-11684000D02*
G75*
G02*
X16560000Y-11684000I50000J0D01*
G01*
X16560000Y-13462000D02*
G75*
G02*
X16460000Y-13462000I-50000J0D01*
G01*
X16460000Y-13462000D02*
G75*
G02*
X16560000Y-13462000I50000J0D01*
G01*
X16560000Y-13716000D02*
G75*
G02*
X16460000Y-13716000I-50000J0D01*
G01*
X16460000Y-13716000D02*
G75*
G02*
X16560000Y-13716000I50000J0D01*
G01*
X16560000Y-13970000D02*
G75*
G02*
X16460000Y-13970000I-50000J0D01*
G01*
X16460000Y-13970000D02*
G75*
G02*
X16560000Y-13970000I50000J0D01*
G01*
X16560000Y-14732000D02*
G75*
G02*
X16460000Y-14732000I-50000J0D01*
G01*
X16460000Y-14732000D02*
G75*
G02*
X16560000Y-14732000I50000J0D01*
G01*
X16560000Y-15494000D02*
G75*
G02*
X16460000Y-15494000I-50000J0D01*
G01*
X16460000Y-15494000D02*
G75*
G02*
X16560000Y-15494000I50000J0D01*
G01*
X16814000Y-6858000D02*
G75*
G02*
X16714000Y-6858000I-50000J0D01*
G01*
X16714000Y-6858000D02*
G75*
G02*
X16814000Y-6858000I50000J0D01*
G01*
X16814000Y-7620000D02*
G75*
G02*
X16714000Y-7620000I-50000J0D01*
G01*
X16714000Y-7620000D02*
G75*
G02*
X16814000Y-7620000I50000J0D01*
G01*
X16814000Y-7874000D02*
G75*
G02*
X16714000Y-7874000I-50000J0D01*
G01*
X16714000Y-7874000D02*
G75*
G02*
X16814000Y-7874000I50000J0D01*
G01*
X16814000Y-8128000D02*
G75*
G02*
X16714000Y-8128000I-50000J0D01*
G01*
X16714000Y-8128000D02*
G75*
G02*
X16814000Y-8128000I50000J0D01*
G01*
X16814000Y-8382000D02*
G75*
G02*
X16714000Y-8382000I-50000J0D01*
G01*
X16714000Y-8382000D02*
G75*
G02*
X16814000Y-8382000I50000J0D01*
G01*
X16814000Y-9906000D02*
G75*
G02*
X16714000Y-9906000I-50000J0D01*
G01*
X16714000Y-9906000D02*
G75*
G02*
X16814000Y-9906000I50000J0D01*
G01*
X16814000Y-10414000D02*
G75*
G02*
X16714000Y-10414000I-50000J0D01*
G01*
X16714000Y-10414000D02*
G75*
G02*
X16814000Y-10414000I50000J0D01*
G01*
X16814000Y-11684000D02*
G75*
G02*
X16714000Y-11684000I-50000J0D01*
G01*
X16714000Y-11684000D02*
G75*
G02*
X16814000Y-11684000I50000J0D01*
G01*
X16814000Y-12954000D02*
G75*
G02*
X16714000Y-12954000I-50000J0D01*
G01*
X16714000Y-12954000D02*
G75*
G02*
X16814000Y-12954000I50000J0D01*
G01*
X16814000Y-13208000D02*
G75*
G02*
X16714000Y-13208000I-50000J0D01*
G01*
X16714000Y-13208000D02*
G75*
G02*
X16814000Y-13208000I50000J0D01*
G01*
X16814000Y-13462000D02*
G75*
G02*
X16714000Y-13462000I-50000J0D01*
G01*
X16714000Y-13462000D02*
G75*
G02*
X16814000Y-13462000I50000J0D01*
G01*
X16814000Y-14224000D02*
G75*
G02*
X16714000Y-14224000I-50000J0D01*
G01*
X16714000Y-14224000D02*
G75*
G02*
X16814000Y-14224000I50000J0D01*
G01*
X16814000Y-14986000D02*
G75*
G02*
X16714000Y-14986000I-50000J0D01*
G01*
X16714000Y-14986000D02*
G75*
G02*
X16814000Y-14986000I50000J0D01*
G01*
X17068000Y-8382000D02*
G75*
G02*
X16968000Y-8382000I-50000J0D01*
G01*
X16968000Y-8382000D02*
G75*
G02*
X17068000Y-8382000I50000J0D01*
G01*
X17068000Y-8636000D02*
G75*
G02*
X16968000Y-8636000I-50000J0D01*
G01*
X16968000Y-8636000D02*
G75*
G02*
X17068000Y-8636000I50000J0D01*
G01*
X17068000Y-8890000D02*
G75*
G02*
X16968000Y-8890000I-50000J0D01*
G01*
X16968000Y-8890000D02*
G75*
G02*
X17068000Y-8890000I50000J0D01*
G01*
X17068000Y-9906000D02*
G75*
G02*
X16968000Y-9906000I-50000J0D01*
G01*
X16968000Y-9906000D02*
G75*
G02*
X17068000Y-9906000I50000J0D01*
G01*
X17068000Y-10414000D02*
G75*
G02*
X16968000Y-10414000I-50000J0D01*
G01*
X16968000Y-10414000D02*
G75*
G02*
X17068000Y-10414000I50000J0D01*
G01*
X17068000Y-11684000D02*
G75*
G02*
X16968000Y-11684000I-50000J0D01*
G01*
X16968000Y-11684000D02*
G75*
G02*
X17068000Y-11684000I50000J0D01*
G01*
X17068000Y-12446000D02*
G75*
G02*
X16968000Y-12446000I-50000J0D01*
G01*
X16968000Y-12446000D02*
G75*
G02*
X17068000Y-12446000I50000J0D01*
G01*
X17068000Y-12700000D02*
G75*
G02*
X16968000Y-12700000I-50000J0D01*
G01*
X16968000Y-12700000D02*
G75*
G02*
X17068000Y-12700000I50000J0D01*
G01*
X17068000Y-12954000D02*
G75*
G02*
X16968000Y-12954000I-50000J0D01*
G01*
X16968000Y-12954000D02*
G75*
G02*
X17068000Y-12954000I50000J0D01*
G01*
X17068000Y-13716000D02*
G75*
G02*
X16968000Y-13716000I-50000J0D01*
G01*
X16968000Y-13716000D02*
G75*
G02*
X17068000Y-13716000I50000J0D01*
G01*
X17068000Y-14478000D02*
G75*
G02*
X16968000Y-14478000I-50000J0D01*
G01*
X16968000Y-14478000D02*
G75*
G02*
X17068000Y-14478000I50000J0D01*
G01*
X17322000Y-7366000D02*
G75*
G02*
X17222000Y-7366000I-50000J0D01*
G01*
X17222000Y-7366000D02*
G75*
G02*
X17322000Y-7366000I50000J0D01*
G01*
X17322000Y-8128000D02*
G75*
G02*
X17222000Y-8128000I-50000J0D01*
G01*
X17222000Y-8128000D02*
G75*
G02*
X17322000Y-8128000I50000J0D01*
G01*
X17322000Y-8890000D02*
G75*
G02*
X17222000Y-8890000I-50000J0D01*
G01*
X17222000Y-8890000D02*
G75*
G02*
X17322000Y-8890000I50000J0D01*
G01*
X17322000Y-9144000D02*
G75*
G02*
X17222000Y-9144000I-50000J0D01*
G01*
X17222000Y-9144000D02*
G75*
G02*
X17322000Y-9144000I50000J0D01*
G01*
X17322000Y-9398000D02*
G75*
G02*
X17222000Y-9398000I-50000J0D01*
G01*
X17222000Y-9398000D02*
G75*
G02*
X17322000Y-9398000I50000J0D01*
G01*
X17322000Y-9906000D02*
G75*
G02*
X17222000Y-9906000I-50000J0D01*
G01*
X17222000Y-9906000D02*
G75*
G02*
X17322000Y-9906000I50000J0D01*
G01*
X17322000Y-11684000D02*
G75*
G02*
X17222000Y-11684000I-50000J0D01*
G01*
X17222000Y-11684000D02*
G75*
G02*
X17322000Y-11684000I50000J0D01*
G01*
X17322000Y-11938000D02*
G75*
G02*
X17222000Y-11938000I-50000J0D01*
G01*
X17222000Y-11938000D02*
G75*
G02*
X17322000Y-11938000I50000J0D01*
G01*
X17322000Y-12192000D02*
G75*
G02*
X17222000Y-12192000I-50000J0D01*
G01*
X17222000Y-12192000D02*
G75*
G02*
X17322000Y-12192000I50000J0D01*
G01*
X17322000Y-12446000D02*
G75*
G02*
X17222000Y-12446000I-50000J0D01*
G01*
X17222000Y-12446000D02*
G75*
G02*
X17322000Y-12446000I50000J0D01*
G01*
X17322000Y-13208000D02*
G75*
G02*
X17222000Y-13208000I-50000J0D01*
G01*
X17222000Y-13208000D02*
G75*
G02*
X17322000Y-13208000I50000J0D01*
G01*
X17322000Y-13970000D02*
G75*
G02*
X17222000Y-13970000I-50000J0D01*
G01*
X17222000Y-13970000D02*
G75*
G02*
X17322000Y-13970000I50000J0D01*
G01*
X17576000Y-7874000D02*
G75*
G02*
X17476000Y-7874000I-50000J0D01*
G01*
X17476000Y-7874000D02*
G75*
G02*
X17576000Y-7874000I50000J0D01*
G01*
X17576000Y-8636000D02*
G75*
G02*
X17476000Y-8636000I-50000J0D01*
G01*
X17476000Y-8636000D02*
G75*
G02*
X17576000Y-8636000I50000J0D01*
G01*
X17576000Y-10922000D02*
G75*
G02*
X17476000Y-10922000I-50000J0D01*
G01*
X17476000Y-10922000D02*
G75*
G02*
X17576000Y-10922000I50000J0D01*
G01*
X17576000Y-11684000D02*
G75*
G02*
X17476000Y-11684000I-50000J0D01*
G01*
X17476000Y-11684000D02*
G75*
G02*
X17576000Y-11684000I50000J0D01*
G01*
X17576000Y-12700000D02*
G75*
G02*
X17476000Y-12700000I-50000J0D01*
G01*
X17476000Y-12700000D02*
G75*
G02*
X17576000Y-12700000I50000J0D01*
G01*
X17576000Y-13462000D02*
G75*
G02*
X17476000Y-13462000I-50000J0D01*
G01*
X17476000Y-13462000D02*
G75*
G02*
X17576000Y-13462000I50000J0D01*
G01*
X17830000Y-8382000D02*
G75*
G02*
X17730000Y-8382000I-50000J0D01*
G01*
X17730000Y-8382000D02*
G75*
G02*
X17830000Y-8382000I50000J0D01*
G01*
X17830000Y-9144000D02*
G75*
G02*
X17730000Y-9144000I-50000J0D01*
G01*
X17730000Y-9144000D02*
G75*
G02*
X17830000Y-9144000I50000J0D01*
G01*
X17830000Y-10414000D02*
G75*
G02*
X17730000Y-10414000I-50000J0D01*
G01*
X17730000Y-10414000D02*
G75*
G02*
X17830000Y-10414000I50000J0D01*
G01*
X17830000Y-10668000D02*
G75*
G02*
X17730000Y-10668000I-50000J0D01*
G01*
X17730000Y-10668000D02*
G75*
G02*
X17830000Y-10668000I50000J0D01*
G01*
X17830000Y-10922000D02*
G75*
G02*
X17730000Y-10922000I-50000J0D01*
G01*
X17730000Y-10922000D02*
G75*
G02*
X17830000Y-10922000I50000J0D01*
G01*
X17830000Y-11176000D02*
G75*
G02*
X17730000Y-11176000I-50000J0D01*
G01*
X17730000Y-11176000D02*
G75*
G02*
X17830000Y-11176000I50000J0D01*
G01*
X17830000Y-12192000D02*
G75*
G02*
X17730000Y-12192000I-50000J0D01*
G01*
X17730000Y-12192000D02*
G75*
G02*
X17830000Y-12192000I50000J0D01*
G01*
X17830000Y-12954000D02*
G75*
G02*
X17730000Y-12954000I-50000J0D01*
G01*
X17730000Y-12954000D02*
G75*
G02*
X17830000Y-12954000I50000J0D01*
G01*
X17830000Y-15240000D02*
G75*
G02*
X17730000Y-15240000I-50000J0D01*
G01*
X17730000Y-15240000D02*
G75*
G02*
X17830000Y-15240000I50000J0D01*
G01*
X17830000Y-16002000D02*
G75*
G02*
X17730000Y-16002000I-50000J0D01*
G01*
X17730000Y-16002000D02*
G75*
G02*
X17830000Y-16002000I50000J0D01*
G01*
X18084000Y-15240000D02*
G75*
G02*
X17984000Y-15240000I-50000J0D01*
G01*
X17984000Y-15240000D02*
G75*
G02*
X18084000Y-15240000I50000J0D01*
G01*
X18084000Y-16002000D02*
G75*
G02*
X17984000Y-16002000I-50000J0D01*
G01*
X17984000Y-16002000D02*
G75*
G02*
X18084000Y-16002000I50000J0D01*
G01*
X18338000Y-15240000D02*
G75*
G02*
X18238000Y-15240000I-50000J0D01*
G01*
X18238000Y-15240000D02*
G75*
G02*
X18338000Y-15240000I50000J0D01*
G01*
X18338000Y-16002000D02*
G75*
G02*
X18238000Y-16002000I-50000J0D01*
G01*
X18238000Y-16002000D02*
G75*
G02*
X18338000Y-16002000I50000J0D01*
G01*
X18592000Y-8382000D02*
G75*
G02*
X18492000Y-8382000I-50000J0D01*
G01*
X18492000Y-8382000D02*
G75*
G02*
X18592000Y-8382000I50000J0D01*
G01*
X18592000Y-9144000D02*
G75*
G02*
X18492000Y-9144000I-50000J0D01*
G01*
X18492000Y-9144000D02*
G75*
G02*
X18592000Y-9144000I50000J0D01*
G01*
X18592000Y-15240000D02*
G75*
G02*
X18492000Y-15240000I-50000J0D01*
G01*
X18492000Y-15240000D02*
G75*
G02*
X18592000Y-15240000I50000J0D01*
G01*
X18592000Y-16002000D02*
G75*
G02*
X18492000Y-16002000I-50000J0D01*
G01*
X18492000Y-16002000D02*
G75*
G02*
X18592000Y-16002000I50000J0D01*
G01*
X18846000Y-15240000D02*
G75*
G02*
X18746000Y-15240000I-50000J0D01*
G01*
X18746000Y-15240000D02*
G75*
G02*
X18846000Y-15240000I50000J0D01*
G01*
X18846000Y-16002000D02*
G75*
G02*
X18746000Y-16002000I-50000J0D01*
G01*
X18746000Y-16002000D02*
G75*
G02*
X18846000Y-16002000I50000J0D01*
G01*
X19100000Y-15240000D02*
G75*
G02*
X19000000Y-15240000I-50000J0D01*
G01*
X19000000Y-15240000D02*
G75*
G02*
X19100000Y-15240000I50000J0D01*
G01*
X19100000Y-16002000D02*
G75*
G02*
X19000000Y-16002000I-50000J0D01*
G01*
X19000000Y-16002000D02*
G75*
G02*
X19100000Y-16002000I50000J0D01*
G01*
X19354000Y-15240000D02*
G75*
G02*
X19254000Y-15240000I-50000J0D01*
G01*
X19254000Y-15240000D02*
G75*
G02*
X19354000Y-15240000I50000J0D01*
G01*
X19354000Y-16002000D02*
G75*
G02*
X19254000Y-16002000I-50000J0D01*
G01*
X19254000Y-16002000D02*
G75*
G02*
X19354000Y-16002000I50000J0D01*
G01*
X19608000Y-10414000D02*
G75*
G02*
X19508000Y-10414000I-50000J0D01*
G01*
X19508000Y-10414000D02*
G75*
G02*
X19608000Y-10414000I50000J0D01*
G01*
X19608000Y-10668000D02*
G75*
G02*
X19508000Y-10668000I-50000J0D01*
G01*
X19508000Y-10668000D02*
G75*
G02*
X19608000Y-10668000I50000J0D01*
G01*
X19608000Y-10922000D02*
G75*
G02*
X19508000Y-10922000I-50000J0D01*
G01*
X19508000Y-10922000D02*
G75*
G02*
X19608000Y-10922000I50000J0D01*
G01*
X19608000Y-11176000D02*
G75*
G02*
X19508000Y-11176000I-50000J0D01*
G01*
X19508000Y-11176000D02*
G75*
G02*
X19608000Y-11176000I50000J0D01*
G01*
X19608000Y-15240000D02*
G75*
G02*
X19508000Y-15240000I-50000J0D01*
G01*
X19508000Y-15240000D02*
G75*
G02*
X19608000Y-15240000I50000J0D01*
G01*
X19608000Y-16002000D02*
G75*
G02*
X19508000Y-16002000I-50000J0D01*
G01*
X19508000Y-16002000D02*
G75*
G02*
X19608000Y-16002000I50000J0D01*
G01*
X19862000Y-5842000D02*
G75*
G02*
X19762000Y-5842000I-50000J0D01*
G01*
X19762000Y-5842000D02*
G75*
G02*
X19862000Y-5842000I50000J0D01*
G01*
X19862000Y-6604000D02*
G75*
G02*
X19762000Y-6604000I-50000J0D01*
G01*
X19762000Y-6604000D02*
G75*
G02*
X19862000Y-6604000I50000J0D01*
G01*
X19862000Y-14986000D02*
G75*
G02*
X19762000Y-14986000I-50000J0D01*
G01*
X19762000Y-14986000D02*
G75*
G02*
X19862000Y-14986000I50000J0D01*
G01*
X19862000Y-15240000D02*
G75*
G02*
X19762000Y-15240000I-50000J0D01*
G01*
X19762000Y-15240000D02*
G75*
G02*
X19862000Y-15240000I50000J0D01*
G01*
X19862000Y-16002000D02*
G75*
G02*
X19762000Y-16002000I-50000J0D01*
G01*
X19762000Y-16002000D02*
G75*
G02*
X19862000Y-16002000I50000J0D01*
G01*
X20116000Y-5588000D02*
G75*
G02*
X20016000Y-5588000I-50000J0D01*
G01*
X20016000Y-5588000D02*
G75*
G02*
X20116000Y-5588000I50000J0D01*
G01*
X20116000Y-5842000D02*
G75*
G02*
X20016000Y-5842000I-50000J0D01*
G01*
X20016000Y-5842000D02*
G75*
G02*
X20116000Y-5842000I50000J0D01*
G01*
X20116000Y-6604000D02*
G75*
G02*
X20016000Y-6604000I-50000J0D01*
G01*
X20016000Y-6604000D02*
G75*
G02*
X20116000Y-6604000I50000J0D01*
G01*
X20116000Y-14986000D02*
G75*
G02*
X20016000Y-14986000I-50000J0D01*
G01*
X20016000Y-14986000D02*
G75*
G02*
X20116000Y-14986000I50000J0D01*
G01*
X20116000Y-15240000D02*
G75*
G02*
X20016000Y-15240000I-50000J0D01*
G01*
X20016000Y-15240000D02*
G75*
G02*
X20116000Y-15240000I50000J0D01*
G01*
X20116000Y-16002000D02*
G75*
G02*
X20016000Y-16002000I-50000J0D01*
G01*
X20016000Y-16002000D02*
G75*
G02*
X20116000Y-16002000I50000J0D01*
G01*
X20370000Y-5842000D02*
G75*
G02*
X20270000Y-5842000I-50000J0D01*
G01*
X20270000Y-5842000D02*
G75*
G02*
X20370000Y-5842000I50000J0D01*
G01*
X20370000Y-6604000D02*
G75*
G02*
X20270000Y-6604000I-50000J0D01*
G01*
X20270000Y-6604000D02*
G75*
G02*
X20370000Y-6604000I50000J0D01*
G01*
X20370000Y-15240000D02*
G75*
G02*
X20270000Y-15240000I-50000J0D01*
G01*
X20270000Y-15240000D02*
G75*
G02*
X20370000Y-15240000I50000J0D01*
G01*
X20370000Y-16002000D02*
G75*
G02*
X20270000Y-16002000I-50000J0D01*
G01*
X20270000Y-16002000D02*
G75*
G02*
X20370000Y-16002000I50000J0D01*
G01*
X20624000Y-5842000D02*
G75*
G02*
X20524000Y-5842000I-50000J0D01*
G01*
X20524000Y-5842000D02*
G75*
G02*
X20624000Y-5842000I50000J0D01*
G01*
X20624000Y-6604000D02*
G75*
G02*
X20524000Y-6604000I-50000J0D01*
G01*
X20524000Y-6604000D02*
G75*
G02*
X20624000Y-6604000I50000J0D01*
G01*
X20624000Y-15240000D02*
G75*
G02*
X20524000Y-15240000I-50000J0D01*
G01*
X20524000Y-15240000D02*
G75*
G02*
X20624000Y-15240000I50000J0D01*
G01*
X20624000Y-16002000D02*
G75*
G02*
X20524000Y-16002000I-50000J0D01*
G01*
X20524000Y-16002000D02*
G75*
G02*
X20624000Y-16002000I50000J0D01*
G01*
X20878000Y-5842000D02*
G75*
G02*
X20778000Y-5842000I-50000J0D01*
G01*
X20778000Y-5842000D02*
G75*
G02*
X20878000Y-5842000I50000J0D01*
G01*
X20878000Y-6604000D02*
G75*
G02*
X20778000Y-6604000I-50000J0D01*
G01*
X20778000Y-6604000D02*
G75*
G02*
X20878000Y-6604000I50000J0D01*
G01*
X20878000Y-15240000D02*
G75*
G02*
X20778000Y-15240000I-50000J0D01*
G01*
X20778000Y-15240000D02*
G75*
G02*
X20878000Y-15240000I50000J0D01*
G01*
X20878000Y-16002000D02*
G75*
G02*
X20778000Y-16002000I-50000J0D01*
G01*
X20778000Y-16002000D02*
G75*
G02*
X20878000Y-16002000I50000J0D01*
G01*
X21132000Y-5842000D02*
G75*
G02*
X21032000Y-5842000I-50000J0D01*
G01*
X21032000Y-5842000D02*
G75*
G02*
X21132000Y-5842000I50000J0D01*
G01*
X21132000Y-6604000D02*
G75*
G02*
X21032000Y-6604000I-50000J0D01*
G01*
X21032000Y-6604000D02*
G75*
G02*
X21132000Y-6604000I50000J0D01*
G01*
X21132000Y-15240000D02*
G75*
G02*
X21032000Y-15240000I-50000J0D01*
G01*
X21032000Y-15240000D02*
G75*
G02*
X21132000Y-15240000I50000J0D01*
G01*
X21132000Y-16002000D02*
G75*
G02*
X21032000Y-16002000I-50000J0D01*
G01*
X21032000Y-16002000D02*
G75*
G02*
X21132000Y-16002000I50000J0D01*
G01*
X21386000Y-5842000D02*
G75*
G02*
X21286000Y-5842000I-50000J0D01*
G01*
X21286000Y-5842000D02*
G75*
G02*
X21386000Y-5842000I50000J0D01*
G01*
X21386000Y-6604000D02*
G75*
G02*
X21286000Y-6604000I-50000J0D01*
G01*
X21286000Y-6604000D02*
G75*
G02*
X21386000Y-6604000I50000J0D01*
G01*
X21386000Y-8382000D02*
G75*
G02*
X21286000Y-8382000I-50000J0D01*
G01*
X21286000Y-8382000D02*
G75*
G02*
X21386000Y-8382000I50000J0D01*
G01*
X21386000Y-9144000D02*
G75*
G02*
X21286000Y-9144000I-50000J0D01*
G01*
X21286000Y-9144000D02*
G75*
G02*
X21386000Y-9144000I50000J0D01*
G01*
X21386000Y-10414000D02*
G75*
G02*
X21286000Y-10414000I-50000J0D01*
G01*
X21286000Y-10414000D02*
G75*
G02*
X21386000Y-10414000I50000J0D01*
G01*
X21386000Y-10668000D02*
G75*
G02*
X21286000Y-10668000I-50000J0D01*
G01*
X21286000Y-10668000D02*
G75*
G02*
X21386000Y-10668000I50000J0D01*
G01*
X21386000Y-10922000D02*
G75*
G02*
X21286000Y-10922000I-50000J0D01*
G01*
X21286000Y-10922000D02*
G75*
G02*
X21386000Y-10922000I50000J0D01*
G01*
X21386000Y-11176000D02*
G75*
G02*
X21286000Y-11176000I-50000J0D01*
G01*
X21286000Y-11176000D02*
G75*
G02*
X21386000Y-11176000I50000J0D01*
G01*
X21386000Y-12192000D02*
G75*
G02*
X21286000Y-12192000I-50000J0D01*
G01*
X21286000Y-12192000D02*
G75*
G02*
X21386000Y-12192000I50000J0D01*
G01*
X21386000Y-12954000D02*
G75*
G02*
X21286000Y-12954000I-50000J0D01*
G01*
X21286000Y-12954000D02*
G75*
G02*
X21386000Y-12954000I50000J0D01*
G01*
X21640000Y-5842000D02*
G75*
G02*
X21540000Y-5842000I-50000J0D01*
G01*
X21540000Y-5842000D02*
G75*
G02*
X21640000Y-5842000I50000J0D01*
G01*
X21640000Y-6604000D02*
G75*
G02*
X21540000Y-6604000I-50000J0D01*
G01*
X21540000Y-6604000D02*
G75*
G02*
X21640000Y-6604000I50000J0D01*
G01*
X21640000Y-7874000D02*
G75*
G02*
X21540000Y-7874000I-50000J0D01*
G01*
X21540000Y-7874000D02*
G75*
G02*
X21640000Y-7874000I50000J0D01*
G01*
X21640000Y-8636000D02*
G75*
G02*
X21540000Y-8636000I-50000J0D01*
G01*
X21540000Y-8636000D02*
G75*
G02*
X21640000Y-8636000I50000J0D01*
G01*
X21640000Y-9652000D02*
G75*
G02*
X21540000Y-9652000I-50000J0D01*
G01*
X21540000Y-9652000D02*
G75*
G02*
X21640000Y-9652000I50000J0D01*
G01*
X21640000Y-10922000D02*
G75*
G02*
X21540000Y-10922000I-50000J0D01*
G01*
X21540000Y-10922000D02*
G75*
G02*
X21640000Y-10922000I50000J0D01*
G01*
X21640000Y-11684000D02*
G75*
G02*
X21540000Y-11684000I-50000J0D01*
G01*
X21540000Y-11684000D02*
G75*
G02*
X21640000Y-11684000I50000J0D01*
G01*
X21640000Y-12700000D02*
G75*
G02*
X21540000Y-12700000I-50000J0D01*
G01*
X21540000Y-12700000D02*
G75*
G02*
X21640000Y-12700000I50000J0D01*
G01*
X21640000Y-13462000D02*
G75*
G02*
X21540000Y-13462000I-50000J0D01*
G01*
X21540000Y-13462000D02*
G75*
G02*
X21640000Y-13462000I50000J0D01*
G01*
X21894000Y-5842000D02*
G75*
G02*
X21794000Y-5842000I-50000J0D01*
G01*
X21794000Y-5842000D02*
G75*
G02*
X21894000Y-5842000I50000J0D01*
G01*
X21894000Y-6604000D02*
G75*
G02*
X21794000Y-6604000I-50000J0D01*
G01*
X21794000Y-6604000D02*
G75*
G02*
X21894000Y-6604000I50000J0D01*
G01*
X21894000Y-8890000D02*
G75*
G02*
X21794000Y-8890000I-50000J0D01*
G01*
X21794000Y-8890000D02*
G75*
G02*
X21894000Y-8890000I50000J0D01*
G01*
X21894000Y-9144000D02*
G75*
G02*
X21794000Y-9144000I-50000J0D01*
G01*
X21794000Y-9144000D02*
G75*
G02*
X21894000Y-9144000I50000J0D01*
G01*
X21894000Y-9398000D02*
G75*
G02*
X21794000Y-9398000I-50000J0D01*
G01*
X21794000Y-9398000D02*
G75*
G02*
X21894000Y-9398000I50000J0D01*
G01*
X21894000Y-9906000D02*
G75*
G02*
X21794000Y-9906000I-50000J0D01*
G01*
X21794000Y-9906000D02*
G75*
G02*
X21894000Y-9906000I50000J0D01*
G01*
X21894000Y-11684000D02*
G75*
G02*
X21794000Y-11684000I-50000J0D01*
G01*
X21794000Y-11684000D02*
G75*
G02*
X21894000Y-11684000I50000J0D01*
G01*
X21894000Y-11938000D02*
G75*
G02*
X21794000Y-11938000I-50000J0D01*
G01*
X21794000Y-11938000D02*
G75*
G02*
X21894000Y-11938000I50000J0D01*
G01*
X21894000Y-12192000D02*
G75*
G02*
X21794000Y-12192000I-50000J0D01*
G01*
X21794000Y-12192000D02*
G75*
G02*
X21894000Y-12192000I50000J0D01*
G01*
X21894000Y-12446000D02*
G75*
G02*
X21794000Y-12446000I-50000J0D01*
G01*
X21794000Y-12446000D02*
G75*
G02*
X21894000Y-12446000I50000J0D01*
G01*
X21894000Y-13208000D02*
G75*
G02*
X21794000Y-13208000I-50000J0D01*
G01*
X21794000Y-13208000D02*
G75*
G02*
X21894000Y-13208000I50000J0D01*
G01*
X21894000Y-13970000D02*
G75*
G02*
X21794000Y-13970000I-50000J0D01*
G01*
X21794000Y-13970000D02*
G75*
G02*
X21894000Y-13970000I50000J0D01*
G01*
X22148000Y-6350000D02*
G75*
G02*
X22048000Y-6350000I-50000J0D01*
G01*
X22048000Y-6350000D02*
G75*
G02*
X22148000Y-6350000I50000J0D01*
G01*
X22148000Y-7112000D02*
G75*
G02*
X22048000Y-7112000I-50000J0D01*
G01*
X22048000Y-7112000D02*
G75*
G02*
X22148000Y-7112000I50000J0D01*
G01*
X22148000Y-7366000D02*
G75*
G02*
X22048000Y-7366000I-50000J0D01*
G01*
X22048000Y-7366000D02*
G75*
G02*
X22148000Y-7366000I50000J0D01*
G01*
X22148000Y-8128000D02*
G75*
G02*
X22048000Y-8128000I-50000J0D01*
G01*
X22048000Y-8128000D02*
G75*
G02*
X22148000Y-8128000I50000J0D01*
G01*
X22148000Y-8382000D02*
G75*
G02*
X22048000Y-8382000I-50000J0D01*
G01*
X22048000Y-8382000D02*
G75*
G02*
X22148000Y-8382000I50000J0D01*
G01*
X22148000Y-8636000D02*
G75*
G02*
X22048000Y-8636000I-50000J0D01*
G01*
X22048000Y-8636000D02*
G75*
G02*
X22148000Y-8636000I50000J0D01*
G01*
X22148000Y-8890000D02*
G75*
G02*
X22048000Y-8890000I-50000J0D01*
G01*
X22048000Y-8890000D02*
G75*
G02*
X22148000Y-8890000I50000J0D01*
G01*
X22148000Y-9906000D02*
G75*
G02*
X22048000Y-9906000I-50000J0D01*
G01*
X22048000Y-9906000D02*
G75*
G02*
X22148000Y-9906000I50000J0D01*
G01*
X22148000Y-10414000D02*
G75*
G02*
X22048000Y-10414000I-50000J0D01*
G01*
X22048000Y-10414000D02*
G75*
G02*
X22148000Y-10414000I50000J0D01*
G01*
X22148000Y-11684000D02*
G75*
G02*
X22048000Y-11684000I-50000J0D01*
G01*
X22048000Y-11684000D02*
G75*
G02*
X22148000Y-11684000I50000J0D01*
G01*
X22148000Y-12446000D02*
G75*
G02*
X22048000Y-12446000I-50000J0D01*
G01*
X22048000Y-12446000D02*
G75*
G02*
X22148000Y-12446000I50000J0D01*
G01*
X22148000Y-12700000D02*
G75*
G02*
X22048000Y-12700000I-50000J0D01*
G01*
X22048000Y-12700000D02*
G75*
G02*
X22148000Y-12700000I50000J0D01*
G01*
X22148000Y-12954000D02*
G75*
G02*
X22048000Y-12954000I-50000J0D01*
G01*
X22048000Y-12954000D02*
G75*
G02*
X22148000Y-12954000I50000J0D01*
G01*
X22148000Y-13716000D02*
G75*
G02*
X22048000Y-13716000I-50000J0D01*
G01*
X22048000Y-13716000D02*
G75*
G02*
X22148000Y-13716000I50000J0D01*
G01*
X22148000Y-14478000D02*
G75*
G02*
X22048000Y-14478000I-50000J0D01*
G01*
X22048000Y-14478000D02*
G75*
G02*
X22148000Y-14478000I50000J0D01*
G01*
X22402000Y-6858000D02*
G75*
G02*
X22302000Y-6858000I-50000J0D01*
G01*
X22302000Y-6858000D02*
G75*
G02*
X22402000Y-6858000I50000J0D01*
G01*
X22402000Y-7620000D02*
G75*
G02*
X22302000Y-7620000I-50000J0D01*
G01*
X22302000Y-7620000D02*
G75*
G02*
X22402000Y-7620000I50000J0D01*
G01*
X22402000Y-9652000D02*
G75*
G02*
X22302000Y-9652000I-50000J0D01*
G01*
X22302000Y-9652000D02*
G75*
G02*
X22402000Y-9652000I50000J0D01*
G01*
X22402000Y-9906000D02*
G75*
G02*
X22302000Y-9906000I-50000J0D01*
G01*
X22302000Y-9906000D02*
G75*
G02*
X22402000Y-9906000I50000J0D01*
G01*
X22402000Y-10414000D02*
G75*
G02*
X22302000Y-10414000I-50000J0D01*
G01*
X22302000Y-10414000D02*
G75*
G02*
X22402000Y-10414000I50000J0D01*
G01*
X22402000Y-11684000D02*
G75*
G02*
X22302000Y-11684000I-50000J0D01*
G01*
X22302000Y-11684000D02*
G75*
G02*
X22402000Y-11684000I50000J0D01*
G01*
X22402000Y-12954000D02*
G75*
G02*
X22302000Y-12954000I-50000J0D01*
G01*
X22302000Y-12954000D02*
G75*
G02*
X22402000Y-12954000I50000J0D01*
G01*
X22402000Y-13208000D02*
G75*
G02*
X22302000Y-13208000I-50000J0D01*
G01*
X22302000Y-13208000D02*
G75*
G02*
X22402000Y-13208000I50000J0D01*
G01*
X22402000Y-13462000D02*
G75*
G02*
X22302000Y-13462000I-50000J0D01*
G01*
X22302000Y-13462000D02*
G75*
G02*
X22402000Y-13462000I50000J0D01*
G01*
X22402000Y-14224000D02*
G75*
G02*
X22302000Y-14224000I-50000J0D01*
G01*
X22302000Y-14224000D02*
G75*
G02*
X22402000Y-14224000I50000J0D01*
G01*
X22402000Y-14986000D02*
G75*
G02*
X22302000Y-14986000I-50000J0D01*
G01*
X22302000Y-14986000D02*
G75*
G02*
X22402000Y-14986000I50000J0D01*
G01*
X22656000Y-6350000D02*
G75*
G02*
X22556000Y-6350000I-50000J0D01*
G01*
X22556000Y-6350000D02*
G75*
G02*
X22656000Y-6350000I50000J0D01*
G01*
X22656000Y-7112000D02*
G75*
G02*
X22556000Y-7112000I-50000J0D01*
G01*
X22556000Y-7112000D02*
G75*
G02*
X22656000Y-7112000I50000J0D01*
G01*
X22656000Y-7874000D02*
G75*
G02*
X22556000Y-7874000I-50000J0D01*
G01*
X22556000Y-7874000D02*
G75*
G02*
X22656000Y-7874000I50000J0D01*
G01*
X22656000Y-8128000D02*
G75*
G02*
X22556000Y-8128000I-50000J0D01*
G01*
X22556000Y-8128000D02*
G75*
G02*
X22656000Y-8128000I50000J0D01*
G01*
X22656000Y-8382000D02*
G75*
G02*
X22556000Y-8382000I-50000J0D01*
G01*
X22556000Y-8382000D02*
G75*
G02*
X22656000Y-8382000I50000J0D01*
G01*
X22656000Y-8636000D02*
G75*
G02*
X22556000Y-8636000I-50000J0D01*
G01*
X22556000Y-8636000D02*
G75*
G02*
X22656000Y-8636000I50000J0D01*
G01*
X22656000Y-8890000D02*
G75*
G02*
X22556000Y-8890000I-50000J0D01*
G01*
X22556000Y-8890000D02*
G75*
G02*
X22656000Y-8890000I50000J0D01*
G01*
X22656000Y-9906000D02*
G75*
G02*
X22556000Y-9906000I-50000J0D01*
G01*
X22556000Y-9906000D02*
G75*
G02*
X22656000Y-9906000I50000J0D01*
G01*
X22656000Y-11684000D02*
G75*
G02*
X22556000Y-11684000I-50000J0D01*
G01*
X22556000Y-11684000D02*
G75*
G02*
X22656000Y-11684000I50000J0D01*
G01*
X22656000Y-13462000D02*
G75*
G02*
X22556000Y-13462000I-50000J0D01*
G01*
X22556000Y-13462000D02*
G75*
G02*
X22656000Y-13462000I50000J0D01*
G01*
X22656000Y-13716000D02*
G75*
G02*
X22556000Y-13716000I-50000J0D01*
G01*
X22556000Y-13716000D02*
G75*
G02*
X22656000Y-13716000I50000J0D01*
G01*
X22656000Y-13970000D02*
G75*
G02*
X22556000Y-13970000I-50000J0D01*
G01*
X22556000Y-13970000D02*
G75*
G02*
X22656000Y-13970000I50000J0D01*
G01*
X22656000Y-14732000D02*
G75*
G02*
X22556000Y-14732000I-50000J0D01*
G01*
X22556000Y-14732000D02*
G75*
G02*
X22656000Y-14732000I50000J0D01*
G01*
X22656000Y-15494000D02*
G75*
G02*
X22556000Y-15494000I-50000J0D01*
G01*
X22556000Y-15494000D02*
G75*
G02*
X22656000Y-15494000I50000J0D01*
G01*
X22910000Y-7366000D02*
G75*
G02*
X22810000Y-7366000I-50000J0D01*
G01*
X22810000Y-7366000D02*
G75*
G02*
X22910000Y-7366000I50000J0D01*
G01*
X22910000Y-7620000D02*
G75*
G02*
X22810000Y-7620000I-50000J0D01*
G01*
X22810000Y-7620000D02*
G75*
G02*
X22910000Y-7620000I50000J0D01*
G01*
X22910000Y-7874000D02*
G75*
G02*
X22810000Y-7874000I-50000J0D01*
G01*
X22810000Y-7874000D02*
G75*
G02*
X22910000Y-7874000I50000J0D01*
G01*
X22910000Y-9906000D02*
G75*
G02*
X22810000Y-9906000I-50000J0D01*
G01*
X22810000Y-9906000D02*
G75*
G02*
X22910000Y-9906000I50000J0D01*
G01*
X22910000Y-11684000D02*
G75*
G02*
X22810000Y-11684000I-50000J0D01*
G01*
X22810000Y-11684000D02*
G75*
G02*
X22910000Y-11684000I50000J0D01*
G01*
X22910000Y-13970000D02*
G75*
G02*
X22810000Y-13970000I-50000J0D01*
G01*
X22810000Y-13970000D02*
G75*
G02*
X22910000Y-13970000I50000J0D01*
G01*
X22910000Y-14224000D02*
G75*
G02*
X22810000Y-14224000I-50000J0D01*
G01*
X22810000Y-14224000D02*
G75*
G02*
X22910000Y-14224000I50000J0D01*
G01*
X22910000Y-14478000D02*
G75*
G02*
X22810000Y-14478000I-50000J0D01*
G01*
X22810000Y-14478000D02*
G75*
G02*
X22910000Y-14478000I50000J0D01*
G01*
X23164000Y-6858000D02*
G75*
G02*
X23064000Y-6858000I-50000J0D01*
G01*
X23064000Y-6858000D02*
G75*
G02*
X23164000Y-6858000I50000J0D01*
G01*
X23164000Y-7112000D02*
G75*
G02*
X23064000Y-7112000I-50000J0D01*
G01*
X23064000Y-7112000D02*
G75*
G02*
X23164000Y-7112000I50000J0D01*
G01*
X23164000Y-7366000D02*
G75*
G02*
X23064000Y-7366000I-50000J0D01*
G01*
X23064000Y-7366000D02*
G75*
G02*
X23164000Y-7366000I50000J0D01*
G01*
X23164000Y-9906000D02*
G75*
G02*
X23064000Y-9906000I-50000J0D01*
G01*
X23064000Y-9906000D02*
G75*
G02*
X23164000Y-9906000I50000J0D01*
G01*
X23164000Y-10414000D02*
G75*
G02*
X23064000Y-10414000I-50000J0D01*
G01*
X23064000Y-10414000D02*
G75*
G02*
X23164000Y-10414000I50000J0D01*
G01*
X23164000Y-11684000D02*
G75*
G02*
X23064000Y-11684000I-50000J0D01*
G01*
X23064000Y-11684000D02*
G75*
G02*
X23164000Y-11684000I50000J0D01*
G01*
X23164000Y-14478000D02*
G75*
G02*
X23064000Y-14478000I-50000J0D01*
G01*
X23064000Y-14478000D02*
G75*
G02*
X23164000Y-14478000I50000J0D01*
G01*
X23164000Y-14732000D02*
G75*
G02*
X23064000Y-14732000I-50000J0D01*
G01*
X23064000Y-14732000D02*
G75*
G02*
X23164000Y-14732000I50000J0D01*
G01*
X23164000Y-14986000D02*
G75*
G02*
X23064000Y-14986000I-50000J0D01*
G01*
X23064000Y-14986000D02*
G75*
G02*
X23164000Y-14986000I50000J0D01*
G01*
X23418000Y-8636000D02*
G75*
G02*
X23318000Y-8636000I-50000J0D01*
G01*
X23318000Y-8636000D02*
G75*
G02*
X23418000Y-8636000I50000J0D01*
G01*
X23418000Y-8890000D02*
G75*
G02*
X23318000Y-8890000I-50000J0D01*
G01*
X23318000Y-8890000D02*
G75*
G02*
X23418000Y-8890000I50000J0D01*
G01*
X23418000Y-9906000D02*
G75*
G02*
X23318000Y-9906000I-50000J0D01*
G01*
X23318000Y-9906000D02*
G75*
G02*
X23418000Y-9906000I50000J0D01*
G01*
X23418000Y-11684000D02*
G75*
G02*
X23318000Y-11684000I-50000J0D01*
G01*
X23318000Y-11684000D02*
G75*
G02*
X23418000Y-11684000I50000J0D01*
G01*
X24180000Y-8636000D02*
G75*
G02*
X24080000Y-8636000I-50000J0D01*
G01*
X24080000Y-8636000D02*
G75*
G02*
X24180000Y-8636000I50000J0D01*
G01*
X24180000Y-8890000D02*
G75*
G02*
X24080000Y-8890000I-50000J0D01*
G01*
X24080000Y-8890000D02*
G75*
G02*
X24180000Y-8890000I50000J0D01*
G01*
X24180000Y-9652000D02*
G75*
G02*
X24080000Y-9652000I-50000J0D01*
G01*
X24080000Y-9652000D02*
G75*
G02*
X24180000Y-9652000I50000J0D01*
G01*
X24434000Y-9906000D02*
G75*
G02*
X24334000Y-9906000I-50000J0D01*
G01*
X24334000Y-9906000D02*
G75*
G02*
X24434000Y-9906000I50000J0D01*
G01*
X24434000Y-11684000D02*
G75*
G02*
X24334000Y-11684000I-50000J0D01*
G01*
X24334000Y-11684000D02*
G75*
G02*
X24434000Y-11684000I50000J0D01*
G01*
X24688000Y-6858000D02*
G75*
G02*
X24588000Y-6858000I-50000J0D01*
G01*
X24588000Y-6858000D02*
G75*
G02*
X24688000Y-6858000I50000J0D01*
G01*
X24688000Y-7112000D02*
G75*
G02*
X24588000Y-7112000I-50000J0D01*
G01*
X24588000Y-7112000D02*
G75*
G02*
X24688000Y-7112000I50000J0D01*
G01*
X24688000Y-7366000D02*
G75*
G02*
X24588000Y-7366000I-50000J0D01*
G01*
X24588000Y-7366000D02*
G75*
G02*
X24688000Y-7366000I50000J0D01*
G01*
X24688000Y-9906000D02*
G75*
G02*
X24588000Y-9906000I-50000J0D01*
G01*
X24588000Y-9906000D02*
G75*
G02*
X24688000Y-9906000I50000J0D01*
G01*
X24688000Y-10414000D02*
G75*
G02*
X24588000Y-10414000I-50000J0D01*
G01*
X24588000Y-10414000D02*
G75*
G02*
X24688000Y-10414000I50000J0D01*
G01*
X24688000Y-11684000D02*
G75*
G02*
X24588000Y-11684000I-50000J0D01*
G01*
X24588000Y-11684000D02*
G75*
G02*
X24688000Y-11684000I50000J0D01*
G01*
X24688000Y-14478000D02*
G75*
G02*
X24588000Y-14478000I-50000J0D01*
G01*
X24588000Y-14478000D02*
G75*
G02*
X24688000Y-14478000I50000J0D01*
G01*
X24688000Y-14732000D02*
G75*
G02*
X24588000Y-14732000I-50000J0D01*
G01*
X24588000Y-14732000D02*
G75*
G02*
X24688000Y-14732000I50000J0D01*
G01*
X24688000Y-14986000D02*
G75*
G02*
X24588000Y-14986000I-50000J0D01*
G01*
X24588000Y-14986000D02*
G75*
G02*
X24688000Y-14986000I50000J0D01*
G01*
X24942000Y-7366000D02*
G75*
G02*
X24842000Y-7366000I-50000J0D01*
G01*
X24842000Y-7366000D02*
G75*
G02*
X24942000Y-7366000I50000J0D01*
G01*
X24942000Y-7620000D02*
G75*
G02*
X24842000Y-7620000I-50000J0D01*
G01*
X24842000Y-7620000D02*
G75*
G02*
X24942000Y-7620000I50000J0D01*
G01*
X24942000Y-7874000D02*
G75*
G02*
X24842000Y-7874000I-50000J0D01*
G01*
X24842000Y-7874000D02*
G75*
G02*
X24942000Y-7874000I50000J0D01*
G01*
X24942000Y-8636000D02*
G75*
G02*
X24842000Y-8636000I-50000J0D01*
G01*
X24842000Y-8636000D02*
G75*
G02*
X24942000Y-8636000I50000J0D01*
G01*
X24942000Y-8890000D02*
G75*
G02*
X24842000Y-8890000I-50000J0D01*
G01*
X24842000Y-8890000D02*
G75*
G02*
X24942000Y-8890000I50000J0D01*
G01*
X24942000Y-9652000D02*
G75*
G02*
X24842000Y-9652000I-50000J0D01*
G01*
X24842000Y-9652000D02*
G75*
G02*
X24942000Y-9652000I50000J0D01*
G01*
X24942000Y-9906000D02*
G75*
G02*
X24842000Y-9906000I-50000J0D01*
G01*
X24842000Y-9906000D02*
G75*
G02*
X24942000Y-9906000I50000J0D01*
G01*
X24942000Y-11684000D02*
G75*
G02*
X24842000Y-11684000I-50000J0D01*
G01*
X24842000Y-11684000D02*
G75*
G02*
X24942000Y-11684000I50000J0D01*
G01*
X24942000Y-13970000D02*
G75*
G02*
X24842000Y-13970000I-50000J0D01*
G01*
X24842000Y-13970000D02*
G75*
G02*
X24942000Y-13970000I50000J0D01*
G01*
X24942000Y-14224000D02*
G75*
G02*
X24842000Y-14224000I-50000J0D01*
G01*
X24842000Y-14224000D02*
G75*
G02*
X24942000Y-14224000I50000J0D01*
G01*
X24942000Y-14478000D02*
G75*
G02*
X24842000Y-14478000I-50000J0D01*
G01*
X24842000Y-14478000D02*
G75*
G02*
X24942000Y-14478000I50000J0D01*
G01*
X25196000Y-6350000D02*
G75*
G02*
X25096000Y-6350000I-50000J0D01*
G01*
X25096000Y-6350000D02*
G75*
G02*
X25196000Y-6350000I50000J0D01*
G01*
X25196000Y-7112000D02*
G75*
G02*
X25096000Y-7112000I-50000J0D01*
G01*
X25096000Y-7112000D02*
G75*
G02*
X25196000Y-7112000I50000J0D01*
G01*
X25196000Y-9906000D02*
G75*
G02*
X25096000Y-9906000I-50000J0D01*
G01*
X25096000Y-9906000D02*
G75*
G02*
X25196000Y-9906000I50000J0D01*
G01*
X25196000Y-11684000D02*
G75*
G02*
X25096000Y-11684000I-50000J0D01*
G01*
X25096000Y-11684000D02*
G75*
G02*
X25196000Y-11684000I50000J0D01*
G01*
X25196000Y-13462000D02*
G75*
G02*
X25096000Y-13462000I-50000J0D01*
G01*
X25096000Y-13462000D02*
G75*
G02*
X25196000Y-13462000I50000J0D01*
G01*
X25196000Y-13716000D02*
G75*
G02*
X25096000Y-13716000I-50000J0D01*
G01*
X25096000Y-13716000D02*
G75*
G02*
X25196000Y-13716000I50000J0D01*
G01*
X25196000Y-13970000D02*
G75*
G02*
X25096000Y-13970000I-50000J0D01*
G01*
X25096000Y-13970000D02*
G75*
G02*
X25196000Y-13970000I50000J0D01*
G01*
X25196000Y-14732000D02*
G75*
G02*
X25096000Y-14732000I-50000J0D01*
G01*
X25096000Y-14732000D02*
G75*
G02*
X25196000Y-14732000I50000J0D01*
G01*
X25196000Y-15494000D02*
G75*
G02*
X25096000Y-15494000I-50000J0D01*
G01*
X25096000Y-15494000D02*
G75*
G02*
X25196000Y-15494000I50000J0D01*
G01*
X25450000Y-6858000D02*
G75*
G02*
X25350000Y-6858000I-50000J0D01*
G01*
X25350000Y-6858000D02*
G75*
G02*
X25450000Y-6858000I50000J0D01*
G01*
X25450000Y-7620000D02*
G75*
G02*
X25350000Y-7620000I-50000J0D01*
G01*
X25350000Y-7620000D02*
G75*
G02*
X25450000Y-7620000I50000J0D01*
G01*
X25450000Y-7874000D02*
G75*
G02*
X25350000Y-7874000I-50000J0D01*
G01*
X25350000Y-7874000D02*
G75*
G02*
X25450000Y-7874000I50000J0D01*
G01*
X25450000Y-8128000D02*
G75*
G02*
X25350000Y-8128000I-50000J0D01*
G01*
X25350000Y-8128000D02*
G75*
G02*
X25450000Y-8128000I50000J0D01*
G01*
X25450000Y-8382000D02*
G75*
G02*
X25350000Y-8382000I-50000J0D01*
G01*
X25350000Y-8382000D02*
G75*
G02*
X25450000Y-8382000I50000J0D01*
G01*
X25450000Y-9906000D02*
G75*
G02*
X25350000Y-9906000I-50000J0D01*
G01*
X25350000Y-9906000D02*
G75*
G02*
X25450000Y-9906000I50000J0D01*
G01*
X25450000Y-10414000D02*
G75*
G02*
X25350000Y-10414000I-50000J0D01*
G01*
X25350000Y-10414000D02*
G75*
G02*
X25450000Y-10414000I50000J0D01*
G01*
X25450000Y-11684000D02*
G75*
G02*
X25350000Y-11684000I-50000J0D01*
G01*
X25350000Y-11684000D02*
G75*
G02*
X25450000Y-11684000I50000J0D01*
G01*
X25450000Y-12954000D02*
G75*
G02*
X25350000Y-12954000I-50000J0D01*
G01*
X25350000Y-12954000D02*
G75*
G02*
X25450000Y-12954000I50000J0D01*
G01*
X25450000Y-13208000D02*
G75*
G02*
X25350000Y-13208000I-50000J0D01*
G01*
X25350000Y-13208000D02*
G75*
G02*
X25450000Y-13208000I50000J0D01*
G01*
X25450000Y-13462000D02*
G75*
G02*
X25350000Y-13462000I-50000J0D01*
G01*
X25350000Y-13462000D02*
G75*
G02*
X25450000Y-13462000I50000J0D01*
G01*
X25450000Y-14224000D02*
G75*
G02*
X25350000Y-14224000I-50000J0D01*
G01*
X25350000Y-14224000D02*
G75*
G02*
X25450000Y-14224000I50000J0D01*
G01*
X25450000Y-14986000D02*
G75*
G02*
X25350000Y-14986000I-50000J0D01*
G01*
X25350000Y-14986000D02*
G75*
G02*
X25450000Y-14986000I50000J0D01*
G01*
X25704000Y-8382000D02*
G75*
G02*
X25604000Y-8382000I-50000J0D01*
G01*
X25604000Y-8382000D02*
G75*
G02*
X25704000Y-8382000I50000J0D01*
G01*
X25704000Y-8636000D02*
G75*
G02*
X25604000Y-8636000I-50000J0D01*
G01*
X25604000Y-8636000D02*
G75*
G02*
X25704000Y-8636000I50000J0D01*
G01*
X25704000Y-8890000D02*
G75*
G02*
X25604000Y-8890000I-50000J0D01*
G01*
X25604000Y-8890000D02*
G75*
G02*
X25704000Y-8890000I50000J0D01*
G01*
X25704000Y-9906000D02*
G75*
G02*
X25604000Y-9906000I-50000J0D01*
G01*
X25604000Y-9906000D02*
G75*
G02*
X25704000Y-9906000I50000J0D01*
G01*
X25704000Y-10414000D02*
G75*
G02*
X25604000Y-10414000I-50000J0D01*
G01*
X25604000Y-10414000D02*
G75*
G02*
X25704000Y-10414000I50000J0D01*
G01*
X25704000Y-11684000D02*
G75*
G02*
X25604000Y-11684000I-50000J0D01*
G01*
X25604000Y-11684000D02*
G75*
G02*
X25704000Y-11684000I50000J0D01*
G01*
X25704000Y-12446000D02*
G75*
G02*
X25604000Y-12446000I-50000J0D01*
G01*
X25604000Y-12446000D02*
G75*
G02*
X25704000Y-12446000I50000J0D01*
G01*
X25704000Y-12700000D02*
G75*
G02*
X25604000Y-12700000I-50000J0D01*
G01*
X25604000Y-12700000D02*
G75*
G02*
X25704000Y-12700000I50000J0D01*
G01*
X25704000Y-12954000D02*
G75*
G02*
X25604000Y-12954000I-50000J0D01*
G01*
X25604000Y-12954000D02*
G75*
G02*
X25704000Y-12954000I50000J0D01*
G01*
X25704000Y-13716000D02*
G75*
G02*
X25604000Y-13716000I-50000J0D01*
G01*
X25604000Y-13716000D02*
G75*
G02*
X25704000Y-13716000I50000J0D01*
G01*
X25704000Y-14478000D02*
G75*
G02*
X25604000Y-14478000I-50000J0D01*
G01*
X25604000Y-14478000D02*
G75*
G02*
X25704000Y-14478000I50000J0D01*
G01*
X25958000Y-6350000D02*
G75*
G02*
X25858000Y-6350000I-50000J0D01*
G01*
X25858000Y-6350000D02*
G75*
G02*
X25958000Y-6350000I50000J0D01*
G01*
X25958000Y-7112000D02*
G75*
G02*
X25858000Y-7112000I-50000J0D01*
G01*
X25858000Y-7112000D02*
G75*
G02*
X25958000Y-7112000I50000J0D01*
G01*
X25958000Y-7366000D02*
G75*
G02*
X25858000Y-7366000I-50000J0D01*
G01*
X25858000Y-7366000D02*
G75*
G02*
X25958000Y-7366000I50000J0D01*
G01*
X25958000Y-8128000D02*
G75*
G02*
X25858000Y-8128000I-50000J0D01*
G01*
X25858000Y-8128000D02*
G75*
G02*
X25958000Y-8128000I50000J0D01*
G01*
X25958000Y-8890000D02*
G75*
G02*
X25858000Y-8890000I-50000J0D01*
G01*
X25858000Y-8890000D02*
G75*
G02*
X25958000Y-8890000I50000J0D01*
G01*
X25958000Y-9144000D02*
G75*
G02*
X25858000Y-9144000I-50000J0D01*
G01*
X25858000Y-9144000D02*
G75*
G02*
X25958000Y-9144000I50000J0D01*
G01*
X25958000Y-9398000D02*
G75*
G02*
X25858000Y-9398000I-50000J0D01*
G01*
X25858000Y-9398000D02*
G75*
G02*
X25958000Y-9398000I50000J0D01*
G01*
X25958000Y-9906000D02*
G75*
G02*
X25858000Y-9906000I-50000J0D01*
G01*
X25858000Y-9906000D02*
G75*
G02*
X25958000Y-9906000I50000J0D01*
G01*
X25958000Y-11684000D02*
G75*
G02*
X25858000Y-11684000I-50000J0D01*
G01*
X25858000Y-11684000D02*
G75*
G02*
X25958000Y-11684000I50000J0D01*
G01*
X25958000Y-11938000D02*
G75*
G02*
X25858000Y-11938000I-50000J0D01*
G01*
X25858000Y-11938000D02*
G75*
G02*
X25958000Y-11938000I50000J0D01*
G01*
X25958000Y-12192000D02*
G75*
G02*
X25858000Y-12192000I-50000J0D01*
G01*
X25858000Y-12192000D02*
G75*
G02*
X25958000Y-12192000I50000J0D01*
G01*
X25958000Y-12446000D02*
G75*
G02*
X25858000Y-12446000I-50000J0D01*
G01*
X25858000Y-12446000D02*
G75*
G02*
X25958000Y-12446000I50000J0D01*
G01*
X25958000Y-13208000D02*
G75*
G02*
X25858000Y-13208000I-50000J0D01*
G01*
X25858000Y-13208000D02*
G75*
G02*
X25958000Y-13208000I50000J0D01*
G01*
X25958000Y-13970000D02*
G75*
G02*
X25858000Y-13970000I-50000J0D01*
G01*
X25858000Y-13970000D02*
G75*
G02*
X25958000Y-13970000I50000J0D01*
G01*
X26212000Y-5842000D02*
G75*
G02*
X26112000Y-5842000I-50000J0D01*
G01*
X26112000Y-5842000D02*
G75*
G02*
X26212000Y-5842000I50000J0D01*
G01*
X26212000Y-6604000D02*
G75*
G02*
X26112000Y-6604000I-50000J0D01*
G01*
X26112000Y-6604000D02*
G75*
G02*
X26212000Y-6604000I50000J0D01*
G01*
X26212000Y-7874000D02*
G75*
G02*
X26112000Y-7874000I-50000J0D01*
G01*
X26112000Y-7874000D02*
G75*
G02*
X26212000Y-7874000I50000J0D01*
G01*
X26212000Y-8636000D02*
G75*
G02*
X26112000Y-8636000I-50000J0D01*
G01*
X26112000Y-8636000D02*
G75*
G02*
X26212000Y-8636000I50000J0D01*
G01*
X26212000Y-10922000D02*
G75*
G02*
X26112000Y-10922000I-50000J0D01*
G01*
X26112000Y-10922000D02*
G75*
G02*
X26212000Y-10922000I50000J0D01*
G01*
X26212000Y-11684000D02*
G75*
G02*
X26112000Y-11684000I-50000J0D01*
G01*
X26112000Y-11684000D02*
G75*
G02*
X26212000Y-11684000I50000J0D01*
G01*
X26212000Y-12700000D02*
G75*
G02*
X26112000Y-12700000I-50000J0D01*
G01*
X26112000Y-12700000D02*
G75*
G02*
X26212000Y-12700000I50000J0D01*
G01*
X26212000Y-13462000D02*
G75*
G02*
X26112000Y-13462000I-50000J0D01*
G01*
X26112000Y-13462000D02*
G75*
G02*
X26212000Y-13462000I50000J0D01*
G01*
X26466000Y-5842000D02*
G75*
G02*
X26366000Y-5842000I-50000J0D01*
G01*
X26366000Y-5842000D02*
G75*
G02*
X26466000Y-5842000I50000J0D01*
G01*
X26466000Y-6604000D02*
G75*
G02*
X26366000Y-6604000I-50000J0D01*
G01*
X26366000Y-6604000D02*
G75*
G02*
X26466000Y-6604000I50000J0D01*
G01*
X26466000Y-8382000D02*
G75*
G02*
X26366000Y-8382000I-50000J0D01*
G01*
X26366000Y-8382000D02*
G75*
G02*
X26466000Y-8382000I50000J0D01*
G01*
X26466000Y-9144000D02*
G75*
G02*
X26366000Y-9144000I-50000J0D01*
G01*
X26366000Y-9144000D02*
G75*
G02*
X26466000Y-9144000I50000J0D01*
G01*
X26466000Y-10414000D02*
G75*
G02*
X26366000Y-10414000I-50000J0D01*
G01*
X26366000Y-10414000D02*
G75*
G02*
X26466000Y-10414000I50000J0D01*
G01*
X26466000Y-10668000D02*
G75*
G02*
X26366000Y-10668000I-50000J0D01*
G01*
X26366000Y-10668000D02*
G75*
G02*
X26466000Y-10668000I50000J0D01*
G01*
X26466000Y-10922000D02*
G75*
G02*
X26366000Y-10922000I-50000J0D01*
G01*
X26366000Y-10922000D02*
G75*
G02*
X26466000Y-10922000I50000J0D01*
G01*
X26466000Y-11176000D02*
G75*
G02*
X26366000Y-11176000I-50000J0D01*
G01*
X26366000Y-11176000D02*
G75*
G02*
X26466000Y-11176000I50000J0D01*
G01*
X26466000Y-12192000D02*
G75*
G02*
X26366000Y-12192000I-50000J0D01*
G01*
X26366000Y-12192000D02*
G75*
G02*
X26466000Y-12192000I50000J0D01*
G01*
X26466000Y-12954000D02*
G75*
G02*
X26366000Y-12954000I-50000J0D01*
G01*
X26366000Y-12954000D02*
G75*
G02*
X26466000Y-12954000I50000J0D01*
G01*
X26720000Y-5842000D02*
G75*
G02*
X26620000Y-5842000I-50000J0D01*
G01*
X26620000Y-5842000D02*
G75*
G02*
X26720000Y-5842000I50000J0D01*
G01*
X26720000Y-6604000D02*
G75*
G02*
X26620000Y-6604000I-50000J0D01*
G01*
X26620000Y-6604000D02*
G75*
G02*
X26720000Y-6604000I50000J0D01*
G01*
X26720000Y-15240000D02*
G75*
G02*
X26620000Y-15240000I-50000J0D01*
G01*
X26620000Y-15240000D02*
G75*
G02*
X26720000Y-15240000I50000J0D01*
G01*
X26720000Y-16002000D02*
G75*
G02*
X26620000Y-16002000I-50000J0D01*
G01*
X26620000Y-16002000D02*
G75*
G02*
X26720000Y-16002000I50000J0D01*
G01*
X26974000Y-5842000D02*
G75*
G02*
X26874000Y-5842000I-50000J0D01*
G01*
X26874000Y-5842000D02*
G75*
G02*
X26974000Y-5842000I50000J0D01*
G01*
X26974000Y-6604000D02*
G75*
G02*
X26874000Y-6604000I-50000J0D01*
G01*
X26874000Y-6604000D02*
G75*
G02*
X26974000Y-6604000I50000J0D01*
G01*
X26974000Y-15240000D02*
G75*
G02*
X26874000Y-15240000I-50000J0D01*
G01*
X26874000Y-15240000D02*
G75*
G02*
X26974000Y-15240000I50000J0D01*
G01*
X26974000Y-16002000D02*
G75*
G02*
X26874000Y-16002000I-50000J0D01*
G01*
X26874000Y-16002000D02*
G75*
G02*
X26974000Y-16002000I50000J0D01*
G01*
X27228000Y-5842000D02*
G75*
G02*
X27128000Y-5842000I-50000J0D01*
G01*
X27128000Y-5842000D02*
G75*
G02*
X27228000Y-5842000I50000J0D01*
G01*
X27228000Y-6604000D02*
G75*
G02*
X27128000Y-6604000I-50000J0D01*
G01*
X27128000Y-6604000D02*
G75*
G02*
X27228000Y-6604000I50000J0D01*
G01*
X27228000Y-15240000D02*
G75*
G02*
X27128000Y-15240000I-50000J0D01*
G01*
X27128000Y-15240000D02*
G75*
G02*
X27228000Y-15240000I50000J0D01*
G01*
X27228000Y-16002000D02*
G75*
G02*
X27128000Y-16002000I-50000J0D01*
G01*
X27128000Y-16002000D02*
G75*
G02*
X27228000Y-16002000I50000J0D01*
G01*
X27482000Y-5842000D02*
G75*
G02*
X27382000Y-5842000I-50000J0D01*
G01*
X27382000Y-5842000D02*
G75*
G02*
X27482000Y-5842000I50000J0D01*
G01*
X27482000Y-6604000D02*
G75*
G02*
X27382000Y-6604000I-50000J0D01*
G01*
X27382000Y-6604000D02*
G75*
G02*
X27482000Y-6604000I50000J0D01*
G01*
X27482000Y-15240000D02*
G75*
G02*
X27382000Y-15240000I-50000J0D01*
G01*
X27382000Y-15240000D02*
G75*
G02*
X27482000Y-15240000I50000J0D01*
G01*
X27482000Y-16002000D02*
G75*
G02*
X27382000Y-16002000I-50000J0D01*
G01*
X27382000Y-16002000D02*
G75*
G02*
X27482000Y-16002000I50000J0D01*
G01*
X27736000Y-5842000D02*
G75*
G02*
X27636000Y-5842000I-50000J0D01*
G01*
X27636000Y-5842000D02*
G75*
G02*
X27736000Y-5842000I50000J0D01*
G01*
X27736000Y-6604000D02*
G75*
G02*
X27636000Y-6604000I-50000J0D01*
G01*
X27636000Y-6604000D02*
G75*
G02*
X27736000Y-6604000I50000J0D01*
G01*
X27736000Y-15240000D02*
G75*
G02*
X27636000Y-15240000I-50000J0D01*
G01*
X27636000Y-15240000D02*
G75*
G02*
X27736000Y-15240000I50000J0D01*
G01*
X27736000Y-16002000D02*
G75*
G02*
X27636000Y-16002000I-50000J0D01*
G01*
X27636000Y-16002000D02*
G75*
G02*
X27736000Y-16002000I50000J0D01*
G01*
X27736000Y-16256000D02*
G75*
G02*
X27636000Y-16256000I-50000J0D01*
G01*
X27636000Y-16256000D02*
G75*
G02*
X27736000Y-16256000I50000J0D01*
G01*
X27990000Y-5842000D02*
G75*
G02*
X27890000Y-5842000I-50000J0D01*
G01*
X27890000Y-5842000D02*
G75*
G02*
X27990000Y-5842000I50000J0D01*
G01*
X27990000Y-6604000D02*
G75*
G02*
X27890000Y-6604000I-50000J0D01*
G01*
X27890000Y-6604000D02*
G75*
G02*
X27990000Y-6604000I50000J0D01*
G01*
X27990000Y-15240000D02*
G75*
G02*
X27890000Y-15240000I-50000J0D01*
G01*
X27890000Y-15240000D02*
G75*
G02*
X27990000Y-15240000I50000J0D01*
G01*
X27990000Y-16002000D02*
G75*
G02*
X27890000Y-16002000I-50000J0D01*
G01*
X27890000Y-16002000D02*
G75*
G02*
X27990000Y-16002000I50000J0D01*
G01*
X27990000Y-16256000D02*
G75*
G02*
X27890000Y-16256000I-50000J0D01*
G01*
X27890000Y-16256000D02*
G75*
G02*
X27990000Y-16256000I50000J0D01*
G01*
X28244000Y-5588000D02*
G75*
G02*
X28144000Y-5588000I-50000J0D01*
G01*
X28144000Y-5588000D02*
G75*
G02*
X28244000Y-5588000I50000J0D01*
G01*
X28244000Y-5842000D02*
G75*
G02*
X28144000Y-5842000I-50000J0D01*
G01*
X28144000Y-5842000D02*
G75*
G02*
X28244000Y-5842000I50000J0D01*
G01*
X28244000Y-6604000D02*
G75*
G02*
X28144000Y-6604000I-50000J0D01*
G01*
X28144000Y-6604000D02*
G75*
G02*
X28244000Y-6604000I50000J0D01*
G01*
X28244000Y-10414000D02*
G75*
G02*
X28144000Y-10414000I-50000J0D01*
G01*
X28144000Y-10414000D02*
G75*
G02*
X28244000Y-10414000I50000J0D01*
G01*
X28244000Y-10668000D02*
G75*
G02*
X28144000Y-10668000I-50000J0D01*
G01*
X28144000Y-10668000D02*
G75*
G02*
X28244000Y-10668000I50000J0D01*
G01*
X28244000Y-10922000D02*
G75*
G02*
X28144000Y-10922000I-50000J0D01*
G01*
X28144000Y-10922000D02*
G75*
G02*
X28244000Y-10922000I50000J0D01*
G01*
X28244000Y-11176000D02*
G75*
G02*
X28144000Y-11176000I-50000J0D01*
G01*
X28144000Y-11176000D02*
G75*
G02*
X28244000Y-11176000I50000J0D01*
G01*
X28244000Y-15240000D02*
G75*
G02*
X28144000Y-15240000I-50000J0D01*
G01*
X28144000Y-15240000D02*
G75*
G02*
X28244000Y-15240000I50000J0D01*
G01*
X28244000Y-16002000D02*
G75*
G02*
X28144000Y-16002000I-50000J0D01*
G01*
X28144000Y-16002000D02*
G75*
G02*
X28244000Y-16002000I50000J0D01*
G01*
X28498000Y-5588000D02*
G75*
G02*
X28398000Y-5588000I-50000J0D01*
G01*
X28398000Y-5588000D02*
G75*
G02*
X28498000Y-5588000I50000J0D01*
G01*
X28498000Y-5842000D02*
G75*
G02*
X28398000Y-5842000I-50000J0D01*
G01*
X28398000Y-5842000D02*
G75*
G02*
X28498000Y-5842000I50000J0D01*
G01*
X28498000Y-6604000D02*
G75*
G02*
X28398000Y-6604000I-50000J0D01*
G01*
X28398000Y-6604000D02*
G75*
G02*
X28498000Y-6604000I50000J0D01*
G01*
X28498000Y-15240000D02*
G75*
G02*
X28398000Y-15240000I-50000J0D01*
G01*
X28398000Y-15240000D02*
G75*
G02*
X28498000Y-15240000I50000J0D01*
G01*
X28498000Y-16002000D02*
G75*
G02*
X28398000Y-16002000I-50000J0D01*
G01*
X28398000Y-16002000D02*
G75*
G02*
X28498000Y-16002000I50000J0D01*
G01*
X28752000Y-5842000D02*
G75*
G02*
X28652000Y-5842000I-50000J0D01*
G01*
X28652000Y-5842000D02*
G75*
G02*
X28752000Y-5842000I50000J0D01*
G01*
X28752000Y-6604000D02*
G75*
G02*
X28652000Y-6604000I-50000J0D01*
G01*
X28652000Y-6604000D02*
G75*
G02*
X28752000Y-6604000I50000J0D01*
G01*
X28752000Y-15240000D02*
G75*
G02*
X28652000Y-15240000I-50000J0D01*
G01*
X28652000Y-15240000D02*
G75*
G02*
X28752000Y-15240000I50000J0D01*
G01*
X28752000Y-16002000D02*
G75*
G02*
X28652000Y-16002000I-50000J0D01*
G01*
X28652000Y-16002000D02*
G75*
G02*
X28752000Y-16002000I50000J0D01*
G01*
X29006000Y-5842000D02*
G75*
G02*
X28906000Y-5842000I-50000J0D01*
G01*
X28906000Y-5842000D02*
G75*
G02*
X29006000Y-5842000I50000J0D01*
G01*
X29006000Y-6604000D02*
G75*
G02*
X28906000Y-6604000I-50000J0D01*
G01*
X28906000Y-6604000D02*
G75*
G02*
X29006000Y-6604000I50000J0D01*
G01*
X29006000Y-15240000D02*
G75*
G02*
X28906000Y-15240000I-50000J0D01*
G01*
X28906000Y-15240000D02*
G75*
G02*
X29006000Y-15240000I50000J0D01*
G01*
X29006000Y-16002000D02*
G75*
G02*
X28906000Y-16002000I-50000J0D01*
G01*
X28906000Y-16002000D02*
G75*
G02*
X29006000Y-16002000I50000J0D01*
G01*
X29260000Y-5842000D02*
G75*
G02*
X29160000Y-5842000I-50000J0D01*
G01*
X29160000Y-5842000D02*
G75*
G02*
X29260000Y-5842000I50000J0D01*
G01*
X29260000Y-6604000D02*
G75*
G02*
X29160000Y-6604000I-50000J0D01*
G01*
X29160000Y-6604000D02*
G75*
G02*
X29260000Y-6604000I50000J0D01*
G01*
X29260000Y-8382000D02*
G75*
G02*
X29160000Y-8382000I-50000J0D01*
G01*
X29160000Y-8382000D02*
G75*
G02*
X29260000Y-8382000I50000J0D01*
G01*
X29260000Y-9144000D02*
G75*
G02*
X29160000Y-9144000I-50000J0D01*
G01*
X29160000Y-9144000D02*
G75*
G02*
X29260000Y-9144000I50000J0D01*
G01*
X29260000Y-15240000D02*
G75*
G02*
X29160000Y-15240000I-50000J0D01*
G01*
X29160000Y-15240000D02*
G75*
G02*
X29260000Y-15240000I50000J0D01*
G01*
X29260000Y-16002000D02*
G75*
G02*
X29160000Y-16002000I-50000J0D01*
G01*
X29160000Y-16002000D02*
G75*
G02*
X29260000Y-16002000I50000J0D01*
G01*
X29514000Y-5842000D02*
G75*
G02*
X29414000Y-5842000I-50000J0D01*
G01*
X29414000Y-5842000D02*
G75*
G02*
X29514000Y-5842000I50000J0D01*
G01*
X29514000Y-6604000D02*
G75*
G02*
X29414000Y-6604000I-50000J0D01*
G01*
X29414000Y-6604000D02*
G75*
G02*
X29514000Y-6604000I50000J0D01*
G01*
X29514000Y-15240000D02*
G75*
G02*
X29414000Y-15240000I-50000J0D01*
G01*
X29414000Y-15240000D02*
G75*
G02*
X29514000Y-15240000I50000J0D01*
G01*
X29514000Y-16002000D02*
G75*
G02*
X29414000Y-16002000I-50000J0D01*
G01*
X29414000Y-16002000D02*
G75*
G02*
X29514000Y-16002000I50000J0D01*
G01*
X29768000Y-15240000D02*
G75*
G02*
X29668000Y-15240000I-50000J0D01*
G01*
X29668000Y-15240000D02*
G75*
G02*
X29768000Y-15240000I50000J0D01*
G01*
X29768000Y-16002000D02*
G75*
G02*
X29668000Y-16002000I-50000J0D01*
G01*
X29668000Y-16002000D02*
G75*
G02*
X29768000Y-16002000I50000J0D01*
G01*
X30022000Y-8382000D02*
G75*
G02*
X29922000Y-8382000I-50000J0D01*
G01*
X29922000Y-8382000D02*
G75*
G02*
X30022000Y-8382000I50000J0D01*
G01*
X30022000Y-9144000D02*
G75*
G02*
X29922000Y-9144000I-50000J0D01*
G01*
X29922000Y-9144000D02*
G75*
G02*
X30022000Y-9144000I50000J0D01*
G01*
X30022000Y-10414000D02*
G75*
G02*
X29922000Y-10414000I-50000J0D01*
G01*
X29922000Y-10414000D02*
G75*
G02*
X30022000Y-10414000I50000J0D01*
G01*
X30022000Y-10668000D02*
G75*
G02*
X29922000Y-10668000I-50000J0D01*
G01*
X29922000Y-10668000D02*
G75*
G02*
X30022000Y-10668000I50000J0D01*
G01*
X30022000Y-10922000D02*
G75*
G02*
X29922000Y-10922000I-50000J0D01*
G01*
X29922000Y-10922000D02*
G75*
G02*
X30022000Y-10922000I50000J0D01*
G01*
X30022000Y-11176000D02*
G75*
G02*
X29922000Y-11176000I-50000J0D01*
G01*
X29922000Y-11176000D02*
G75*
G02*
X30022000Y-11176000I50000J0D01*
G01*
X30022000Y-12192000D02*
G75*
G02*
X29922000Y-12192000I-50000J0D01*
G01*
X29922000Y-12192000D02*
G75*
G02*
X30022000Y-12192000I50000J0D01*
G01*
X30022000Y-12954000D02*
G75*
G02*
X29922000Y-12954000I-50000J0D01*
G01*
X29922000Y-12954000D02*
G75*
G02*
X30022000Y-12954000I50000J0D01*
G01*
X30022000Y-15240000D02*
G75*
G02*
X29922000Y-15240000I-50000J0D01*
G01*
X29922000Y-15240000D02*
G75*
G02*
X30022000Y-15240000I50000J0D01*
G01*
X30022000Y-16002000D02*
G75*
G02*
X29922000Y-16002000I-50000J0D01*
G01*
X29922000Y-16002000D02*
G75*
G02*
X30022000Y-16002000I50000J0D01*
G01*
X30276000Y-7874000D02*
G75*
G02*
X30176000Y-7874000I-50000J0D01*
G01*
X30176000Y-7874000D02*
G75*
G02*
X30276000Y-7874000I50000J0D01*
G01*
X30276000Y-8636000D02*
G75*
G02*
X30176000Y-8636000I-50000J0D01*
G01*
X30176000Y-8636000D02*
G75*
G02*
X30276000Y-8636000I50000J0D01*
G01*
X30276000Y-9652000D02*
G75*
G02*
X30176000Y-9652000I-50000J0D01*
G01*
X30176000Y-9652000D02*
G75*
G02*
X30276000Y-9652000I50000J0D01*
G01*
X30276000Y-10922000D02*
G75*
G02*
X30176000Y-10922000I-50000J0D01*
G01*
X30176000Y-10922000D02*
G75*
G02*
X30276000Y-10922000I50000J0D01*
G01*
X30276000Y-11684000D02*
G75*
G02*
X30176000Y-11684000I-50000J0D01*
G01*
X30176000Y-11684000D02*
G75*
G02*
X30276000Y-11684000I50000J0D01*
G01*
X30276000Y-12700000D02*
G75*
G02*
X30176000Y-12700000I-50000J0D01*
G01*
X30176000Y-12700000D02*
G75*
G02*
X30276000Y-12700000I50000J0D01*
G01*
X30276000Y-13462000D02*
G75*
G02*
X30176000Y-13462000I-50000J0D01*
G01*
X30176000Y-13462000D02*
G75*
G02*
X30276000Y-13462000I50000J0D01*
G01*
X30530000Y-8890000D02*
G75*
G02*
X30430000Y-8890000I-50000J0D01*
G01*
X30430000Y-8890000D02*
G75*
G02*
X30530000Y-8890000I50000J0D01*
G01*
X30530000Y-9144000D02*
G75*
G02*
X30430000Y-9144000I-50000J0D01*
G01*
X30430000Y-9144000D02*
G75*
G02*
X30530000Y-9144000I50000J0D01*
G01*
X30530000Y-9398000D02*
G75*
G02*
X30430000Y-9398000I-50000J0D01*
G01*
X30430000Y-9398000D02*
G75*
G02*
X30530000Y-9398000I50000J0D01*
G01*
X30530000Y-9906000D02*
G75*
G02*
X30430000Y-9906000I-50000J0D01*
G01*
X30430000Y-9906000D02*
G75*
G02*
X30530000Y-9906000I50000J0D01*
G01*
X30530000Y-11684000D02*
G75*
G02*
X30430000Y-11684000I-50000J0D01*
G01*
X30430000Y-11684000D02*
G75*
G02*
X30530000Y-11684000I50000J0D01*
G01*
X30530000Y-11938000D02*
G75*
G02*
X30430000Y-11938000I-50000J0D01*
G01*
X30430000Y-11938000D02*
G75*
G02*
X30530000Y-11938000I50000J0D01*
G01*
X30530000Y-12192000D02*
G75*
G02*
X30430000Y-12192000I-50000J0D01*
G01*
X30430000Y-12192000D02*
G75*
G02*
X30530000Y-12192000I50000J0D01*
G01*
X30530000Y-12446000D02*
G75*
G02*
X30430000Y-12446000I-50000J0D01*
G01*
X30430000Y-12446000D02*
G75*
G02*
X30530000Y-12446000I50000J0D01*
G01*
X30530000Y-13208000D02*
G75*
G02*
X30430000Y-13208000I-50000J0D01*
G01*
X30430000Y-13208000D02*
G75*
G02*
X30530000Y-13208000I50000J0D01*
G01*
X30530000Y-13970000D02*
G75*
G02*
X30430000Y-13970000I-50000J0D01*
G01*
X30430000Y-13970000D02*
G75*
G02*
X30530000Y-13970000I50000J0D01*
G01*
X30784000Y-7366000D02*
G75*
G02*
X30684000Y-7366000I-50000J0D01*
G01*
X30684000Y-7366000D02*
G75*
G02*
X30784000Y-7366000I50000J0D01*
G01*
X30784000Y-8128000D02*
G75*
G02*
X30684000Y-8128000I-50000J0D01*
G01*
X30684000Y-8128000D02*
G75*
G02*
X30784000Y-8128000I50000J0D01*
G01*
X30784000Y-8382000D02*
G75*
G02*
X30684000Y-8382000I-50000J0D01*
G01*
X30684000Y-8382000D02*
G75*
G02*
X30784000Y-8382000I50000J0D01*
G01*
X30784000Y-8636000D02*
G75*
G02*
X30684000Y-8636000I-50000J0D01*
G01*
X30684000Y-8636000D02*
G75*
G02*
X30784000Y-8636000I50000J0D01*
G01*
X30784000Y-8890000D02*
G75*
G02*
X30684000Y-8890000I-50000J0D01*
G01*
X30684000Y-8890000D02*
G75*
G02*
X30784000Y-8890000I50000J0D01*
G01*
X30784000Y-9906000D02*
G75*
G02*
X30684000Y-9906000I-50000J0D01*
G01*
X30684000Y-9906000D02*
G75*
G02*
X30784000Y-9906000I50000J0D01*
G01*
X30784000Y-10414000D02*
G75*
G02*
X30684000Y-10414000I-50000J0D01*
G01*
X30684000Y-10414000D02*
G75*
G02*
X30784000Y-10414000I50000J0D01*
G01*
X30784000Y-11684000D02*
G75*
G02*
X30684000Y-11684000I-50000J0D01*
G01*
X30684000Y-11684000D02*
G75*
G02*
X30784000Y-11684000I50000J0D01*
G01*
X30784000Y-12446000D02*
G75*
G02*
X30684000Y-12446000I-50000J0D01*
G01*
X30684000Y-12446000D02*
G75*
G02*
X30784000Y-12446000I50000J0D01*
G01*
X30784000Y-12700000D02*
G75*
G02*
X30684000Y-12700000I-50000J0D01*
G01*
X30684000Y-12700000D02*
G75*
G02*
X30784000Y-12700000I50000J0D01*
G01*
X30784000Y-12954000D02*
G75*
G02*
X30684000Y-12954000I-50000J0D01*
G01*
X30684000Y-12954000D02*
G75*
G02*
X30784000Y-12954000I50000J0D01*
G01*
X30784000Y-13716000D02*
G75*
G02*
X30684000Y-13716000I-50000J0D01*
G01*
X30684000Y-13716000D02*
G75*
G02*
X30784000Y-13716000I50000J0D01*
G01*
X30784000Y-14478000D02*
G75*
G02*
X30684000Y-14478000I-50000J0D01*
G01*
X30684000Y-14478000D02*
G75*
G02*
X30784000Y-14478000I50000J0D01*
G01*
X31038000Y-6858000D02*
G75*
G02*
X30938000Y-6858000I-50000J0D01*
G01*
X30938000Y-6858000D02*
G75*
G02*
X31038000Y-6858000I50000J0D01*
G01*
X31038000Y-7620000D02*
G75*
G02*
X30938000Y-7620000I-50000J0D01*
G01*
X30938000Y-7620000D02*
G75*
G02*
X31038000Y-7620000I50000J0D01*
G01*
X31038000Y-9652000D02*
G75*
G02*
X30938000Y-9652000I-50000J0D01*
G01*
X30938000Y-9652000D02*
G75*
G02*
X31038000Y-9652000I50000J0D01*
G01*
X31038000Y-9906000D02*
G75*
G02*
X30938000Y-9906000I-50000J0D01*
G01*
X30938000Y-9906000D02*
G75*
G02*
X31038000Y-9906000I50000J0D01*
G01*
X31038000Y-10414000D02*
G75*
G02*
X30938000Y-10414000I-50000J0D01*
G01*
X30938000Y-10414000D02*
G75*
G02*
X31038000Y-10414000I50000J0D01*
G01*
X31038000Y-11684000D02*
G75*
G02*
X30938000Y-11684000I-50000J0D01*
G01*
X30938000Y-11684000D02*
G75*
G02*
X31038000Y-11684000I50000J0D01*
G01*
X31038000Y-12954000D02*
G75*
G02*
X30938000Y-12954000I-50000J0D01*
G01*
X30938000Y-12954000D02*
G75*
G02*
X31038000Y-12954000I50000J0D01*
G01*
X31038000Y-13208000D02*
G75*
G02*
X30938000Y-13208000I-50000J0D01*
G01*
X30938000Y-13208000D02*
G75*
G02*
X31038000Y-13208000I50000J0D01*
G01*
X31038000Y-13462000D02*
G75*
G02*
X30938000Y-13462000I-50000J0D01*
G01*
X30938000Y-13462000D02*
G75*
G02*
X31038000Y-13462000I50000J0D01*
G01*
X31038000Y-14224000D02*
G75*
G02*
X30938000Y-14224000I-50000J0D01*
G01*
X30938000Y-14224000D02*
G75*
G02*
X31038000Y-14224000I50000J0D01*
G01*
X31038000Y-14986000D02*
G75*
G02*
X30938000Y-14986000I-50000J0D01*
G01*
X30938000Y-14986000D02*
G75*
G02*
X31038000Y-14986000I50000J0D01*
G01*
X31292000Y-6350000D02*
G75*
G02*
X31192000Y-6350000I-50000J0D01*
G01*
X31192000Y-6350000D02*
G75*
G02*
X31292000Y-6350000I50000J0D01*
G01*
X31292000Y-7112000D02*
G75*
G02*
X31192000Y-7112000I-50000J0D01*
G01*
X31192000Y-7112000D02*
G75*
G02*
X31292000Y-7112000I50000J0D01*
G01*
X31292000Y-7874000D02*
G75*
G02*
X31192000Y-7874000I-50000J0D01*
G01*
X31192000Y-7874000D02*
G75*
G02*
X31292000Y-7874000I50000J0D01*
G01*
X31292000Y-8128000D02*
G75*
G02*
X31192000Y-8128000I-50000J0D01*
G01*
X31192000Y-8128000D02*
G75*
G02*
X31292000Y-8128000I50000J0D01*
G01*
X31292000Y-8382000D02*
G75*
G02*
X31192000Y-8382000I-50000J0D01*
G01*
X31192000Y-8382000D02*
G75*
G02*
X31292000Y-8382000I50000J0D01*
G01*
X31292000Y-8636000D02*
G75*
G02*
X31192000Y-8636000I-50000J0D01*
G01*
X31192000Y-8636000D02*
G75*
G02*
X31292000Y-8636000I50000J0D01*
G01*
X31292000Y-8890000D02*
G75*
G02*
X31192000Y-8890000I-50000J0D01*
G01*
X31192000Y-8890000D02*
G75*
G02*
X31292000Y-8890000I50000J0D01*
G01*
X31292000Y-9906000D02*
G75*
G02*
X31192000Y-9906000I-50000J0D01*
G01*
X31192000Y-9906000D02*
G75*
G02*
X31292000Y-9906000I50000J0D01*
G01*
X31292000Y-11684000D02*
G75*
G02*
X31192000Y-11684000I-50000J0D01*
G01*
X31192000Y-11684000D02*
G75*
G02*
X31292000Y-11684000I50000J0D01*
G01*
X31292000Y-13462000D02*
G75*
G02*
X31192000Y-13462000I-50000J0D01*
G01*
X31192000Y-13462000D02*
G75*
G02*
X31292000Y-13462000I50000J0D01*
G01*
X31292000Y-13716000D02*
G75*
G02*
X31192000Y-13716000I-50000J0D01*
G01*
X31192000Y-13716000D02*
G75*
G02*
X31292000Y-13716000I50000J0D01*
G01*
X31292000Y-13970000D02*
G75*
G02*
X31192000Y-13970000I-50000J0D01*
G01*
X31192000Y-13970000D02*
G75*
G02*
X31292000Y-13970000I50000J0D01*
G01*
X31292000Y-14732000D02*
G75*
G02*
X31192000Y-14732000I-50000J0D01*
G01*
X31192000Y-14732000D02*
G75*
G02*
X31292000Y-14732000I50000J0D01*
G01*
X31292000Y-15494000D02*
G75*
G02*
X31192000Y-15494000I-50000J0D01*
G01*
X31192000Y-15494000D02*
G75*
G02*
X31292000Y-15494000I50000J0D01*
G01*
X31546000Y-7366000D02*
G75*
G02*
X31446000Y-7366000I-50000J0D01*
G01*
X31446000Y-7366000D02*
G75*
G02*
X31546000Y-7366000I50000J0D01*
G01*
X31546000Y-7620000D02*
G75*
G02*
X31446000Y-7620000I-50000J0D01*
G01*
X31446000Y-7620000D02*
G75*
G02*
X31546000Y-7620000I50000J0D01*
G01*
X31546000Y-7874000D02*
G75*
G02*
X31446000Y-7874000I-50000J0D01*
G01*
X31446000Y-7874000D02*
G75*
G02*
X31546000Y-7874000I50000J0D01*
G01*
X31546000Y-9906000D02*
G75*
G02*
X31446000Y-9906000I-50000J0D01*
G01*
X31446000Y-9906000D02*
G75*
G02*
X31546000Y-9906000I50000J0D01*
G01*
X31546000Y-11684000D02*
G75*
G02*
X31446000Y-11684000I-50000J0D01*
G01*
X31446000Y-11684000D02*
G75*
G02*
X31546000Y-11684000I50000J0D01*
G01*
X31546000Y-13970000D02*
G75*
G02*
X31446000Y-13970000I-50000J0D01*
G01*
X31446000Y-13970000D02*
G75*
G02*
X31546000Y-13970000I50000J0D01*
G01*
X31546000Y-14224000D02*
G75*
G02*
X31446000Y-14224000I-50000J0D01*
G01*
X31446000Y-14224000D02*
G75*
G02*
X31546000Y-14224000I50000J0D01*
G01*
X31546000Y-14478000D02*
G75*
G02*
X31446000Y-14478000I-50000J0D01*
G01*
X31446000Y-14478000D02*
G75*
G02*
X31546000Y-14478000I50000J0D01*
G01*
X31800000Y-6858000D02*
G75*
G02*
X31700000Y-6858000I-50000J0D01*
G01*
X31700000Y-6858000D02*
G75*
G02*
X31800000Y-6858000I50000J0D01*
G01*
X31800000Y-7112000D02*
G75*
G02*
X31700000Y-7112000I-50000J0D01*
G01*
X31700000Y-7112000D02*
G75*
G02*
X31800000Y-7112000I50000J0D01*
G01*
X31800000Y-7366000D02*
G75*
G02*
X31700000Y-7366000I-50000J0D01*
G01*
X31700000Y-7366000D02*
G75*
G02*
X31800000Y-7366000I50000J0D01*
G01*
X31800000Y-9906000D02*
G75*
G02*
X31700000Y-9906000I-50000J0D01*
G01*
X31700000Y-9906000D02*
G75*
G02*
X31800000Y-9906000I50000J0D01*
G01*
X31800000Y-10414000D02*
G75*
G02*
X31700000Y-10414000I-50000J0D01*
G01*
X31700000Y-10414000D02*
G75*
G02*
X31800000Y-10414000I50000J0D01*
G01*
X31800000Y-11684000D02*
G75*
G02*
X31700000Y-11684000I-50000J0D01*
G01*
X31700000Y-11684000D02*
G75*
G02*
X31800000Y-11684000I50000J0D01*
G01*
X31800000Y-14478000D02*
G75*
G02*
X31700000Y-14478000I-50000J0D01*
G01*
X31700000Y-14478000D02*
G75*
G02*
X31800000Y-14478000I50000J0D01*
G01*
X31800000Y-14732000D02*
G75*
G02*
X31700000Y-14732000I-50000J0D01*
G01*
X31700000Y-14732000D02*
G75*
G02*
X31800000Y-14732000I50000J0D01*
G01*
X31800000Y-14986000D02*
G75*
G02*
X31700000Y-14986000I-50000J0D01*
G01*
X31700000Y-14986000D02*
G75*
G02*
X31800000Y-14986000I50000J0D01*
G01*
X32054000Y-5080000D02*
G75*
G02*
X31954000Y-5080000I-50000J0D01*
G01*
X31954000Y-5080000D02*
G75*
G02*
X32054000Y-5080000I50000J0D01*
G01*
X32054000Y-5334000D02*
G75*
G02*
X31954000Y-5334000I-50000J0D01*
G01*
X31954000Y-5334000D02*
G75*
G02*
X32054000Y-5334000I50000J0D01*
G01*
X32054000Y-5588000D02*
G75*
G02*
X31954000Y-5588000I-50000J0D01*
G01*
X31954000Y-5588000D02*
G75*
G02*
X32054000Y-5588000I50000J0D01*
G01*
X32054000Y-5842000D02*
G75*
G02*
X31954000Y-5842000I-50000J0D01*
G01*
X31954000Y-5842000D02*
G75*
G02*
X32054000Y-5842000I50000J0D01*
G01*
X32054000Y-8636000D02*
G75*
G02*
X31954000Y-8636000I-50000J0D01*
G01*
X31954000Y-8636000D02*
G75*
G02*
X32054000Y-8636000I50000J0D01*
G01*
X32054000Y-8890000D02*
G75*
G02*
X31954000Y-8890000I-50000J0D01*
G01*
X31954000Y-8890000D02*
G75*
G02*
X32054000Y-8890000I50000J0D01*
G01*
X32054000Y-9906000D02*
G75*
G02*
X31954000Y-9906000I-50000J0D01*
G01*
X31954000Y-9906000D02*
G75*
G02*
X32054000Y-9906000I50000J0D01*
G01*
X32054000Y-11684000D02*
G75*
G02*
X31954000Y-11684000I-50000J0D01*
G01*
X31954000Y-11684000D02*
G75*
G02*
X32054000Y-11684000I50000J0D01*
G01*
X32816000Y-8636000D02*
G75*
G02*
X32716000Y-8636000I-50000J0D01*
G01*
X32716000Y-8636000D02*
G75*
G02*
X32816000Y-8636000I50000J0D01*
G01*
X32816000Y-8890000D02*
G75*
G02*
X32716000Y-8890000I-50000J0D01*
G01*
X32716000Y-8890000D02*
G75*
G02*
X32816000Y-8890000I50000J0D01*
G01*
X32816000Y-9652000D02*
G75*
G02*
X32716000Y-9652000I-50000J0D01*
G01*
X32716000Y-9652000D02*
G75*
G02*
X32816000Y-9652000I50000J0D01*
G01*
X33070000Y-9906000D02*
G75*
G02*
X32970000Y-9906000I-50000J0D01*
G01*
X32970000Y-9906000D02*
G75*
G02*
X33070000Y-9906000I50000J0D01*
G01*
X33070000Y-11684000D02*
G75*
G02*
X32970000Y-11684000I-50000J0D01*
G01*
X32970000Y-11684000D02*
G75*
G02*
X33070000Y-11684000I50000J0D01*
G01*
X33324000Y-6858000D02*
G75*
G02*
X33224000Y-6858000I-50000J0D01*
G01*
X33224000Y-6858000D02*
G75*
G02*
X33324000Y-6858000I50000J0D01*
G01*
X33324000Y-7112000D02*
G75*
G02*
X33224000Y-7112000I-50000J0D01*
G01*
X33224000Y-7112000D02*
G75*
G02*
X33324000Y-7112000I50000J0D01*
G01*
X33324000Y-7366000D02*
G75*
G02*
X33224000Y-7366000I-50000J0D01*
G01*
X33224000Y-7366000D02*
G75*
G02*
X33324000Y-7366000I50000J0D01*
G01*
X33324000Y-9906000D02*
G75*
G02*
X33224000Y-9906000I-50000J0D01*
G01*
X33224000Y-9906000D02*
G75*
G02*
X33324000Y-9906000I50000J0D01*
G01*
X33324000Y-11684000D02*
G75*
G02*
X33224000Y-11684000I-50000J0D01*
G01*
X33224000Y-11684000D02*
G75*
G02*
X33324000Y-11684000I50000J0D01*
G01*
X33324000Y-14478000D02*
G75*
G02*
X33224000Y-14478000I-50000J0D01*
G01*
X33224000Y-14478000D02*
G75*
G02*
X33324000Y-14478000I50000J0D01*
G01*
X33324000Y-14732000D02*
G75*
G02*
X33224000Y-14732000I-50000J0D01*
G01*
X33224000Y-14732000D02*
G75*
G02*
X33324000Y-14732000I50000J0D01*
G01*
X33324000Y-14986000D02*
G75*
G02*
X33224000Y-14986000I-50000J0D01*
G01*
X33224000Y-14986000D02*
G75*
G02*
X33324000Y-14986000I50000J0D01*
G01*
X33578000Y-7366000D02*
G75*
G02*
X33478000Y-7366000I-50000J0D01*
G01*
X33478000Y-7366000D02*
G75*
G02*
X33578000Y-7366000I50000J0D01*
G01*
X33578000Y-7620000D02*
G75*
G02*
X33478000Y-7620000I-50000J0D01*
G01*
X33478000Y-7620000D02*
G75*
G02*
X33578000Y-7620000I50000J0D01*
G01*
X33578000Y-7874000D02*
G75*
G02*
X33478000Y-7874000I-50000J0D01*
G01*
X33478000Y-7874000D02*
G75*
G02*
X33578000Y-7874000I50000J0D01*
G01*
X33578000Y-8636000D02*
G75*
G02*
X33478000Y-8636000I-50000J0D01*
G01*
X33478000Y-8636000D02*
G75*
G02*
X33578000Y-8636000I50000J0D01*
G01*
X33578000Y-8890000D02*
G75*
G02*
X33478000Y-8890000I-50000J0D01*
G01*
X33478000Y-8890000D02*
G75*
G02*
X33578000Y-8890000I50000J0D01*
G01*
X33578000Y-9652000D02*
G75*
G02*
X33478000Y-9652000I-50000J0D01*
G01*
X33478000Y-9652000D02*
G75*
G02*
X33578000Y-9652000I50000J0D01*
G01*
X33578000Y-9906000D02*
G75*
G02*
X33478000Y-9906000I-50000J0D01*
G01*
X33478000Y-9906000D02*
G75*
G02*
X33578000Y-9906000I50000J0D01*
G01*
X33578000Y-11684000D02*
G75*
G02*
X33478000Y-11684000I-50000J0D01*
G01*
X33478000Y-11684000D02*
G75*
G02*
X33578000Y-11684000I50000J0D01*
G01*
X33578000Y-13970000D02*
G75*
G02*
X33478000Y-13970000I-50000J0D01*
G01*
X33478000Y-13970000D02*
G75*
G02*
X33578000Y-13970000I50000J0D01*
G01*
X33578000Y-14224000D02*
G75*
G02*
X33478000Y-14224000I-50000J0D01*
G01*
X33478000Y-14224000D02*
G75*
G02*
X33578000Y-14224000I50000J0D01*
G01*
X33578000Y-14478000D02*
G75*
G02*
X33478000Y-14478000I-50000J0D01*
G01*
X33478000Y-14478000D02*
G75*
G02*
X33578000Y-14478000I50000J0D01*
G01*
X33832000Y-6350000D02*
G75*
G02*
X33732000Y-6350000I-50000J0D01*
G01*
X33732000Y-6350000D02*
G75*
G02*
X33832000Y-6350000I50000J0D01*
G01*
X33832000Y-7112000D02*
G75*
G02*
X33732000Y-7112000I-50000J0D01*
G01*
X33732000Y-7112000D02*
G75*
G02*
X33832000Y-7112000I50000J0D01*
G01*
X33832000Y-9906000D02*
G75*
G02*
X33732000Y-9906000I-50000J0D01*
G01*
X33732000Y-9906000D02*
G75*
G02*
X33832000Y-9906000I50000J0D01*
G01*
X33832000Y-11684000D02*
G75*
G02*
X33732000Y-11684000I-50000J0D01*
G01*
X33732000Y-11684000D02*
G75*
G02*
X33832000Y-11684000I50000J0D01*
G01*
X33832000Y-13462000D02*
G75*
G02*
X33732000Y-13462000I-50000J0D01*
G01*
X33732000Y-13462000D02*
G75*
G02*
X33832000Y-13462000I50000J0D01*
G01*
X33832000Y-13716000D02*
G75*
G02*
X33732000Y-13716000I-50000J0D01*
G01*
X33732000Y-13716000D02*
G75*
G02*
X33832000Y-13716000I50000J0D01*
G01*
X33832000Y-13970000D02*
G75*
G02*
X33732000Y-13970000I-50000J0D01*
G01*
X33732000Y-13970000D02*
G75*
G02*
X33832000Y-13970000I50000J0D01*
G01*
X33832000Y-14732000D02*
G75*
G02*
X33732000Y-14732000I-50000J0D01*
G01*
X33732000Y-14732000D02*
G75*
G02*
X33832000Y-14732000I50000J0D01*
G01*
X33832000Y-15494000D02*
G75*
G02*
X33732000Y-15494000I-50000J0D01*
G01*
X33732000Y-15494000D02*
G75*
G02*
X33832000Y-15494000I50000J0D01*
G01*
X34086000Y-6858000D02*
G75*
G02*
X33986000Y-6858000I-50000J0D01*
G01*
X33986000Y-6858000D02*
G75*
G02*
X34086000Y-6858000I50000J0D01*
G01*
X34086000Y-7620000D02*
G75*
G02*
X33986000Y-7620000I-50000J0D01*
G01*
X33986000Y-7620000D02*
G75*
G02*
X34086000Y-7620000I50000J0D01*
G01*
X34086000Y-7874000D02*
G75*
G02*
X33986000Y-7874000I-50000J0D01*
G01*
X33986000Y-7874000D02*
G75*
G02*
X34086000Y-7874000I50000J0D01*
G01*
X34086000Y-8128000D02*
G75*
G02*
X33986000Y-8128000I-50000J0D01*
G01*
X33986000Y-8128000D02*
G75*
G02*
X34086000Y-8128000I50000J0D01*
G01*
X34086000Y-8382000D02*
G75*
G02*
X33986000Y-8382000I-50000J0D01*
G01*
X33986000Y-8382000D02*
G75*
G02*
X34086000Y-8382000I50000J0D01*
G01*
X34086000Y-9906000D02*
G75*
G02*
X33986000Y-9906000I-50000J0D01*
G01*
X33986000Y-9906000D02*
G75*
G02*
X34086000Y-9906000I50000J0D01*
G01*
X34086000Y-11684000D02*
G75*
G02*
X33986000Y-11684000I-50000J0D01*
G01*
X33986000Y-11684000D02*
G75*
G02*
X34086000Y-11684000I50000J0D01*
G01*
X34086000Y-12954000D02*
G75*
G02*
X33986000Y-12954000I-50000J0D01*
G01*
X33986000Y-12954000D02*
G75*
G02*
X34086000Y-12954000I50000J0D01*
G01*
X34086000Y-13208000D02*
G75*
G02*
X33986000Y-13208000I-50000J0D01*
G01*
X33986000Y-13208000D02*
G75*
G02*
X34086000Y-13208000I50000J0D01*
G01*
X34086000Y-13462000D02*
G75*
G02*
X33986000Y-13462000I-50000J0D01*
G01*
X33986000Y-13462000D02*
G75*
G02*
X34086000Y-13462000I50000J0D01*
G01*
X34086000Y-14224000D02*
G75*
G02*
X33986000Y-14224000I-50000J0D01*
G01*
X33986000Y-14224000D02*
G75*
G02*
X34086000Y-14224000I50000J0D01*
G01*
X34086000Y-14986000D02*
G75*
G02*
X33986000Y-14986000I-50000J0D01*
G01*
X33986000Y-14986000D02*
G75*
G02*
X34086000Y-14986000I50000J0D01*
G01*
X34340000Y-8382000D02*
G75*
G02*
X34240000Y-8382000I-50000J0D01*
G01*
X34240000Y-8382000D02*
G75*
G02*
X34340000Y-8382000I50000J0D01*
G01*
X34340000Y-8636000D02*
G75*
G02*
X34240000Y-8636000I-50000J0D01*
G01*
X34240000Y-8636000D02*
G75*
G02*
X34340000Y-8636000I50000J0D01*
G01*
X34340000Y-8890000D02*
G75*
G02*
X34240000Y-8890000I-50000J0D01*
G01*
X34240000Y-8890000D02*
G75*
G02*
X34340000Y-8890000I50000J0D01*
G01*
X34340000Y-9906000D02*
G75*
G02*
X34240000Y-9906000I-50000J0D01*
G01*
X34240000Y-9906000D02*
G75*
G02*
X34340000Y-9906000I50000J0D01*
G01*
X34340000Y-11684000D02*
G75*
G02*
X34240000Y-11684000I-50000J0D01*
G01*
X34240000Y-11684000D02*
G75*
G02*
X34340000Y-11684000I50000J0D01*
G01*
X34340000Y-12446000D02*
G75*
G02*
X34240000Y-12446000I-50000J0D01*
G01*
X34240000Y-12446000D02*
G75*
G02*
X34340000Y-12446000I50000J0D01*
G01*
X34340000Y-12700000D02*
G75*
G02*
X34240000Y-12700000I-50000J0D01*
G01*
X34240000Y-12700000D02*
G75*
G02*
X34340000Y-12700000I50000J0D01*
G01*
X34340000Y-12954000D02*
G75*
G02*
X34240000Y-12954000I-50000J0D01*
G01*
X34240000Y-12954000D02*
G75*
G02*
X34340000Y-12954000I50000J0D01*
G01*
X34340000Y-13716000D02*
G75*
G02*
X34240000Y-13716000I-50000J0D01*
G01*
X34240000Y-13716000D02*
G75*
G02*
X34340000Y-13716000I50000J0D01*
G01*
X34340000Y-14478000D02*
G75*
G02*
X34240000Y-14478000I-50000J0D01*
G01*
X34240000Y-14478000D02*
G75*
G02*
X34340000Y-14478000I50000J0D01*
G01*
X34594000Y-7366000D02*
G75*
G02*
X34494000Y-7366000I-50000J0D01*
G01*
X34494000Y-7366000D02*
G75*
G02*
X34594000Y-7366000I50000J0D01*
G01*
X34594000Y-8128000D02*
G75*
G02*
X34494000Y-8128000I-50000J0D01*
G01*
X34494000Y-8128000D02*
G75*
G02*
X34594000Y-8128000I50000J0D01*
G01*
X34594000Y-8890000D02*
G75*
G02*
X34494000Y-8890000I-50000J0D01*
G01*
X34494000Y-8890000D02*
G75*
G02*
X34594000Y-8890000I50000J0D01*
G01*
X34594000Y-9144000D02*
G75*
G02*
X34494000Y-9144000I-50000J0D01*
G01*
X34494000Y-9144000D02*
G75*
G02*
X34594000Y-9144000I50000J0D01*
G01*
X34594000Y-9398000D02*
G75*
G02*
X34494000Y-9398000I-50000J0D01*
G01*
X34494000Y-9398000D02*
G75*
G02*
X34594000Y-9398000I50000J0D01*
G01*
X34594000Y-9906000D02*
G75*
G02*
X34494000Y-9906000I-50000J0D01*
G01*
X34494000Y-9906000D02*
G75*
G02*
X34594000Y-9906000I50000J0D01*
G01*
X34594000Y-11684000D02*
G75*
G02*
X34494000Y-11684000I-50000J0D01*
G01*
X34494000Y-11684000D02*
G75*
G02*
X34594000Y-11684000I50000J0D01*
G01*
X34594000Y-11938000D02*
G75*
G02*
X34494000Y-11938000I-50000J0D01*
G01*
X34494000Y-11938000D02*
G75*
G02*
X34594000Y-11938000I50000J0D01*
G01*
X34594000Y-12192000D02*
G75*
G02*
X34494000Y-12192000I-50000J0D01*
G01*
X34494000Y-12192000D02*
G75*
G02*
X34594000Y-12192000I50000J0D01*
G01*
X34594000Y-12446000D02*
G75*
G02*
X34494000Y-12446000I-50000J0D01*
G01*
X34494000Y-12446000D02*
G75*
G02*
X34594000Y-12446000I50000J0D01*
G01*
X34594000Y-13208000D02*
G75*
G02*
X34494000Y-13208000I-50000J0D01*
G01*
X34494000Y-13208000D02*
G75*
G02*
X34594000Y-13208000I50000J0D01*
G01*
X34594000Y-13970000D02*
G75*
G02*
X34494000Y-13970000I-50000J0D01*
G01*
X34494000Y-13970000D02*
G75*
G02*
X34594000Y-13970000I50000J0D01*
G01*
X34594000Y-15240000D02*
G75*
G02*
X34494000Y-15240000I-50000J0D01*
G01*
X34494000Y-15240000D02*
G75*
G02*
X34594000Y-15240000I50000J0D01*
G01*
X34594000Y-16002000D02*
G75*
G02*
X34494000Y-16002000I-50000J0D01*
G01*
X34494000Y-16002000D02*
G75*
G02*
X34594000Y-16002000I50000J0D01*
G01*
X34848000Y-7874000D02*
G75*
G02*
X34748000Y-7874000I-50000J0D01*
G01*
X34748000Y-7874000D02*
G75*
G02*
X34848000Y-7874000I50000J0D01*
G01*
X34848000Y-8636000D02*
G75*
G02*
X34748000Y-8636000I-50000J0D01*
G01*
X34748000Y-8636000D02*
G75*
G02*
X34848000Y-8636000I50000J0D01*
G01*
X34848000Y-12700000D02*
G75*
G02*
X34748000Y-12700000I-50000J0D01*
G01*
X34748000Y-12700000D02*
G75*
G02*
X34848000Y-12700000I50000J0D01*
G01*
X34848000Y-13462000D02*
G75*
G02*
X34748000Y-13462000I-50000J0D01*
G01*
X34748000Y-13462000D02*
G75*
G02*
X34848000Y-13462000I50000J0D01*
G01*
X34848000Y-15240000D02*
G75*
G02*
X34748000Y-15240000I-50000J0D01*
G01*
X34748000Y-15240000D02*
G75*
G02*
X34848000Y-15240000I50000J0D01*
G01*
X34848000Y-16002000D02*
G75*
G02*
X34748000Y-16002000I-50000J0D01*
G01*
X34748000Y-16002000D02*
G75*
G02*
X34848000Y-16002000I50000J0D01*
G01*
X35102000Y-8382000D02*
G75*
G02*
X35002000Y-8382000I-50000J0D01*
G01*
X35002000Y-8382000D02*
G75*
G02*
X35102000Y-8382000I50000J0D01*
G01*
X35102000Y-9144000D02*
G75*
G02*
X35002000Y-9144000I-50000J0D01*
G01*
X35002000Y-9144000D02*
G75*
G02*
X35102000Y-9144000I50000J0D01*
G01*
X35102000Y-12192000D02*
G75*
G02*
X35002000Y-12192000I-50000J0D01*
G01*
X35002000Y-12192000D02*
G75*
G02*
X35102000Y-12192000I50000J0D01*
G01*
X35102000Y-12954000D02*
G75*
G02*
X35002000Y-12954000I-50000J0D01*
G01*
X35002000Y-12954000D02*
G75*
G02*
X35102000Y-12954000I50000J0D01*
G01*
X35102000Y-15240000D02*
G75*
G02*
X35002000Y-15240000I-50000J0D01*
G01*
X35002000Y-15240000D02*
G75*
G02*
X35102000Y-15240000I50000J0D01*
G01*
X35102000Y-16002000D02*
G75*
G02*
X35002000Y-16002000I-50000J0D01*
G01*
X35002000Y-16002000D02*
G75*
G02*
X35102000Y-16002000I50000J0D01*
G01*
X35356000Y-15240000D02*
G75*
G02*
X35256000Y-15240000I-50000J0D01*
G01*
X35256000Y-15240000D02*
G75*
G02*
X35356000Y-15240000I50000J0D01*
G01*
X35356000Y-16002000D02*
G75*
G02*
X35256000Y-16002000I-50000J0D01*
G01*
X35256000Y-16002000D02*
G75*
G02*
X35356000Y-16002000I50000J0D01*
G01*
X35610000Y-15240000D02*
G75*
G02*
X35510000Y-15240000I-50000J0D01*
G01*
X35510000Y-15240000D02*
G75*
G02*
X35610000Y-15240000I50000J0D01*
G01*
X35610000Y-16002000D02*
G75*
G02*
X35510000Y-16002000I-50000J0D01*
G01*
X35510000Y-16002000D02*
G75*
G02*
X35610000Y-16002000I50000J0D01*
G01*
X35864000Y-8382000D02*
G75*
G02*
X35764000Y-8382000I-50000J0D01*
G01*
X35764000Y-8382000D02*
G75*
G02*
X35864000Y-8382000I50000J0D01*
G01*
X35864000Y-9144000D02*
G75*
G02*
X35764000Y-9144000I-50000J0D01*
G01*
X35764000Y-9144000D02*
G75*
G02*
X35864000Y-9144000I50000J0D01*
G01*
X35864000Y-15240000D02*
G75*
G02*
X35764000Y-15240000I-50000J0D01*
G01*
X35764000Y-15240000D02*
G75*
G02*
X35864000Y-15240000I50000J0D01*
G01*
X35864000Y-16002000D02*
G75*
G02*
X35764000Y-16002000I-50000J0D01*
G01*
X35764000Y-16002000D02*
G75*
G02*
X35864000Y-16002000I50000J0D01*
G01*
X36118000Y-15240000D02*
G75*
G02*
X36018000Y-15240000I-50000J0D01*
G01*
X36018000Y-15240000D02*
G75*
G02*
X36118000Y-15240000I50000J0D01*
G01*
X36118000Y-16002000D02*
G75*
G02*
X36018000Y-16002000I-50000J0D01*
G01*
X36018000Y-16002000D02*
G75*
G02*
X36118000Y-16002000I50000J0D01*
G01*
X36372000Y-15240000D02*
G75*
G02*
X36272000Y-15240000I-50000J0D01*
G01*
X36272000Y-15240000D02*
G75*
G02*
X36372000Y-15240000I50000J0D01*
G01*
X36372000Y-16002000D02*
G75*
G02*
X36272000Y-16002000I-50000J0D01*
G01*
X36272000Y-16002000D02*
G75*
G02*
X36372000Y-16002000I50000J0D01*
G01*
X36372000Y-16256000D02*
G75*
G02*
X36272000Y-16256000I-50000J0D01*
G01*
X36272000Y-16256000D02*
G75*
G02*
X36372000Y-16256000I50000J0D01*
G01*
X36626000Y-15240000D02*
G75*
G02*
X36526000Y-15240000I-50000J0D01*
G01*
X36526000Y-15240000D02*
G75*
G02*
X36626000Y-15240000I50000J0D01*
G01*
X36626000Y-16002000D02*
G75*
G02*
X36526000Y-16002000I-50000J0D01*
G01*
X36526000Y-16002000D02*
G75*
G02*
X36626000Y-16002000I50000J0D01*
G01*
D12*
X5588000Y-13770000D02*
X5588000Y-13920000D01*
X5513000Y-13845000D02*
X5663000Y-13845000D01*
X5588000Y-14470000D02*
X5588000Y-14620000D01*
X5513000Y-14545000D02*
X5663000Y-14545000D01*
X5588000Y-15040000D02*
X5588000Y-15190000D01*
X5513000Y-15115000D02*
X5663000Y-15115000D01*
X5588000Y-15740000D02*
X5588000Y-15890000D01*
X5513000Y-15815000D02*
X5663000Y-15815000D01*
X5588000Y-16310000D02*
X5588000Y-16460000D01*
X5513000Y-16385000D02*
X5663000Y-16385000D01*
X5588000Y-17010000D02*
X5588000Y-17160000D01*
X5513000Y-17085000D02*
X5663000Y-17085000D01*
D13*
X5818389Y-11772389D02*
X5818389Y-11595611D01*
X5641611Y-11595611D01*
X5641611Y-11772389D01*
X5818389Y-11772389D01*
X6118389Y-12272389D02*
X6118389Y-12095611D01*
X5941611Y-12095611D01*
X5941611Y-12272389D01*
X6118389Y-12272389D01*
X6438389Y-11772389D02*
X6438389Y-11595611D01*
X6261611Y-11595611D01*
X6261611Y-11772389D01*
X6438389Y-11772389D01*
D10*
X5330777Y-18355484D02*
X5330777Y-18155484D01*
X5330777Y-18155484D02*
X5378396Y-18155484D01*
X5378396Y-18155484D02*
X5406967Y-18165008D01*
X5406967Y-18165008D02*
X5426015Y-18184055D01*
X5426015Y-18184055D02*
X5435539Y-18203103D01*
X5435539Y-18203103D02*
X5445063Y-18241198D01*
X5445063Y-18241198D02*
X5445063Y-18269770D01*
X5445063Y-18269770D02*
X5435539Y-18307865D01*
X5435539Y-18307865D02*
X5426015Y-18326912D01*
X5426015Y-18326912D02*
X5406967Y-18345960D01*
X5406967Y-18345960D02*
X5378396Y-18355484D01*
X5378396Y-18355484D02*
X5330777Y-18355484D01*
X5530777Y-18355484D02*
X5530777Y-18222150D01*
X5530777Y-18260246D02*
X5540301Y-18241198D01*
X5540301Y-18241198D02*
X5549824Y-18231674D01*
X5549824Y-18231674D02*
X5568872Y-18222150D01*
X5568872Y-18222150D02*
X5587920Y-18222150D01*
X5654586Y-18355484D02*
X5654586Y-18222150D01*
X5654586Y-18155484D02*
X5645062Y-18165008D01*
X5645062Y-18165008D02*
X5654586Y-18174531D01*
X5654586Y-18174531D02*
X5664110Y-18165008D01*
X5664110Y-18165008D02*
X5654586Y-18155484D01*
X5654586Y-18155484D02*
X5654586Y-18174531D01*
X5778396Y-18355484D02*
X5759348Y-18345960D01*
X5759348Y-18345960D02*
X5749824Y-18326912D01*
X5749824Y-18326912D02*
X5749824Y-18155484D01*
X5883158Y-18355484D02*
X5864110Y-18345960D01*
X5864110Y-18345960D02*
X5854586Y-18326912D01*
X5854586Y-18326912D02*
X5854586Y-18155484D01*
X6111729Y-18355484D02*
X6111729Y-18155484D01*
X6111729Y-18155484D02*
X6178396Y-18298341D01*
X6178396Y-18298341D02*
X6245062Y-18155484D01*
X6245062Y-18155484D02*
X6245062Y-18355484D01*
X6426015Y-18355484D02*
X6426015Y-18250722D01*
X6426015Y-18250722D02*
X6416491Y-18231674D01*
X6416491Y-18231674D02*
X6397443Y-18222150D01*
X6397443Y-18222150D02*
X6359348Y-18222150D01*
X6359348Y-18222150D02*
X6340301Y-18231674D01*
X6426015Y-18345960D02*
X6406967Y-18355484D01*
X6406967Y-18355484D02*
X6359348Y-18355484D01*
X6359348Y-18355484D02*
X6340301Y-18345960D01*
X6340301Y-18345960D02*
X6330777Y-18326912D01*
X6330777Y-18326912D02*
X6330777Y-18307865D01*
X6330777Y-18307865D02*
X6340301Y-18288817D01*
X6340301Y-18288817D02*
X6359348Y-18279293D01*
X6359348Y-18279293D02*
X6406967Y-18279293D01*
X6406967Y-18279293D02*
X6426015Y-18269770D01*
X6521253Y-18222150D02*
X6521253Y-18422150D01*
X6521253Y-18231674D02*
X6540301Y-18222150D01*
X6540301Y-18222150D02*
X6578396Y-18222150D01*
X6578396Y-18222150D02*
X6597443Y-18231674D01*
X6597443Y-18231674D02*
X6606967Y-18241198D01*
X6606967Y-18241198D02*
X6616491Y-18260246D01*
X6616491Y-18260246D02*
X6616491Y-18317389D01*
X6616491Y-18317389D02*
X6606967Y-18336436D01*
X6606967Y-18336436D02*
X6597443Y-18345960D01*
X6597443Y-18345960D02*
X6578396Y-18355484D01*
X6578396Y-18355484D02*
X6540301Y-18355484D01*
X6540301Y-18355484D02*
X6521253Y-18345960D01*
X6702205Y-18336436D02*
X6711729Y-18345960D01*
X6711729Y-18345960D02*
X6702205Y-18355484D01*
X6702205Y-18355484D02*
X6692682Y-18345960D01*
X6692682Y-18345960D02*
X6702205Y-18336436D01*
X6702205Y-18336436D02*
X6702205Y-18355484D01*
X6702205Y-18231674D02*
X6711729Y-18241198D01*
X6711729Y-18241198D02*
X6702205Y-18250722D01*
X6702205Y-18250722D02*
X6692682Y-18241198D01*
X6692682Y-18241198D02*
X6702205Y-18231674D01*
X6702205Y-18231674D02*
X6702205Y-18250722D01*
D11*
X5030000Y-18664000D02*
X5070000Y-18704000D01*
X5070000Y-18664000D02*
X5030000Y-18704000D01*
D10*
X5368872Y-18575484D02*
X5387920Y-18575484D01*
X5387920Y-18575484D02*
X5406967Y-18585008D01*
X5406967Y-18585008D02*
X5416491Y-18594531D01*
X5416491Y-18594531D02*
X5426015Y-18613579D01*
X5426015Y-18613579D02*
X5435539Y-18651674D01*
X5435539Y-18651674D02*
X5435539Y-18699293D01*
X5435539Y-18699293D02*
X5426015Y-18737389D01*
X5426015Y-18737389D02*
X5416491Y-18756436D01*
X5416491Y-18756436D02*
X5406967Y-18765960D01*
X5406967Y-18765960D02*
X5387920Y-18775484D01*
X5387920Y-18775484D02*
X5368872Y-18775484D01*
X5368872Y-18775484D02*
X5349824Y-18765960D01*
X5349824Y-18765960D02*
X5340301Y-18756436D01*
X5340301Y-18756436D02*
X5330777Y-18737389D01*
X5330777Y-18737389D02*
X5321253Y-18699293D01*
X5321253Y-18699293D02*
X5321253Y-18651674D01*
X5321253Y-18651674D02*
X5330777Y-18613579D01*
X5330777Y-18613579D02*
X5340301Y-18594531D01*
X5340301Y-18594531D02*
X5349824Y-18585008D01*
X5349824Y-18585008D02*
X5368872Y-18575484D01*
X5521253Y-18756436D02*
X5530777Y-18765960D01*
X5530777Y-18765960D02*
X5521253Y-18775484D01*
X5521253Y-18775484D02*
X5511729Y-18765960D01*
X5511729Y-18765960D02*
X5521253Y-18756436D01*
X5521253Y-18756436D02*
X5521253Y-18775484D01*
X5702205Y-18642150D02*
X5702205Y-18775484D01*
X5654586Y-18565960D02*
X5606967Y-18708817D01*
X5606967Y-18708817D02*
X5730777Y-18708817D01*
X5845062Y-18575484D02*
X5864110Y-18575484D01*
X5864110Y-18575484D02*
X5883158Y-18585008D01*
X5883158Y-18585008D02*
X5892682Y-18594531D01*
X5892682Y-18594531D02*
X5902205Y-18613579D01*
X5902205Y-18613579D02*
X5911729Y-18651674D01*
X5911729Y-18651674D02*
X5911729Y-18699293D01*
X5911729Y-18699293D02*
X5902205Y-18737389D01*
X5902205Y-18737389D02*
X5892682Y-18756436D01*
X5892682Y-18756436D02*
X5883158Y-18765960D01*
X5883158Y-18765960D02*
X5864110Y-18775484D01*
X5864110Y-18775484D02*
X5845062Y-18775484D01*
X5845062Y-18775484D02*
X5826015Y-18765960D01*
X5826015Y-18765960D02*
X5816491Y-18756436D01*
X5816491Y-18756436D02*
X5806967Y-18737389D01*
X5806967Y-18737389D02*
X5797443Y-18699293D01*
X5797443Y-18699293D02*
X5797443Y-18651674D01*
X5797443Y-18651674D02*
X5806967Y-18613579D01*
X5806967Y-18613579D02*
X5816491Y-18594531D01*
X5816491Y-18594531D02*
X5826015Y-18585008D01*
X5826015Y-18585008D02*
X5845062Y-18575484D01*
X6035539Y-18575484D02*
X6054586Y-18575484D01*
X6054586Y-18575484D02*
X6073634Y-18585008D01*
X6073634Y-18585008D02*
X6083158Y-18594531D01*
X6083158Y-18594531D02*
X6092682Y-18613579D01*
X6092682Y-18613579D02*
X6102205Y-18651674D01*
X6102205Y-18651674D02*
X6102205Y-18699293D01*
X6102205Y-18699293D02*
X6092682Y-18737389D01*
X6092682Y-18737389D02*
X6083158Y-18756436D01*
X6083158Y-18756436D02*
X6073634Y-18765960D01*
X6073634Y-18765960D02*
X6054586Y-18775484D01*
X6054586Y-18775484D02*
X6035539Y-18775484D01*
X6035539Y-18775484D02*
X6016491Y-18765960D01*
X6016491Y-18765960D02*
X6006967Y-18756436D01*
X6006967Y-18756436D02*
X5997443Y-18737389D01*
X5997443Y-18737389D02*
X5987920Y-18699293D01*
X5987920Y-18699293D02*
X5987920Y-18651674D01*
X5987920Y-18651674D02*
X5997443Y-18613579D01*
X5997443Y-18613579D02*
X6006967Y-18594531D01*
X6006967Y-18594531D02*
X6016491Y-18585008D01*
X6016491Y-18585008D02*
X6035539Y-18575484D01*
X6187920Y-18775484D02*
X6187920Y-18642150D01*
X6187920Y-18661198D02*
X6197443Y-18651674D01*
X6197443Y-18651674D02*
X6216491Y-18642150D01*
X6216491Y-18642150D02*
X6245063Y-18642150D01*
X6245063Y-18642150D02*
X6264110Y-18651674D01*
X6264110Y-18651674D02*
X6273634Y-18670722D01*
X6273634Y-18670722D02*
X6273634Y-18775484D01*
X6273634Y-18670722D02*
X6283158Y-18651674D01*
X6283158Y-18651674D02*
X6302205Y-18642150D01*
X6302205Y-18642150D02*
X6330777Y-18642150D01*
X6330777Y-18642150D02*
X6349824Y-18651674D01*
X6349824Y-18651674D02*
X6359348Y-18670722D01*
X6359348Y-18670722D02*
X6359348Y-18775484D01*
X6454586Y-18775484D02*
X6454586Y-18642150D01*
X6454586Y-18661198D02*
X6464110Y-18651674D01*
X6464110Y-18651674D02*
X6483158Y-18642150D01*
X6483158Y-18642150D02*
X6511729Y-18642150D01*
X6511729Y-18642150D02*
X6530777Y-18651674D01*
X6530777Y-18651674D02*
X6540301Y-18670722D01*
X6540301Y-18670722D02*
X6540301Y-18775484D01*
X6540301Y-18670722D02*
X6549824Y-18651674D01*
X6549824Y-18651674D02*
X6568872Y-18642150D01*
X6568872Y-18642150D02*
X6597443Y-18642150D01*
X6597443Y-18642150D02*
X6616491Y-18651674D01*
X6616491Y-18651674D02*
X6626015Y-18670722D01*
X6626015Y-18670722D02*
X6626015Y-18775484D01*
X7016491Y-18565960D02*
X6845063Y-18823103D01*
X7273634Y-18575484D02*
X7292682Y-18575484D01*
X7292682Y-18575484D02*
X7311729Y-18585008D01*
X7311729Y-18585008D02*
X7321253Y-18594531D01*
X7321253Y-18594531D02*
X7330777Y-18613579D01*
X7330777Y-18613579D02*
X7340301Y-18651674D01*
X7340301Y-18651674D02*
X7340301Y-18699293D01*
X7340301Y-18699293D02*
X7330777Y-18737389D01*
X7330777Y-18737389D02*
X7321253Y-18756436D01*
X7321253Y-18756436D02*
X7311729Y-18765960D01*
X7311729Y-18765960D02*
X7292682Y-18775484D01*
X7292682Y-18775484D02*
X7273634Y-18775484D01*
X7273634Y-18775484D02*
X7254586Y-18765960D01*
X7254586Y-18765960D02*
X7245063Y-18756436D01*
X7245063Y-18756436D02*
X7235539Y-18737389D01*
X7235539Y-18737389D02*
X7226015Y-18699293D01*
X7226015Y-18699293D02*
X7226015Y-18651674D01*
X7226015Y-18651674D02*
X7235539Y-18613579D01*
X7235539Y-18613579D02*
X7245063Y-18594531D01*
X7245063Y-18594531D02*
X7254586Y-18585008D01*
X7254586Y-18585008D02*
X7273634Y-18575484D01*
X7426015Y-18756436D02*
X7435539Y-18765960D01*
X7435539Y-18765960D02*
X7426015Y-18775484D01*
X7426015Y-18775484D02*
X7416491Y-18765960D01*
X7416491Y-18765960D02*
X7426015Y-18756436D01*
X7426015Y-18756436D02*
X7426015Y-18775484D01*
X7559348Y-18575484D02*
X7578396Y-18575484D01*
X7578396Y-18575484D02*
X7597444Y-18585008D01*
X7597444Y-18585008D02*
X7606967Y-18594531D01*
X7606967Y-18594531D02*
X7616491Y-18613579D01*
X7616491Y-18613579D02*
X7626015Y-18651674D01*
X7626015Y-18651674D02*
X7626015Y-18699293D01*
X7626015Y-18699293D02*
X7616491Y-18737389D01*
X7616491Y-18737389D02*
X7606967Y-18756436D01*
X7606967Y-18756436D02*
X7597444Y-18765960D01*
X7597444Y-18765960D02*
X7578396Y-18775484D01*
X7578396Y-18775484D02*
X7559348Y-18775484D01*
X7559348Y-18775484D02*
X7540301Y-18765960D01*
X7540301Y-18765960D02*
X7530777Y-18756436D01*
X7530777Y-18756436D02*
X7521253Y-18737389D01*
X7521253Y-18737389D02*
X7511729Y-18699293D01*
X7511729Y-18699293D02*
X7511729Y-18651674D01*
X7511729Y-18651674D02*
X7521253Y-18613579D01*
X7521253Y-18613579D02*
X7530777Y-18594531D01*
X7530777Y-18594531D02*
X7540301Y-18585008D01*
X7540301Y-18585008D02*
X7559348Y-18575484D01*
X7816491Y-18775484D02*
X7702206Y-18775484D01*
X7759348Y-18775484D02*
X7759348Y-18575484D01*
X7759348Y-18575484D02*
X7740301Y-18604055D01*
X7740301Y-18604055D02*
X7721253Y-18623103D01*
X7721253Y-18623103D02*
X7702206Y-18632627D01*
X7997444Y-18575484D02*
X7902206Y-18575484D01*
X7902206Y-18575484D02*
X7892682Y-18670722D01*
X7892682Y-18670722D02*
X7902206Y-18661198D01*
X7902206Y-18661198D02*
X7921253Y-18651674D01*
X7921253Y-18651674D02*
X7968872Y-18651674D01*
X7968872Y-18651674D02*
X7987920Y-18661198D01*
X7987920Y-18661198D02*
X7997444Y-18670722D01*
X7997444Y-18670722D02*
X8006967Y-18689770D01*
X8006967Y-18689770D02*
X8006967Y-18737389D01*
X8006967Y-18737389D02*
X7997444Y-18756436D01*
X7997444Y-18756436D02*
X7987920Y-18765960D01*
X7987920Y-18765960D02*
X7968872Y-18775484D01*
X7968872Y-18775484D02*
X7921253Y-18775484D01*
X7921253Y-18775484D02*
X7902206Y-18765960D01*
X7902206Y-18765960D02*
X7892682Y-18756436D01*
X8073634Y-18575484D02*
X8206967Y-18575484D01*
X8206967Y-18575484D02*
X8121253Y-18775484D01*
X8273634Y-18575484D02*
X8273634Y-18613579D01*
X8349825Y-18575484D02*
X8349825Y-18613579D01*
X8645063Y-18851674D02*
X8635539Y-18842150D01*
X8635539Y-18842150D02*
X8616491Y-18813579D01*
X8616491Y-18813579D02*
X8606968Y-18794531D01*
X8606968Y-18794531D02*
X8597444Y-18765960D01*
X8597444Y-18765960D02*
X8587920Y-18718341D01*
X8587920Y-18718341D02*
X8587920Y-18680246D01*
X8587920Y-18680246D02*
X8597444Y-18632627D01*
X8597444Y-18632627D02*
X8606968Y-18604055D01*
X8606968Y-18604055D02*
X8616491Y-18585008D01*
X8616491Y-18585008D02*
X8635539Y-18556436D01*
X8635539Y-18556436D02*
X8645063Y-18546912D01*
X8806968Y-18642150D02*
X8806968Y-18775484D01*
X8759349Y-18565960D02*
X8711730Y-18708817D01*
X8711730Y-18708817D02*
X8835539Y-18708817D01*
X9006968Y-18575484D02*
X8911730Y-18575484D01*
X8911730Y-18575484D02*
X8902206Y-18670722D01*
X8902206Y-18670722D02*
X8911730Y-18661198D01*
X8911730Y-18661198D02*
X8930777Y-18651674D01*
X8930777Y-18651674D02*
X8978396Y-18651674D01*
X8978396Y-18651674D02*
X8997444Y-18661198D01*
X8997444Y-18661198D02*
X9006968Y-18670722D01*
X9006968Y-18670722D02*
X9016491Y-18689770D01*
X9016491Y-18689770D02*
X9016491Y-18737389D01*
X9016491Y-18737389D02*
X9006968Y-18756436D01*
X9006968Y-18756436D02*
X8997444Y-18765960D01*
X8997444Y-18765960D02*
X8978396Y-18775484D01*
X8978396Y-18775484D02*
X8930777Y-18775484D01*
X8930777Y-18775484D02*
X8911730Y-18765960D01*
X8911730Y-18765960D02*
X8902206Y-18756436D01*
X9254587Y-18775484D02*
X9254587Y-18575484D01*
X9340301Y-18775484D02*
X9340301Y-18670722D01*
X9340301Y-18670722D02*
X9330777Y-18651674D01*
X9330777Y-18651674D02*
X9311730Y-18642150D01*
X9311730Y-18642150D02*
X9283158Y-18642150D01*
X9283158Y-18642150D02*
X9264111Y-18651674D01*
X9264111Y-18651674D02*
X9254587Y-18661198D01*
X9464111Y-18775484D02*
X9445063Y-18765960D01*
X9445063Y-18765960D02*
X9435539Y-18756436D01*
X9435539Y-18756436D02*
X9426015Y-18737389D01*
X9426015Y-18737389D02*
X9426015Y-18680246D01*
X9426015Y-18680246D02*
X9435539Y-18661198D01*
X9435539Y-18661198D02*
X9445063Y-18651674D01*
X9445063Y-18651674D02*
X9464111Y-18642150D01*
X9464111Y-18642150D02*
X9492682Y-18642150D01*
X9492682Y-18642150D02*
X9511730Y-18651674D01*
X9511730Y-18651674D02*
X9521253Y-18661198D01*
X9521253Y-18661198D02*
X9530777Y-18680246D01*
X9530777Y-18680246D02*
X9530777Y-18737389D01*
X9530777Y-18737389D02*
X9521253Y-18756436D01*
X9521253Y-18756436D02*
X9511730Y-18765960D01*
X9511730Y-18765960D02*
X9492682Y-18775484D01*
X9492682Y-18775484D02*
X9464111Y-18775484D01*
X9645063Y-18775484D02*
X9626015Y-18765960D01*
X9626015Y-18765960D02*
X9616492Y-18746912D01*
X9616492Y-18746912D02*
X9616492Y-18575484D01*
X9797444Y-18765960D02*
X9778396Y-18775484D01*
X9778396Y-18775484D02*
X9740301Y-18775484D01*
X9740301Y-18775484D02*
X9721253Y-18765960D01*
X9721253Y-18765960D02*
X9711730Y-18746912D01*
X9711730Y-18746912D02*
X9711730Y-18670722D01*
X9711730Y-18670722D02*
X9721253Y-18651674D01*
X9721253Y-18651674D02*
X9740301Y-18642150D01*
X9740301Y-18642150D02*
X9778396Y-18642150D01*
X9778396Y-18642150D02*
X9797444Y-18651674D01*
X9797444Y-18651674D02*
X9806968Y-18670722D01*
X9806968Y-18670722D02*
X9806968Y-18689770D01*
X9806968Y-18689770D02*
X9711730Y-18708817D01*
X9883158Y-18765960D02*
X9902206Y-18775484D01*
X9902206Y-18775484D02*
X9940301Y-18775484D01*
X9940301Y-18775484D02*
X9959349Y-18765960D01*
X9959349Y-18765960D02*
X9968873Y-18746912D01*
X9968873Y-18746912D02*
X9968873Y-18737389D01*
X9968873Y-18737389D02*
X9959349Y-18718341D01*
X9959349Y-18718341D02*
X9940301Y-18708817D01*
X9940301Y-18708817D02*
X9911730Y-18708817D01*
X9911730Y-18708817D02*
X9892682Y-18699293D01*
X9892682Y-18699293D02*
X9883158Y-18680246D01*
X9883158Y-18680246D02*
X9883158Y-18670722D01*
X9883158Y-18670722D02*
X9892682Y-18651674D01*
X9892682Y-18651674D02*
X9911730Y-18642150D01*
X9911730Y-18642150D02*
X9940301Y-18642150D01*
X9940301Y-18642150D02*
X9959349Y-18651674D01*
X10035539Y-18851674D02*
X10045063Y-18842150D01*
X10045063Y-18842150D02*
X10064111Y-18813579D01*
X10064111Y-18813579D02*
X10073634Y-18794531D01*
X10073634Y-18794531D02*
X10083158Y-18765960D01*
X10083158Y-18765960D02*
X10092682Y-18718341D01*
X10092682Y-18718341D02*
X10092682Y-18680246D01*
X10092682Y-18680246D02*
X10083158Y-18632627D01*
X10083158Y-18632627D02*
X10073634Y-18604055D01*
X10073634Y-18604055D02*
X10064111Y-18585008D01*
X10064111Y-18585008D02*
X10045063Y-18556436D01*
X10045063Y-18556436D02*
X10035539Y-18546912D01*
D11*
X5070000Y-18948000D02*
G75*
G02*
X4970000Y-18948000I-50000J0D01*
G01*
X4970000Y-18948000D02*
G75*
G02*
X5070000Y-18948000I50000J0D01*
G01*
D10*
X5435539Y-19039484D02*
X5321253Y-19039484D01*
X5378396Y-19039484D02*
X5378396Y-18839484D01*
X5378396Y-18839484D02*
X5359348Y-18868055D01*
X5359348Y-18868055D02*
X5340301Y-18887103D01*
X5340301Y-18887103D02*
X5321253Y-18896627D01*
X5521253Y-19020436D02*
X5530777Y-19029960D01*
X5530777Y-19029960D02*
X5521253Y-19039484D01*
X5521253Y-19039484D02*
X5511729Y-19029960D01*
X5511729Y-19029960D02*
X5521253Y-19020436D01*
X5521253Y-19020436D02*
X5521253Y-19039484D01*
X5654586Y-18839484D02*
X5673634Y-18839484D01*
X5673634Y-18839484D02*
X5692682Y-18849008D01*
X5692682Y-18849008D02*
X5702205Y-18858531D01*
X5702205Y-18858531D02*
X5711729Y-18877579D01*
X5711729Y-18877579D02*
X5721253Y-18915674D01*
X5721253Y-18915674D02*
X5721253Y-18963293D01*
X5721253Y-18963293D02*
X5711729Y-19001389D01*
X5711729Y-19001389D02*
X5702205Y-19020436D01*
X5702205Y-19020436D02*
X5692682Y-19029960D01*
X5692682Y-19029960D02*
X5673634Y-19039484D01*
X5673634Y-19039484D02*
X5654586Y-19039484D01*
X5654586Y-19039484D02*
X5635539Y-19029960D01*
X5635539Y-19029960D02*
X5626015Y-19020436D01*
X5626015Y-19020436D02*
X5616491Y-19001389D01*
X5616491Y-19001389D02*
X5606967Y-18963293D01*
X5606967Y-18963293D02*
X5606967Y-18915674D01*
X5606967Y-18915674D02*
X5616491Y-18877579D01*
X5616491Y-18877579D02*
X5626015Y-18858531D01*
X5626015Y-18858531D02*
X5635539Y-18849008D01*
X5635539Y-18849008D02*
X5654586Y-18839484D01*
X5845062Y-18839484D02*
X5864110Y-18839484D01*
X5864110Y-18839484D02*
X5883158Y-18849008D01*
X5883158Y-18849008D02*
X5892682Y-18858531D01*
X5892682Y-18858531D02*
X5902205Y-18877579D01*
X5902205Y-18877579D02*
X5911729Y-18915674D01*
X5911729Y-18915674D02*
X5911729Y-18963293D01*
X5911729Y-18963293D02*
X5902205Y-19001389D01*
X5902205Y-19001389D02*
X5892682Y-19020436D01*
X5892682Y-19020436D02*
X5883158Y-19029960D01*
X5883158Y-19029960D02*
X5864110Y-19039484D01*
X5864110Y-19039484D02*
X5845062Y-19039484D01*
X5845062Y-19039484D02*
X5826015Y-19029960D01*
X5826015Y-19029960D02*
X5816491Y-19020436D01*
X5816491Y-19020436D02*
X5806967Y-19001389D01*
X5806967Y-19001389D02*
X5797443Y-18963293D01*
X5797443Y-18963293D02*
X5797443Y-18915674D01*
X5797443Y-18915674D02*
X5806967Y-18877579D01*
X5806967Y-18877579D02*
X5816491Y-18858531D01*
X5816491Y-18858531D02*
X5826015Y-18849008D01*
X5826015Y-18849008D02*
X5845062Y-18839484D01*
X6035539Y-18839484D02*
X6054586Y-18839484D01*
X6054586Y-18839484D02*
X6073634Y-18849008D01*
X6073634Y-18849008D02*
X6083158Y-18858531D01*
X6083158Y-18858531D02*
X6092682Y-18877579D01*
X6092682Y-18877579D02*
X6102205Y-18915674D01*
X6102205Y-18915674D02*
X6102205Y-18963293D01*
X6102205Y-18963293D02*
X6092682Y-19001389D01*
X6092682Y-19001389D02*
X6083158Y-19020436D01*
X6083158Y-19020436D02*
X6073634Y-19029960D01*
X6073634Y-19029960D02*
X6054586Y-19039484D01*
X6054586Y-19039484D02*
X6035539Y-19039484D01*
X6035539Y-19039484D02*
X6016491Y-19029960D01*
X6016491Y-19029960D02*
X6006967Y-19020436D01*
X6006967Y-19020436D02*
X5997443Y-19001389D01*
X5997443Y-19001389D02*
X5987920Y-18963293D01*
X5987920Y-18963293D02*
X5987920Y-18915674D01*
X5987920Y-18915674D02*
X5997443Y-18877579D01*
X5997443Y-18877579D02*
X6006967Y-18858531D01*
X6006967Y-18858531D02*
X6016491Y-18849008D01*
X6016491Y-18849008D02*
X6035539Y-18839484D01*
X6187920Y-19039484D02*
X6187920Y-18906150D01*
X6187920Y-18925198D02*
X6197443Y-18915674D01*
X6197443Y-18915674D02*
X6216491Y-18906150D01*
X6216491Y-18906150D02*
X6245063Y-18906150D01*
X6245063Y-18906150D02*
X6264110Y-18915674D01*
X6264110Y-18915674D02*
X6273634Y-18934722D01*
X6273634Y-18934722D02*
X6273634Y-19039484D01*
X6273634Y-18934722D02*
X6283158Y-18915674D01*
X6283158Y-18915674D02*
X6302205Y-18906150D01*
X6302205Y-18906150D02*
X6330777Y-18906150D01*
X6330777Y-18906150D02*
X6349824Y-18915674D01*
X6349824Y-18915674D02*
X6359348Y-18934722D01*
X6359348Y-18934722D02*
X6359348Y-19039484D01*
X6454586Y-19039484D02*
X6454586Y-18906150D01*
X6454586Y-18925198D02*
X6464110Y-18915674D01*
X6464110Y-18915674D02*
X6483158Y-18906150D01*
X6483158Y-18906150D02*
X6511729Y-18906150D01*
X6511729Y-18906150D02*
X6530777Y-18915674D01*
X6530777Y-18915674D02*
X6540301Y-18934722D01*
X6540301Y-18934722D02*
X6540301Y-19039484D01*
X6540301Y-18934722D02*
X6549824Y-18915674D01*
X6549824Y-18915674D02*
X6568872Y-18906150D01*
X6568872Y-18906150D02*
X6597443Y-18906150D01*
X6597443Y-18906150D02*
X6616491Y-18915674D01*
X6616491Y-18915674D02*
X6626015Y-18934722D01*
X6626015Y-18934722D02*
X6626015Y-19039484D01*
X7016491Y-18829960D02*
X6845063Y-19087103D01*
X7273634Y-18839484D02*
X7292682Y-18839484D01*
X7292682Y-18839484D02*
X7311729Y-18849008D01*
X7311729Y-18849008D02*
X7321253Y-18858531D01*
X7321253Y-18858531D02*
X7330777Y-18877579D01*
X7330777Y-18877579D02*
X7340301Y-18915674D01*
X7340301Y-18915674D02*
X7340301Y-18963293D01*
X7340301Y-18963293D02*
X7330777Y-19001389D01*
X7330777Y-19001389D02*
X7321253Y-19020436D01*
X7321253Y-19020436D02*
X7311729Y-19029960D01*
X7311729Y-19029960D02*
X7292682Y-19039484D01*
X7292682Y-19039484D02*
X7273634Y-19039484D01*
X7273634Y-19039484D02*
X7254586Y-19029960D01*
X7254586Y-19029960D02*
X7245063Y-19020436D01*
X7245063Y-19020436D02*
X7235539Y-19001389D01*
X7235539Y-19001389D02*
X7226015Y-18963293D01*
X7226015Y-18963293D02*
X7226015Y-18915674D01*
X7226015Y-18915674D02*
X7235539Y-18877579D01*
X7235539Y-18877579D02*
X7245063Y-18858531D01*
X7245063Y-18858531D02*
X7254586Y-18849008D01*
X7254586Y-18849008D02*
X7273634Y-18839484D01*
X7426015Y-19020436D02*
X7435539Y-19029960D01*
X7435539Y-19029960D02*
X7426015Y-19039484D01*
X7426015Y-19039484D02*
X7416491Y-19029960D01*
X7416491Y-19029960D02*
X7426015Y-19020436D01*
X7426015Y-19020436D02*
X7426015Y-19039484D01*
X7559348Y-18839484D02*
X7578396Y-18839484D01*
X7578396Y-18839484D02*
X7597444Y-18849008D01*
X7597444Y-18849008D02*
X7606967Y-18858531D01*
X7606967Y-18858531D02*
X7616491Y-18877579D01*
X7616491Y-18877579D02*
X7626015Y-18915674D01*
X7626015Y-18915674D02*
X7626015Y-18963293D01*
X7626015Y-18963293D02*
X7616491Y-19001389D01*
X7616491Y-19001389D02*
X7606967Y-19020436D01*
X7606967Y-19020436D02*
X7597444Y-19029960D01*
X7597444Y-19029960D02*
X7578396Y-19039484D01*
X7578396Y-19039484D02*
X7559348Y-19039484D01*
X7559348Y-19039484D02*
X7540301Y-19029960D01*
X7540301Y-19029960D02*
X7530777Y-19020436D01*
X7530777Y-19020436D02*
X7521253Y-19001389D01*
X7521253Y-19001389D02*
X7511729Y-18963293D01*
X7511729Y-18963293D02*
X7511729Y-18915674D01*
X7511729Y-18915674D02*
X7521253Y-18877579D01*
X7521253Y-18877579D02*
X7530777Y-18858531D01*
X7530777Y-18858531D02*
X7540301Y-18849008D01*
X7540301Y-18849008D02*
X7559348Y-18839484D01*
X7692682Y-18839484D02*
X7816491Y-18839484D01*
X7816491Y-18839484D02*
X7749825Y-18915674D01*
X7749825Y-18915674D02*
X7778396Y-18915674D01*
X7778396Y-18915674D02*
X7797444Y-18925198D01*
X7797444Y-18925198D02*
X7806967Y-18934722D01*
X7806967Y-18934722D02*
X7816491Y-18953770D01*
X7816491Y-18953770D02*
X7816491Y-19001389D01*
X7816491Y-19001389D02*
X7806967Y-19020436D01*
X7806967Y-19020436D02*
X7797444Y-19029960D01*
X7797444Y-19029960D02*
X7778396Y-19039484D01*
X7778396Y-19039484D02*
X7721253Y-19039484D01*
X7721253Y-19039484D02*
X7702206Y-19029960D01*
X7702206Y-19029960D02*
X7692682Y-19020436D01*
X7911729Y-19039484D02*
X7949825Y-19039484D01*
X7949825Y-19039484D02*
X7968872Y-19029960D01*
X7968872Y-19029960D02*
X7978396Y-19020436D01*
X7978396Y-19020436D02*
X7997444Y-18991865D01*
X7997444Y-18991865D02*
X8006967Y-18953770D01*
X8006967Y-18953770D02*
X8006967Y-18877579D01*
X8006967Y-18877579D02*
X7997444Y-18858531D01*
X7997444Y-18858531D02*
X7987920Y-18849008D01*
X7987920Y-18849008D02*
X7968872Y-18839484D01*
X7968872Y-18839484D02*
X7930777Y-18839484D01*
X7930777Y-18839484D02*
X7911729Y-18849008D01*
X7911729Y-18849008D02*
X7902206Y-18858531D01*
X7902206Y-18858531D02*
X7892682Y-18877579D01*
X7892682Y-18877579D02*
X7892682Y-18925198D01*
X7892682Y-18925198D02*
X7902206Y-18944246D01*
X7902206Y-18944246D02*
X7911729Y-18953770D01*
X7911729Y-18953770D02*
X7930777Y-18963293D01*
X7930777Y-18963293D02*
X7968872Y-18963293D01*
X7968872Y-18963293D02*
X7987920Y-18953770D01*
X7987920Y-18953770D02*
X7997444Y-18944246D01*
X7997444Y-18944246D02*
X8006967Y-18925198D01*
X8178396Y-18906150D02*
X8178396Y-19039484D01*
X8130777Y-18829960D02*
X8083158Y-18972817D01*
X8083158Y-18972817D02*
X8206967Y-18972817D01*
X8273634Y-18839484D02*
X8273634Y-18877579D01*
X8349825Y-18839484D02*
X8349825Y-18877579D01*
X8645063Y-19115674D02*
X8635539Y-19106150D01*
X8635539Y-19106150D02*
X8616491Y-19077579D01*
X8616491Y-19077579D02*
X8606968Y-19058531D01*
X8606968Y-19058531D02*
X8597444Y-19029960D01*
X8597444Y-19029960D02*
X8587920Y-18982341D01*
X8587920Y-18982341D02*
X8587920Y-18944246D01*
X8587920Y-18944246D02*
X8597444Y-18896627D01*
X8597444Y-18896627D02*
X8606968Y-18868055D01*
X8606968Y-18868055D02*
X8616491Y-18849008D01*
X8616491Y-18849008D02*
X8635539Y-18820436D01*
X8635539Y-18820436D02*
X8645063Y-18810912D01*
X8702206Y-18839484D02*
X8835539Y-18839484D01*
X8835539Y-18839484D02*
X8749825Y-19039484D01*
X8997444Y-18839484D02*
X8959349Y-18839484D01*
X8959349Y-18839484D02*
X8940301Y-18849008D01*
X8940301Y-18849008D02*
X8930777Y-18858531D01*
X8930777Y-18858531D02*
X8911730Y-18887103D01*
X8911730Y-18887103D02*
X8902206Y-18925198D01*
X8902206Y-18925198D02*
X8902206Y-19001389D01*
X8902206Y-19001389D02*
X8911730Y-19020436D01*
X8911730Y-19020436D02*
X8921253Y-19029960D01*
X8921253Y-19029960D02*
X8940301Y-19039484D01*
X8940301Y-19039484D02*
X8978396Y-19039484D01*
X8978396Y-19039484D02*
X8997444Y-19029960D01*
X8997444Y-19029960D02*
X9006968Y-19020436D01*
X9006968Y-19020436D02*
X9016491Y-19001389D01*
X9016491Y-19001389D02*
X9016491Y-18953770D01*
X9016491Y-18953770D02*
X9006968Y-18934722D01*
X9006968Y-18934722D02*
X8997444Y-18925198D01*
X8997444Y-18925198D02*
X8978396Y-18915674D01*
X8978396Y-18915674D02*
X8940301Y-18915674D01*
X8940301Y-18915674D02*
X8921253Y-18925198D01*
X8921253Y-18925198D02*
X8911730Y-18934722D01*
X8911730Y-18934722D02*
X8902206Y-18953770D01*
X9140301Y-18839484D02*
X9159349Y-18839484D01*
X9159349Y-18839484D02*
X9178396Y-18849008D01*
X9178396Y-18849008D02*
X9187920Y-18858531D01*
X9187920Y-18858531D02*
X9197444Y-18877579D01*
X9197444Y-18877579D02*
X9206968Y-18915674D01*
X9206968Y-18915674D02*
X9206968Y-18963293D01*
X9206968Y-18963293D02*
X9197444Y-19001389D01*
X9197444Y-19001389D02*
X9187920Y-19020436D01*
X9187920Y-19020436D02*
X9178396Y-19029960D01*
X9178396Y-19029960D02*
X9159349Y-19039484D01*
X9159349Y-19039484D02*
X9140301Y-19039484D01*
X9140301Y-19039484D02*
X9121253Y-19029960D01*
X9121253Y-19029960D02*
X9111730Y-19020436D01*
X9111730Y-19020436D02*
X9102206Y-19001389D01*
X9102206Y-19001389D02*
X9092682Y-18963293D01*
X9092682Y-18963293D02*
X9092682Y-18915674D01*
X9092682Y-18915674D02*
X9102206Y-18877579D01*
X9102206Y-18877579D02*
X9111730Y-18858531D01*
X9111730Y-18858531D02*
X9121253Y-18849008D01*
X9121253Y-18849008D02*
X9140301Y-18839484D01*
X9445063Y-19039484D02*
X9445063Y-18839484D01*
X9530777Y-19039484D02*
X9530777Y-18934722D01*
X9530777Y-18934722D02*
X9521253Y-18915674D01*
X9521253Y-18915674D02*
X9502206Y-18906150D01*
X9502206Y-18906150D02*
X9473634Y-18906150D01*
X9473634Y-18906150D02*
X9454587Y-18915674D01*
X9454587Y-18915674D02*
X9445063Y-18925198D01*
X9654587Y-19039484D02*
X9635539Y-19029960D01*
X9635539Y-19029960D02*
X9626015Y-19020436D01*
X9626015Y-19020436D02*
X9616492Y-19001389D01*
X9616492Y-19001389D02*
X9616492Y-18944246D01*
X9616492Y-18944246D02*
X9626015Y-18925198D01*
X9626015Y-18925198D02*
X9635539Y-18915674D01*
X9635539Y-18915674D02*
X9654587Y-18906150D01*
X9654587Y-18906150D02*
X9683158Y-18906150D01*
X9683158Y-18906150D02*
X9702206Y-18915674D01*
X9702206Y-18915674D02*
X9711730Y-18925198D01*
X9711730Y-18925198D02*
X9721253Y-18944246D01*
X9721253Y-18944246D02*
X9721253Y-19001389D01*
X9721253Y-19001389D02*
X9711730Y-19020436D01*
X9711730Y-19020436D02*
X9702206Y-19029960D01*
X9702206Y-19029960D02*
X9683158Y-19039484D01*
X9683158Y-19039484D02*
X9654587Y-19039484D01*
X9835539Y-19039484D02*
X9816492Y-19029960D01*
X9816492Y-19029960D02*
X9806968Y-19010912D01*
X9806968Y-19010912D02*
X9806968Y-18839484D01*
X9987920Y-19029960D02*
X9968873Y-19039484D01*
X9968873Y-19039484D02*
X9930777Y-19039484D01*
X9930777Y-19039484D02*
X9911730Y-19029960D01*
X9911730Y-19029960D02*
X9902206Y-19010912D01*
X9902206Y-19010912D02*
X9902206Y-18934722D01*
X9902206Y-18934722D02*
X9911730Y-18915674D01*
X9911730Y-18915674D02*
X9930777Y-18906150D01*
X9930777Y-18906150D02*
X9968873Y-18906150D01*
X9968873Y-18906150D02*
X9987920Y-18915674D01*
X9987920Y-18915674D02*
X9997444Y-18934722D01*
X9997444Y-18934722D02*
X9997444Y-18953770D01*
X9997444Y-18953770D02*
X9902206Y-18972817D01*
X10073634Y-19029960D02*
X10092682Y-19039484D01*
X10092682Y-19039484D02*
X10130777Y-19039484D01*
X10130777Y-19039484D02*
X10149825Y-19029960D01*
X10149825Y-19029960D02*
X10159349Y-19010912D01*
X10159349Y-19010912D02*
X10159349Y-19001389D01*
X10159349Y-19001389D02*
X10149825Y-18982341D01*
X10149825Y-18982341D02*
X10130777Y-18972817D01*
X10130777Y-18972817D02*
X10102206Y-18972817D01*
X10102206Y-18972817D02*
X10083158Y-18963293D01*
X10083158Y-18963293D02*
X10073634Y-18944246D01*
X10073634Y-18944246D02*
X10073634Y-18934722D01*
X10073634Y-18934722D02*
X10083158Y-18915674D01*
X10083158Y-18915674D02*
X10102206Y-18906150D01*
X10102206Y-18906150D02*
X10130777Y-18906150D01*
X10130777Y-18906150D02*
X10149825Y-18915674D01*
X10226015Y-19115674D02*
X10235539Y-19106150D01*
X10235539Y-19106150D02*
X10254587Y-19077579D01*
X10254587Y-19077579D02*
X10264111Y-19058531D01*
X10264111Y-19058531D02*
X10273634Y-19029960D01*
X10273634Y-19029960D02*
X10283158Y-18982341D01*
X10283158Y-18982341D02*
X10283158Y-18944246D01*
X10283158Y-18944246D02*
X10273634Y-18896627D01*
X10273634Y-18896627D02*
X10264111Y-18868055D01*
X10264111Y-18868055D02*
X10254587Y-18849008D01*
X10254587Y-18849008D02*
X10235539Y-18820436D01*
X10235539Y-18820436D02*
X10226015Y-18810912D01*
D12*
X4995000Y-19137000D02*
X4995000Y-19287000D01*
X4920000Y-19212000D02*
X5070000Y-19212000D01*
D10*
X5435539Y-19303484D02*
X5321253Y-19303484D01*
X5378396Y-19303484D02*
X5378396Y-19103484D01*
X5378396Y-19103484D02*
X5359348Y-19132055D01*
X5359348Y-19132055D02*
X5340301Y-19151103D01*
X5340301Y-19151103D02*
X5321253Y-19160627D01*
X5521253Y-19284436D02*
X5530777Y-19293960D01*
X5530777Y-19293960D02*
X5521253Y-19303484D01*
X5521253Y-19303484D02*
X5511729Y-19293960D01*
X5511729Y-19293960D02*
X5521253Y-19284436D01*
X5521253Y-19284436D02*
X5521253Y-19303484D01*
X5711729Y-19103484D02*
X5616491Y-19103484D01*
X5616491Y-19103484D02*
X5606967Y-19198722D01*
X5606967Y-19198722D02*
X5616491Y-19189198D01*
X5616491Y-19189198D02*
X5635539Y-19179674D01*
X5635539Y-19179674D02*
X5683158Y-19179674D01*
X5683158Y-19179674D02*
X5702205Y-19189198D01*
X5702205Y-19189198D02*
X5711729Y-19198722D01*
X5711729Y-19198722D02*
X5721253Y-19217770D01*
X5721253Y-19217770D02*
X5721253Y-19265389D01*
X5721253Y-19265389D02*
X5711729Y-19284436D01*
X5711729Y-19284436D02*
X5702205Y-19293960D01*
X5702205Y-19293960D02*
X5683158Y-19303484D01*
X5683158Y-19303484D02*
X5635539Y-19303484D01*
X5635539Y-19303484D02*
X5616491Y-19293960D01*
X5616491Y-19293960D02*
X5606967Y-19284436D01*
X5845062Y-19103484D02*
X5864110Y-19103484D01*
X5864110Y-19103484D02*
X5883158Y-19113008D01*
X5883158Y-19113008D02*
X5892682Y-19122531D01*
X5892682Y-19122531D02*
X5902205Y-19141579D01*
X5902205Y-19141579D02*
X5911729Y-19179674D01*
X5911729Y-19179674D02*
X5911729Y-19227293D01*
X5911729Y-19227293D02*
X5902205Y-19265389D01*
X5902205Y-19265389D02*
X5892682Y-19284436D01*
X5892682Y-19284436D02*
X5883158Y-19293960D01*
X5883158Y-19293960D02*
X5864110Y-19303484D01*
X5864110Y-19303484D02*
X5845062Y-19303484D01*
X5845062Y-19303484D02*
X5826015Y-19293960D01*
X5826015Y-19293960D02*
X5816491Y-19284436D01*
X5816491Y-19284436D02*
X5806967Y-19265389D01*
X5806967Y-19265389D02*
X5797443Y-19227293D01*
X5797443Y-19227293D02*
X5797443Y-19179674D01*
X5797443Y-19179674D02*
X5806967Y-19141579D01*
X5806967Y-19141579D02*
X5816491Y-19122531D01*
X5816491Y-19122531D02*
X5826015Y-19113008D01*
X5826015Y-19113008D02*
X5845062Y-19103484D01*
X6035539Y-19103484D02*
X6054586Y-19103484D01*
X6054586Y-19103484D02*
X6073634Y-19113008D01*
X6073634Y-19113008D02*
X6083158Y-19122531D01*
X6083158Y-19122531D02*
X6092682Y-19141579D01*
X6092682Y-19141579D02*
X6102205Y-19179674D01*
X6102205Y-19179674D02*
X6102205Y-19227293D01*
X6102205Y-19227293D02*
X6092682Y-19265389D01*
X6092682Y-19265389D02*
X6083158Y-19284436D01*
X6083158Y-19284436D02*
X6073634Y-19293960D01*
X6073634Y-19293960D02*
X6054586Y-19303484D01*
X6054586Y-19303484D02*
X6035539Y-19303484D01*
X6035539Y-19303484D02*
X6016491Y-19293960D01*
X6016491Y-19293960D02*
X6006967Y-19284436D01*
X6006967Y-19284436D02*
X5997443Y-19265389D01*
X5997443Y-19265389D02*
X5987920Y-19227293D01*
X5987920Y-19227293D02*
X5987920Y-19179674D01*
X5987920Y-19179674D02*
X5997443Y-19141579D01*
X5997443Y-19141579D02*
X6006967Y-19122531D01*
X6006967Y-19122531D02*
X6016491Y-19113008D01*
X6016491Y-19113008D02*
X6035539Y-19103484D01*
X6187920Y-19303484D02*
X6187920Y-19170150D01*
X6187920Y-19189198D02*
X6197443Y-19179674D01*
X6197443Y-19179674D02*
X6216491Y-19170150D01*
X6216491Y-19170150D02*
X6245063Y-19170150D01*
X6245063Y-19170150D02*
X6264110Y-19179674D01*
X6264110Y-19179674D02*
X6273634Y-19198722D01*
X6273634Y-19198722D02*
X6273634Y-19303484D01*
X6273634Y-19198722D02*
X6283158Y-19179674D01*
X6283158Y-19179674D02*
X6302205Y-19170150D01*
X6302205Y-19170150D02*
X6330777Y-19170150D01*
X6330777Y-19170150D02*
X6349824Y-19179674D01*
X6349824Y-19179674D02*
X6359348Y-19198722D01*
X6359348Y-19198722D02*
X6359348Y-19303484D01*
X6454586Y-19303484D02*
X6454586Y-19170150D01*
X6454586Y-19189198D02*
X6464110Y-19179674D01*
X6464110Y-19179674D02*
X6483158Y-19170150D01*
X6483158Y-19170150D02*
X6511729Y-19170150D01*
X6511729Y-19170150D02*
X6530777Y-19179674D01*
X6530777Y-19179674D02*
X6540301Y-19198722D01*
X6540301Y-19198722D02*
X6540301Y-19303484D01*
X6540301Y-19198722D02*
X6549824Y-19179674D01*
X6549824Y-19179674D02*
X6568872Y-19170150D01*
X6568872Y-19170150D02*
X6597443Y-19170150D01*
X6597443Y-19170150D02*
X6616491Y-19179674D01*
X6616491Y-19179674D02*
X6626015Y-19198722D01*
X6626015Y-19198722D02*
X6626015Y-19303484D01*
X7016491Y-19093960D02*
X6845063Y-19351103D01*
X7273634Y-19103484D02*
X7292682Y-19103484D01*
X7292682Y-19103484D02*
X7311729Y-19113008D01*
X7311729Y-19113008D02*
X7321253Y-19122531D01*
X7321253Y-19122531D02*
X7330777Y-19141579D01*
X7330777Y-19141579D02*
X7340301Y-19179674D01*
X7340301Y-19179674D02*
X7340301Y-19227293D01*
X7340301Y-19227293D02*
X7330777Y-19265389D01*
X7330777Y-19265389D02*
X7321253Y-19284436D01*
X7321253Y-19284436D02*
X7311729Y-19293960D01*
X7311729Y-19293960D02*
X7292682Y-19303484D01*
X7292682Y-19303484D02*
X7273634Y-19303484D01*
X7273634Y-19303484D02*
X7254586Y-19293960D01*
X7254586Y-19293960D02*
X7245063Y-19284436D01*
X7245063Y-19284436D02*
X7235539Y-19265389D01*
X7235539Y-19265389D02*
X7226015Y-19227293D01*
X7226015Y-19227293D02*
X7226015Y-19179674D01*
X7226015Y-19179674D02*
X7235539Y-19141579D01*
X7235539Y-19141579D02*
X7245063Y-19122531D01*
X7245063Y-19122531D02*
X7254586Y-19113008D01*
X7254586Y-19113008D02*
X7273634Y-19103484D01*
X7426015Y-19284436D02*
X7435539Y-19293960D01*
X7435539Y-19293960D02*
X7426015Y-19303484D01*
X7426015Y-19303484D02*
X7416491Y-19293960D01*
X7416491Y-19293960D02*
X7426015Y-19284436D01*
X7426015Y-19284436D02*
X7426015Y-19303484D01*
X7559348Y-19103484D02*
X7578396Y-19103484D01*
X7578396Y-19103484D02*
X7597444Y-19113008D01*
X7597444Y-19113008D02*
X7606967Y-19122531D01*
X7606967Y-19122531D02*
X7616491Y-19141579D01*
X7616491Y-19141579D02*
X7626015Y-19179674D01*
X7626015Y-19179674D02*
X7626015Y-19227293D01*
X7626015Y-19227293D02*
X7616491Y-19265389D01*
X7616491Y-19265389D02*
X7606967Y-19284436D01*
X7606967Y-19284436D02*
X7597444Y-19293960D01*
X7597444Y-19293960D02*
X7578396Y-19303484D01*
X7578396Y-19303484D02*
X7559348Y-19303484D01*
X7559348Y-19303484D02*
X7540301Y-19293960D01*
X7540301Y-19293960D02*
X7530777Y-19284436D01*
X7530777Y-19284436D02*
X7521253Y-19265389D01*
X7521253Y-19265389D02*
X7511729Y-19227293D01*
X7511729Y-19227293D02*
X7511729Y-19179674D01*
X7511729Y-19179674D02*
X7521253Y-19141579D01*
X7521253Y-19141579D02*
X7530777Y-19122531D01*
X7530777Y-19122531D02*
X7540301Y-19113008D01*
X7540301Y-19113008D02*
X7559348Y-19103484D01*
X7806967Y-19103484D02*
X7711729Y-19103484D01*
X7711729Y-19103484D02*
X7702206Y-19198722D01*
X7702206Y-19198722D02*
X7711729Y-19189198D01*
X7711729Y-19189198D02*
X7730777Y-19179674D01*
X7730777Y-19179674D02*
X7778396Y-19179674D01*
X7778396Y-19179674D02*
X7797444Y-19189198D01*
X7797444Y-19189198D02*
X7806967Y-19198722D01*
X7806967Y-19198722D02*
X7816491Y-19217770D01*
X7816491Y-19217770D02*
X7816491Y-19265389D01*
X7816491Y-19265389D02*
X7806967Y-19284436D01*
X7806967Y-19284436D02*
X7797444Y-19293960D01*
X7797444Y-19293960D02*
X7778396Y-19303484D01*
X7778396Y-19303484D02*
X7730777Y-19303484D01*
X7730777Y-19303484D02*
X7711729Y-19293960D01*
X7711729Y-19293960D02*
X7702206Y-19284436D01*
X7911729Y-19303484D02*
X7949825Y-19303484D01*
X7949825Y-19303484D02*
X7968872Y-19293960D01*
X7968872Y-19293960D02*
X7978396Y-19284436D01*
X7978396Y-19284436D02*
X7997444Y-19255865D01*
X7997444Y-19255865D02*
X8006967Y-19217770D01*
X8006967Y-19217770D02*
X8006967Y-19141579D01*
X8006967Y-19141579D02*
X7997444Y-19122531D01*
X7997444Y-19122531D02*
X7987920Y-19113008D01*
X7987920Y-19113008D02*
X7968872Y-19103484D01*
X7968872Y-19103484D02*
X7930777Y-19103484D01*
X7930777Y-19103484D02*
X7911729Y-19113008D01*
X7911729Y-19113008D02*
X7902206Y-19122531D01*
X7902206Y-19122531D02*
X7892682Y-19141579D01*
X7892682Y-19141579D02*
X7892682Y-19189198D01*
X7892682Y-19189198D02*
X7902206Y-19208246D01*
X7902206Y-19208246D02*
X7911729Y-19217770D01*
X7911729Y-19217770D02*
X7930777Y-19227293D01*
X7930777Y-19227293D02*
X7968872Y-19227293D01*
X7968872Y-19227293D02*
X7987920Y-19217770D01*
X7987920Y-19217770D02*
X7997444Y-19208246D01*
X7997444Y-19208246D02*
X8006967Y-19189198D01*
X8197444Y-19303484D02*
X8083158Y-19303484D01*
X8140301Y-19303484D02*
X8140301Y-19103484D01*
X8140301Y-19103484D02*
X8121253Y-19132055D01*
X8121253Y-19132055D02*
X8102206Y-19151103D01*
X8102206Y-19151103D02*
X8083158Y-19160627D01*
X8273634Y-19103484D02*
X8273634Y-19141579D01*
X8349825Y-19103484D02*
X8349825Y-19141579D01*
X8645063Y-19379674D02*
X8635539Y-19370150D01*
X8635539Y-19370150D02*
X8616491Y-19341579D01*
X8616491Y-19341579D02*
X8606968Y-19322531D01*
X8606968Y-19322531D02*
X8597444Y-19293960D01*
X8597444Y-19293960D02*
X8587920Y-19246341D01*
X8587920Y-19246341D02*
X8587920Y-19208246D01*
X8587920Y-19208246D02*
X8597444Y-19160627D01*
X8597444Y-19160627D02*
X8606968Y-19132055D01*
X8606968Y-19132055D02*
X8616491Y-19113008D01*
X8616491Y-19113008D02*
X8635539Y-19084436D01*
X8635539Y-19084436D02*
X8645063Y-19074912D01*
X8806968Y-19103484D02*
X8768872Y-19103484D01*
X8768872Y-19103484D02*
X8749825Y-19113008D01*
X8749825Y-19113008D02*
X8740301Y-19122531D01*
X8740301Y-19122531D02*
X8721253Y-19151103D01*
X8721253Y-19151103D02*
X8711730Y-19189198D01*
X8711730Y-19189198D02*
X8711730Y-19265389D01*
X8711730Y-19265389D02*
X8721253Y-19284436D01*
X8721253Y-19284436D02*
X8730777Y-19293960D01*
X8730777Y-19293960D02*
X8749825Y-19303484D01*
X8749825Y-19303484D02*
X8787920Y-19303484D01*
X8787920Y-19303484D02*
X8806968Y-19293960D01*
X8806968Y-19293960D02*
X8816491Y-19284436D01*
X8816491Y-19284436D02*
X8826015Y-19265389D01*
X8826015Y-19265389D02*
X8826015Y-19217770D01*
X8826015Y-19217770D02*
X8816491Y-19198722D01*
X8816491Y-19198722D02*
X8806968Y-19189198D01*
X8806968Y-19189198D02*
X8787920Y-19179674D01*
X8787920Y-19179674D02*
X8749825Y-19179674D01*
X8749825Y-19179674D02*
X8730777Y-19189198D01*
X8730777Y-19189198D02*
X8721253Y-19198722D01*
X8721253Y-19198722D02*
X8711730Y-19217770D01*
X9064111Y-19303484D02*
X9064111Y-19103484D01*
X9149825Y-19303484D02*
X9149825Y-19198722D01*
X9149825Y-19198722D02*
X9140301Y-19179674D01*
X9140301Y-19179674D02*
X9121253Y-19170150D01*
X9121253Y-19170150D02*
X9092682Y-19170150D01*
X9092682Y-19170150D02*
X9073634Y-19179674D01*
X9073634Y-19179674D02*
X9064111Y-19189198D01*
X9273634Y-19303484D02*
X9254587Y-19293960D01*
X9254587Y-19293960D02*
X9245063Y-19284436D01*
X9245063Y-19284436D02*
X9235539Y-19265389D01*
X9235539Y-19265389D02*
X9235539Y-19208246D01*
X9235539Y-19208246D02*
X9245063Y-19189198D01*
X9245063Y-19189198D02*
X9254587Y-19179674D01*
X9254587Y-19179674D02*
X9273634Y-19170150D01*
X9273634Y-19170150D02*
X9302206Y-19170150D01*
X9302206Y-19170150D02*
X9321253Y-19179674D01*
X9321253Y-19179674D02*
X9330777Y-19189198D01*
X9330777Y-19189198D02*
X9340301Y-19208246D01*
X9340301Y-19208246D02*
X9340301Y-19265389D01*
X9340301Y-19265389D02*
X9330777Y-19284436D01*
X9330777Y-19284436D02*
X9321253Y-19293960D01*
X9321253Y-19293960D02*
X9302206Y-19303484D01*
X9302206Y-19303484D02*
X9273634Y-19303484D01*
X9454587Y-19303484D02*
X9435539Y-19293960D01*
X9435539Y-19293960D02*
X9426015Y-19274912D01*
X9426015Y-19274912D02*
X9426015Y-19103484D01*
X9606968Y-19293960D02*
X9587920Y-19303484D01*
X9587920Y-19303484D02*
X9549825Y-19303484D01*
X9549825Y-19303484D02*
X9530777Y-19293960D01*
X9530777Y-19293960D02*
X9521253Y-19274912D01*
X9521253Y-19274912D02*
X9521253Y-19198722D01*
X9521253Y-19198722D02*
X9530777Y-19179674D01*
X9530777Y-19179674D02*
X9549825Y-19170150D01*
X9549825Y-19170150D02*
X9587920Y-19170150D01*
X9587920Y-19170150D02*
X9606968Y-19179674D01*
X9606968Y-19179674D02*
X9616492Y-19198722D01*
X9616492Y-19198722D02*
X9616492Y-19217770D01*
X9616492Y-19217770D02*
X9521253Y-19236817D01*
X9692682Y-19293960D02*
X9711730Y-19303484D01*
X9711730Y-19303484D02*
X9749825Y-19303484D01*
X9749825Y-19303484D02*
X9768873Y-19293960D01*
X9768873Y-19293960D02*
X9778396Y-19274912D01*
X9778396Y-19274912D02*
X9778396Y-19265389D01*
X9778396Y-19265389D02*
X9768873Y-19246341D01*
X9768873Y-19246341D02*
X9749825Y-19236817D01*
X9749825Y-19236817D02*
X9721253Y-19236817D01*
X9721253Y-19236817D02*
X9702206Y-19227293D01*
X9702206Y-19227293D02*
X9692682Y-19208246D01*
X9692682Y-19208246D02*
X9692682Y-19198722D01*
X9692682Y-19198722D02*
X9702206Y-19179674D01*
X9702206Y-19179674D02*
X9721253Y-19170150D01*
X9721253Y-19170150D02*
X9749825Y-19170150D01*
X9749825Y-19170150D02*
X9768873Y-19179674D01*
X9845063Y-19379674D02*
X9854587Y-19370150D01*
X9854587Y-19370150D02*
X9873634Y-19341579D01*
X9873634Y-19341579D02*
X9883158Y-19322531D01*
X9883158Y-19322531D02*
X9892682Y-19293960D01*
X9892682Y-19293960D02*
X9902206Y-19246341D01*
X9902206Y-19246341D02*
X9902206Y-19208246D01*
X9902206Y-19208246D02*
X9892682Y-19160627D01*
X9892682Y-19160627D02*
X9883158Y-19132055D01*
X9883158Y-19132055D02*
X9873634Y-19113008D01*
X9873634Y-19113008D02*
X9854587Y-19084436D01*
X9854587Y-19084436D02*
X9845063Y-19074912D01*
X5040711Y-19552711D02*
X5040711Y-19411289D01*
X4899289Y-19411289D01*
X4899289Y-19552711D01*
X5040711Y-19552711D01*
X5321253Y-19392531D02*
X5330777Y-19383008D01*
X5330777Y-19383008D02*
X5349824Y-19373484D01*
X5349824Y-19373484D02*
X5397444Y-19373484D01*
X5397444Y-19373484D02*
X5416491Y-19383008D01*
X5416491Y-19383008D02*
X5426015Y-19392531D01*
X5426015Y-19392531D02*
X5435539Y-19411579D01*
X5435539Y-19411579D02*
X5435539Y-19430627D01*
X5435539Y-19430627D02*
X5426015Y-19459198D01*
X5426015Y-19459198D02*
X5311729Y-19573484D01*
X5311729Y-19573484D02*
X5435539Y-19573484D01*
X5521253Y-19554436D02*
X5530777Y-19563960D01*
X5530777Y-19563960D02*
X5521253Y-19573484D01*
X5521253Y-19573484D02*
X5511729Y-19563960D01*
X5511729Y-19563960D02*
X5521253Y-19554436D01*
X5521253Y-19554436D02*
X5521253Y-19573484D01*
X5711729Y-19373484D02*
X5616491Y-19373484D01*
X5616491Y-19373484D02*
X5606967Y-19468722D01*
X5606967Y-19468722D02*
X5616491Y-19459198D01*
X5616491Y-19459198D02*
X5635539Y-19449674D01*
X5635539Y-19449674D02*
X5683158Y-19449674D01*
X5683158Y-19449674D02*
X5702205Y-19459198D01*
X5702205Y-19459198D02*
X5711729Y-19468722D01*
X5711729Y-19468722D02*
X5721253Y-19487770D01*
X5721253Y-19487770D02*
X5721253Y-19535389D01*
X5721253Y-19535389D02*
X5711729Y-19554436D01*
X5711729Y-19554436D02*
X5702205Y-19563960D01*
X5702205Y-19563960D02*
X5683158Y-19573484D01*
X5683158Y-19573484D02*
X5635539Y-19573484D01*
X5635539Y-19573484D02*
X5616491Y-19563960D01*
X5616491Y-19563960D02*
X5606967Y-19554436D01*
X5845062Y-19373484D02*
X5864110Y-19373484D01*
X5864110Y-19373484D02*
X5883158Y-19383008D01*
X5883158Y-19383008D02*
X5892682Y-19392531D01*
X5892682Y-19392531D02*
X5902205Y-19411579D01*
X5902205Y-19411579D02*
X5911729Y-19449674D01*
X5911729Y-19449674D02*
X5911729Y-19497293D01*
X5911729Y-19497293D02*
X5902205Y-19535389D01*
X5902205Y-19535389D02*
X5892682Y-19554436D01*
X5892682Y-19554436D02*
X5883158Y-19563960D01*
X5883158Y-19563960D02*
X5864110Y-19573484D01*
X5864110Y-19573484D02*
X5845062Y-19573484D01*
X5845062Y-19573484D02*
X5826015Y-19563960D01*
X5826015Y-19563960D02*
X5816491Y-19554436D01*
X5816491Y-19554436D02*
X5806967Y-19535389D01*
X5806967Y-19535389D02*
X5797443Y-19497293D01*
X5797443Y-19497293D02*
X5797443Y-19449674D01*
X5797443Y-19449674D02*
X5806967Y-19411579D01*
X5806967Y-19411579D02*
X5816491Y-19392531D01*
X5816491Y-19392531D02*
X5826015Y-19383008D01*
X5826015Y-19383008D02*
X5845062Y-19373484D01*
X6035539Y-19373484D02*
X6054586Y-19373484D01*
X6054586Y-19373484D02*
X6073634Y-19383008D01*
X6073634Y-19383008D02*
X6083158Y-19392531D01*
X6083158Y-19392531D02*
X6092682Y-19411579D01*
X6092682Y-19411579D02*
X6102205Y-19449674D01*
X6102205Y-19449674D02*
X6102205Y-19497293D01*
X6102205Y-19497293D02*
X6092682Y-19535389D01*
X6092682Y-19535389D02*
X6083158Y-19554436D01*
X6083158Y-19554436D02*
X6073634Y-19563960D01*
X6073634Y-19563960D02*
X6054586Y-19573484D01*
X6054586Y-19573484D02*
X6035539Y-19573484D01*
X6035539Y-19573484D02*
X6016491Y-19563960D01*
X6016491Y-19563960D02*
X6006967Y-19554436D01*
X6006967Y-19554436D02*
X5997443Y-19535389D01*
X5997443Y-19535389D02*
X5987920Y-19497293D01*
X5987920Y-19497293D02*
X5987920Y-19449674D01*
X5987920Y-19449674D02*
X5997443Y-19411579D01*
X5997443Y-19411579D02*
X6006967Y-19392531D01*
X6006967Y-19392531D02*
X6016491Y-19383008D01*
X6016491Y-19383008D02*
X6035539Y-19373484D01*
X6187920Y-19573484D02*
X6187920Y-19440150D01*
X6187920Y-19459198D02*
X6197443Y-19449674D01*
X6197443Y-19449674D02*
X6216491Y-19440150D01*
X6216491Y-19440150D02*
X6245063Y-19440150D01*
X6245063Y-19440150D02*
X6264110Y-19449674D01*
X6264110Y-19449674D02*
X6273634Y-19468722D01*
X6273634Y-19468722D02*
X6273634Y-19573484D01*
X6273634Y-19468722D02*
X6283158Y-19449674D01*
X6283158Y-19449674D02*
X6302205Y-19440150D01*
X6302205Y-19440150D02*
X6330777Y-19440150D01*
X6330777Y-19440150D02*
X6349824Y-19449674D01*
X6349824Y-19449674D02*
X6359348Y-19468722D01*
X6359348Y-19468722D02*
X6359348Y-19573484D01*
X6454586Y-19573484D02*
X6454586Y-19440150D01*
X6454586Y-19459198D02*
X6464110Y-19449674D01*
X6464110Y-19449674D02*
X6483158Y-19440150D01*
X6483158Y-19440150D02*
X6511729Y-19440150D01*
X6511729Y-19440150D02*
X6530777Y-19449674D01*
X6530777Y-19449674D02*
X6540301Y-19468722D01*
X6540301Y-19468722D02*
X6540301Y-19573484D01*
X6540301Y-19468722D02*
X6549824Y-19449674D01*
X6549824Y-19449674D02*
X6568872Y-19440150D01*
X6568872Y-19440150D02*
X6597443Y-19440150D01*
X6597443Y-19440150D02*
X6616491Y-19449674D01*
X6616491Y-19449674D02*
X6626015Y-19468722D01*
X6626015Y-19468722D02*
X6626015Y-19573484D01*
X7016491Y-19363960D02*
X6845063Y-19621103D01*
X7273634Y-19373484D02*
X7292682Y-19373484D01*
X7292682Y-19373484D02*
X7311729Y-19383008D01*
X7311729Y-19383008D02*
X7321253Y-19392531D01*
X7321253Y-19392531D02*
X7330777Y-19411579D01*
X7330777Y-19411579D02*
X7340301Y-19449674D01*
X7340301Y-19449674D02*
X7340301Y-19497293D01*
X7340301Y-19497293D02*
X7330777Y-19535389D01*
X7330777Y-19535389D02*
X7321253Y-19554436D01*
X7321253Y-19554436D02*
X7311729Y-19563960D01*
X7311729Y-19563960D02*
X7292682Y-19573484D01*
X7292682Y-19573484D02*
X7273634Y-19573484D01*
X7273634Y-19573484D02*
X7254586Y-19563960D01*
X7254586Y-19563960D02*
X7245063Y-19554436D01*
X7245063Y-19554436D02*
X7235539Y-19535389D01*
X7235539Y-19535389D02*
X7226015Y-19497293D01*
X7226015Y-19497293D02*
X7226015Y-19449674D01*
X7226015Y-19449674D02*
X7235539Y-19411579D01*
X7235539Y-19411579D02*
X7245063Y-19392531D01*
X7245063Y-19392531D02*
X7254586Y-19383008D01*
X7254586Y-19383008D02*
X7273634Y-19373484D01*
X7426015Y-19554436D02*
X7435539Y-19563960D01*
X7435539Y-19563960D02*
X7426015Y-19573484D01*
X7426015Y-19573484D02*
X7416491Y-19563960D01*
X7416491Y-19563960D02*
X7426015Y-19554436D01*
X7426015Y-19554436D02*
X7426015Y-19573484D01*
X7559348Y-19373484D02*
X7578396Y-19373484D01*
X7578396Y-19373484D02*
X7597444Y-19383008D01*
X7597444Y-19383008D02*
X7606967Y-19392531D01*
X7606967Y-19392531D02*
X7616491Y-19411579D01*
X7616491Y-19411579D02*
X7626015Y-19449674D01*
X7626015Y-19449674D02*
X7626015Y-19497293D01*
X7626015Y-19497293D02*
X7616491Y-19535389D01*
X7616491Y-19535389D02*
X7606967Y-19554436D01*
X7606967Y-19554436D02*
X7597444Y-19563960D01*
X7597444Y-19563960D02*
X7578396Y-19573484D01*
X7578396Y-19573484D02*
X7559348Y-19573484D01*
X7559348Y-19573484D02*
X7540301Y-19563960D01*
X7540301Y-19563960D02*
X7530777Y-19554436D01*
X7530777Y-19554436D02*
X7521253Y-19535389D01*
X7521253Y-19535389D02*
X7511729Y-19497293D01*
X7511729Y-19497293D02*
X7511729Y-19449674D01*
X7511729Y-19449674D02*
X7521253Y-19411579D01*
X7521253Y-19411579D02*
X7530777Y-19392531D01*
X7530777Y-19392531D02*
X7540301Y-19383008D01*
X7540301Y-19383008D02*
X7559348Y-19373484D01*
X7721253Y-19573484D02*
X7759348Y-19573484D01*
X7759348Y-19573484D02*
X7778396Y-19563960D01*
X7778396Y-19563960D02*
X7787920Y-19554436D01*
X7787920Y-19554436D02*
X7806967Y-19525865D01*
X7806967Y-19525865D02*
X7816491Y-19487770D01*
X7816491Y-19487770D02*
X7816491Y-19411579D01*
X7816491Y-19411579D02*
X7806967Y-19392531D01*
X7806967Y-19392531D02*
X7797444Y-19383008D01*
X7797444Y-19383008D02*
X7778396Y-19373484D01*
X7778396Y-19373484D02*
X7740301Y-19373484D01*
X7740301Y-19373484D02*
X7721253Y-19383008D01*
X7721253Y-19383008D02*
X7711729Y-19392531D01*
X7711729Y-19392531D02*
X7702206Y-19411579D01*
X7702206Y-19411579D02*
X7702206Y-19459198D01*
X7702206Y-19459198D02*
X7711729Y-19478246D01*
X7711729Y-19478246D02*
X7721253Y-19487770D01*
X7721253Y-19487770D02*
X7740301Y-19497293D01*
X7740301Y-19497293D02*
X7778396Y-19497293D01*
X7778396Y-19497293D02*
X7797444Y-19487770D01*
X7797444Y-19487770D02*
X7806967Y-19478246D01*
X7806967Y-19478246D02*
X7816491Y-19459198D01*
X7930777Y-19459198D02*
X7911729Y-19449674D01*
X7911729Y-19449674D02*
X7902206Y-19440150D01*
X7902206Y-19440150D02*
X7892682Y-19421103D01*
X7892682Y-19421103D02*
X7892682Y-19411579D01*
X7892682Y-19411579D02*
X7902206Y-19392531D01*
X7902206Y-19392531D02*
X7911729Y-19383008D01*
X7911729Y-19383008D02*
X7930777Y-19373484D01*
X7930777Y-19373484D02*
X7968872Y-19373484D01*
X7968872Y-19373484D02*
X7987920Y-19383008D01*
X7987920Y-19383008D02*
X7997444Y-19392531D01*
X7997444Y-19392531D02*
X8006967Y-19411579D01*
X8006967Y-19411579D02*
X8006967Y-19421103D01*
X8006967Y-19421103D02*
X7997444Y-19440150D01*
X7997444Y-19440150D02*
X7987920Y-19449674D01*
X7987920Y-19449674D02*
X7968872Y-19459198D01*
X7968872Y-19459198D02*
X7930777Y-19459198D01*
X7930777Y-19459198D02*
X7911729Y-19468722D01*
X7911729Y-19468722D02*
X7902206Y-19478246D01*
X7902206Y-19478246D02*
X7892682Y-19497293D01*
X7892682Y-19497293D02*
X7892682Y-19535389D01*
X7892682Y-19535389D02*
X7902206Y-19554436D01*
X7902206Y-19554436D02*
X7911729Y-19563960D01*
X7911729Y-19563960D02*
X7930777Y-19573484D01*
X7930777Y-19573484D02*
X7968872Y-19573484D01*
X7968872Y-19573484D02*
X7987920Y-19563960D01*
X7987920Y-19563960D02*
X7997444Y-19554436D01*
X7997444Y-19554436D02*
X8006967Y-19535389D01*
X8006967Y-19535389D02*
X8006967Y-19497293D01*
X8006967Y-19497293D02*
X7997444Y-19478246D01*
X7997444Y-19478246D02*
X7987920Y-19468722D01*
X7987920Y-19468722D02*
X7968872Y-19459198D01*
X8178396Y-19440150D02*
X8178396Y-19573484D01*
X8130777Y-19363960D02*
X8083158Y-19506817D01*
X8083158Y-19506817D02*
X8206967Y-19506817D01*
X8273634Y-19373484D02*
X8273634Y-19411579D01*
X8349825Y-19373484D02*
X8349825Y-19411579D01*
X8645063Y-19649674D02*
X8635539Y-19640150D01*
X8635539Y-19640150D02*
X8616491Y-19611579D01*
X8616491Y-19611579D02*
X8606968Y-19592531D01*
X8606968Y-19592531D02*
X8597444Y-19563960D01*
X8597444Y-19563960D02*
X8587920Y-19516341D01*
X8587920Y-19516341D02*
X8587920Y-19478246D01*
X8587920Y-19478246D02*
X8597444Y-19430627D01*
X8597444Y-19430627D02*
X8606968Y-19402055D01*
X8606968Y-19402055D02*
X8616491Y-19383008D01*
X8616491Y-19383008D02*
X8635539Y-19354436D01*
X8635539Y-19354436D02*
X8645063Y-19344912D01*
X8702206Y-19373484D02*
X8826015Y-19373484D01*
X8826015Y-19373484D02*
X8759349Y-19449674D01*
X8759349Y-19449674D02*
X8787920Y-19449674D01*
X8787920Y-19449674D02*
X8806968Y-19459198D01*
X8806968Y-19459198D02*
X8816491Y-19468722D01*
X8816491Y-19468722D02*
X8826015Y-19487770D01*
X8826015Y-19487770D02*
X8826015Y-19535389D01*
X8826015Y-19535389D02*
X8816491Y-19554436D01*
X8816491Y-19554436D02*
X8806968Y-19563960D01*
X8806968Y-19563960D02*
X8787920Y-19573484D01*
X8787920Y-19573484D02*
X8730777Y-19573484D01*
X8730777Y-19573484D02*
X8711730Y-19563960D01*
X8711730Y-19563960D02*
X8702206Y-19554436D01*
X9064111Y-19573484D02*
X9064111Y-19373484D01*
X9149825Y-19573484D02*
X9149825Y-19468722D01*
X9149825Y-19468722D02*
X9140301Y-19449674D01*
X9140301Y-19449674D02*
X9121253Y-19440150D01*
X9121253Y-19440150D02*
X9092682Y-19440150D01*
X9092682Y-19440150D02*
X9073634Y-19449674D01*
X9073634Y-19449674D02*
X9064111Y-19459198D01*
X9273634Y-19573484D02*
X9254587Y-19563960D01*
X9254587Y-19563960D02*
X9245063Y-19554436D01*
X9245063Y-19554436D02*
X9235539Y-19535389D01*
X9235539Y-19535389D02*
X9235539Y-19478246D01*
X9235539Y-19478246D02*
X9245063Y-19459198D01*
X9245063Y-19459198D02*
X9254587Y-19449674D01*
X9254587Y-19449674D02*
X9273634Y-19440150D01*
X9273634Y-19440150D02*
X9302206Y-19440150D01*
X9302206Y-19440150D02*
X9321253Y-19449674D01*
X9321253Y-19449674D02*
X9330777Y-19459198D01*
X9330777Y-19459198D02*
X9340301Y-19478246D01*
X9340301Y-19478246D02*
X9340301Y-19535389D01*
X9340301Y-19535389D02*
X9330777Y-19554436D01*
X9330777Y-19554436D02*
X9321253Y-19563960D01*
X9321253Y-19563960D02*
X9302206Y-19573484D01*
X9302206Y-19573484D02*
X9273634Y-19573484D01*
X9454587Y-19573484D02*
X9435539Y-19563960D01*
X9435539Y-19563960D02*
X9426015Y-19544912D01*
X9426015Y-19544912D02*
X9426015Y-19373484D01*
X9606968Y-19563960D02*
X9587920Y-19573484D01*
X9587920Y-19573484D02*
X9549825Y-19573484D01*
X9549825Y-19573484D02*
X9530777Y-19563960D01*
X9530777Y-19563960D02*
X9521253Y-19544912D01*
X9521253Y-19544912D02*
X9521253Y-19468722D01*
X9521253Y-19468722D02*
X9530777Y-19449674D01*
X9530777Y-19449674D02*
X9549825Y-19440150D01*
X9549825Y-19440150D02*
X9587920Y-19440150D01*
X9587920Y-19440150D02*
X9606968Y-19449674D01*
X9606968Y-19449674D02*
X9616492Y-19468722D01*
X9616492Y-19468722D02*
X9616492Y-19487770D01*
X9616492Y-19487770D02*
X9521253Y-19506817D01*
X9692682Y-19563960D02*
X9711730Y-19573484D01*
X9711730Y-19573484D02*
X9749825Y-19573484D01*
X9749825Y-19573484D02*
X9768873Y-19563960D01*
X9768873Y-19563960D02*
X9778396Y-19544912D01*
X9778396Y-19544912D02*
X9778396Y-19535389D01*
X9778396Y-19535389D02*
X9768873Y-19516341D01*
X9768873Y-19516341D02*
X9749825Y-19506817D01*
X9749825Y-19506817D02*
X9721253Y-19506817D01*
X9721253Y-19506817D02*
X9702206Y-19497293D01*
X9702206Y-19497293D02*
X9692682Y-19478246D01*
X9692682Y-19478246D02*
X9692682Y-19468722D01*
X9692682Y-19468722D02*
X9702206Y-19449674D01*
X9702206Y-19449674D02*
X9721253Y-19440150D01*
X9721253Y-19440150D02*
X9749825Y-19440150D01*
X9749825Y-19440150D02*
X9768873Y-19449674D01*
X9845063Y-19649674D02*
X9854587Y-19640150D01*
X9854587Y-19640150D02*
X9873634Y-19611579D01*
X9873634Y-19611579D02*
X9883158Y-19592531D01*
X9883158Y-19592531D02*
X9892682Y-19563960D01*
X9892682Y-19563960D02*
X9902206Y-19516341D01*
X9902206Y-19516341D02*
X9902206Y-19478246D01*
X9902206Y-19478246D02*
X9892682Y-19430627D01*
X9892682Y-19430627D02*
X9883158Y-19402055D01*
X9883158Y-19402055D02*
X9873634Y-19383008D01*
X9873634Y-19383008D02*
X9854587Y-19354436D01*
X9854587Y-19354436D02*
X9845063Y-19344912D01*
M02*
