G04 #@! TF.GenerationSoftware,KiCad,Pcbnew,8.0.7*
G04 #@! TF.CreationDate,2025-01-27T21:14:37+01:00*
G04 #@! TF.ProjectId,Main,4d61696e-2e6b-4696-9361-645f70636258,rev?*
G04 #@! TF.SameCoordinates,Original*
G04 #@! TF.FileFunction,Soldermask,Bot*
G04 #@! TF.FilePolarity,Negative*
%FSLAX46Y46*%
G04 Gerber Fmt 4.6, Leading zero omitted, Abs format (unit mm)*
G04 Created by KiCad (PCBNEW 8.0.7) date 2025-01-27 21:14:37*
%MOMM*%
%LPD*%
G01*
G04 APERTURE LIST*
G04 Aperture macros list*
%AMRoundRect*
0 Rectangle with rounded corners*
0 $1 Rounding radius*
0 $2 $3 $4 $5 $6 $7 $8 $9 X,Y pos of 4 corners*
0 Add a 4 corners polygon primitive as box body*
4,1,4,$2,$3,$4,$5,$6,$7,$8,$9,$2,$3,0*
0 Add four circle primitives for the rounded corners*
1,1,$1+$1,$2,$3*
1,1,$1+$1,$4,$5*
1,1,$1+$1,$6,$7*
1,1,$1+$1,$8,$9*
0 Add four rect primitives between the rounded corners*
20,1,$1+$1,$2,$3,$4,$5,0*
20,1,$1+$1,$4,$5,$6,$7,0*
20,1,$1+$1,$6,$7,$8,$9,0*
20,1,$1+$1,$8,$9,$2,$3,0*%
G04 Aperture macros list end*
%ADD10C,2.100000*%
%ADD11RoundRect,0.050000X1.000000X1.000000X-1.000000X1.000000X-1.000000X-1.000000X1.000000X-1.000000X0*%
%ADD12RoundRect,0.050000X-1.000000X-1.000000X1.000000X-1.000000X1.000000X1.000000X-1.000000X1.000000X0*%
%ADD13C,1.000000*%
%ADD14C,3.100000*%
%ADD15RoundRect,0.050000X-1.000000X1.000000X-1.000000X-1.000000X1.000000X-1.000000X1.000000X1.000000X0*%
%ADD16C,4.100000*%
G04 APERTURE END LIST*
D10*
X93980000Y-129540000D03*
X241300000Y-86360000D03*
X248920000Y-86360000D03*
X299720000Y-83820000D03*
X299720000Y-91440000D03*
X55880000Y-129540000D03*
X175260000Y-78740000D03*
X175260000Y-86360000D03*
X71120000Y-157480000D03*
X299720000Y-129540000D03*
X299720000Y-121920000D03*
X302260000Y-78740000D03*
X302260000Y-86360000D03*
X248920000Y-88900000D03*
X241300000Y-88900000D03*
X261620000Y-109220000D03*
X261620000Y-116840000D03*
X177800000Y-83820000D03*
X177800000Y-91440000D03*
D11*
X139700000Y-78740000D03*
D10*
X139700000Y-81280000D03*
X139700000Y-83820000D03*
X185420000Y-91440000D03*
X185420000Y-83820000D03*
X213360000Y-83820000D03*
X213360000Y-91440000D03*
X251460000Y-63500000D03*
X251460000Y-71120000D03*
X312420000Y-63500000D03*
X312420000Y-71120000D03*
D12*
X264160000Y-111760000D03*
D10*
X264160000Y-109220000D03*
X264160000Y-106680000D03*
X71120000Y-149860000D03*
X312420000Y-154940000D03*
X312420000Y-147320000D03*
X137160000Y-149860000D03*
X137160000Y-142240000D03*
D12*
X165100000Y-139700000D03*
D10*
X165100000Y-137160000D03*
X165100000Y-134620000D03*
X350520000Y-83820000D03*
X350520000Y-91440000D03*
X256540000Y-104140000D03*
X264160000Y-104140000D03*
D12*
X137160000Y-134620000D03*
D10*
X137160000Y-132080000D03*
X137160000Y-129540000D03*
D11*
X226060000Y-78740000D03*
D10*
X226060000Y-81280000D03*
X226060000Y-83820000D03*
X93980000Y-142240000D03*
D12*
X332740000Y-149860000D03*
D10*
X332740000Y-147320000D03*
X332740000Y-144780000D03*
X254000000Y-149860000D03*
X254000000Y-142240000D03*
X55880000Y-124460000D03*
X127000000Y-83820000D03*
X127000000Y-91440000D03*
X350520000Y-129540000D03*
X350520000Y-121920000D03*
X55880000Y-134620000D03*
X330200000Y-99060000D03*
X332740000Y-99060000D03*
X335280000Y-99060000D03*
D12*
X337820000Y-99060000D03*
D10*
X340360000Y-99060000D03*
X342900000Y-99060000D03*
X345440000Y-99060000D03*
X330200000Y-116840000D03*
X332740000Y-116840000D03*
X335280000Y-116840000D03*
X337820000Y-116840000D03*
X340360000Y-116840000D03*
X342900000Y-116840000D03*
X345440000Y-116840000D03*
D12*
X170180000Y-129540000D03*
D10*
X170180000Y-127000000D03*
X170180000Y-124460000D03*
X320040000Y-86360000D03*
X312420000Y-86360000D03*
D11*
X261620000Y-66040000D03*
D10*
X264160000Y-66040000D03*
X266700000Y-66040000D03*
X269240000Y-66040000D03*
X271780000Y-66040000D03*
X274320000Y-66040000D03*
X276860000Y-66040000D03*
X279400000Y-66040000D03*
X281940000Y-66040000D03*
X284480000Y-66040000D03*
X287020000Y-66040000D03*
X289560000Y-66040000D03*
X292100000Y-66040000D03*
X294640000Y-66040000D03*
X294640000Y-58420000D03*
X292100000Y-58420000D03*
X289560000Y-58420000D03*
X287020000Y-58420000D03*
X284480000Y-58420000D03*
X281940000Y-58420000D03*
X279400000Y-58420000D03*
X276860000Y-58420000D03*
X274320000Y-58420000D03*
X271780000Y-58420000D03*
X269240000Y-58420000D03*
X266700000Y-58420000D03*
X264160000Y-58420000D03*
X261620000Y-58420000D03*
X340360000Y-149860000D03*
X340360000Y-142240000D03*
X327660000Y-86360000D03*
X335280000Y-86360000D03*
X71120000Y-167640000D03*
X226060000Y-154940000D03*
X226060000Y-147320000D03*
X60960000Y-106680000D03*
D11*
X162560000Y-73660000D03*
D10*
X162560000Y-76200000D03*
X162560000Y-78740000D03*
X71120000Y-144780000D03*
D13*
X312420000Y-107950000D03*
D10*
X129540000Y-96520000D03*
X137160000Y-96520000D03*
X259080000Y-63500000D03*
X259080000Y-71120000D03*
D11*
X246380000Y-68580000D03*
D10*
X246380000Y-71120000D03*
X246380000Y-73660000D03*
X213360000Y-129540000D03*
X213360000Y-121920000D03*
D12*
X340360000Y-134620000D03*
D10*
X340360000Y-132080000D03*
X340360000Y-129540000D03*
X215900000Y-78740000D03*
X215900000Y-86360000D03*
D11*
X170180000Y-83820000D03*
D10*
X170180000Y-86360000D03*
X170180000Y-88900000D03*
D14*
X55880000Y-138450000D03*
X55880000Y-145450000D03*
D10*
X53380000Y-139700000D03*
X53380000Y-144200000D03*
X177800000Y-129540000D03*
X177800000Y-121920000D03*
X279400000Y-162560000D03*
X340360000Y-68580000D03*
X340360000Y-76200000D03*
X363220000Y-162560000D03*
X172720000Y-73660000D03*
X172720000Y-81280000D03*
D12*
X299720000Y-152400000D03*
D10*
X297180000Y-152400000D03*
X294640000Y-152400000D03*
X292100000Y-152400000D03*
X289560000Y-152400000D03*
X287020000Y-152400000D03*
X284480000Y-152400000D03*
X281940000Y-152400000D03*
X279400000Y-152400000D03*
X276860000Y-152400000D03*
X274320000Y-152400000D03*
X271780000Y-152400000D03*
X269240000Y-152400000D03*
X266700000Y-152400000D03*
X266700000Y-160020000D03*
X269240000Y-160020000D03*
X271780000Y-160020000D03*
X274320000Y-160020000D03*
X276860000Y-160020000D03*
X279400000Y-160020000D03*
X281940000Y-160020000D03*
X284480000Y-160020000D03*
X287020000Y-160020000D03*
X289560000Y-160020000D03*
X292100000Y-160020000D03*
X294640000Y-160020000D03*
X297180000Y-160020000D03*
X299720000Y-160020000D03*
X302260000Y-134620000D03*
X302260000Y-127000000D03*
D11*
X345440000Y-88900000D03*
D10*
X345440000Y-91440000D03*
X345440000Y-93980000D03*
X165100000Y-154940000D03*
X165100000Y-147320000D03*
X327660000Y-96520000D03*
X335280000Y-96520000D03*
D11*
X314960000Y-73660000D03*
D10*
X314960000Y-76200000D03*
X314960000Y-78740000D03*
X83820000Y-106680000D03*
D12*
X226060000Y-139700000D03*
D10*
X226060000Y-137160000D03*
X226060000Y-134620000D03*
X129540000Y-162560000D03*
X220980000Y-63500000D03*
X220980000Y-71120000D03*
X134620000Y-144780000D03*
X134620000Y-137160000D03*
D14*
X55880000Y-151150000D03*
X55880000Y-158150000D03*
D10*
X53380000Y-152400000D03*
X53380000Y-156900000D03*
X264160000Y-129540000D03*
X264160000Y-121920000D03*
D11*
X312420000Y-78740000D03*
D10*
X312420000Y-81280000D03*
X312420000Y-83820000D03*
D11*
X63500000Y-160020000D03*
D10*
X63500000Y-162560000D03*
X63500000Y-165100000D03*
D12*
X317500000Y-149860000D03*
D10*
X317500000Y-147320000D03*
X317500000Y-144780000D03*
D12*
X213360000Y-111760000D03*
D10*
X213360000Y-109220000D03*
X213360000Y-106680000D03*
X96520000Y-106680000D03*
D12*
X307340000Y-129540000D03*
D10*
X307340000Y-127000000D03*
X307340000Y-124460000D03*
X154940000Y-96520000D03*
X162560000Y-96520000D03*
X93980000Y-154940000D03*
D11*
X254000000Y-78740000D03*
D10*
X254000000Y-81280000D03*
X254000000Y-83820000D03*
D12*
X312420000Y-139700000D03*
D10*
X312420000Y-137160000D03*
X312420000Y-134620000D03*
X71120000Y-162560000D03*
X259080000Y-73660000D03*
X259080000Y-81280000D03*
D12*
X337820000Y-139700000D03*
D10*
X337820000Y-137160000D03*
X337820000Y-134620000D03*
X276860000Y-162560000D03*
D11*
X332740000Y-68580000D03*
D10*
X332740000Y-71120000D03*
X332740000Y-73660000D03*
D13*
X364490000Y-46990000D03*
D10*
X154940000Y-86360000D03*
X162560000Y-86360000D03*
D13*
X139700000Y-107950000D03*
D10*
X223520000Y-149860000D03*
X223520000Y-142240000D03*
X246380000Y-104140000D03*
X254000000Y-104140000D03*
D11*
X142240000Y-73660000D03*
D10*
X142240000Y-76200000D03*
X142240000Y-78740000D03*
X129540000Y-78740000D03*
X129540000Y-86360000D03*
X337820000Y-63500000D03*
X337820000Y-71120000D03*
D11*
X111760000Y-160020000D03*
D10*
X114300000Y-160020000D03*
X116840000Y-160020000D03*
X119380000Y-160020000D03*
X121920000Y-160020000D03*
X124460000Y-160020000D03*
X127000000Y-160020000D03*
X129540000Y-160020000D03*
X132080000Y-160020000D03*
X132080000Y-152400000D03*
X129540000Y-152400000D03*
X127000000Y-152400000D03*
X124460000Y-152400000D03*
X121920000Y-152400000D03*
X119380000Y-152400000D03*
X116840000Y-152400000D03*
X114300000Y-152400000D03*
X111760000Y-152400000D03*
X71120000Y-177800000D03*
D14*
X55880000Y-163850000D03*
X55880000Y-170850000D03*
D10*
X53380000Y-165100000D03*
X53380000Y-169600000D03*
X132080000Y-139700000D03*
X132080000Y-132080000D03*
D13*
X231140000Y-165100000D03*
D12*
X167640000Y-134620000D03*
D10*
X167640000Y-132080000D03*
X167640000Y-129540000D03*
D11*
X177800000Y-160020000D03*
D10*
X180340000Y-160020000D03*
X182880000Y-160020000D03*
X185420000Y-160020000D03*
X187960000Y-160020000D03*
X190500000Y-160020000D03*
X193040000Y-160020000D03*
X195580000Y-160020000D03*
X198120000Y-160020000D03*
X200660000Y-160020000D03*
X203200000Y-160020000D03*
X205740000Y-160020000D03*
X208280000Y-160020000D03*
X210820000Y-160020000D03*
X210820000Y-152400000D03*
X208280000Y-152400000D03*
X205740000Y-152400000D03*
X203200000Y-152400000D03*
X200660000Y-152400000D03*
X198120000Y-152400000D03*
X195580000Y-152400000D03*
X193040000Y-152400000D03*
X190500000Y-152400000D03*
X187960000Y-152400000D03*
X185420000Y-152400000D03*
X182880000Y-152400000D03*
X180340000Y-152400000D03*
X177800000Y-152400000D03*
D12*
X259080000Y-124460000D03*
D10*
X259080000Y-121920000D03*
X259080000Y-119380000D03*
D12*
X218440000Y-124460000D03*
D10*
X218440000Y-121920000D03*
X218440000Y-119380000D03*
D11*
X317500000Y-68580000D03*
D10*
X317500000Y-71120000D03*
X317500000Y-73660000D03*
D11*
X340360000Y-78740000D03*
D10*
X340360000Y-81280000D03*
X340360000Y-83820000D03*
D12*
X162560000Y-144780000D03*
D10*
X162560000Y-142240000D03*
X162560000Y-139700000D03*
X312420000Y-88900000D03*
X320040000Y-88900000D03*
X281940000Y-55880000D03*
X233680000Y-86360000D03*
X226060000Y-86360000D03*
D12*
X223520000Y-134620000D03*
D10*
X223520000Y-132080000D03*
X223520000Y-129540000D03*
X243840000Y-99060000D03*
X246380000Y-99060000D03*
X248920000Y-99060000D03*
D12*
X251460000Y-99060000D03*
D10*
X254000000Y-99060000D03*
X256540000Y-99060000D03*
X259080000Y-99060000D03*
X243840000Y-116840000D03*
X246380000Y-116840000D03*
X248920000Y-116840000D03*
X251460000Y-116840000D03*
X254000000Y-116840000D03*
X256540000Y-116840000D03*
X259080000Y-116840000D03*
D11*
X132080000Y-88900000D03*
D10*
X132080000Y-91440000D03*
X132080000Y-93980000D03*
X292100000Y-91440000D03*
X292100000Y-83820000D03*
X60960000Y-175260000D03*
X71120000Y-152400000D03*
D12*
X256540000Y-129540000D03*
D10*
X256540000Y-127000000D03*
X256540000Y-124460000D03*
D12*
X248920000Y-144780000D03*
D10*
X248920000Y-142240000D03*
X248920000Y-139700000D03*
X215900000Y-134620000D03*
X215900000Y-127000000D03*
X200660000Y-149860000D03*
D12*
X231140000Y-149860000D03*
D10*
X231140000Y-147320000D03*
X231140000Y-144780000D03*
X175260000Y-134620000D03*
X175260000Y-127000000D03*
X73660000Y-129540000D03*
X73660000Y-132080000D03*
D15*
X73660000Y-134620000D03*
D10*
X73660000Y-137160000D03*
X73660000Y-139700000D03*
X73660000Y-142240000D03*
X73660000Y-144780000D03*
D15*
X73660000Y-147320000D03*
D10*
X73660000Y-149860000D03*
X73660000Y-152400000D03*
X73660000Y-154940000D03*
X73660000Y-157480000D03*
D15*
X73660000Y-160020000D03*
D10*
X73660000Y-162560000D03*
X73660000Y-165100000D03*
X73660000Y-167640000D03*
X73660000Y-170180000D03*
D15*
X73660000Y-172720000D03*
D10*
X73660000Y-175260000D03*
X73660000Y-177800000D03*
X91440000Y-177800000D03*
X91440000Y-175260000D03*
D15*
X91440000Y-172720000D03*
D10*
X91440000Y-170180000D03*
X91440000Y-167640000D03*
X91440000Y-165100000D03*
X91440000Y-162560000D03*
D15*
X91440000Y-160020000D03*
D10*
X91440000Y-157480000D03*
X91440000Y-154940000D03*
X91440000Y-152400000D03*
X91440000Y-149860000D03*
D15*
X91440000Y-147320000D03*
D10*
X91440000Y-144780000D03*
X91440000Y-142240000D03*
X91440000Y-139700000D03*
X91440000Y-137160000D03*
D15*
X91440000Y-134620000D03*
D10*
X91440000Y-132080000D03*
X91440000Y-129540000D03*
X261620000Y-78740000D03*
X261620000Y-86360000D03*
X335280000Y-88900000D03*
X327660000Y-88900000D03*
X139700000Y-154940000D03*
X139700000Y-147320000D03*
X345440000Y-139700000D03*
X345440000Y-132080000D03*
D12*
X314960000Y-144780000D03*
D10*
X314960000Y-142240000D03*
X314960000Y-139700000D03*
X307340000Y-144780000D03*
X307340000Y-137160000D03*
X93980000Y-137160000D03*
X172720000Y-139700000D03*
X172720000Y-132080000D03*
D11*
X220980000Y-83820000D03*
D10*
X220980000Y-86360000D03*
X220980000Y-88900000D03*
X119380000Y-91440000D03*
X119380000Y-83820000D03*
D11*
X144780000Y-68580000D03*
D10*
X144780000Y-71120000D03*
X144780000Y-73660000D03*
X337820000Y-154940000D03*
X337820000Y-147320000D03*
D13*
X251460000Y-107950000D03*
D10*
X231140000Y-104140000D03*
X223520000Y-104140000D03*
X160020000Y-104140000D03*
X167640000Y-104140000D03*
X66040000Y-175260000D03*
D13*
X165100000Y-107950000D03*
D10*
X167640000Y-149860000D03*
X167640000Y-142240000D03*
X127000000Y-129540000D03*
X127000000Y-121920000D03*
X165100000Y-63500000D03*
X165100000Y-71120000D03*
X215900000Y-109220000D03*
X215900000Y-116840000D03*
D12*
X220980000Y-129540000D03*
D10*
X220980000Y-127000000D03*
X220980000Y-124460000D03*
X284480000Y-55880000D03*
D11*
X259080000Y-88900000D03*
D10*
X259080000Y-91440000D03*
X259080000Y-93980000D03*
X147320000Y-86360000D03*
X139700000Y-86360000D03*
X264160000Y-83820000D03*
X264160000Y-91440000D03*
X218440000Y-99060000D03*
X220980000Y-99060000D03*
X223520000Y-99060000D03*
D12*
X226060000Y-99060000D03*
D10*
X228600000Y-99060000D03*
X231140000Y-99060000D03*
X233680000Y-99060000D03*
X218440000Y-116840000D03*
X220980000Y-116840000D03*
X223520000Y-116840000D03*
X226060000Y-116840000D03*
X228600000Y-116840000D03*
X231140000Y-116840000D03*
X233680000Y-116840000D03*
X309880000Y-68580000D03*
X309880000Y-76200000D03*
D12*
X139700000Y-139700000D03*
D10*
X139700000Y-137160000D03*
X139700000Y-134620000D03*
X167640000Y-68580000D03*
X167640000Y-76200000D03*
X93980000Y-172720000D03*
X226060000Y-63500000D03*
X226060000Y-71120000D03*
D15*
X320040000Y-50800000D03*
D10*
X320040000Y-53340000D03*
X320040000Y-55880000D03*
X320040000Y-58420000D03*
D15*
X281940000Y-104140000D03*
D10*
X281940000Y-106680000D03*
D15*
X281940000Y-109220000D03*
D10*
X281940000Y-111760000D03*
D12*
X134620000Y-129540000D03*
D10*
X134620000Y-127000000D03*
X134620000Y-124460000D03*
D13*
X226060000Y-107950000D03*
D10*
X76200000Y-114300000D03*
X307340000Y-104140000D03*
X299720000Y-104140000D03*
D12*
X342900000Y-129540000D03*
D10*
X342900000Y-127000000D03*
X342900000Y-124460000D03*
X304800000Y-139700000D03*
X304800000Y-132080000D03*
X358140000Y-91440000D03*
X358140000Y-83820000D03*
D16*
X63500000Y-116840000D03*
X60300000Y-121840000D03*
X57300000Y-116840000D03*
D10*
X200660000Y-55880000D03*
D12*
X177800000Y-111760000D03*
D10*
X177800000Y-109220000D03*
X177800000Y-106680000D03*
X302260000Y-96520000D03*
X309880000Y-96520000D03*
X261620000Y-134620000D03*
X261620000Y-127000000D03*
X71120000Y-154940000D03*
D12*
X299720000Y-111760000D03*
D10*
X299720000Y-109220000D03*
X299720000Y-106680000D03*
D11*
X307340000Y-83820000D03*
D10*
X307340000Y-86360000D03*
X307340000Y-88900000D03*
D12*
X160020000Y-149860000D03*
D10*
X160020000Y-147320000D03*
X160020000Y-144780000D03*
D12*
X172720000Y-124460000D03*
D10*
X172720000Y-121920000D03*
X172720000Y-119380000D03*
X139700000Y-63500000D03*
X139700000Y-71120000D03*
X71120000Y-165100000D03*
D13*
X246380000Y-58420000D03*
D12*
X218440000Y-58420000D03*
D10*
X215900000Y-58420000D03*
X213360000Y-58420000D03*
X210820000Y-58420000D03*
X208280000Y-58420000D03*
X205740000Y-58420000D03*
X203200000Y-58420000D03*
X200660000Y-58420000D03*
X198120000Y-58420000D03*
X198120000Y-66040000D03*
X200660000Y-66040000D03*
X203200000Y-66040000D03*
X205740000Y-66040000D03*
X208280000Y-66040000D03*
X210820000Y-66040000D03*
X213360000Y-66040000D03*
X215900000Y-66040000D03*
X218440000Y-66040000D03*
X226060000Y-88900000D03*
X233680000Y-88900000D03*
X66040000Y-106680000D03*
X215900000Y-96520000D03*
X223520000Y-96520000D03*
D11*
X248920000Y-73660000D03*
D10*
X248920000Y-76200000D03*
X248920000Y-78740000D03*
X309880000Y-149860000D03*
X309880000Y-142240000D03*
X342900000Y-144780000D03*
X342900000Y-137160000D03*
D11*
X228600000Y-73660000D03*
D10*
X228600000Y-76200000D03*
X228600000Y-78740000D03*
D12*
X144780000Y-149860000D03*
D10*
X144780000Y-147320000D03*
X144780000Y-144780000D03*
D12*
X228600000Y-144780000D03*
D10*
X228600000Y-142240000D03*
X228600000Y-139700000D03*
D12*
X142240000Y-144780000D03*
D10*
X142240000Y-142240000D03*
X142240000Y-139700000D03*
X223520000Y-68580000D03*
X223520000Y-76200000D03*
X259080000Y-139700000D03*
X259080000Y-132080000D03*
D13*
X364490000Y-176530000D03*
D10*
X307340000Y-73660000D03*
X307340000Y-81280000D03*
D13*
X54610000Y-176530000D03*
D15*
X154940000Y-55880000D03*
D10*
X154940000Y-58420000D03*
X154940000Y-60960000D03*
X154940000Y-63500000D03*
X93980000Y-157480000D03*
D13*
X102870000Y-46990000D03*
D10*
X137160000Y-68580000D03*
X137160000Y-76200000D03*
D11*
X218440000Y-88900000D03*
D10*
X218440000Y-91440000D03*
X218440000Y-93980000D03*
X93980000Y-124460000D03*
X81280000Y-111760000D03*
X81280000Y-124460000D03*
X83820000Y-124460000D03*
X96520000Y-124460000D03*
X93980000Y-111760000D03*
X96520000Y-111760000D03*
X256540000Y-144780000D03*
X256540000Y-137160000D03*
D11*
X345440000Y-160020000D03*
D10*
X347980000Y-160020000D03*
X350520000Y-160020000D03*
X353060000Y-160020000D03*
X355600000Y-160020000D03*
X358140000Y-160020000D03*
X360680000Y-160020000D03*
X363220000Y-160020000D03*
X365760000Y-160020000D03*
X365760000Y-152400000D03*
X363220000Y-152400000D03*
X360680000Y-152400000D03*
X358140000Y-152400000D03*
X355600000Y-152400000D03*
X353060000Y-152400000D03*
X350520000Y-152400000D03*
X347980000Y-152400000D03*
X345440000Y-152400000D03*
X220980000Y-144780000D03*
X220980000Y-137160000D03*
D11*
X172720000Y-88900000D03*
D10*
X172720000Y-91440000D03*
X172720000Y-93980000D03*
X345440000Y-73660000D03*
X345440000Y-81280000D03*
D11*
X231140000Y-68580000D03*
D10*
X231140000Y-71120000D03*
X231140000Y-73660000D03*
X218440000Y-139700000D03*
X218440000Y-132080000D03*
X198120000Y-149860000D03*
D11*
X256540000Y-83820000D03*
D10*
X256540000Y-86360000D03*
X256540000Y-88900000D03*
X241300000Y-96520000D03*
X248920000Y-96520000D03*
D12*
X309880000Y-134620000D03*
D10*
X309880000Y-132080000D03*
X309880000Y-129540000D03*
X71120000Y-106680000D03*
D12*
X251460000Y-139700000D03*
D10*
X251460000Y-137160000D03*
X251460000Y-134620000D03*
X304800000Y-99060000D03*
X307340000Y-99060000D03*
X309880000Y-99060000D03*
D12*
X312420000Y-99060000D03*
D10*
X314960000Y-99060000D03*
X317500000Y-99060000D03*
X320040000Y-99060000D03*
X304800000Y-116840000D03*
X307340000Y-116840000D03*
X309880000Y-116840000D03*
X312420000Y-116840000D03*
X314960000Y-116840000D03*
X317500000Y-116840000D03*
X320040000Y-116840000D03*
X66040000Y-170180000D03*
X66040000Y-162560000D03*
X93980000Y-144780000D03*
X251460000Y-154940000D03*
X251460000Y-147320000D03*
X93980000Y-160020000D03*
X134620000Y-73660000D03*
X134620000Y-81280000D03*
X317500000Y-104140000D03*
X309880000Y-104140000D03*
X139700000Y-88900000D03*
X147320000Y-88900000D03*
D11*
X335280000Y-73660000D03*
D10*
X335280000Y-76200000D03*
X335280000Y-78740000D03*
X93980000Y-134620000D03*
X157480000Y-99060000D03*
X160020000Y-99060000D03*
X162560000Y-99060000D03*
D12*
X165100000Y-99060000D03*
D10*
X167640000Y-99060000D03*
X170180000Y-99060000D03*
X172720000Y-99060000D03*
X157480000Y-116840000D03*
X160020000Y-116840000D03*
X162560000Y-116840000D03*
X165100000Y-116840000D03*
X167640000Y-116840000D03*
X170180000Y-116840000D03*
X172720000Y-116840000D03*
X71120000Y-132080000D03*
X93980000Y-147320000D03*
X220980000Y-73660000D03*
X220980000Y-81280000D03*
D12*
X132080000Y-124460000D03*
D10*
X132080000Y-121920000D03*
X132080000Y-119380000D03*
D11*
X342900000Y-83820000D03*
D10*
X342900000Y-86360000D03*
X342900000Y-88900000D03*
D12*
X345440000Y-124460000D03*
D10*
X345440000Y-121920000D03*
X345440000Y-119380000D03*
D12*
X254000000Y-134620000D03*
D10*
X254000000Y-132080000D03*
X254000000Y-129540000D03*
X116840000Y-165100000D03*
X119380000Y-165100000D03*
X121920000Y-165100000D03*
D12*
X124460000Y-165100000D03*
D10*
X170180000Y-104140000D03*
X177800000Y-104140000D03*
X162560000Y-88900000D03*
X154940000Y-88900000D03*
X129540000Y-134620000D03*
X129540000Y-127000000D03*
D11*
X160020000Y-68580000D03*
D10*
X160020000Y-71120000D03*
X160020000Y-73660000D03*
X175260000Y-109220000D03*
X175260000Y-116840000D03*
X71120000Y-175260000D03*
D12*
X246380000Y-149860000D03*
D10*
X246380000Y-147320000D03*
X246380000Y-144780000D03*
D11*
X134620000Y-83820000D03*
D10*
X134620000Y-86360000D03*
X134620000Y-88900000D03*
D11*
X304800000Y-88900000D03*
D10*
X304800000Y-91440000D03*
X304800000Y-93980000D03*
D13*
X54610000Y-105410000D03*
D12*
X304800000Y-124460000D03*
D10*
X304800000Y-121920000D03*
X304800000Y-119380000D03*
X220980000Y-104140000D03*
X213360000Y-104140000D03*
X91440000Y-106680000D03*
D13*
X337820000Y-107950000D03*
D10*
X86360000Y-114300000D03*
X88900000Y-114300000D03*
X91440000Y-114300000D03*
D15*
X195580000Y-104140000D03*
D10*
X195580000Y-106680000D03*
D15*
X195580000Y-109220000D03*
D10*
X195580000Y-111760000D03*
X254000000Y-68580000D03*
X254000000Y-76200000D03*
X132080000Y-99060000D03*
X134620000Y-99060000D03*
X137160000Y-99060000D03*
D12*
X139700000Y-99060000D03*
D10*
X142240000Y-99060000D03*
X144780000Y-99060000D03*
X147320000Y-99060000D03*
X132080000Y-116840000D03*
X134620000Y-116840000D03*
X137160000Y-116840000D03*
X139700000Y-116840000D03*
X142240000Y-116840000D03*
X144780000Y-116840000D03*
X147320000Y-116840000D03*
X170180000Y-144780000D03*
X170180000Y-137160000D03*
D12*
X335280000Y-144780000D03*
D10*
X335280000Y-142240000D03*
X335280000Y-139700000D03*
X302260000Y-109220000D03*
X302260000Y-116840000D03*
X78740000Y-106680000D03*
X347980000Y-134620000D03*
X347980000Y-127000000D03*
D11*
X167640000Y-78740000D03*
D10*
X167640000Y-81280000D03*
X167640000Y-83820000D03*
X347980000Y-78740000D03*
X347980000Y-86360000D03*
M02*
